<?xml version="1.0" standalone="no"?>
<!DOCTYPE svg PUBLIC "-//W3C//DTD SVG 1.1//EN" "http://www.w3.org/Graphics/SVG/1.1/DTD/svg11.dtd" >
<svg>
<metadata>
Created by FontForge 20090914 at Wed Nov 25 14:27:58 2020
 By www-data
 Rodrigo Araya Salas www.rodrigotypo.com
</metadata>
<defs>
<font id="Tobi" horiz-adv-x="689" >
  <font-face 
    font-family="Tobi"
    font-weight="400"
    font-stretch="normal"
    units-per-em="1000"
    panose-1="0 0 0 0 0 0 0 0 0 0"
    ascent="773"
    descent="-227"
    x-height="489"
    cap-height="700.001"
    bbox="-54.998 -294 1149 960"
    underline-thickness="50"
    underline-position="-100"
    unicode-range="U+000D-U+FB02"
  />
<missing-glyph horiz-adv-x="250" 
 />
    <glyph glyph-name="ff" unicode="ff" horiz-adv-x="764" 
d="M607 311c0 -33.333 0.333008 -85.166 1 -155.499s1 -122.166 1 -155.499h-162v15c0 73.333 1.33301 172.666 4 297.999h-196l3 -313h-163c0 25.333 1.66699 129.666 5 312.999h-75l2 113h71c0 96 13.5 165 40.5 207s69.5 63 127.5 63c32 0 77.333 -6.66699 136 -20
l-19 -141c-22.667 9.33301 -40.667 14 -54 14c-50 0 -75 -32.667 -75 -98c0 -12 0.333008 -20.333 1 -25h194c0 96 13.667 165 41 207s70 63 128 63c34.667 0 79.667 -6.66699 135 -20l-19 -141c-22.667 9.33301 -40.667 14 -54 14c-49.333 0 -74 -32.667 -74 -98
c0 -12 0.333008 -20.333 1 -25h111l-3 -114c-4 -2 -21 -2.66699 -51 -2s-49 1 -57 1z" />
    <glyph glyph-name="l_l" unicode="ll" horiz-adv-x="489" 
d="M20 684l173 13.999l2.5 -193.5c1 -79 1.5 -130.833 1.5 -155.5l4 -349h-152l-14 342l-10 235c-2 24.667 -3.66699 60.334 -5 107.001zM298 683.999l168 14.001l-2.5 -113.5c-1 -46.333 -2 -87.333 -3 -123s-1.83301 -68.167 -2.5 -97.5
c-5.33301 -179.333 -8 -300 -8 -362c0 -1.33301 -51 -2 -153 -2v241c0 47.333 0.166992 114.666 0.5 201.999s0.5 144 0.5 170v71z" />
    <glyph glyph-name="tt" unicode="tt" horiz-adv-x="924" 
d="M524 261v64.001c-10 -0.666992 -29.667 -1 -59 -1c-20 0 -49.333 0.166992 -88 0.5s-64.667 0.5 -78 0.5h-25v-81c0 -65.333 21.333 -98 64 -98c21.333 0 41.5 6.5 60.5 19.5s31.667 24 38 33s11.166 16.833 14.499 23.5l34 -81
c14.667 -35.333 23.334 -56.666 26.001 -63.999l-19 -18c-2.66699 -3.33301 -11.834 -11 -27.501 -23s-30.167 -20.833 -43.5 -26.5s-31.166 -11.334 -53.499 -17.001s-45.5 -8.5 -69.5 -8.5c-115.333 0 -173 92.333 -173 277c0 6.66699 0.166992 17.667 0.5 33
s0.5 25.666 0.5 30.999c-8 0 -43 -1 -105 -3c0 0.666992 -0.5 23.667 -1.5 69s-1.5 69 -1.5 71l108 -8c0 14 -0.166992 34.333 -0.5 61s-0.5 46.667 -0.5 60l153 16c-0.666992 -18.667 -1 -63.667 -1 -135c18 0 48.667 -0.333008 92 -1s80 -1 110 -1h45v121l153 16
c-1.33301 -37.333 -2 -82.333 -2 -135c17.333 0.666992 39.833 1.66699 67.5 3s50.5 2.33301 68.5 3l27 2v-22c0 -4 0.166992 -11.5 0.5 -22.5s0.5 -19.5 0.5 -25.5v-69h-98h-68c0 -8.66699 -0.166992 -22 -0.5 -40s-0.5 -31.667 -0.5 -41c0 -65.333 21.667 -98 65 -98
c21.333 0 41.5 6.5 60.5 19.5s31.667 24 38 33s11.166 16.833 14.499 23.5c2.66699 -7.33301 11.334 -28.666 26.001 -63.999l34 -81l-18 -18c-3.33301 -3.33301 -12.833 -11 -28.5 -23s-30.167 -20.833 -43.5 -26.5s-31.333 -11.334 -54 -17.001s-46 -8.5 -70 -8.5
c-114.667 0 -172 92.333 -172 277z" />
    <glyph glyph-name=".notdef" horiz-adv-x="250" 
 />
    <glyph glyph-name="NULL" horiz-adv-x="0" 
 />
    <glyph glyph-name="NULL" horiz-adv-x="0" 
 />
    <glyph glyph-name="CR" unicode="&#xd;" horiz-adv-x="250" 
 />
    <glyph glyph-name="space" unicode=" " horiz-adv-x="250" 
 />
    <glyph glyph-name="exclam" unicode="!" horiz-adv-x="238" 
d="M183 223c-6 0 -29 -1.33301 -69 -4s-63.333 -4 -70 -4c0 28 -0.333008 113.667 -1 257s-1 229 -1 257h158l-8 -215c-6 -136.667 -9 -233.667 -9 -291zM190 87c0 -23.333 -7.16699 -42 -21.5 -56s-32.5 -21 -54.5 -21c-21.333 0 -39.166 7 -53.499 21
s-21.5 32.667 -21.5 56c0 24 7.16699 43 21.5 57s32.166 21 53.499 21c22 0 40.167 -7 54.5 -21s21.5 -33 21.5 -57z" />
    <glyph glyph-name="quotedbl" unicode="&#x22;" horiz-adv-x="357" 
d="M37 539v220l102 4v-224h-102zM217 539v220l102 4v-224h-102z" />
    <glyph glyph-name="numbersign" unicode="#" horiz-adv-x="648" 
d="M61 246l123 3l20 140l-130 -1l10 89l132 2l28 201l86 -9l-29 -191l136 3l27 194l86 -5l-29 -188l101 2l-9 -92l-106 -1l-21 -138l110 3l-11 -89l-113 -2l-25 -167l-76 5l22 161l-141 -3l-25 -163l-76 5l21 157l-118 -2zM287 390l-22 -139l140 3l19 138z" />
    <glyph glyph-name="dollar" unicode="$" horiz-adv-x="487" 
d="M291 588l21.001 -8.00293c50.667 -12.667 90.334 -38.334 119.001 -77.001l-77 -68c-6 7.33301 -14 15.333 -24 24s-24.5 17.5 -43.5 26.5s-37.833 13.5 -56.5 13.5c-40 0 -60 -11 -60 -33c0 -17.333 6 -29.833 18 -37.5s33.333 -15.167 64 -22.5
c1.33301 -0.666992 12.333 -3.5 33 -8.5s38.334 -10.5 53.001 -16.5s31.5 -14.333 50.5 -25s33.833 -24.667 44.5 -42s16 -37 16 -59c0 -42.667 -14 -74.667 -42 -96s-64 -34.333 -108 -39l8 -95c-11.333 0 -28 -0.166992 -50 -0.5s-39 -0.5 -51 -0.5
c1.33301 11.333 2.66602 28 3.99902 50l3 49c-9.33301 1.33301 -18.5 3 -27.5 5s-17 4 -24 6s-14.167 4.83301 -21.5 8.5s-13.333 6.83398 -18 9.50098s-10 6.16699 -16 10.5l-14 10c-3.33301 2.33301 -7.33301 5.83301 -12 10.5l-10 10c-2 2 -5 5.33301 -9 10
s-6.33301 7.33398 -7 8.00098l-12 14l95 46c10.667 -12.667 27.834 -25.167 51.501 -37.5s48.5 -18.5 74.5 -18.5c18.667 0 33.167 3.33301 43.5 10s16.5 14.334 18.5 23.001c0 21.333 -26.333 38.666 -79 51.999c-0.666992 0 -6.16699 1 -16.5 3
s-18.666 3.83301 -24.999 5.5s-15.833 4.33398 -28.5 8.00098s-23.334 7.5 -32.001 11.5l-30.5 14.5c-11.667 5.66699 -21.5 12.334 -29.5 20.001s-15.833 16 -23.5 25s-13.334 19.5 -17.001 31.5s-5.5 24.667 -5.5 38c0 43.333 15.167 76.5 45.5 99.5
s68.166 35.833 113.499 38.5l-9 80l99 15c1.33301 -12.667 2.66602 -46.667 3.99902 -102z" />
    <glyph glyph-name="percent" unicode="%" horiz-adv-x="705" 
d="M416 700h109l-247 -700h-105zM21 526c0 37.333 12 69 36 95s53 39 87 39s63 -13 87 -39s36 -57.667 36 -95s-12 -69 -36 -95s-53 -39 -87 -39s-63 13 -87 39s-36 57.667 -36 95zM86 524c0 -18 5.66699 -33.333 17 -46s25.333 -19 42 -19c17.333 0 31.833 6.33301 43.5 19
s17.5 28 17.5 46c0 18.667 -5.83301 34.5 -17.5 47.5s-26.167 19.5 -43.5 19.5c-16.667 0 -30.667 -6.5 -42 -19.5s-17 -28.833 -17 -47.5zM433 186c0 37.333 12 69 36 95s53.333 39 88 39c34 0 63 -13 87 -39s36 -57.667 36 -95s-12 -69 -36 -95s-53 -39 -87 -39
c-34.667 0 -64 13 -88 39s-36 57.667 -36 95zM499 184c0 -18 5.66699 -33.333 17 -46s25.333 -19 42 -19c17.333 0 31.666 6.33301 42.999 19s17 28 17 46c0 18.667 -5.66699 34.5 -17 47.5s-25.666 19.5 -42.999 19.5c-16.667 0 -30.667 -6.5 -42 -19.5
s-17 -28.833 -17 -47.5z" />
    <glyph glyph-name="ampersand" unicode="&#x26;" horiz-adv-x="657" 
d="M102 536c0 48 19.002 88.6689 57.002 122.002s83.667 50 137 50c54 0 100.167 -16.667 138.5 -50s57.5 -74 57.5 -122c0 -32.667 -13.167 -67 -39.5 -103s-60.166 -67 -101.499 -93c20 -24.667 56 -60.334 108 -107.001c6.66699 7.33301 19.5 30.666 38.5 69.999
s28.833 59.333 29.5 60c2 -1.33301 22.333 -19 61 -53s58.667 -51.333 60 -52l-87 -106c8.66699 -7.33301 23 -17.666 43 -30.999s32.333 -22 37 -26l-101 -103c-4.66699 4 -14.5 14.833 -29.5 32.5s-25.5 29.5 -31.5 35.5c-72.667 -54.667 -151.334 -82 -236.001 -82
c-60.667 0 -113.834 17.333 -159.501 52s-68.5 82 -68.5 142c0 24.667 5.16699 48 15.5 70s23.666 40.833 39.999 56.5s31.833 28.667 46.5 39s29.667 19.166 45 26.499c-40 60.667 -60 118 -60 172zM231.002 284.002c-52.667 -34.667 -78.998 -70.333 -78.998 -107
c0 -29.333 9.66699 -52.5 29 -69.5s43.666 -25.5 72.999 -25.5c43.333 0 87.666 19 132.999 57c-54 44 -106 92.333 -156 145zM280.004 420.003c61.333 50.667 92 92 92 124c0 21.333 -6.66699 38.166 -20 50.499s-31 18.5 -53 18.5c-20.667 0 -37.5 -7.16699 -50.5 -21.5
s-19.5 -32.166 -19.5 -53.499c0 -32 17 -71.333 51 -118z" />
    <glyph glyph-name="quotesingle" unicode="'" horiz-adv-x="177" 
d="M37 539v220l102 4v-224h-102z" />
    <glyph glyph-name="parenleft" unicode="(" horiz-adv-x="253" 
d="M37 259c0 150.667 35.667 297.667 107 441h100c-66 -125.333 -99 -272.333 -99 -441c0 -86.667 6.5 -161 19.5 -223s33.833 -124.667 62.5 -188h-99c-60.667 126 -91 263 -91 411z" />
    <glyph glyph-name="parenright" unicode=")" horiz-adv-x="253" 
d="M244 259c0 -148 -30.333 -285 -91 -411h-99c29.333 62 50.333 124 63 186s19 137 19 225c0 168.667 -33 315.667 -99 441h100c71.333 -143.333 107 -290.333 107 -441z" />
    <glyph glyph-name="asterisk" unicode="*" horiz-adv-x="380" 
d="M173 566l-16.001 121.004h9c6 0 15 0.166992 27 0.5s22.333 0.5 31 0.5h13c-0.666992 0 -1.66699 -4.33301 -3 -13s-2.83301 -19.334 -4.5 -32.001l-5 -37.5c-1.66699 -12.333 -3.16699 -22.833 -4.5 -31.5l-1 -13c56 46.667 90.333 74.334 103 83.001
c8.66699 -22.667 20.667 -46.334 36 -71.001l-110 -41l106 -47c-2 -2 -9.5 -11.333 -22.5 -28s-20.167 -25.667 -21.5 -27c0 0.666992 -7.66699 6.66699 -23 18l-46 34c-15.333 11.333 -23 16.666 -23 15.999l6 -31l12 -61l5 -30h-4c-6.66699 0 -20.667 -0.666992 -42 -2
s-33 -2 -35 -2c0.666992 0.666992 3.66699 21.667 9 63s8 62.666 8 63.999l-48 -36c-6.66699 -4.66699 -14.5 -10.5 -23.5 -17.5l-21 -16c-5 -3.66699 -7.83301 -5.83398 -8.5 -6.50098c-2.66699 4 -8.66699 14.667 -18 32s-14.666 28 -15.999 32
c2 0.666992 6.83301 2.66699 14.5 6l25.5 11l26 12l23 10l9 4l-7 4c-4.66699 2 -11.5 5.16699 -20.5 9.5s-17.167 8.5 -24.5 12.5c-20.667 10 -37.667 18.667 -51 26l19 31c12 20 18.333 30 19 30l25 -19l48 -39z" />
    <glyph glyph-name="plus" unicode="+" horiz-adv-x="426" 
d="M25 361l0.000976562 70.001l147 5l-3 145h89c-0.666992 -32 -1 -79.667 -1 -143l144 5v-83h-144c-0.666992 -32.667 -1 -81.334 -1 -146.001h-78l-4 146c-17.333 0 -42.333 0.166992 -75 0.5s-57.334 0.5 -74.001 0.5z" />
    <glyph glyph-name="comma" unicode="," horiz-adv-x="211" 
d="M106 166c28 0 48.3281 -11.166 60.9951 -33.499s19 -50.166 19 -83.499c0 -44.667 -13 -80.334 -39 -107.001s-57.333 -40 -94 -40c-18.667 0 -28 10.333 -28 31c0 8.66699 3.16699 14.5 9.5 17.5s15.833 6 28.5 9s23.334 7.5 32.001 13.5
c11.333 7.33301 21.333 23.666 30 48.999c-9.33301 -1.33301 -15.666 -2 -18.999 -2c-19.333 0 -34.666 5.33301 -45.999 16s-18.166 20.667 -20.499 30s-3.5 18.333 -3.5 27c0 6.66699 0.833008 13.5 2.5 20.5s4.83398 14.833 9.50098 23.5s12 15.667 22 21s22 8 36 8z" />
    <glyph glyph-name="hyphen" unicode="-" horiz-adv-x="427" 
d="M25 245v82l377 11v-93h-377z" />
    <glyph glyph-name="period" unicode="." horiz-adv-x="201" 
d="M176 77c0 -23.333 -7.16699 -42 -21.5 -56s-32.5 -21 -54.5 -21c-21.333 0 -39.166 7 -53.499 21s-21.5 32.667 -21.5 56c0 24 7.16699 43 21.5 57s32.166 21 53.499 21c22 0 40.167 -7 54.5 -21s21.5 -33 21.5 -57z" />
    <glyph glyph-name="slash" unicode="/" horiz-adv-x="407" 
d="M280 700h110l-248 -700h-105z" />
    <glyph glyph-name="zero" unicode="0" horiz-adv-x="645" 
d="M606 339c0 -34 -3.33203 -67.333 -9.99902 -100s-17.5 -64.5 -32.5 -95.5s-33.333 -58.167 -55 -81.5s-48.834 -42 -81.501 -56s-68.667 -21 -108 -21c-60 0 -111.5 17 -154.5 51s-74.5 77.667 -94.5 131s-30.667 113 -32 179c0 111.333 26.667 199.833 80 265.5
s123.333 98.5 210 98.5s154.667 -34.167 204 -102.5s74 -157.833 74 -268.5zM466.001 334c0 70.667 -12.665 127.167 -37.998 169.5s-58.666 63.5 -99.999 63.5c-43.333 0 -78.333 -19.5 -105 -58.5s-40.334 -92.167 -41.001 -159.5
c1.33301 -64 14.666 -116.667 39.999 -158s59.333 -62 102 -62s76.667 18.833 102 56.5s38.666 87.167 39.999 148.5z" />
    <glyph glyph-name="one" unicode="1" horiz-adv-x="430" 
d="M34 665c8 1.33301 65.332 6.83301 171.999 16.5s164 15.167 172 16.5c-2 -462 -3 -694.667 -3 -698h-171c10.667 336.667 16.334 512.334 17.001 527.001c-11.333 -3.33301 -44.5 -10 -99.5 -20s-84.5 -15.333 -88.5 -16c0 14 0.166992 42.667 0.5 86
s0.5 72.666 0.5 87.999z" />
    <glyph glyph-name="two" unicode="2" horiz-adv-x="580" 
d="M37 573c18.667 37.333 49.832 68.334 93.499 93.001s88.834 37 135.501 37c61.333 0 113.333 -22.333 156 -67s64 -109.667 64 -195c0 -40 -6.83301 -78 -20.5 -114s-30 -65.5 -49 -88.5s-38.167 -43 -57.5 -60s-35.833 -29.5 -49.5 -37.5s-20.5 -11.667 -20.5 -11
c21.333 3.33301 108 12 260 26v-156h-494l-8 132c62.667 17.333 125.834 57.666 189.501 120.999s95.5 125 95.5 185c0 29.333 -7.16699 52.5 -21.5 69.5s-32.5 25.5 -54.5 25.5c-29.333 0 -59.333 -13.333 -90 -40s-50.667 -52 -60 -76c-0.666992 0 -11.834 26 -33.501 78
s-33.5 78 -35.5 78z" />
    <glyph glyph-name="three" unicode="3" horiz-adv-x="544" 
d="M343 201c0 46 -33.333 69.002 -100 69.002c-9.33301 0 -19.666 -0.666992 -30.999 -2l-18 -3v155l17 -2c11.333 -2 21.666 -3 30.999 -3c25.333 0 48.5 6 69.5 18s31.5 29.333 31.5 52c0 45.333 -22 68 -66 68c-27.333 0 -57.833 -9.83301 -91.5 -29.5
s-59.167 -42.834 -76.5 -69.501l-72 147c78 68 162.667 102 254 102c68.667 0 121.667 -18.333 159 -55s56 -83.334 56 -140.001c0 -70 -31.333 -125.333 -94 -166c62.667 -39.333 94 -94 94 -164c0 -55.333 -18.333 -101.5 -55 -138.5s-88.667 -55.5 -156 -55.5
c-56.667 0 -108.667 11.667 -156 35s-81.333 45.333 -102 66l72 146c16.667 -26 42 -48.833 76 -68.5s64.667 -29.5 92 -29.5c18.667 0 34.167 5.66699 46.5 17s18.833 28.333 19.5 51z" />
    <glyph glyph-name="four" unicode="4" horiz-adv-x="539" 
d="M38 229l105 458.999l147 -54l-76 -279c15.333 2 60 3 134 3c0 70 0.666992 177 2 321l150 18l2 -697h-164c4 102.667 6 177.334 6 224.001c-184 0 -286 1.66699 -306 5z" />
    <glyph glyph-name="five" unicode="5" horiz-adv-x="535" 
d="M110 292l-27.999 -7.00391c0 -1.33301 1.33301 25.334 4 80.001s5.33398 115 8.00098 181s4 111.333 4 136c84 0 207.333 5.33301 370 16v-163c-4.66699 0 -42.334 1.83301 -113.001 5.5s-113.334 5.5 -128.001 5.5l-2 -129c34.667 6 58.334 9 71.001 9
c59.333 0 107.666 -15.333 144.999 -46s56 -80 56 -148c0 -81.333 -22.5 -142.666 -67.5 -183.999s-104.5 -62.666 -178.5 -63.999c-35.333 0 -70.833 3.33301 -106.5 10s-62.5 13 -80.5 19s-27 9.33301 -27 10c10 64.667 19.667 116.334 29 155.001
c7.33301 -3.33301 25 -10 53 -20c38.667 -13.333 77.667 -20 117 -20c66 0 99 23 99 69c0 62 -49 93 -147 93c-26.667 0 -52.667 -2.66699 -78 -8z" />
    <glyph glyph-name="six" unicode="6" horiz-adv-x="556" 
d="M186 385l17.999 10.999c11.333 8 28.5 15.833 51.5 23.5s48.5 11.5 76.5 11.5c22.667 0 44.334 -3.16699 65.001 -9.5s40.5 -16.333 59.5 -30s34.167 -34 45.5 -61s17 -59.167 17 -96.5c0 -75.333 -19.667 -135.833 -59 -181.5s-92.666 -68.5 -159.999 -68.5
c-36 0 -68.833 5.83301 -98.5 17.5s-57.334 30.334 -83.001 56.001s-45.667 62.667 -60 111s-21.5 105.833 -21.5 172.5c0 115.333 27.5 204.5 82.5 267.5s128.833 94.5 221.5 94.5c44 0 97.333 -15.667 160 -47l-47 -145c-34.667 29.333 -78.667 44 -132 44
c-42 -2.66699 -76.167 -21 -102.5 -55s-37.5 -72.333 -33.5 -115zM190.999 263.999c0 -9.33301 1.8291 -20.667 5.49609 -34s9.33398 -27.833 17.001 -43.5s19.334 -28.834 35.001 -39.501s33.834 -16 54.501 -16c24 0 43.5 8 58.5 24s22.5 36 22.5 60
c0 22.667 -7.66699 41.834 -23 57.501s-35.666 23.5 -60.999 23.5c-10.667 0 -22.667 -1.66699 -36 -5s-24.5 -6.83301 -33.5 -10.5l-26 -11c-8.33301 -3.66699 -12.833 -5.5 -13.5 -5.5z" />
    <glyph glyph-name="seven" unicode="7" horiz-adv-x="511" 
d="M39 693c12.667 0 87.332 -1.99902 223.999 -5.99902s211.334 -6 224.001 -6v-144l-249 -537l-151 58c6 13.333 28.167 57.666 66.5 132.999l116 227.5l62.5 122.5l-295 -11c0 2 0.333008 29.5 1 82.5s1 79.833 1 80.5z" />
    <glyph glyph-name="eight" unicode="8" horiz-adv-x="570" 
d="M537 196v-10.0039c0 -66.667 -24.5 -117.334 -73.5 -152.001s-110.167 -52 -183.5 -52c-72 0 -132.167 17.333 -180.5 52s-72.5 85.334 -72.5 152.001c0 36.667 7.33301 70.667 22 102s36.667 56.333 66 75c-34.667 31.333 -52 74 -52 128c0 62 20.667 112.833 62 152.5
s92 59.5 152 59.5s110.667 -19.833 152 -59.5s62 -90.5 62 -152.5c0 -21.333 -5.33301 -44.666 -16 -69.999s-24.667 -46.666 -42 -63.999c33.333 -21.333 59 -44.166 77 -68.499s27 -55.166 27 -92.499zM357 510.996c0 20 -7.16602 37.001 -21.499 51.001
s-35.5 21 -63.5 21c-22 0 -39.833 -7.33301 -53.5 -22s-20.5 -32 -20.5 -52c0 -16.667 9.16699 -33.834 27.5 -51.501s44.166 -33.167 77.499 -46.5c36 30.667 54 64 54 100zM372.001 186.997c0 6 -1 11.668 -3 17.001s-5.66699 10.666 -11 15.999s-10.333 9.83301 -15 13.5
s-12.167 8.16699 -22.5 13.5l-25.5 13l-31.5 15l-33.5 16c-20 -14 -35 -27.333 -45 -40s-15 -27.667 -15 -45c0 -30 10.333 -52.5 31 -67.5s47 -22.5 79 -22.5c26.667 0 48.667 6.33301 66 19s26 30 26 52z" />
    <glyph glyph-name="nine" unicode="9" horiz-adv-x="556" 
d="M370 290l0.000976562 10.998l-18 -11c-11.333 -8 -28.5 -15.833 -51.5 -23.5s-48.5 -11.5 -76.5 -11.5c-22.667 0 -44.334 3.16699 -65.001 9.5s-40.5 16.5 -59.5 30.5s-34.167 34.5 -45.5 61.5s-17 59.167 -17 96.5c0 74.667 19.667 135 59 181s92.666 69 159.999 69
c36 0 68.833 -5.66699 98.5 -17s57.334 -30 83.001 -56s45.667 -63.167 60 -111.5s21.5 -106.166 21.5 -173.499c0 -115.333 -27.5 -204.333 -82.5 -267s-128.833 -94 -221.5 -94c-52 0 -105.333 15.667 -160 47l47 145c35.333 -30 79.333 -45 132 -45
c43.333 2 76.833 19.333 100.5 52s35.5 68.334 35.5 107.001zM365.001 422.998c0 14 -2.83301 30.3311 -8.5 48.998s-17.667 37.334 -36 56.001s-40.833 28 -67.5 28c-24 0 -43.5 -8 -58.5 -24s-22.5 -36 -22.5 -60c0 -23.333 7.5 -42.666 22.5 -57.999s35.5 -23 61.5 -23
c10.667 0 22.667 1.66699 36 5s24.5 6.83301 33.5 10.5l26 11c8.33301 3.66699 12.833 5.5 13.5 5.5z" />
    <glyph glyph-name="colon" unicode=":" horiz-adv-x="229" 
d="M196 372c0 -23.333 -7.16699 -42 -21.5 -56s-32.5 -21 -54.5 -21c-21.333 0 -39.166 7 -53.499 21s-21.5 32.667 -21.5 56c0 24 7.16699 43 21.5 57s32.166 21 53.499 21c22 0 40.167 -7 54.5 -21s21.5 -33 21.5 -57zM196 77c0 -23.333 -7.16699 -42 -21.5 -56
s-32.5 -21 -54.5 -21c-21.333 0 -39.166 7 -53.499 21s-21.5 32.667 -21.5 56c0 24 7.16699 43 21.5 57s32.166 21 53.499 21c22 0 40.167 -7 54.5 -21s21.5 -33 21.5 -57z" />
    <glyph glyph-name="semicolon" unicode=";" horiz-adv-x="239" 
d="M126 166c28 0 48.3281 -11.166 60.9951 -33.499s19 -50.166 19 -83.499c0 -44.667 -13 -80.334 -39 -107.001s-57.333 -40 -94 -40c-18.667 0 -28 10.333 -28 31c0 8.66699 3.16699 14.5 9.5 17.5s15.833 6 28.5 9s23.334 7.5 32.001 13.5
c11.333 7.33301 21.333 23.666 30 48.999c-9.33301 -1.33301 -15.666 -2 -18.999 -2c-19.333 0 -34.666 5.33301 -45.999 16s-18.166 20.667 -20.499 30s-3.5 18.333 -3.5 27c0 6.66699 0.833008 13.5 2.5 20.5s4.83398 14.833 9.50098 23.5s12 15.667 22 21s22 8 36 8z
M203.995 372.001c0 -23.333 -7.16699 -42 -21.5 -56s-32.5 -21 -54.5 -21c-21.333 0 -39.166 7 -53.499 21s-21.5 32.667 -21.5 56c0 24 7.16699 43 21.5 57s32.166 21 53.499 21c22 0 40.167 -7 54.5 -21s21.5 -33 21.5 -57z" />
    <glyph glyph-name="less" unicode="&#x3c;" horiz-adv-x="447" 
d="M409 25l-372 188v92l372 187v-101l-260 -133v-1l260 -129v-103z" />
    <glyph glyph-name="equal" unicode="=" horiz-adv-x="427" 
d="M25 354v82l377 11v-93h-377zM25 194v82l377 11v-93h-377z" />
    <glyph glyph-name="greater" unicode="&#x3e;" horiz-adv-x="447" 
d="M409 213l-372 -188v103l260 129v1l-260 133v101l372 -187v-92z" />
    <glyph glyph-name="question" unicode="?" horiz-adv-x="390" 
d="M62 483l-42.001 157.996c65.333 45.333 129.333 68 192 68c48 0 87.667 -17.833 119 -53.5s47 -85.5 47 -149.5c0 -32.667 -5.5 -63.334 -16.5 -92.001s-24.167 -52.667 -39.5 -72s-33 -37.166 -53 -53.499s-37.667 -28.666 -53 -36.999s-30 -15.833 -44 -22.5l-22 -10
c0 0.666992 -4.5 16.5 -13.5 47.5s-13.5 46.833 -13.5 47.5c0.666992 0.666992 5.83398 4.66699 15.501 12s18 14.5 25 21.5s15.167 15.667 24.5 26s16.5 21.833 21.5 34.5s7.5 25.334 7.5 38.001c0 29.333 -9 50.833 -27 64.5s-39.167 17.834 -63.5 12.501
s-45.833 -18.666 -64.5 -39.999zM248.999 86.9961c0 -23.333 -7.16699 -42 -21.5 -56s-32.5 -21 -54.5 -21c-21.333 0 -39.166 7 -53.499 21s-21.5 32.667 -21.5 56c0 24 7.16699 43 21.5 57s32.166 21 53.499 21c22 0 40.167 -7 54.5 -21s21.5 -33 21.5 -57z" />
    <glyph glyph-name="at" unicode="@" horiz-adv-x="590" 
d="M335 171l-0.000976562 73.0029c-15.333 -25.333 -37.666 -38 -66.999 -38c-30 0 -56 12.833 -78 38.5s-33 56.5 -33 92.5c0 37.333 10.833 68.5 32.5 93.5s47.834 37.5 78.501 37.5s55 -12.333 73 -37h5c0.666992 13.333 1 27.666 1 42.999
c7.33301 1.33301 19 2.5 35 3.5s28 2.16699 36 3.5v-145v-72c0.666992 -0.666992 4 -1 10 -1c16 0 29.833 12.167 41.5 36.5s17.5 54.166 17.5 89.499c0 63.333 -12.5 112.333 -37.5 147s-62.5 52 -112.5 52c-64 0 -117.833 -28.167 -161.5 -84.5
s-65.5 -127.833 -65.5 -214.5c0 -50.667 11.5 -95.5 34.5 -134.5s56.833 -58.5 101.5 -58.5c4 0 10.333 0.666992 19 2s17.334 2 26.001 2v-99c-10 -6 -31.333 -9 -64 -9c-58.667 0 -106.834 26.833 -144.501 80.5s-56.5 123.167 -56.5 208.5
c0 114.667 32.167 211.5 96.5 290.5s138.5 118.5 222.5 118.5c73.333 0 128.333 -25.333 165 -76s55 -118.334 55 -203.001c0 -74 -13.833 -132.5 -41.5 -175.5s-60.834 -64.5 -99.501 -64.5h-89zM227.999 335.003c0 -16 4.5 -29.5 13.5 -40.5s20.167 -16.5 33.5 -16.5
c14.667 0 26.834 5.5 36.501 16.5s14.5 24.5 14.5 40.5c0 16.667 -4.83301 30.834 -14.5 42.501s-21.834 17.5 -36.501 17.5c-13.333 0 -24.5 -5.83301 -33.5 -17.5s-13.5 -25.834 -13.5 -42.501z" />
    <glyph glyph-name="A" unicode="A" horiz-adv-x="609" 
d="M420 706c0 -1.33301 27.167 -116.834 81.5 -346.501s81.833 -345.167 82.5 -346.5l-164 -25c0 0.666992 -2.5 12.834 -7.5 36.501l-16 77.5c-5.66699 28 -9.16699 46.667 -10.5 56c-18.667 0.666992 -38 0.666992 -58 0s-42.667 -1.5 -68 -2.5s-40.333 -1.5 -45 -1.5
l-37 -165l-153 30c1.33301 5.33301 17.333 63.333 48 174l91 327l45 161c4 0 39.333 4.16699 106 12.5s101.667 12.5 105 12.5zM234 297.999l137.001 -10c-4 14.667 -12.833 54.834 -26.5 120.501s-22.834 113.167 -27.501 142.5c-9.33301 -1.33301 -15.333 -2 -18 -2
c-12 -54.667 -33.667 -138.334 -65 -251.001z" />
    <glyph glyph-name="B" unicode="B" horiz-adv-x="597" 
d="M51 60l-26 619.998c4 2.66699 14.167 6 30.5 10s43 8.16699 80 12.5s77.167 6.5 120.5 6.5c34 0 65.5 -2.66699 94.5 -8s58.667 -14.833 89 -28.5s54.333 -34.834 72 -63.501s26.5 -63.667 26.5 -105c0 -63.333 -23.667 -109.666 -71 -138.999
c-0.666992 -0.666992 -1.33398 -1 -2.00098 -1c3.33301 0 8.33301 -0.833008 15 -2.5s15.5 -5.66699 26.5 -12s21.167 -14.666 30.5 -24.999s17.5 -25.666 24.5 -45.999s10.5 -43.5 10.5 -69.5c0 -34.667 -6.33301 -65.5 -19 -92.5s-29 -48.5 -49 -64.5
s-44.167 -29.167 -72.5 -39.5s-56.666 -17.333 -84.999 -21s-58.5 -5.5 -90.5 -5.5c-70 0 -137.667 7.66699 -203 23c0 3.33301 -0.666992 20.333 -2 51zM179 573.998l10 -178c32 -2.66699 53.333 -4 64 -4c90 0 135 32 135 96v7c-6 56.667 -52.667 85 -140 85
c-2 0 -25 -2 -69 -6zM197 301.998l10 -179c40 -3.33301 63 -5 69 -5c89.333 0 134 31 134 93c0 64 -48 96 -144 96c-16 0 -39 -1.66699 -69 -5z" />
    <glyph glyph-name="C" unicode="C" horiz-adv-x="581" 
d="M316 709c22.667 0 44.332 -1.16797 64.999 -3.50098s38.667 -5.66602 54 -9.99902s29.5 -8.83301 42.5 -13.5s24.167 -9.66699 33.5 -15s17 -10 23 -14l16 -11l6 -6c0 -0.666992 -4.33301 -26.167 -13 -76.5s-13 -76.166 -13 -77.499l-15.5 7.5
c-9 4.33301 -16.667 7.83301 -23 10.5l-27 11c-11.667 4.66699 -22.5 8.5 -32.5 11.5l-33 9.5c-12 3.33301 -24.167 5.83301 -36.5 7.5s-24.166 2.5 -35.499 2.5c-46.667 0 -84.167 -17.167 -112.5 -51.5s-42.5 -83.5 -42.5 -147.5c0 -51.333 13.333 -96.333 40 -135
s65.667 -58 117 -58c11.333 0 23 0.833008 35 2.5s24 4 36 7s23 6 33 9s20.667 7 32 12s20 8.66699 26 11s13.833 5.66602 23.5 9.99902s14.834 6.83301 15.501 7.5c0 -2 4.33301 -27.833 13 -77.5s13 -74.834 13 -75.501l-6 -6c-4.66699 -3.33301 -10 -6.83301 -16 -10.5
l-23 -13.5c-9.33301 -5.33301 -20.5 -10.333 -33.5 -15s-27.167 -9.16699 -42.5 -13.5s-33.333 -7.66602 -54 -9.99902s-42.334 -3.5 -65.001 -3.5c-86 0 -155 30.5 -207 91.5s-80 150.5 -84 268.5c1.33301 118 28.833 208.333 82.5 271s123.167 94 208.5 94z" />
    <glyph glyph-name="D" unicode="D" horiz-adv-x="570" 
d="M25 688c30.667 12.667 80.665 18.999 149.998 18.999c114.667 0 205.334 -31.5 272.001 -94.5s101.334 -148.833 104.001 -257.5c0 -117.333 -37 -206.166 -111 -266.499s-176.667 -90.5 -308 -90.5c-52 0 -87 3.33301 -105 10c0 8 -0.5 64.333 -1.5 169
s-1.66699 197 -2 277s0.166992 158 1.5 234zM181.998 537.999h-11c1.33301 -44 2.66602 -166.667 3.99902 -368c18 0.666992 34.833 2.16699 50.5 4.5s34.667 7.33301 57 15s41.5 17.5 57.5 29.5s30 29.5 42 52.5s18.333 49.833 19 80.5
c-0.666992 30.667 -6.5 57.5 -17.5 80.5s-24.167 41 -39.5 54s-33.166 23.5 -53.499 31.5s-39 13.333 -56 16s-34.5 4 -52.5 4z" />
    <glyph glyph-name="E" unicode="E" horiz-adv-x="476" 
d="M441 0l-416.002 0.000976562l10 330c6.66699 221.333 10 333.666 10 336.999c4.66699 0 31.167 2.16699 79.5 6.5l171.5 15c66 5.66699 117.667 9.5 155 11.5c-1.33301 -10.667 -6.66602 -68.667 -15.999 -174l-246 8c0 -20 0.166992 -49.667 0.5 -89s0.5 -69 0.5 -89
l157 18c0 -56 -0.333008 -98.333 -1 -127l-156 1v-128l258 31c-1.33301 -17.333 -2.66602 -42.5 -3.99902 -75.5z" />
    <glyph glyph-name="F" unicode="F" horiz-adv-x="476" 
d="M45 667c4.66699 0 31.167 2.16895 79.5 6.50195l171.5 15c66 5.66699 117.667 9.5 155 11.5l-16 -176c-96 3.33301 -178 6.66602 -246 9.99902c0 -20 0.166992 -49.667 0.5 -89s0.5 -69 0.5 -89l157 18c0 -56 -0.333008 -98.333 -1 -127l-156 1l2 -248h-167l10 330
c6.66699 221.333 10 333.666 10 336.999z" />
    <glyph glyph-name="G" unicode="G" horiz-adv-x="617" 
d="M288 272c0 20.667 3.33398 58.6621 10.001 113.995c28.667 1.33301 77.334 2.66602 146.001 3.99902s118 2.33301 148 3l-6 -319c-0.666992 0 -4.66699 -2.5 -12 -7.5s-13.666 -9.16699 -18.999 -12.5s-13.666 -8.16602 -24.999 -14.499s-22 -11.666 -32 -15.999
s-22.5 -9.16602 -37.5 -14.499s-29.833 -9.66602 -44.5 -12.999s-31.334 -6.16602 -50.001 -8.49902s-37.334 -3.5 -56.001 -3.5c-87.333 0 -156.333 33.333 -207 100s-76.667 153.334 -78 260.001c1.33301 117.333 28.666 207.5 81.999 270.5s121.666 94.5 204.999 94.5
c48 0 93.667 -5.5 137 -16.5s73.666 -21.167 90.999 -30.5s28 -16 32 -20c0 -1.33301 -4.16699 -27 -12.5 -77s-12.5 -75.667 -12.5 -77c-80 36.667 -148.333 55 -205 55c-54 0 -96.167 -20.333 -126.5 -61s-45.5 -90.667 -45.5 -150c0 -63.333 14.667 -112.166 44 -146.499
s68 -51.5 116 -51.5c36 0 76.333 9.66699 121 29c0.666992 11.333 1.33398 24.166 2.00098 38.499s1.16699 28.5 1.5 42.5s0.5 23.667 0.5 29c-8 0 -37 -0.166992 -87 -0.5s-76.667 -0.5 -80 -0.5z" />
    <glyph glyph-name="H" unicode="H" horiz-adv-x="596" 
d="M58 683l33.998 2.99902l71 8c24 2.66699 36.667 4 38 4c0 -161.333 0.333008 -282.333 1 -363c86.667 1.33301 153.334 3 200.001 5c0.666992 20.667 1.5 48.334 2.5 83.001s2 64.667 3 90s1.83301 47.333 2.5 66l3 105l9 1c6.66699 0.666992 16 1.5 28 2.5
s23.333 2.16699 34 3.5l72 7l2 -698h-166l2 57c2.66699 86.667 4 131.667 4 135c-16.667 1.33301 -49.167 2.66602 -97.5 3.99902s-81.166 2.33301 -98.499 3c0.666992 -45.333 1 -111.666 1 -198.999h-166l10 335c1.33301 48 3 101.167 5 159.5s3.5 103.833 4.5 136.5
s1.5 50 1.5 52z" />
    <glyph glyph-name="I" unicode="I" horiz-adv-x="238" 
d="M57 684l9 1c6.66699 0.666992 16 1.5 28 2.5s23 2.16699 33 3.5l71 7l3 -698h-164l10 339c6.66699 226.667 10 341.667 10 345z" />
    <glyph glyph-name="J" unicode="J" horiz-adv-x="603" 
d="M301 -14c-43.333 0 -81.666 7.16602 -114.999 21.499s-60 32.833 -80 55.5s-36.333 50 -49 82s-21.334 63.833 -26.001 95.5s-7 65.834 -7 102.501c0 19.333 1 38.666 3 57.999c102 -23.333 158.667 -36.666 170 -39.999c0 -147.333 36.667 -221 110 -221
c64 0 98 70 102 210c0 82 -11 193.333 -33 334l168 14c0 -2 1.33301 -9.66699 4 -23s5 -26 7 -38s4.5 -28.333 7.5 -49s5.5 -40.5 7.5 -59.5s3.66699 -40.667 5 -65s2 -47.833 2 -70.5c0 -54 -4 -103.167 -12 -147.5s-21.667 -87 -41 -128s-47.833 -73.167 -85.5 -96.5
s-83.5 -35 -137.5 -35z" />
    <glyph glyph-name="K" unicode="K" horiz-adv-x="558" 
d="M45 684c-0.666992 0 11.334 1.16504 36.001 3.49805l75.5 7c25.667 2.33301 38.834 3.5 39.501 3.5l-7 -349c8 18 19.5 42 34.5 72l46 90.5l44.5 86.5l36 69l15 28l146 -60l-205 -307c1.33301 -1.33301 7.16602 -6.66602 17.499 -15.999l38.5 -34l50.5 -44l54 -47.5
l48 -43l34.5 -31.5c8.66699 -8 12.667 -12 12 -12c-2.66699 0 -16.5 -8.5 -41.5 -25.5l-74.5 -51.5c-24.667 -17.333 -37.334 -26 -38.001 -26l-79 102l-119 154c-2.66699 -11.333 -6 -27.166 -10 -47.499s-7 -34.833 -9 -43.5l1 -162h-166l10 336
c6.66699 222.667 10 338.667 10 348z" />
    <glyph glyph-name="L" unicode="L" horiz-adv-x="418" 
d="M45 684l70 7.00195c46.667 4.66699 70.667 7 72 7l3 -579l203 32c-1.33301 -16.667 -3 -41.834 -5 -75.501s-3.66699 -58.834 -5 -75.501h-358c0 18.667 3.33301 132.667 10 342s10 323.333 10 342z" />
    <glyph glyph-name="M" unicode="M" horiz-adv-x="676" 
d="M196 388l-13.9971 -388h-157c1.33301 10.667 9.66602 119.334 24.999 326.001s25 328 29 364l124 8l70 -160c44 -100.667 68.333 -158 73 -172c6.66699 13.333 31.334 71.333 74.001 174l64 151c0.666992 0 20.167 1.33301 58.5 4s58.5 4 60.5 4
c1.33301 -13.333 9.16602 -129 23.499 -347s22.5 -335.333 24.5 -352h-160c-10 182.667 -15 311.667 -15 387c-4 -10 -27.833 -60 -71.5 -150s-67.834 -141.667 -72.501 -155c-4.66699 7.33301 -14.834 29.166 -30.501 65.499l-55.5 128z" />
    <glyph glyph-name="N" unicode="N" horiz-adv-x="554" 
d="M514 0l-147 0.00195312c-22 34.667 -86.667 159 -194 373l-3 -373h-145l29 684l123 14l199 -443v63c0 43.333 -0.5 113.166 -1.5 209.499s-1.5 148.5 -1.5 156.5l156 14c0 -15.333 -2.5 -132.833 -7.5 -352.5s-7.5 -334.834 -7.5 -345.501z" />
    <glyph glyph-name="O" unicode="O" 
d="M664 341c-2 -64 -14.168 -122 -36.501 -174s-57.833 -95.167 -106.5 -129.5s-106.667 -51.5 -174 -51.5c-32 0 -62.667 3.83301 -92 11.5s-58 20.667 -86 39s-52.333 41.333 -73 69s-37.5 62.667 -50.5 105s-19.833 89.833 -20.5 142.5
c1.33301 64 11.333 119.833 30 167.5s43.834 84.834 75.501 111.501s66 46.167 103 58.5s77.167 18.5 120.5 18.5c39.333 0 76.333 -6.33301 111 -19s67.5 -32.5 98.5 -59.5s55.5 -65.333 73.5 -115s27 -107.834 27 -174.501zM347.999 135c51.333 0 91 21 119 63
s42 91 42 147c0 76 -15.333 131.167 -46 165.5s-68 51.5 -112 51.5c-47.333 0 -86.833 -16.833 -118.5 -50.5s-48.167 -86.5 -49.5 -158.5c1.33301 -74.667 17.833 -129.667 49.5 -165s70.167 -53 115.5 -53z" />
    <glyph glyph-name="P" unicode="P" horiz-adv-x="560" 
d="M39 656c0.666992 0 6.16699 2.33301 16.5 7s22.166 9.33398 35.499 14.001s29.333 9.66699 48 15s40.834 9.66602 66.501 12.999s51.834 5 78.501 5c79.333 0 141 -20.833 185 -62.5s66 -102.167 66 -181.5c0 -38 -7.33301 -73 -22 -105s-33.834 -58.833 -57.501 -80.5
s-51.167 -39.834 -82.5 -54.501s-63.333 -25.334 -96 -32.001s-65.667 -10 -99 -10v-4v-17c0 -7.33301 0.166992 -17.166 0.5 -29.499s0.5 -30.166 0.5 -53.499v-80h-154c0 36.667 2.16699 155.167 6.5 355.5s6.83301 300.5 7.5 300.5zM171 552v-237
c60 0 110.5 12.833 151.5 38.5s61.5 64.167 61.5 115.5c0 36.667 -11 63.167 -33 79.5s-49 24.5 -81 24.5c-36.667 0 -69.667 -7 -99 -21z" />
    <glyph glyph-name="Q" unicode="Q" 
d="M664 341c0 -81.333 -17.6689 -150.835 -53.002 -208.502s-77.333 -95.834 -126 -114.501c6 -15.333 16 -42.333 30 -81l29 -79c-21.333 -7.33301 -68.666 -22.666 -141.999 -45.999c-10.667 38.667 -25.334 97.667 -44.001 177c-1.33301 0 -3.5 -0.166992 -6.5 -0.5
s-5.16699 -0.5 -6.5 -0.5c-39.333 0 -76.833 6.33301 -112.5 19s-69.167 32.334 -100.5 59.001s-56.666 64.667 -75.999 114s-29.666 107 -30.999 173c1.33301 63.333 11.333 118.833 30 166.5s43.667 84.834 75 111.501s65.333 46.334 102 59.001s76 19 118 19
c40.667 0 78.5 -6.16699 113.5 -18.5s68.167 -31.833 99.5 -58.5s56 -64.834 74 -114.501s27 -108.5 27 -176.5zM470.998 200.998c25.333 34 38 82 38 144c0 76 -15.333 131.167 -46 165.5s-68 51.5 -112 51.5c-47.333 0 -86.833 -16.833 -118.5 -50.5
s-48.167 -86.5 -49.5 -158.5c1.33301 -74.667 17.833 -129.667 49.5 -165s70.167 -53 115.5 -53c50 0 91 22 123 66z" />
    <glyph glyph-name="R" unicode="R" horiz-adv-x="575" 
d="M39 656c1.33301 0.666992 6.99805 3.16602 16.998 7.49902s21.5 9 34.5 14s28.833 10 47.5 15s40.834 9.16699 66.501 12.5s52.167 5 79.5 5c79.333 0 141 -20.833 185 -62.5s66 -102.167 66 -181.5c0 -53.333 -14.667 -101.666 -44 -144.999
s-68.666 -76.333 -117.999 -99l175 -123l-125 -126c-2 0.666992 -12.667 13.5 -32 38.5l-70.5 90c-27.667 35 -50.167 61.5 -67.5 79.5c-24 -7.33301 -49 -9.33301 -75 -6c0 -16 0.166992 -45.833 0.5 -89.5s0.5 -72.167 0.5 -85.5h-154c0 36.667 2.16699 155.167 6.5 355.5
s6.83301 300.5 7.5 300.5zM170.998 544.999v-236.999c54 -2.66699 103 8.66602 147 33.999s66 65.333 66 120c0 36.667 -11 63.167 -33 79.5s-49 24.5 -81 24.5c-36.667 0 -69.667 -7 -99 -21z" />
    <glyph glyph-name="S" unicode="S" horiz-adv-x="594" 
d="M265 709c50.667 0 104.499 -14.166 161.499 -42.499s94.833 -59.833 113.5 -94.5l-96 -96c-16 22 -39.167 43 -69.5 63s-62.5 30 -96.5 30c-59.333 0 -89 -18 -89 -54c0 -19.333 7 -36.333 21 -51s32.167 -26.667 54.5 -36s47 -18.5 74 -27.5s54 -19 81 -30
s51.667 -23.667 74 -38s40.5 -33.5 54.5 -57.5s21 -52 21 -84c0 -48.667 -12.167 -89 -36.5 -121s-53.833 -54 -88.5 -66s-73.334 -18 -116.001 -18c-35.333 0 -68.5 4.33301 -99.5 13s-56.333 18.834 -76 30.501s-37.667 25.167 -54 40.5s-28 27.666 -35 36.999
s-12.833 18.333 -17.5 27c4.66699 2 9.33398 5 14.001 9s15.334 12.667 32.001 26l60 47c14.667 -20 37.5 -40.167 68.5 -60.5s63.167 -30.5 96.5 -30.5c60.667 0 91 18 91 54c0 24.667 -12.667 45.667 -38 63c-17.333 8 -40.5 17 -69.5 27l-77.5 26.5
c-22.667 7.66699 -47 17.834 -73 30.501s-47.5 26.167 -64.5 40.5s-31.333 33.166 -43 56.499s-17.5 49.666 -17.5 78.999c0 48 12.167 88.167 36.5 120.5s53.833 54.833 88.5 67.5s73 19 115 19z" />
    <glyph glyph-name="T" unicode="T" horiz-adv-x="553" 
d="M31 692c4.66699 0 48.1689 0.666016 130.502 1.99902s163.666 2.83301 243.999 4.5s120.833 2.5 121.5 2.5c0 -1.33301 0.166992 -28 0.5 -80s0.5 -78.333 0.5 -79c-4 0 -65.333 -3 -184 -9l3 -533h-168c1.33301 86 3 150.333 5 193l10 332
c-26 0 -52.333 -0.666992 -79 -2s-48.334 -2.66602 -65.001 -3.99902l-25 -2c0 2 1 31.333 3 88s3 85.667 3 87z" />
    <glyph glyph-name="U" unicode="U" horiz-adv-x="600" 
d="M294 -15c-50.667 0.666992 -94.168 11.168 -130.501 31.501s-64.166 47.833 -83.499 82.5s-33.333 71.834 -42 111.501s-13 83.167 -13 130.5c0 37.333 2.33301 77.666 7 120.999s9.5 78.666 14.5 105.999s10.5 55.333 16.5 84s9 43.334 9 44.001l166 2
c-29.333 -150.667 -44 -267.667 -44 -351c0 -138.667 35.667 -208 107 -208s107 74.333 107 223c0 31.333 -1.66699 66.333 -5 105s-6.83301 71 -10.5 97l-12 83c-4.33301 29.333 -6.83301 45.333 -7.5 48c88 1.33301 142.333 2.66602 163 3.99902
c25.333 -101.333 38 -207 38 -317c0 -262 -93.333 -394.333 -280 -397z" />
    <glyph glyph-name="V" unicode="V" horiz-adv-x="613" 
d="M194 -1c0 -0.666992 -12.502 49.667 -37.502 151l-79 321.5l-52.5 213.5l174 21c4 -19.333 21 -106.166 51 -260.499l54 -276.5c40.667 212 76.334 384 107.001 516l177 21c-19.333 -80.667 -52.333 -206.334 -99 -377.001l-88 -329
c-1.33301 -0 -35.666 -0.166992 -102.999 -0.5s-102 -0.5 -104 -0.5z" />
    <glyph glyph-name="W" unicode="W" horiz-adv-x="792" 
d="M319 0h-170c-4 27.333 -25 144.333 -63 351s-58.333 318 -61 334l169 22c4 -28 11 -82.5 21 -163.5l28 -226c8.66699 -69.667 14.667 -111.834 18 -126.501c2 12 15.667 82.5 41 211.5s40.333 206.167 45 231.5l104 6l93 -399c0.666992 6 10.667 72.167 30 198.5
l38 245.5l155 22l-65.5 -359c-39 -214 -59.833 -330 -62.5 -348h-157c-56 196.667 -87 308.334 -93 335.001z" />
    <glyph glyph-name="X" unicode="X" horiz-adv-x="652" 
d="M196 708c2.66699 -5.33301 15 -28.5 37 -69.5l64 -118c20.667 -37.667 33.334 -60.167 38.001 -67.5l125 255l140 -79l-88.5 -128c-47.667 -68.667 -76.834 -111.667 -87.501 -129l106.5 -154.5c63 -91 94.833 -136.5 95.5 -136.5c0 -2.66699 -54 -31 -162 -85l-135 280
l-134 -280l-170 68l211 297l-191 281c0.666992 0 13.667 5.83301 39 17.5l75 34c24.667 11 37 15.833 37 14.5z" />
    <glyph glyph-name="Y" unicode="Y" horiz-adv-x="649" 
d="M25 626c2 2 31.834 14.9971 89.501 38.9971s87.5 36 89.5 36c10 -26.667 33.167 -79.5 69.5 -158.5s59.166 -130.5 68.499 -154.5c8 24 26.833 75.167 56.5 153.5s48.834 131.5 57.501 159.5l168 -56l-207 -368l10 -277h-179c0 6.66699 0.5 18.334 1.5 35.001
s2.16699 37.834 3.5 63.501s2.33301 46.5 3 62.5l6 125l-115 164c-78.667 108.667 -119.334 167.334 -122.001 176.001z" />
    <glyph glyph-name="Z" unicode="Z" horiz-adv-x="530" 
d="M500 700c0 -11.333 0.665039 -28 1.99805 -50l3 -49c-9.33301 -13.333 -26 -39.5 -50 -78.5l-103 -166.5l-140 -221c9.33301 0 60 6 152 18s139 18 141 18c0 -57.333 -2.66699 -114.333 -8 -171h-467c-2 22.667 -3.66699 56.334 -5 101.001l293 465
c-9.33301 0 -60.166 -6.83301 -152.499 -20.5s-139.166 -20.5 -140.499 -20.5c0 1.33301 1.33301 30.666 4 87.999s4 86.333 4 87h467z" />
    <glyph glyph-name="bracketleft" unicode="[" horiz-adv-x="318" 
d="M154 -58l126 12v-106l-226 1l-17 851l243 -2v-107l-131 11z" />
    <glyph glyph-name="backslash" unicode="\" horiz-adv-x="407" 
d="M37 700l110 -0.000976562c4 -13.333 85 -246.666 243 -699.999h-105z" />
    <glyph glyph-name="bracketright" unicode="]" horiz-adv-x="216" 
d="M60 -149l-10 849h116v-849h-106z" />
    <glyph glyph-name="asciicircum" unicode="^" horiz-adv-x="428" 
d="M214 945l177.001 -125c-4 -4 -9.83301 -10.667 -17.5 -20s-15 -17.833 -22 -25.5s-13.167 -14.167 -18.5 -19.5l-119 99c-28.667 -21.333 -70.334 -54 -125.001 -98l-52 65z" />
    <glyph glyph-name="underscore" unicode="_" horiz-adv-x="497" 
d="M37 -5v85l423 10v-95h-423z" />
    <glyph glyph-name="grave" unicode="`" horiz-adv-x="319" 
d="M270 754l-245 107l48 88l221 -140z" />
    <glyph glyph-name="a" unicode="a" horiz-adv-x="555" 
d="M25 228c0 69.333 21.5039 127.832 64.5039 175.499s95.167 71.5 156.5 71.5c59.333 0 109 -23.667 149 -71h3l2 1l2 56c0 10.667 0.333008 18.334 1 23.001l9 1c5.33301 0.666992 13.166 1.5 23.499 2.5s20.166 2.16699 29.499 3.5l62 7l3 -498h-145v57
c-10.667 -25.333 -29.834 -43.833 -57.501 -55.5s-54.834 -17.5 -81.501 -17.5c-61.333 0 -113.5 23.667 -156.5 71s-64.5 105 -64.5 173zM158.004 224.999c0 -32.667 10 -60.5 30 -83.5s44.667 -34.5 74 -34.5c30 0 55.667 11.667 77 35s32 51 32 83
c0 34.667 -10.5 64 -31.5 88s-46.833 36 -77.5 36c-29.333 0 -54 -12 -74 -36s-30 -53.333 -30 -88z" />
    <glyph glyph-name="b" unicode="b" horiz-adv-x="544" 
d="M148 698l21.999 3l2 -97c1.33301 -90 3 -152.333 5 -187c38.667 38.667 82.334 58 131.001 58c62 0 114.5 -23.833 157.5 -71.5s64.5 -106.167 64.5 -175.5c0 -68 -21.667 -125.667 -65 -173s-95.666 -71 -156.999 -71c-25.333 0 -52.833 6.33301 -82.5 19
s-48.5 30.667 -56.5 54v-57h-144l2 686c7.33301 0.666992 19.166 1.66699 35.499 3s28.5 2.66602 36.5 3.99902c6 0.666992 14.5 1.33398 25.5 2.00098s18.833 1.66699 23.5 3zM396.999 225c0 34.667 -10.1689 64 -30.502 88s-45.166 36 -74.499 36
c-30.667 0 -56.5 -12 -77.5 -36s-31.5 -53.333 -31.5 -88c0 -32 10.667 -59.667 32 -83s47 -35 77 -35c28.667 0 53.334 11.667 74.001 35s31 51 31 83z" />
    <glyph glyph-name="c" unicode="c" horiz-adv-x="470" 
d="M255 492c47.333 0 87.0039 -5.50098 119.004 -16.501s55 -22.5 69 -34.5c-3.33301 -17.333 -10.666 -58 -21.999 -122c-60.667 28.667 -112.334 43 -155.001 43c-72 0 -108 -42.333 -108 -127c0 -40 9.16699 -70.333 27.5 -91s44.166 -31 77.499 -31
c39.333 0 92 14.333 158 43l24 -120c-6 -6 -15.333 -12.5 -28 -19.5s-33.834 -14.167 -63.501 -21.5s-62.5 -11 -98.5 -11c-68 0 -122.667 21.333 -164 64s-63.333 105.334 -66 188.001c1.33301 83.333 22.666 146.833 63.999 190.5s96.666 65.5 165.999 65.5z" />
    <glyph glyph-name="d" unicode="d" horiz-adv-x="544" 
d="M371 595l2.00098 89l9 1c6.66699 0.666992 16 1.5 28 2.5s23.333 2.16699 34 3.5l72 7l3 -698h-145v57c-8.66699 -24.667 -27.834 -43 -57.501 -55s-56.834 -18 -81.501 -18c-61.333 0 -113.5 23.667 -156.5 71s-64.5 105 -64.5 173c0 69.333 21.5 127.833 64.5 175.5
s95.167 71.5 156.5 71.5c48.667 0 92.334 -19.333 131.001 -58c2 34 3.66699 93.333 5 178zM147.001 225c0 -32.667 10 -60.5 30 -83.5s44.667 -34.5 74 -34.5c30 0 55.667 11.667 77 35s32 51 32 83c0 34.667 -10.5 64 -31.5 88s-46.833 36 -77.5 36
c-29.333 0 -54 -12 -74 -36s-30 -53.333 -30 -88z" />
    <glyph glyph-name="e" unicode="e" horiz-adv-x="523" 
d="M266 -15c-72 0 -130.166 22.501 -174.499 67.501s-66.5 105.5 -66.5 181.5c0 81.333 24.333 145.166 73 191.499s102.667 69.5 162 69.5c73.333 0 133.5 -30 180.5 -90s65.5 -126.667 55.5 -200l-331 -22c2.66699 -29.333 14.834 -50 36.501 -62s46.667 -16.167 75 -12.5
s54.666 9.16699 78.999 16.5s43.833 15.333 58.5 24l43 -123c-58.667 -27.333 -122.334 -41 -191.001 -41zM264.001 380.001c-34 -1.33301 -58.999 -12.832 -74.999 -34.499s-25 -46.834 -27 -75.501c13.333 0 84.666 5.33301 213.999 16c-1.33301 8.66699 -4 17.5 -8 26.5
s-10 19 -18 30s-19.5 20 -34.5 27s-32.167 10.5 -51.5 10.5z" />
    <glyph glyph-name="f" unicode="f" horiz-adv-x="395" 
d="M254 313l3.99902 -312.997h-163c0 25.333 1.66699 129.666 5 312.999h-75l2 113h71c0 97.333 13.833 166.666 41.5 207.999s70.5 62 128.5 62c22.667 0 67.334 -6.66699 134.001 -20l-19 -141c-22.667 9.33301 -40.667 14 -54 14c-56 0 -80.667 -41 -74 -123h111
c0 -11.333 -0.166992 -23.333 -0.5 -36s-0.833008 -26.334 -1.5 -41.001s-1 -26.667 -1 -36h-109z" />
    <glyph glyph-name="g" unicode="g" horiz-adv-x="525" 
d="M353 416c0 10.667 -0.167969 24.502 -0.500977 41.502s-0.5 28.167 -0.5 33.5l148 8c-1.33301 -214 -3 -377 -5 -489c-1.33301 -66 -21.5 -118.5 -60.5 -157.5s-93.833 -58.5 -164.5 -58.5c-16.667 0 -32.5 0.666992 -47.5 2s-28 2.83301 -39 4.5s-21.833 4 -32.5 7
s-19.334 5.83301 -26.001 8.5s-13.5 5.66699 -20.5 9s-12.167 6 -15.5 8l-10 7c-4 2.66699 -6.33301 4 -7 4c0 1.33301 4.83301 22.166 14.5 62.499s14.834 61.5 15.501 63.5c33.333 -24 80 -36 140 -36c40.667 0 69.834 13.167 87.501 39.5s24.5 61.833 20.5 106.5
c-32.667 -40.667 -77 -61 -133 -61c-53.333 0 -98.666 22.833 -135.999 68.5s-56 101.167 -56 166.5s18.667 120.666 56 165.999s82.666 68 135.999 68c54.667 0 100 -24 136 -72zM359.999 251.002c0 34 -9.99902 62.167 -29.999 84.5s-45 33.5 -75 33.5
s-55.167 -11.167 -75.5 -33.5s-30.5 -50.5 -30.5 -84.5c0 -31.333 10.333 -58.166 31 -80.499s45.667 -33.5 75 -33.5s54.166 11.167 74.499 33.5s30.5 49.166 30.5 80.499z" />
    <glyph glyph-name="h" unicode="h" horiz-adv-x="503" 
d="M38 697l147 11.999v-313c28 62 73.333 93 136 93c55.333 0 95.333 -22.5 120 -67.5s37 -112.833 37 -203.5l-5 -218h-159c4.66699 54.667 7 128.334 7 221.001c0 60 -6.66699 99 -20 117c-9.33301 13.333 -22 20 -38 20c-26.667 0 -46 -11.333 -58 -34
s-18 -50.334 -18 -83.001c0 -107.333 0.333008 -187.666 1 -240.999h-163z" />
    <glyph glyph-name="i" unicode="i" horiz-adv-x="221" 
d="M45 481l9 1.00098c6.66699 0.666992 16 1.5 28 2.5s23.333 2.16699 34 3.5l72 7c0 -18.667 0.5 -100.334 1.5 -245.001s1.5 -228 1.5 -250h-166l10 237c6.66699 160 10 241.333 10 244zM33 626.001c0 22.667 8 42 24 58s35 24 57 24c23.333 0 42.833 -8 58.5 -24
s23.5 -35.333 23.5 -58c0 -22 -7.83301 -41 -23.5 -57s-35.167 -24 -58.5 -24c-22 0 -41 8 -57 24s-24 35 -24 57z" />
    <glyph glyph-name="j" unicode="j" horiz-adv-x="286" 
d="M88 134c0 203.333 -0.331055 316.334 -0.998047 339.001l161 16c-1.33301 -126 -2 -273.333 -2 -442c0 -162 -61.333 -243 -184 -243c-36.667 0 -75.667 6.66699 -117 20l19 141c15.333 -8 29 -12 41 -12c13.333 0 25 2.16699 35 6.5s18 11.5 24 21.5
s10.667 19.167 14 27.5s5.66602 20.666 6.99902 36.999s2.16602 28.833 2.49902 37.5s0.5 21.667 0.5 39v12zM81.002 629.001c0 22.667 7.83301 41.834 23.5 57.501s34.5 23.5 56.5 23.5s40.833 -7.83301 56.5 -23.5s23.5 -34.834 23.5 -57.501
c0 -21.333 -7.83301 -39.833 -23.5 -55.5s-34.5 -23.5 -56.5 -23.5s-40.833 7.83301 -56.5 23.5s-23.5 34.167 -23.5 55.5z" />
    <glyph glyph-name="k" unicode="k" horiz-adv-x="510" 
d="M45 684l70 7.00098c46.667 4 71 6.33301 73 7v-201c0 -88.667 0.333008 -155.667 1 -201l59.5 81.5l82 111.5c19 25.333 28.5 37.666 28.5 36.999c1.33301 -2 21.5 -17.5 60.5 -46.5s58.833 -43.833 59.5 -44.5l-142 -176l87.5 -103.5c47 -55 74.833 -86.833 83.5 -95.5
c1.33301 0 -7.16699 -8.33301 -25.5 -25l-56 -51c-19 -17.333 -28.5 -26.666 -28.5 -27.999c0 -0.666992 -10.333 12.666 -31 39.999l-73 97l-64 87l-38 -43c0 -4.66699 -0.5 -27.667 -1.5 -69s-0.833008 -64 0.5 -68h-166l10 336c6.66699 222.667 10 338.667 10 348z" />
    <glyph glyph-name="l" unicode="l" horiz-adv-x="231" 
d="M42 342l10 342l10 1c6 0.666992 15.167 1.5 27.5 2.5s23.833 2.16699 34.5 3.5l72 7l2 -698h-166z" />
    <glyph glyph-name="m" unicode="m" horiz-adv-x="779" 
d="M599 222c0 56 -6 92.335 -18 109.002c-8.66699 11.333 -20 17 -34 17c-15.333 0 -27.833 -3.16699 -37.5 -9.5s-16.667 -15.833 -21 -28.5s-7.16602 -24.667 -8.49902 -36s-2 -25.333 -2 -42c0 -1.33301 -1.16699 -36.333 -3.5 -105s-3.5 -111 -3.5 -127h-157
c0 18.667 1.33301 56.834 4 114.501s4 98.5 4 122.5c0 10.667 -0.833008 21.667 -2.5 33s-4.33398 23.166 -8.00098 35.499s-9.5 22.333 -17.5 30s-17.667 11.5 -29 11.5c-22.667 0 -41.667 -9.33301 -57 -28s-22.333 -39.334 -21 -62.001
c0.666992 -33.333 0.666992 -79.833 0 -139.5s-1 -98.834 -1 -117.501h-161l9 222c6.66699 149.333 10 236.333 10 261l139 14c0 -11.333 0.166992 -28 0.5 -50s0.5 -38.667 0.5 -50c16 30.667 33.833 53.667 53.5 69s47.5 23 83.5 23c59.333 0 102.333 -26.333 129 -79
c16 26 38.333 45.667 67 59s55.667 20 81 20c104 0 156 -83.333 156 -250c0 -6 -1.16699 -44.333 -3.5 -115s-3.5 -112 -3.5 -124h-156c0 7.33301 1.33301 42.5 4 105.5s4 101.833 4 116.5z" />
    <glyph glyph-name="n" unicode="n" horiz-adv-x="503" 
d="M44 474l139.002 13.999c0 -10.667 0.166992 -28 0.5 -52s0.5 -41 0.5 -51c6.66699 26 22.167 49.833 46.5 71.5s54.5 32.5 90.5 32.5c104.667 0 157 -85 157 -255c0 -1.33301 -1.16699 -36.5 -3.5 -105.5s-3.5 -111.833 -3.5 -128.5h-157c0 7.33301 1.33301 42.333 4 105
s4 101.334 4 116.001v5c0 14 -0.333008 26 -1 36s-2.33398 23 -5.00098 39s-7.66699 28.333 -15 37s-16.666 13 -27.999 13c-24.667 0 -44.834 -8.33301 -60.501 -25s-24.834 -41.334 -27.501 -74.001c0.666992 -56 1 -140 1 -252h-161
c0 20.667 3.16699 101.334 9.5 242.001s9.5 218 9.5 232z" />
    <glyph glyph-name="o" unicode="o" horiz-adv-x="534" 
d="M25 238c0 70.667 23.667 130.834 71 180.501s104.333 74.5 171 74.5s123.667 -24.833 171 -74.5s71 -109.834 71 -180.501c0 -70 -23.667 -129.833 -71 -179.5s-104.333 -74.5 -171 -74.5s-123.667 24.833 -171 74.5s-71 109.5 -71 179.5zM154 235
c0 -34.667 11.167 -63.834 33.5 -87.501s49.833 -35.5 82.5 -35.5c34 0 62.333 11.833 85 35.5s34 52.834 34 87.501c0 36 -11.333 66.167 -34 90.5s-51 36.5 -85 36.5c-32.667 0 -60.167 -12.333 -82.5 -37s-33.5 -54.667 -33.5 -90z" />
    <glyph glyph-name="p" unicode="p" horiz-adv-x="534" 
d="M174 490c-0.666992 -11.333 -1 -34.999 -1 -70.999c36 50 83.333 75 142 75c53.333 0 99 -24.667 137 -74s57 -109 57 -179c0 -70.667 -19.167 -130.834 -57.5 -180.501s-84.833 -74.5 -139.5 -74.5c-59.333 0 -106 23.333 -140 70l6 -264h-153
c0 62 0.166992 176 0.5 342s0.5 279.667 0.5 341c8.66699 0.666992 30.5 3 65.5 7s62.5 6.66699 82.5 8zM165 238.001c0 -34 10.5 -62.833 31.5 -86.5s46.5 -35.5 76.5 -35.5s55.5 11.833 76.5 35.5s31.5 52.5 31.5 86.5c0 36 -10.5 66 -31.5 90s-46.5 36 -76.5 36
s-55.5 -12 -76.5 -36s-31.5 -54 -31.5 -90z" />
    <glyph glyph-name="q" unicode="q" horiz-adv-x="536" 
d="M361 417c0 9.33301 -0.166016 21.332 -0.499023 35.999s-0.5 24 -0.5 28l151 9c-2.66699 -166 -4 -398.667 -4 -698h-160c2 23.333 4.66699 67.166 8 131.499s5.66602 107.833 6.99902 130.5c-34 -46.667 -80.667 -70 -140 -70c-54.667 0 -101.167 24.833 -139.5 74.5
s-57.5 109.834 -57.5 180.501s19.167 130.834 57.5 180.501s84.833 74.5 139.5 74.5s101 -25.667 139 -77zM369.001 235.999c0 36 -10.5 66 -31.5 90s-46.5 36 -76.5 36s-55.5 -12 -76.5 -36s-31.5 -54 -31.5 -90c0 -34 10.5 -62.833 31.5 -86.5s46.5 -35.5 76.5 -35.5
s55.5 11.833 76.5 35.5s31.5 52.5 31.5 86.5z" />
    <glyph glyph-name="r" unicode="r" horiz-adv-x="390" 
d="M45 476l9.00098 0.999023c6.66699 0.666992 16 1.5 28 2.5s23.333 2.16699 34 3.5l72 7c0.666992 -28.667 1 -71 1 -127c19.333 27.333 43.666 51.333 72.999 72s53.5 34.834 72.5 42.501s31.5 11.5 37.5 11.5c0 -6.66699 1.33301 -38 4 -94s4.66699 -84.667 6 -86
c-96.667 -6.66699 -160.667 -25.667 -192 -57c0 -112 0.333008 -196 1 -252h-166l10 235c6.66699 156 10 236.333 10 241z" />
    <glyph glyph-name="s" unicode="s" horiz-adv-x="487" 
d="M219 492c45.333 2.66699 90.6689 -6.83203 136.002 -28.499s75.666 -45.834 90.999 -72.501l-87 -75c-9.33301 14 -26.333 28.833 -51 44.5s-50.667 23.5 -78 23.5c-42 0 -63 -11.667 -63 -35c0 -15.333 6.16699 -26.5 18.5 -33.5s36.833 -15.167 73.5 -24.5
c58 -13.333 100.333 -27.666 127 -42.999c52 -29.333 78 -68.333 78 -117c0 -51.333 -19.167 -88.5 -57.5 -111.5s-85.166 -34.5 -140.499 -34.5c-61.333 0 -110 10.833 -146 32.5s-67.333 49.5 -94 83.5l106 50c38.667 -38.667 82.667 -58 132 -58
c37.333 0 58 10.333 62 31c0 20.667 -27 37.667 -81 51c-4 0.666992 -12.833 2.83398 -26.5 6.50098l-34 9c-9 2.33301 -21 6 -36 11s-27.5 10.167 -37.5 15.5s-21 12.166 -33 20.499s-21.667 17.333 -29 27s-13.5 21.167 -18.5 34.5s-7.5 27.666 -7.5 42.999
c0 26.667 5.5 50.167 16.5 70.5s26.167 36 45.5 47s40.166 19.167 62.499 24.5s46.166 8 71.499 8z" />
    <glyph glyph-name="t" unicode="t" horiz-adv-x="479" 
d="M2 322c0 0.666992 -0.334961 23.668 -1.00195 69.001s-1 69 -1 71l107 -8c0 14 -0.166992 34.333 -0.5 61s-0.5 46.667 -0.5 60l153 16c-0.666992 -18.667 -1 -63.667 -1 -135c50.667 1.33301 85.334 3 104.001 5l58 3v-22c0 -4 0.166992 -11.5 0.5 -22.5
s0.5 -19.5 0.5 -25.5c0 -29.333 0.333008 -52.333 1 -69h-99h-68c0 -33.333 0.333008 -58 1 -74s3 -34.167 7 -54.5s10.667 -34.666 20 -42.999s21.666 -12.5 36.999 -12.5c20 0 39.333 6.66699 58 20s32.334 26.166 41.001 38.499s13 19.833 13 22.5l34 -81
c14.667 -35.333 23.334 -56.666 26.001 -63.999l-19 -18c-2.66699 -3.33301 -11.834 -11 -27.501 -23s-30.167 -20.833 -43.5 -26.5s-31.166 -11.334 -53.499 -17.001s-45.5 -8.5 -69.5 -8.5c-115.333 0 -173 92.333 -173 277c0 6.66699 0.166992 17.667 0.5 33
s0.5 25.666 0.5 30.999c-8 0 -43 -1 -105 -3z" />
    <glyph glyph-name="u" unicode="u" horiz-adv-x="491" 
d="M229 118c24.667 0 50.333 11.667 77 35l8 321c4.66699 0 19.167 1.33301 43.5 4l70.5 8l35 4l3 -490h-165c0 6 0.333008 11.333 1 16c0 4.66699 0.666992 18.334 2 41.001h-2c-19.333 -20.667 -42.5 -35.334 -69.5 -44.001s-51.167 -13 -72.5 -13
c-90 0 -135 60.667 -135 182l6 291c17.333 1.33301 43.333 4 78 8l78 9c-6 -186 -9 -284.333 -9 -295c0 -51.333 17 -77 51 -77z" />
    <glyph glyph-name="v" unicode="v" horiz-adv-x="488" 
d="M483 491c-4 -16 -31 -100.167 -81 -252.5s-76 -231.833 -78 -238.5h-179l-136 474l148 16c1.33301 -10.667 15.666 -71.167 42.999 -181.5s41 -168.5 41 -174.5c1.33301 8 16 63.667 44 167s43.333 160.333 46 171l76.5 9c33.667 4 58.834 7.33301 75.501 10z" />
    <glyph glyph-name="w" unicode="w" horiz-adv-x="650" 
d="M259 0l-139.002 0.00292969c-3.33301 21.333 -19.666 104.833 -48.999 250.5l-46 228.5l146 16c19.333 -184.667 32.333 -292.334 39 -323.001c46.667 175.333 71.334 269.333 74.001 282c9.33301 1.33301 37.333 2.66602 84 3.99902l72 -285
c17.333 77.333 37 179.666 59 306.999l126 15l-107 -495h-128c-29.333 89.333 -53.333 169.333 -72 240z" />
    <glyph glyph-name="x" unicode="x" horiz-adv-x="545" 
d="M19 450l140 49.998c6.66699 -7.33301 27.5 -37.666 62.5 -90.999s54.833 -82.666 59.5 -87.999l54 86.5l57 92.5l131 -60c-13.333 -14.667 -42 -48 -86 -100l-71 -84l179 -198l-37 -16l-74 -32l-38 -17l-120 188l-118 -187l-155 51l186 204z" />
    <glyph glyph-name="y" unicode="y" horiz-adv-x="495" 
d="M243 156c20 0 44.6602 9.99805 73.9932 29.998l6 285c2.66699 0 27.334 3 74.001 9s71 9 73 9c0 -314.667 -3.33301 -485 -10 -511c-3.33301 -23.333 -9.66602 -45.166 -18.999 -65.499s-22.333 -39.833 -39 -58.5s-39.5 -33.5 -68.5 -44.5s-62.167 -16.5 -99.5 -16.5
c-15.333 0 -30 0.5 -44 1.5s-26.667 2.33301 -38 4s-21.833 3.5 -31.5 5.5s-18.5 4.5 -26.5 7.5s-15 5.5 -21 7.5s-11.833 4.5 -17.5 7.5s-9.83398 5.33301 -12.501 7s-5.66699 3.83398 -9 6.50098l-6 3c2.66699 5.33301 9.33398 25.666 20.001 60.999
s17.334 55.666 20.001 60.999l10 -5c6 -4 10.5 -6.66699 13.5 -8s8.83301 -3.5 17.5 -6.5s16.834 -5.33301 24.501 -7s17.834 -3.16699 30.501 -4.5s26 -2 40 -2c21.333 0 39.333 3.33301 54 10s25.834 14.334 33.501 23.001s13.834 21.334 18.501 38.001s7.5 31 8.5 43
s1.83301 28.333 2.5 49c-20.667 -16.667 -46.167 -28.834 -76.5 -36.501s-55.5 -11.5 -75.5 -11.5c-24 0 -44.667 4.66699 -62 14s-30.166 19.833 -38.499 31.5s-14.833 26.834 -19.5 45.501s-7.33398 33.167 -8.00098 43.5s-1 23.166 -1 38.499v3
c2 28.667 4.33301 111.334 7 248.001l152 18c0 -28 -1.16699 -70.833 -3.5 -128.5s-3.5 -102.167 -3.5 -133.5c0 -47.333 17 -71 51 -71z" />
    <glyph glyph-name="z" unicode="z" horiz-adv-x="454" 
d="M424 489l4.99902 -73.001c-52 -73.333 -131.333 -179 -238 -317c6 0 46.333 4.33301 121 13s113.334 13 116.001 13c0 -51.333 -2 -93 -6 -125h-393c-0.666992 8 -2 32.333 -4 73l237 317c-7.33301 0 -48.5 -4.83301 -123.5 -14.5s-112.833 -14.5 -113.5 -14.5
c0 1.33301 1.16699 22.833 3.5 64.5s3.5 62.834 3.5 63.501h392z" />
    <glyph glyph-name="braceleft" unicode="{" horiz-adv-x="394" 
d="M228 398c0 -60.667 -10.999 -102.001 -32.999 -124.001c22 -22 33 -63.333 33 -124c0 -22.667 -0.333008 -52 -1 -88c-0.666992 -25.333 -1 -46.833 -1 -64.5s1.5 -31.667 4.5 -42s7.83301 -17.666 14.5 -21.999s16 -6.16602 28 -5.49902
c38 1.33301 60.667 2.66602 68 3.99902l21 3l5 -100l-120 1c-27.333 1.33301 -51.333 8.33301 -72 21c-46 26.667 -65.667 78 -59 154c3.33301 33.333 8.33301 74 15 122c8 56 9.66699 88.667 5 98c-3.33301 7.33301 -11.666 10 -24.999 8
c-46.667 -7.33301 -71.334 -11.666 -74.001 -12.999v90l74 -12c17.333 -2.66699 27 4.66602 29 21.999c0.666992 10.667 -4 54.667 -14 132c-4 28 -7.33301 54.333 -10 79c-6.66699 74.667 13 125.667 59 153c20.667 12.667 44.667 20 72 22l120 1l-5 -100l-21 3
c-34.667 2.66699 -57.334 4 -68.001 4c-23.333 1.33301 -37.333 -8 -42 -28c-4 -13.333 -5.33301 -58.333 -4 -135c0.666992 -21.333 1 -41 1 -59z" />
    <glyph glyph-name="bar" unicode="|" horiz-adv-x="218" 
d="M55 748l122.998 15.002c0 -51.333 0.5 -203.833 1.5 -457.5s1.5 -405.5 1.5 -455.5h-144c0.666992 30 1.83398 94 3.50098 192s3.16699 171 4.5 219c0.666992 60 1.83398 127.667 3.50098 203s3.16699 138.166 4.5 188.499s2 82.166 2 95.499z" />
    <glyph glyph-name="braceright" unicode="}" horiz-adv-x="394" 
d="M176 398c0 22.667 0.334961 52.001 1.00195 88.001c0.666992 25.333 1 46.833 1 64.5s-1.5 31.667 -4.5 42s-7.83301 17.666 -14.5 21.999s-16 6.16602 -28 5.49902c-10.667 0 -33.334 -1.33301 -68.001 -4l-21 -3l-5 100l120 -1c27.333 -2 51.333 -9.33301 72 -22
c46 -27.333 65.667 -78.333 59 -153c-3.33301 -32 -8.33301 -71.667 -15 -119c-8.66699 -60 -10.334 -95 -5.00098 -105c4 -8 12.333 -11 25 -9l74 12v-90c-2.66699 1.33301 -27.334 5.66602 -74.001 12.999c-17.333 2.66699 -26.833 -3.66602 -28.5 -18.999
s1.16602 -44.333 8.49902 -87c0.666992 -7.33301 1.33398 -13 2.00098 -17s1.5 -9.83301 2.5 -17.5s1.83301 -14.5 2.5 -20.5s1.33398 -13 2.00098 -21l4 -23l2 -23c6.66699 -74.667 -13 -126 -59 -154c-20.667 -12.667 -44.667 -19.667 -72 -21l-120 -1l5 100l21 -3
c7.33301 -1.33301 30 -2.66602 68 -3.99902c23.333 -1.33301 37.333 8 42 28c4 13.333 5.33301 58.333 4 135c-0.666992 21.333 -1 41 -1 59c0 60.667 11 102 33 124c-22 22 -33 63.333 -33 124z" />
    <glyph glyph-name="asciitilde" unicode="~" horiz-adv-x="403" 
d="M289 746c-18 0 -41.834 8.00098 -71.501 24.001s-52.167 24 -67.5 24c-11.333 0 -19.5 -3.33301 -24.5 -10s-7.5 -17.667 -7.5 -33l-74 -11c-4.66699 15.333 -7 32.333 -7 51c0 26.667 6.66699 47.834 20 63.501s33 23.5 59 23.5c18.667 0 44.834 -8.66699 78.501 -26
s55.167 -26 64.5 -26c16 0 24 11 24 33c0 2.66699 -0.166992 5.66699 -0.5 9s-0.5 5.66602 -0.5 6.99902l38 3c16.667 1.33301 29 2.66602 37 3.99902c5.33301 -16 8 -35 8 -57c0 -24.667 -6.33301 -44 -19 -58s-31.667 -21 -57 -21z" />
    <glyph glyph-name="exclamdown" unicode="&#xa1;" horiz-adv-x="238" 
d="M183 9l-139 -8.99902c0 28 -0.333008 113.667 -1 257s-1 229 -1 257h158l-8 -215c-6 -136.667 -9 -233.334 -9 -290.001zM47 642.001c0 23.333 7.16699 42 21.5 56s32.166 21 53.499 21c22 0 40.167 -7 54.5 -21s21.5 -32.667 21.5 -56c0 -24 -7.16699 -43 -21.5 -57
s-32.5 -21 -54.5 -21c-21.333 0 -39.166 7 -53.499 21s-21.5 33 -21.5 57z" />
    <glyph glyph-name="cent" unicode="&#xa2;" horiz-adv-x="470" 
d="M55 355c1.33301 66 18.333 117.333 51 154s77.667 57.667 135 63l-9 102l82 4l-2 -106c64.667 -5.33301 112 -19.333 142 -42c-1.33301 -4.66699 -8.33301 -39.334 -21 -104.001c-60.667 24.667 -110 37 -148 37c-68.667 0 -103 -36.333 -103 -109
c0 -70 33.333 -105 100 -105c46.667 0 97 12.333 151 37l23 -103c-27.333 -23.333 -74.666 -38 -141.999 -44l12 -116h-88l2 116c-55.333 6 -99.333 27.333 -132 64s-50.334 87.334 -53.001 152.001z" />
    <glyph glyph-name="sterling" unicode="&#xa3;" horiz-adv-x="519" 
d="M86 -6l-43.002 117c29.333 36.667 48.833 66.334 58.5 89.001s15.167 48.334 16.5 77.001v16l-79 -8c0 22 -0.666992 59 -2 111c20.667 -2.66699 41.334 -4.66699 62.001 -6c-13.333 48.667 -20 91.667 -20 129c0 62 21.333 110.833 64 146.5s96.667 53.5 162 53.5
c28.667 0 54.167 -5.5 76.5 -16.5s40.166 -25.667 53.499 -44s23.5 -35.833 30.5 -52.5s12.5 -34.334 16.5 -53.001c-4.66699 -1.33301 -10.167 -2.66602 -16.5 -3.99902l-22 -4.5c-8.33301 -1.66699 -14.5 -2.83398 -18.5 -3.50098l-72 -15c-8 54.667 -29.333 82 -64 82
c-22 0 -39.667 -7.83301 -53 -23.5s-20 -34.5 -20 -56.5c0 -20 9 -66 27 -138l124 5c-1.33301 -48 -2 -84 -2 -108l-53.5 3c-23.667 1.33301 -41.5 2.66602 -53.5 3.99902c-6.66699 -64 -17.667 -114 -33 -150c8.66699 2 17.334 3 26.001 3c7.33301 0 27 -3.5 59 -10.5
s53.667 -10.5 65 -10.5c14 0 35 3.66699 63 11l32 -137c-31.333 -8 -58.666 -12 -81.999 -12c-30 0 -58 4.66699 -84 14l-29.5 10.5l-24.5 8.5c-4 1.33301 -9.5 3 -16.5 5s-12.167 3.16699 -15.5 3.5s-7.33301 0.833008 -12 1.5s-9.66699 1 -15 1
c-32.667 0 -67.667 -12.667 -105 -38z" />
    <glyph glyph-name="yen" unicode="&#xa5;" horiz-adv-x="576" 
d="M142 266v50c19.333 0.666992 48.333 1 87 1c-120 171.333 -183.667 264.333 -191 279c1.33301 1.33301 26.166 12 74.499 32s73.166 30 74.499 30c8 -21.333 27.333 -65 58 -131s50 -109.667 58 -131c5.33301 16 20.5 57.333 45.5 124s41.5 113 49.5 139l141 -47
l-163 -291l87 2v-57h-97l2 -45c42.667 1.33301 74.334 2 95.001 2v-57h-93l3 -96h-149c2.66699 42.667 4.33398 74.667 5.00098 96h-87v51l90 2l2 47h-92z" />
    <glyph glyph-name="brokenbar" unicode="&#xa6;" horiz-adv-x="218" 
d="M181 -150h-144c0 23.333 0.666992 65 2 125c1.33301 86 3.33301 180.667 6 284h134zM55 748l123 15c0.666992 -88.667 1 -221 1 -397h-132z" />
    <glyph glyph-name="section" unicode="&#xa7;" horiz-adv-x="434" 
d="M281 491c29.333 -10.667 55.832 -28.1699 79.499 -52.5029s35.5 -55.5 35.5 -93.5c0 -48 -15.333 -85 -46 -111c28.667 -27.333 43 -60 43 -98c0 -52.667 -15.5 -90.667 -46.5 -114s-68.833 -35 -113.5 -35c-77.333 0 -137.666 33.667 -180.999 101l-10 16l81 50
c34 -40.667 70.333 -61 109 -61c32 0 49.667 11.667 53 35c0 13.333 -5.33301 24.166 -16 32.499s-28 16.833 -52 25.5l-15 4c-12 2.66699 -23.5 5.83398 -34.5 9.50098s-25 9.83398 -42 18.501s-31.333 18.667 -43 30s-22 26.5 -31 45.5s-13.5 40.167 -13.5 63.5
c0 50 14 87 42 111c-25.333 26.667 -38 59.334 -38 98.001c0 52.667 15.167 91.334 45.5 116.001s67.5 37 111.5 37c44.667 0 82.167 -10 112.5 -30s53.166 -44 68.499 -72l-66 -75c-8 14.667 -22.167 30 -42.5 46s-41.5 24 -63.5 24c-21.333 0 -35.666 -3.5 -42.999 -10.5
s-11 -16.833 -11 -29.5c0 -18 7.5 -31.667 22.5 -41s34 -16.833 57 -22.5s38.833 -11.5 47.5 -17.5zM220.999 393.997l-27.001 8.99805c-29.333 -2.66699 -44 -15.667 -44 -39c0 -13.333 5 -24.333 15 -33s20.667 -14.667 32 -18s27 -6.66602 47 -9.99902
c23.333 0.666992 37.666 9.33398 42.999 26.001l2 11c-1.33301 12.667 -7.66602 23 -18.999 31s-27.666 15.667 -48.999 23z" />
    <glyph glyph-name="dieresis" unicode="&#xa8;" horiz-adv-x="401" 
d="M146 815c0 -19.333 -5.66699 -34.5 -17 -45.5s-26 -16.5 -44 -16.5c-16.667 0 -30.834 5.66699 -42.501 17s-17.5 26.333 -17.5 45c0 19.333 5.83301 34.833 17.5 46.5s25.834 17.5 42.501 17.5c18 0 32.667 -5.83301 44 -17.5s17 -27.167 17 -46.5zM376 815
c0 -19.333 -5.83301 -34.5 -17.5 -45.5s-26.5 -16.5 -44.5 -16.5c-16.667 0 -30.834 5.66699 -42.501 17s-17.5 26.333 -17.5 45c0 19.333 5.83301 34.833 17.5 46.5s25.834 17.5 42.501 17.5c18 0 32.833 -5.83301 44.5 -17.5s17.5 -27.167 17.5 -46.5z" />
    <glyph glyph-name="copyright" unicode="&#xa9;" horiz-adv-x="652" 
d="M614 399c0 -95.333 -27.167 -170 -81.5 -224s-122.833 -81 -205.5 -81c-82 0 -150.833 27.167 -206.5 81.5s-83.5 128.833 -83.5 223.5s27.833 169 83.5 223s124.5 81 206.5 81s150.333 -27 205 -81s82 -128.333 82 -223zM331 550c-40 0 -72.002 -12.501 -96.002 -37.501
s-36.333 -61.833 -37 -110.5c2 -48.667 14.833 -85.167 38.5 -109.5s55.167 -36.5 94.5 -36.5c52.667 0 89.334 10.333 110.001 31l-13 69c-32 -16.667 -62.667 -25 -92 -25c-42.667 0 -64 23.333 -64 70c0 49.333 21.667 74 65 74c31.333 0 61.333 -8.33301 90 -25
c4 18.667 8.33301 42.334 13 71.001c-23.333 19.333 -59.666 29 -108.999 29z" />
    <glyph glyph-name="ordfeminine" unicode="&#xaa;" horiz-adv-x="383" 
d="M37 535c0 41.333 13.167 76.8301 39.5 106.497s58.166 44.5 95.499 44.5c36 0 66.333 -14.667 91 -44h1l2 1c0 4.66699 0.166992 10.834 0.5 18.501s0.5 12.834 0.5 15.501v14l77 8c0 -33.333 0.166992 -83.666 0.5 -150.999s0.5 -118.333 0.5 -153h-88v35h-2
c-6 -13.333 -17.667 -24.166 -35 -32.499s-33.333 -12.5 -48 -12.5c-37.333 0 -69.166 14.667 -95.499 44s-39.5 64.666 -39.5 105.999zM119 532.997c0 -19.333 6.16699 -36.166 18.5 -50.499s27.166 -21.5 44.499 -21.5c18.667 0 34.334 7.16699 47.001 21.5
s19 31.166 19 50.499c0 21.333 -6.33301 39.166 -19 53.499s-28.334 21.5 -47.001 21.5c-17.333 0 -32.166 -7.16699 -44.499 -21.5s-18.5 -32.166 -18.5 -53.499z" />
    <glyph glyph-name="guillemotleft" unicode="&#xab;" horiz-adv-x="495" 
d="M37 253l142 193l70 -58l-105 -138l102 -133l-70 -57zM246 253l141 193l70 -58l-104 -138l101 -133l-69 -57z" />
    <glyph glyph-name="logicalnot" unicode="&#xac;" horiz-adv-x="427" 
d="M25 354l0.000976562 85.999l377 10v-156h-109c0 12.667 -0.666992 32.334 -2 59.001c-58.667 0.666992 -147.334 1 -266.001 1z" />
    <glyph glyph-name="uni00AD" unicode="&#xad;" horiz-adv-x="427" 
d="M25 354l0.000976562 86l377 10v-97c-38.667 0 -101.334 0.166992 -188.001 0.5s-149.667 0.5 -189 0.5z" />
    <glyph glyph-name="registered" unicode="&#xae;" horiz-adv-x="652" 
d="M614 399c0 -95.333 -27.167 -170 -81.5 -224s-122.833 -81 -205.5 -81c-82 0 -150.833 27.167 -206.5 81.5s-83.5 128.833 -83.5 223.5s27.833 169 83.5 223s124.5 81 206.5 81s150.333 -27 205 -81s82 -128.333 82 -223zM284 394l0.000976562 109.999
c15.333 6.66699 30.666 10 45.999 10c32 0 48 -16 48 -48c0 -25.333 -9 -43.666 -27 -54.999s-40.333 -17 -67 -17zM223.001 554.999l-0.999023 -28.998c0 -18.667 -0.333008 -41.667 -1 -69l-2 -83.5c-0.666992 -28.333 -1.16699 -54 -1.5 -77s-0.5 -37.5 -0.5 -43.5h71
c0 6 -0.166992 19.167 -0.5 39.5s-0.5 34.166 -0.5 41.499c4 -2.66699 11.5 -5.5 22.5 -8.5s17.167 -5.16699 18.5 -6.5c8.66699 -8.66699 18.667 -19.334 30 -32.001l29 -32.5c8 -9 12.333 -13.833 13 -14.5l58 58c-28 18.667 -55 37.667 -81 57c50 24 75 61.333 75 112
c0 37.333 -10.167 65.5 -30.5 84.5s-48.833 28.5 -85.5 28.5c-12.667 0 -25 -0.666992 -37 -2s-22.333 -3.33301 -31 -6s-15.834 -5 -21.501 -7s-11.167 -4.33301 -16.5 -7z" />
    <glyph glyph-name="macron" unicode="&#xaf;" horiz-adv-x="583" 
d="M58 758v86l472 10v-96h-472z" />
    <glyph glyph-name="degree" unicode="&#xb0;" horiz-adv-x="358" 
d="M320 573c0 -42 -13.5 -76.167 -40.5 -102.5s-60.5 -39.5 -100.5 -39.5c-39.333 0 -72.833 13.167 -100.5 39.5s-41.5 60.5 -41.5 102.5c0 41.333 13.833 75.333 41.5 102s61.167 40 100.5 40c40 0 73.5 -13.167 100.5 -39.5s40.5 -60.5 40.5 -102.5zM110 574
c0 -20.667 6.33301 -38.167 19 -52.5s28.667 -21.5 48 -21.5s35.666 7.16699 48.999 21.5s20 31.833 20 52.5c0 21.333 -6.66699 39.166 -20 53.499s-29.666 21.5 -48.999 21.5s-35.333 -7.16699 -48 -21.5s-19 -32.166 -19 -53.499z" />
    <glyph glyph-name="plusminus" unicode="&#xb1;" horiz-adv-x="497" 
d="M37 -5v85l423 10v-95h-423zM52 361v70.001l148 5l-4 145h89c0 -63.333 -0.333008 -111 -1 -143l145 5v-83h-145c0 -64.667 -0.333008 -113.334 -1 -146.001h-77l-4 146c-17.333 0 -42.333 0.166992 -75 0.5s-57.667 0.5 -75 0.5z" />
    <glyph glyph-name="twosuperior" unicode="&#xb2;" horiz-adv-x="328" 
d="M37 678c9.33301 18.667 24.8359 34.166 46.5029 46.499s44.167 18.5 67.5 18.5c30 0 55.667 -11.167 77 -33.5s32 -54.833 32 -97.5c0 -14.667 -1.83301 -28.667 -5.5 -42s-8.33398 -24.833 -14.001 -34.5s-12.167 -18.834 -19.5 -27.501s-14.333 -15.667 -21 -21
s-13 -10.166 -19 -14.499s-10.667 -7.16602 -14 -8.49902l-5 -3l129 13v-78h-244l-5 66c32 8.66699 63.667 28.167 95 58.5s47 60.5 47 90.5c0 14.667 -3.66699 26.167 -11 34.5s-16.666 12.5 -27.999 12.5c-14.667 0 -29.334 -6.5 -44.001 -19.5
s-24.334 -25.5 -29.001 -37.5c-0.666992 0 -6.33398 12.833 -17.001 38.5s-16.667 38.5 -18 38.5z" />
    <glyph glyph-name="threesuperior" unicode="&#xb3;" horiz-adv-x="316" 
d="M194 497c0 24 -16.998 36 -50.998 36c-4.66699 0 -10 -0.666992 -16 -2l-9 -2v79c6 -2 14 -3 24 -3c13.333 0 25.333 3.16699 36 9.5s16 15.166 16 26.499c0 22.667 -11 34 -33 34c-14.667 0 -30.667 -4.83301 -48 -14.5s-30.666 -21.5 -39.999 -35.5l-36 73
c10.667 10.667 28 22.167 52 34.5s50.333 18.5 79 18.5c35.333 0 62.666 -9.16699 81.999 -27.5s29 -42.166 29 -71.499c0 -34.667 -16.333 -62.667 -49 -84c32.667 -21.333 49 -48.666 49 -81.999c0 -28 -9.5 -51.333 -28.5 -70s-45.833 -28 -80.5 -28
c-29.333 0 -57 6.16699 -83 18.5s-42.667 23.166 -50 32.499l36 73c9.33301 -13.333 22.666 -24.833 39.999 -34.5s33.333 -14.5 48 -14.5c9.33301 0 17.166 3 23.499 9s9.5 14.333 9.5 25z" />
    <glyph glyph-name="acute" unicode="&#xb4;" horiz-adv-x="319" 
d="M294 861l-246 -107l-23 55l59.5 37.5l104 66l57.5 36.5z" />
    <glyph glyph-name="paragraph" unicode="&#xb6;" horiz-adv-x="567" 
d="M25 462c0 50 9.33105 91.999 27.998 125.999s44.834 59.5 78.501 76.5s68.5 28.833 104.5 35.5s76.667 10 122 10c52.667 0 110.334 -3 173.001 -9l-6 -862h-82c-4.66699 312 -9 562 -13 750c-38.667 -2 -62 -3.33301 -70 -4l-18 -746h-81
c0 28.667 1.16699 89.667 3.5 183s3.5 147.666 3.5 162.999c-14.667 0 -26.667 0.166992 -36 0.5s-23.333 2.33301 -42 6s-34.5 8.83398 -47.5 15.501s-27.5 16.834 -43.5 30.501s-28.833 30 -38.5 49s-18 43.5 -25 73.5s-10.5 64 -10.5 102z" />
    <glyph glyph-name="periodcentered" unicode="&#xb7;" horiz-adv-x="273" 
d="M235 292c0 -31.333 -9.16797 -55.5 -27.501 -72.5s-42.166 -25.5 -71.499 -25.5c-28 0 -51.5 8.66699 -70.5 26s-28.5 41.333 -28.5 72c0 29.333 9.66699 52.833 29 70.5s42.666 26.5 69.999 26.5c28.667 0 52.334 -8.66699 71.001 -26s28 -41 28 -71z" />
    <glyph glyph-name="cedilla" unicode="&#xb8;" horiz-adv-x="242" 
d="M59 14l70 2l-4 -53c30.667 -2 53.667 -9 69 -21s23 -26.667 23 -44c0 -18.667 -6.33301 -35.167 -19 -49.5s-27.167 -24.833 -43.5 -31.5s-34.5 -12 -54.5 -16s-34.5 -6.33301 -43.5 -7s-15.5 -1 -19.5 -1c-5.33301 24 -9.33301 45.333 -12 64c24.667 1.33301 42 3 52 5
c35.333 6.66699 53 17.667 53 33c0 20.667 -22.333 31 -67 31z" />
    <glyph glyph-name="onesuperior" unicode="&#xb9;" horiz-adv-x="266" 
d="M38 736c3.33301 0 34.667 2.83203 94 8.49902s91.333 8.5 96 8.5l-2 -358h-95c0.666992 20 2 65.333 4 136s3.66699 115.334 5 134.001c-4.66699 -1.33301 -14.5 -3.33301 -29.5 -6s-30.333 -5.16699 -46 -7.5s-24.5 -3.83301 -26.5 -4.5v89z" />
    <glyph glyph-name="ordmasculine" unicode="&#xba;" horiz-adv-x="392" 
d="M37 524c0 47.333 15.667 87.833 47 121.5s68.666 50.5 111.999 50.5s80.5 -16.833 111.5 -50.5s46.5 -74.167 46.5 -121.5s-15.5 -87.666 -46.5 -120.999s-68.167 -50 -111.5 -50s-80.666 16.667 -111.999 50s-47 73.666 -47 120.999zM119 522
c0 -24 7.5 -44.333 22.5 -61s33.167 -25 54.5 -25c22.667 0 41.834 8.33301 57.501 25s23.5 37 23.5 61c0 25.333 -7.83301 46.5 -23.5 63.5s-34.834 25.5 -57.501 25.5c-21.333 0 -39.5 -8.5 -54.5 -25.5s-22.5 -38.167 -22.5 -63.5z" />
    <glyph glyph-name="guillemotright" unicode="&#xbb;" horiz-adv-x="495" 
d="M316 446l141 -193l-139 -193l-69 57l101 133l-104 138zM107 446l142 -193l-139 -193l-70 57l102 133l-105 138z" />
    <glyph glyph-name="onequarter" unicode="&#xbc;" horiz-adv-x="637" 
d="M38 685c5.33301 1.33301 32.333 4.33496 81 9.00195s76 7 82 7c0 -36.667 -0.166992 -87.667 -0.5 -153s-0.5 -116.333 -0.5 -153h-80c0.666992 16.667 1.83398 54.667 3.50098 114s3.16699 96.666 4.5 111.999c-2.66699 -0.666992 -17.334 -3.33398 -44.001 -8.00098
s-42 -7.66699 -46 -9c0 0.666992 -0.166992 2.66699 -0.5 6s-0.5 6.33301 -0.5 9c0 6.66699 0.166992 15.5 0.5 26.5s0.5 20.5 0.5 28.5v11zM384 700.002h109l-247 -700h-105zM396 100.002c0 0.666992 7.16895 32 21.502 94l24.5 106l64 -24l-33 -121
c3.33301 0 13.166 0.333008 29.499 1s26.166 1 29.499 1c0 15.333 0.166992 38.333 0.5 69s0.5 54 0.5 70l66 8v-304h-71c0 14 0.333008 33.5 1 58.5s1 38.167 1 39.5c-4 0 -26.667 0.333008 -68 1s-63.333 1 -66 1z" />
    <glyph glyph-name="onehalf" unicode="&#xbd;" horiz-adv-x="651" 
d="M38 685c5.33301 1.33301 32.333 4.33496 81 9.00195s76 7 82 7c0 -36.667 -0.166992 -87.667 -0.5 -153s-0.5 -116.333 -0.5 -153h-80c0.666992 16.667 1.83398 54.667 3.50098 114s3.16699 96.666 4.5 111.999c-2.66699 -0.666992 -17.334 -3.33398 -44.001 -8.00098
s-42 -7.66699 -46 -9c0 0.666992 -0.166992 2.66699 -0.5 6s-0.5 6.33301 -0.5 9c0 6.66699 0.166992 15.5 0.5 26.5s0.5 20.5 0.5 28.5v11zM384 700.002h109l-247 -700h-105zM402 249.002c8 16.667 21.6641 30.3311 40.9971 40.998s39.333 16 60 16
c26.667 0 49.334 -9.66699 68.001 -29s28 -47.666 28 -84.999c0 -39.333 -14.667 -73.666 -44 -102.999c-13.333 -13.333 -27.666 -24 -42.999 -32c2.66699 0 9 0.5 19 1.5l43 4.5l48 5v-68h-212l-4 58c28 7.33301 55.833 24.333 83.5 51s41.5 53.667 41.5 81
c0 13.333 -3 23.666 -9 30.999s-14 11 -24 11c-13.333 0 -26.5 -5.66699 -39.5 -17s-21.833 -22.666 -26.5 -33.999l-14 34c-9.33301 22.667 -14.666 34 -15.999 34z" />
    <glyph glyph-name="threequarters" unicode="&#xbe;" horiz-adv-x="629" 
d="M376 700h109l-247 -700h-105zM388 100c0 0.666992 7.16895 32 21.502 94l24.5 106l64 -24l-33 -121c3.33301 0 13.166 0.333008 29.499 1s26.166 1 29.499 1c0 15.333 0.166992 38.333 0.5 69s0.5 54 0.5 70l66 8v-304h-71c0 14 0.333008 33.5 1 58.5s1 38.167 1 39.5
c-4 0 -26.667 0.333008 -68 1s-63.333 1 -66 1zM171.002 489c0 20.667 -15.3369 30.998 -46.0039 30.998c-4.66699 0 -9.33398 -0.333008 -14.001 -1l-7 -1v68l7 -1c4.66699 -0.666992 9.33398 -1 14.001 -1c12 0 22.667 2.66699 32 8s14 13.333 14 24
c0 20.667 -10.333 31 -31 31c-12 0 -25.5 -4.5 -40.5 -13.5s-26.5 -19.167 -34.5 -30.5l-32 64c5.33301 5.33301 12.333 11 21 17s21.834 12.333 39.501 19s35.5 10 53.5 10c30.667 0 54.334 -8.16699 71.001 -24.5s25 -37.166 25 -62.499c0 -31.333 -14 -56 -42 -74
c28 -18 42 -42.667 42 -74c0 -25.333 -8 -46.166 -24 -62.499s-39.333 -24.5 -70 -24.5c-25.333 0 -49.166 5.33301 -71.499 16s-37.166 20.667 -44.499 30c7.33301 13.333 18 35 32 65c8 -12 19.5 -22.333 34.5 -31s28.5 -13 40.5 -13c20 0 30.333 10.333 31 31z" />
    <glyph glyph-name="questiondown" unicode="&#xbf;" horiz-adv-x="397" 
d="M342 248l40.9961 -158.004c-65.333 -45.333 -129.333 -68 -192 -68c-47.333 0 -86.666 17.833 -117.999 53.5s-47 85.5 -47 149.5c0 20 2 39.333 6 58s9.33301 35.334 16 50.001s14.834 29 24.501 43s19.5 26.167 29.5 36.5s20.833 20.333 32.5 30
s22.5 17.834 32.5 24.501s20.333 12.834 31 18.501l26 13.5c6.66699 3.33301 13.334 6.33301 20.001 9l9 4c0 -0.666992 4.33301 -16.5 13 -47.5s13.334 -46.833 14.001 -47.5c-0.666992 -0.666992 -5.16699 -4.16699 -13.5 -10.5s-15 -11.833 -20 -16.5
s-11.833 -11.5 -20.5 -20.5s-15.5 -17.5 -20.5 -25.5s-9.5 -17.667 -13.5 -29s-6 -22.333 -6 -33c0 -31.333 10.5 -53.166 31.5 -65.499s44 -14.833 69 -7.5s43.5 20.333 55.5 39zM153.996 643.996c0 23.333 7.16699 42 21.5 56s32.5 21 54.5 21c21.333 0 39.333 -7 54 -21
s22 -32.667 22 -56c0 -24 -7.33301 -43 -22 -57s-32.667 -21 -54 -21c-22 0 -40.167 7 -54.5 21s-21.5 33 -21.5 57z" />
    <glyph glyph-name="Agrave" unicode="&#xc0;" horiz-adv-x="609" 
d="M333 754l-245 107l48 88l221 -140zM420 706c0 -1.33301 27.1699 -116.834 81.5029 -346.501s81.833 -345.167 82.5 -346.5l-164 -25c0 0.666992 -2.5 12.834 -7.5 36.501l-16 77.5c-5.66699 28 -9.16699 46.667 -10.5 56c-0.666992 0 -2.83398 0.166992 -6.50098 0.5
s-7.16699 0.5 -10.5 0.5c-16.667 0 -45.334 -0.833008 -86.001 -2.5s-63.334 -2.5 -68.001 -2.5l-37 -165l-153 30c1.33301 5.33301 17.333 63.333 48 174l91 327l45 161c4 0 39.333 4.16699 106 12.5s101.667 12.5 105 12.5zM234.003 297.999l137.001 -10
c-4 14.667 -12.833 54.834 -26.5 120.501s-22.834 113.167 -27.501 142.5c-9.33301 -1.33301 -15.333 -2 -18 -2c-12 -54.667 -33.667 -138.334 -65 -251.001z" />
    <glyph glyph-name="Aacute" unicode="&#xc1;" horiz-adv-x="609" 
d="M534 861l-246 -107c-2 6 -5.83301 15.167 -11.5 27.5s-9.5 21.5 -11.5 27.5l221 140zM420 706c0 -1.33301 27.1699 -116.834 81.5029 -346.501s81.833 -345.167 82.5 -346.5l-164 -25c0 0.666992 -2.5 12.834 -7.5 36.501l-16 77.5c-5.66699 28 -9.16699 46.667 -10.5 56
c-0.666992 0 -2.83398 0.166992 -6.50098 0.5s-7.16699 0.5 -10.5 0.5c-16.667 0 -45.334 -0.833008 -86.001 -2.5s-63.334 -2.5 -68.001 -2.5l-37 -165l-153 30c1.33301 5.33301 17.333 63.333 48 174l91 327l45 161c4 0 39.333 4.16699 106 12.5s101.667 12.5 105 12.5z
M234.003 297.999l137.001 -10c-4 14.667 -12.833 54.834 -26.5 120.501s-22.834 113.167 -27.501 142.5c-9.33301 -1.33301 -15.333 -2 -18 -2c-12 -54.667 -33.667 -138.334 -65 -251.001z" />
    <glyph glyph-name="Acircumflex" unicode="&#xc2;" horiz-adv-x="609" 
d="M328 945l177.001 -125c-4 -4 -9.83301 -10.667 -17.5 -20s-15 -17.833 -22 -25.5s-13.167 -14.167 -18.5 -19.5l-119 99c-28.667 -21.333 -70.334 -54 -125.001 -98l-52 65zM420.001 706c0 -1.33301 27.1699 -116.834 81.5029 -346.501s81.833 -345.167 82.5 -346.5
l-164 -25c0 0.666992 -2.5 12.834 -7.5 36.501l-16 77.5c-5.66699 28 -9.16699 46.667 -10.5 56c-0.666992 0 -2.83398 0.166992 -6.50098 0.5s-7.16699 0.5 -10.5 0.5c-16.667 0 -45.334 -0.833008 -86.001 -2.5s-63.334 -2.5 -68.001 -2.5l-37 -165l-153 30
c1.33301 5.33301 17.333 63.333 48 174l91 327l45 161c4 0 39.333 4.16699 106 12.5s101.667 12.5 105 12.5zM234.004 297.999l137.001 -10c-4 14.667 -12.833 54.834 -26.5 120.501s-22.834 113.167 -27.501 142.5c-9.33301 -1.33301 -15.333 -2 -18 -2
c-12 -54.667 -33.667 -138.334 -65 -251.001z" />
    <glyph glyph-name="Atilde" unicode="&#xc3;" horiz-adv-x="609" 
d="M390 746c-18 0 -41.999 8 -71.999 24s-52.333 24 -67 24c-21.333 0 -32 -12.333 -32 -37v-12l-74 -5c-4.66699 12 -7 29 -7 51c0 26.667 6.66699 47.834 20 63.501s32.666 23.5 57.999 23.5c19.333 0 46 -8.66699 80 -26s55.333 -26 64 -26c15.333 0 23 10.333 23 31v18
l38 3c16.667 1.33301 29 2.66602 37 3.99902c5.33301 -21.333 8 -40.333 8 -57c0 -24.667 -6.33301 -44 -19 -58s-31.667 -21 -57 -21zM420.001 706c0 -1.33301 27.1699 -116.834 81.5029 -346.501s81.833 -345.167 82.5 -346.5l-164 -25
c0 0.666992 -2.5 12.834 -7.5 36.501l-16 77.5c-5.66699 28 -9.16699 46.667 -10.5 56c-0.666992 0 -2.83398 0.166992 -6.50098 0.5s-7.16699 0.5 -10.5 0.5c-16.667 0 -45.334 -0.833008 -86.001 -2.5s-63.334 -2.5 -68.001 -2.5l-37 -165l-153 30
c1.33301 5.33301 17.333 63.333 48 174l91 327l45 161c4 0 39.333 4.16699 106 12.5s101.667 12.5 105 12.5zM234.004 297.999l137.001 -10c-4 14.667 -12.833 54.834 -26.5 120.501s-22.834 113.167 -27.501 142.5c-9.33301 -1.33301 -15.333 -2 -18 -2
c-12 -54.667 -33.667 -138.334 -65 -251.001z" />
    <glyph glyph-name="Adieresis" unicode="&#xc4;" horiz-adv-x="609" 
d="M258 815c0 -19.333 -5.66699 -34.5 -17 -45.5s-26 -16.5 -44 -16.5c-17.333 0 -31.833 5.66699 -43.5 17s-17.5 26.333 -17.5 45c0 19.333 5.83301 34.833 17.5 46.5s26.167 17.5 43.5 17.5c18 0 32.667 -5.83301 44 -17.5s17 -27.167 17 -46.5zM487 815
c0 -19.333 -5.66699 -34.5 -17 -45.5s-26 -16.5 -44 -16.5c-17.333 0 -31.666 5.66699 -42.999 17s-17 26.333 -17 45c0 19.333 5.66699 34.833 17 46.5s25.666 17.5 42.999 17.5c18 0 32.667 -5.83301 44 -17.5s17 -27.167 17 -46.5zM420 706
c0 -1.33301 27.1699 -116.834 81.5029 -346.501s81.833 -345.167 82.5 -346.5l-164 -25c0 0.666992 -2.5 12.834 -7.5 36.501l-16 77.5c-5.66699 28 -9.16699 46.667 -10.5 56c-0.666992 0 -2.83398 0.166992 -6.50098 0.5s-7.16699 0.5 -10.5 0.5
c-16.667 0 -45.334 -0.833008 -86.001 -2.5s-63.334 -2.5 -68.001 -2.5l-37 -165l-153 30c1.33301 5.33301 17.333 63.333 48 174l91 327l45 161c4 0 39.333 4.16699 106 12.5s101.667 12.5 105 12.5zM234.003 297.999l137.001 -10c-4 14.667 -12.833 54.834 -26.5 120.501
s-22.834 113.167 -27.501 142.5c-9.33301 -1.33301 -15.333 -2 -18 -2c-12 -54.667 -33.667 -138.334 -65 -251.001z" />
    <glyph glyph-name="Aring" unicode="&#xc5;" horiz-adv-x="609" 
d="M419 847c0 -29.333 -11 -52.666 -33 -69.999s-49.333 -26 -82 -26s-60.167 8.66699 -82.5 26s-33.5 40.666 -33.5 69.999s11.167 52.666 33.5 69.999s49.833 26 82.5 26s60 -8.66699 82 -26s33 -40.666 33 -69.999zM255 849c0 -13.333 4.66699 -24.666 14 -33.999
s20.666 -14 33.999 -14s24.666 4.66699 33.999 14s14 20.666 14 33.999s-4.66699 24.666 -14 33.999s-20.666 14 -33.999 14s-24.666 -4.66699 -33.999 -14s-14 -20.666 -14 -33.999zM420 706c0 -1.33301 27.1699 -116.834 81.5029 -346.501s81.833 -345.167 82.5 -346.5
l-164 -25c0 0.666992 -2.5 12.834 -7.5 36.501l-16 77.5c-5.66699 28 -9.16699 46.667 -10.5 56c-0.666992 0 -2.83398 0.166992 -6.50098 0.5s-7.16699 0.5 -10.5 0.5c-16.667 0 -45.334 -0.833008 -86.001 -2.5s-63.334 -2.5 -68.001 -2.5l-37 -165l-153 30
c1.33301 5.33301 17.333 63.333 48 174l91 327l45 161c4 0 39.333 4.16699 106 12.5s101.667 12.5 105 12.5zM234.003 297.999l137.001 -10c-4 14.667 -12.833 54.834 -26.5 120.501s-22.834 113.167 -27.501 142.5c-9.33301 -1.33301 -15.333 -2 -18 -2
c-12 -54.667 -33.667 -138.334 -65 -251.001z" />
    <glyph glyph-name="AE" unicode="&#xc6;" horiz-adv-x="793" 
d="M767 164l-9 -153.001l-169 -7.5c-82.667 -3.66699 -139.334 -5.83398 -170.001 -6.50098l-15 70c-8.66699 40.667 -15 72 -19 94c-20 0 -49.833 -0.5 -89.5 -1.5s-67.167 -1.5 -82.5 -1.5c-4 -18.667 -10.333 -45.5 -19 -80.5l-19 -76.5l-150 29l84 296l99 347l559 28
c-2.66699 -24 -5.33398 -54.667 -8.00098 -92s-4.66699 -62.666 -6 -75.999l-287 8c18.667 -76.667 32.667 -136 42 -178c16.667 3.33301 46.167 6.83301 88.5 10.5s65.833 5.83398 70.5 6.50098c0 -14.667 -0.166992 -35.667 -0.5 -63s-0.5 -48.333 -0.5 -63
c-9.33301 0 -31.166 0.333008 -65.499 1s-58.833 1 -73.5 1c6.66699 -32.667 15.334 -73 26.001 -121c18 2.66699 53.667 7.5 107 14.5s89 11.833 107 14.5zM232 291.999l138.001 -7.99902c-12.667 48 -30.667 131 -54 249c-6.66699 0 -12.334 -0.333008 -17.001 -1
c-4 -16.667 -10.833 -42.334 -20.5 -77.001l-29.5 -104.5c-10 -35 -15.667 -54.5 -17 -58.5z" />
    <glyph glyph-name="Ccedilla" unicode="&#xc7;" horiz-adv-x="581" 
d="M316 709c22.667 0 44.334 -1.16699 65.001 -3.5s38.667 -5.66602 54 -9.99902s29.5 -8.83301 42.5 -13.5s24.167 -9.66699 33.5 -15s17 -10 23 -14l16 -11l6 -6c0 -0.666992 -4.33301 -26.167 -13 -76.5s-13 -76.166 -13 -77.499l-15.5 7.5
c-9 4.33301 -16.833 7.83301 -23.5 10.5l-26.5 11c-11 4.66699 -21.667 8.5 -32 11.5l-33 9.5c-11.667 3.33301 -23.5 5.83301 -35.5 7.5s-23.667 2.5 -35 2.5c-48.667 0 -87 -18.833 -115 -56.5s-42 -85.5 -42 -143.5c0 -63.333 14.333 -111.166 43 -143.499
s65.667 -48.5 111 -48.5c62.667 0 130.667 19.667 204 59c0 -2 4.33301 -27.833 13 -77.5s13 -74.834 13 -75.501l-6 -5l-15 -10.5c-5.33301 -3.66699 -12.333 -8 -21 -13s-19 -9.83301 -31 -14.5s-25 -9.16699 -39 -13.5s-30.5 -7.83301 -49.5 -10.5
s-38.833 -4.33398 -59.5 -5.00098c0 -2.66699 -0.166992 -6.33398 -0.5 -11.001s-0.5 -8 -0.5 -10c28.667 -2 51.167 -10.5 67.5 -25.5s24.5 -28.167 24.5 -39.5c0 -18.667 -6.33301 -35.167 -19 -49.5s-27.167 -24.833 -43.5 -31.5s-34.5 -12 -54.5 -16
s-34.5 -6.33301 -43.5 -7s-15.5 -1 -19.5 -1c-5.33301 24 -9.33301 45.333 -12 64c24.667 1.33301 42 3 52 5c35.333 6.66699 53 17.667 53 33c0 20.667 -22.333 31 -67 31l-4 62c-72.667 10 -130.334 45 -173.001 105s-66 143.667 -70 251
c1.33301 118 28.833 208.333 82.5 271s123.167 94 208.5 94z" />
    <glyph glyph-name="Egrave" unicode="&#xc8;" horiz-adv-x="485" 
d="M277 754l-246 107l48 88l221 -140l-12 -27.5c-5.33301 -12.333 -9 -21.5 -11 -27.5zM450 0l-416 -0.000976562l5 158l10 323.5c3.33301 110.333 5 171.5 5 183.5c0 0.666992 24.5 3.33398 73.5 8.00098s106.333 9.66699 172 15s119.167 9.33301 160.5 12
c-2.66699 -26.667 -5.66699 -60 -9 -100s-5.33301 -64.667 -6 -74l-247 8c0 -20 0.166992 -49.667 0.5 -89s0.5 -69 0.5 -89l158 18l-2 -127h-105c-6 0 -14.5 0.166992 -25.5 0.5s-19.167 0.5 -24.5 0.5v-128l258 31z" />
    <glyph glyph-name="Eacute" unicode="&#xc9;" horiz-adv-x="476" 
d="M449 861l-245 -107l-24 55l221 140zM441 0l-416.001 0.000976562l10 330c6.66699 221.333 10 333.666 10 336.999c4.66699 0 31.167 2.16699 79.5 6.5l171.5 15c66 5.66699 117.667 9.5 155 11.5c-1.33301 -10.667 -6.66602 -68.667 -15.999 -174l-246 8
c0 -20 0.166992 -49.667 0.5 -89s0.5 -69 0.5 -89l157 18c0 -56 -0.333008 -98.333 -1 -127h-105c-6.66699 0 -15.5 0.166992 -26.5 0.5s-19.167 0.5 -24.5 0.5v-128l259 31z" />
    <glyph glyph-name="Ecircumflex" unicode="&#xca;" horiz-adv-x="476" 
d="M233 946l177.001 -125l-57 -65l-120 99c-54.667 -44 -96.334 -76.667 -125.001 -98l-51 64zM441.001 0l-416.001 0.000976562l10 330c6.66699 221.333 10 333.666 10 336.999c4.66699 0 31.167 2.16699 79.5 6.5l171.5 15c66 5.66699 117.667 9.5 155 11.5
c-1.33301 -10.667 -6.66602 -68.667 -15.999 -174l-246 8c0 -20 0.166992 -49.667 0.5 -89s0.5 -69 0.5 -89l157 18c0 -56 -0.333008 -98.333 -1 -127h-105c-6.66699 0 -15.5 0.166992 -26.5 0.5s-19.167 0.5 -24.5 0.5v-128l259 31z" />
    <glyph glyph-name="Edieresis" unicode="&#xcb;" horiz-adv-x="476" 
d="M441 0l-416.001 0.000976562l10 330c6.66699 221.333 10 333.666 10 336.999c4.66699 0 31.167 2.16699 79.5 6.5l171.5 15c66 5.66699 117.667 9.5 155 11.5c-1.33301 -10.667 -6.66602 -68.667 -15.999 -174l-246 8c0 -20 0.166992 -49.667 0.5 -89s0.5 -69 0.5 -89
l157 18c0 -56 -0.333008 -98.333 -1 -127h-105c-6.66699 0 -15.5 0.166992 -26.5 0.5s-19.167 0.5 -24.5 0.5v-128l259 31zM172.999 817.001c0 -19.333 -5.66699 -34.5 -17 -45.5s-26 -16.5 -44 -16.5c-17.333 0 -31.833 5.66699 -43.5 17s-17.5 26.333 -17.5 45
c0 19.333 5.83301 34.833 17.5 46.5s26.167 17.5 43.5 17.5c18 0 32.667 -5.83301 44 -17.5s17 -27.167 17 -46.5zM401.999 817.001c0 -19.333 -5.66699 -34.5 -17 -45.5s-26 -16.5 -44 -16.5c-17.333 0 -31.666 5.66699 -42.999 17s-17 26.333 -17 45
c0 19.333 5.66699 34.833 17 46.5s25.666 17.5 42.999 17.5c18 0 32.667 -5.83301 44 -17.5s17 -27.167 17 -46.5z" />
    <glyph glyph-name="Igrave" unicode="&#xcc;" horiz-adv-x="276" 
d="M94 684l10 1c6 0.666992 15 1.5 27 2.5s23 2.16699 33 3.5l71 7l2 -698h-163l10 339c6.66699 226.667 10 341.667 10 345zM216 754l-246 107l48 88l107 -68.5c67.333 -43 105.333 -66.833 114 -71.5z" />
    <glyph glyph-name="Iacute" unicode="&#xcd;" horiz-adv-x="378" 
d="M57 684l9 1c6.66699 0.666992 16 1.5 28 2.5s23 2.16699 33 3.5l71 7l2 -698h-163l10 339c6.66699 226.667 10 341.667 10 345zM341 861l-245.001 -107l-24 55c7.33301 4 44.333 27.333 111 70s103.334 66 110.001 70z" />
    <glyph glyph-name="Icircumflex" unicode="&#xce;" horiz-adv-x="324" 
d="M170 946l177 -125c-4 -4 -9.83301 -10.667 -17.5 -20s-15 -17.833 -22 -25.5s-13.167 -14.167 -18.5 -19.5l-119 99l-125 -98l-51 64zM92 684l10 1c6 0.666992 15 1.5 27 2.5s23 2.16699 33 3.5l71 7l2 -698h-163l10 339c6.66699 226.667 10 341.667 10 345z" />
    <glyph glyph-name="Idieresis" unicode="&#xcf;" horiz-adv-x="321" 
d="M98 684l10 1c6 0.666992 15 1.5 27 2.5s23 2.16699 33 3.5l71 7l3 -698h-164c0.666992 0 4.16699 112.5 10.5 337.5s9.5 340.5 9.5 346.5zM107 817c0 -19.333 -5.66699 -34.5 -17 -45.5s-26 -16.5 -44 -16.5c-17.333 0 -31.666 5.66699 -42.999 17s-17 26.333 -17 45
c0 19.333 5.66699 34.833 17 46.5s25.666 17.5 42.999 17.5c18 0 32.667 -5.83301 44 -17.5s17 -27.167 17 -46.5zM336 817c0 -19.333 -5.66699 -34.5 -17 -45.5s-26 -16.5 -44 -16.5c-17.333 0 -31.666 5.66699 -42.999 17s-17 26.333 -17 45
c0 19.333 5.66699 34.833 17 46.5s25.666 17.5 42.999 17.5c18 0 32.667 -5.83301 44 -17.5s17 -27.167 17 -46.5z" />
    <glyph glyph-name="Eth" unicode="&#xd0;" horiz-adv-x="604" 
d="M-8 297v80.998l67 2c-1.33301 158.667 -1.33301 261.334 0 308.001c39.333 12 85.666 18 138.999 18c110.667 0 201.334 -30.167 272.001 -90.5s106.667 -145.833 108 -256.5c0 -107.333 -36.833 -192.833 -110.5 -256.5s-168.167 -96.167 -283.5 -97.5
c-60.667 0 -102 3.66699 -124 11c0 8.66699 -0.166992 45.834 -0.5 111.501s-0.5 122.167 -0.5 169.5h-67zM215 539.998h-12.001c0 -17.333 0.166992 -43.333 0.5 -78s0.5 -60.667 0.5 -78c12 0.666992 48.667 2 110 4v-92c-10.667 0 -28 0.166992 -52 0.5
s-42.667 0.5 -56 0.5c0 -54 0.333008 -94.333 1 -121c20 0 39.167 1.16699 57.5 3.5s37.833 7.5 58.5 15.5s38.5 18.333 53.5 31s27.5 30.167 37.5 52.5s15.333 48.166 16 77.499c-0.666992 36 -7.66699 66.833 -21 92.5s-31.166 44.834 -53.499 57.501
s-44.833 21.5 -67.5 26.5s-47 7.5 -73 7.5z" />
    <glyph glyph-name="Ntilde" unicode="&#xd1;" horiz-adv-x="554" 
d="M514 0l-147 0.00195312c-22 34.667 -86.667 159 -194 373l-3 -373h-145l29 684l123 14l199 -443v63c0 43.333 -0.5 113.166 -1.5 209.499s-1.5 148.5 -1.5 156.5l156 14c0 -15.333 -2.5 -132.833 -7.5 -352.5s-7.5 -334.834 -7.5 -345.501zM364 756.002
c-17.333 0 -41.001 8.16699 -71.001 24.5s-53.333 24.5 -70 24.5c-20 0 -30 -16 -30 -48l-74 -6c-4.66699 15.333 -7 32.333 -7 51c0 26 6.83301 47 20.5 63s33.167 24 58.5 24c18.667 0 44.834 -8.83301 78.501 -26.5s55.167 -26.5 64.5 -26.5c16 0 24 11.333 24 34
c0 2 -0.166992 4.83301 -0.5 8.5s-0.5 6.16699 -0.5 7.5l75 6c5.33301 -14.667 8 -33.667 8 -57s-6.5 -42.333 -19.5 -57s-31.833 -22 -56.5 -22z" />
    <glyph glyph-name="Ograve" unicode="&#xd2;" 
d="M358 754l-246 107l48 88l221 -140c-2.66699 -6 -6.5 -15.167 -11.5 -27.5s-8.83301 -21.5 -11.5 -27.5zM664 341c-2 -64 -14.168 -122 -36.501 -174s-57.833 -95.167 -106.5 -129.5s-106.667 -51.5 -174 -51.5c-32 0 -62.667 3.83301 -92 11.5s-58 20.667 -86 39
s-52.333 41.333 -73 69s-37.5 62.667 -50.5 105s-19.833 89.833 -20.5 142.5c1.33301 64 11.333 119.833 30 167.5s43.834 84.834 75.501 111.501s66 46.167 103 58.5s77.167 18.5 120.5 18.5c39.333 0 76.333 -6.33301 111 -19s67.5 -32.5 98.5 -59.5
s55.5 -65.333 73.5 -115s27 -107.834 27 -174.501zM347.999 135c51.333 0 91 21 119 63s42 91 42 147c0 76 -15.333 131.167 -46 165.5s-68 51.5 -112 51.5c-47.333 0 -86.833 -16.833 -118.5 -50.5s-48.167 -86.5 -49.5 -158.5c1.33301 -74.667 17.833 -129.667 49.5 -165
s70.167 -53 115.5 -53z" />
    <glyph glyph-name="Oacute" unicode="&#xd3;" 
d="M549 861l-245 -107l-24 55l221 140zM664 341c-2 -64 -14.168 -122 -36.501 -174s-57.833 -95.167 -106.5 -129.5s-106.667 -51.5 -174 -51.5c-32 0 -62.667 3.83301 -92 11.5s-58 20.667 -86 39s-52.333 41.333 -73 69s-37.5 62.667 -50.5 105
s-19.833 89.833 -20.5 142.5c1.33301 64 11.333 119.833 30 167.5s43.834 84.834 75.501 111.501s66 46.167 103 58.5s77.167 18.5 120.5 18.5c39.333 0 76.333 -6.33301 111 -19s67.5 -32.5 98.5 -59.5s55.5 -65.333 73.5 -115s27 -107.834 27 -174.501zM347.999 135
c51.333 0 91 21 119 63s42 91 42 147c0 76 -15.333 131.167 -46 165.5s-68 51.5 -112 51.5c-47.333 0 -86.833 -16.833 -118.5 -50.5s-48.167 -86.5 -49.5 -158.5c1.33301 -74.667 17.833 -129.667 49.5 -165s70.167 -53 115.5 -53z" />
    <glyph glyph-name="Ocircumflex" unicode="&#xd4;" 
d="M664 341c-2 -64 -14.168 -122 -36.501 -174s-57.833 -95.167 -106.5 -129.5s-106.667 -51.5 -174 -51.5c-32 0 -62.667 3.83301 -92 11.5s-58 20.667 -86 39s-52.333 41.333 -73 69s-37.5 62.667 -50.5 105s-19.833 89.833 -20.5 142.5
c1.33301 64 11.333 119.833 30 167.5s43.834 84.834 75.501 111.501s66 46.167 103 58.5s77.167 18.5 120.5 18.5c39.333 0 76.333 -6.33301 111 -19s67.5 -32.5 98.5 -59.5s55.5 -65.333 73.5 -115s27 -107.834 27 -174.501zM347.999 135c51.333 0 91 21 119 63
s42 91 42 147c0 76 -15.333 131.167 -46 165.5s-68 51.5 -112 51.5c-47.333 0 -86.833 -16.833 -118.5 -50.5s-48.167 -86.5 -49.5 -158.5c1.33301 -74.667 17.833 -129.667 49.5 -165s70.167 -53 115.5 -53zM155.999 819l177 125l177 -125
c-4 -4 -9.83301 -10.667 -17.5 -20s-15 -17.833 -22 -25.5s-13.167 -14.167 -18.5 -19.5l-119 99l-125 -98z" />
    <glyph glyph-name="Otilde" unicode="&#xd5;" 
d="M664 341c-2 -64 -14.168 -122 -36.501 -174s-57.833 -95.167 -106.5 -129.5s-106.667 -51.5 -174 -51.5c-32 0 -62.667 3.83301 -92 11.5s-58 20.667 -86 39s-52.333 41.333 -73 69s-37.5 62.667 -50.5 105s-19.833 89.833 -20.5 142.5
c1.33301 64 11.333 119.833 30 167.5s43.834 84.834 75.501 111.501s66 46.167 103 58.5s77.167 18.5 120.5 18.5c39.333 0 76.333 -6.33301 111 -19s67.5 -32.5 98.5 -59.5s55.5 -65.333 73.5 -115s27 -107.834 27 -174.501zM347.999 135c51.333 0 91 21 119 63
s42 91 42 147c0 76 -15.333 131.167 -46 165.5s-68 51.5 -112 51.5c-47.333 0 -86.833 -16.833 -118.5 -50.5s-48.167 -86.5 -49.5 -158.5c1.33301 -74.667 17.833 -129.667 49.5 -165s70.167 -53 115.5 -53zM421.999 755c-18 0 -41.835 8 -71.502 24s-52.167 24 -67.5 24
c-21.333 0 -32 -16 -32 -48l-74 -6c-4.66699 15.333 -7 32.333 -7 51c0 26.667 6.66699 47.834 20 63.501s33 23.5 59 23.5c18.667 0 44.834 -8.66699 78.501 -26s55.167 -26 64.5 -26c16 0 24 11 24 33c0 2.66699 -0.166992 5.66699 -0.5 9s-0.5 5.66602 -0.5 6.99902
c8 1.33301 20.333 2.5 37 3.5s29.334 2.16699 38.001 3.5c5.33301 -16 8 -35 8 -57c0 -24.667 -6.33301 -44 -19 -58s-31.667 -21 -57 -21z" />
    <glyph glyph-name="Odieresis" unicode="&#xd6;" 
d="M664 341c-2 -64 -14.168 -122 -36.501 -174s-57.833 -95.167 -106.5 -129.5s-106.667 -51.5 -174 -51.5c-32 0 -62.667 3.83301 -92 11.5s-58 20.667 -86 39s-52.333 41.333 -73 69s-37.5 62.667 -50.5 105s-19.833 89.833 -20.5 142.5
c1.33301 64 11.333 119.833 30 167.5s43.834 84.834 75.501 111.501s66 46.167 103 58.5s77.167 18.5 120.5 18.5c39.333 0 76.333 -6.33301 111 -19s67.5 -32.5 98.5 -59.5s55.5 -65.333 73.5 -115s27 -107.834 27 -174.501zM347.999 135c51.333 0 91 21 119 63
s42 91 42 147c0 76 -15.333 131.167 -46 165.5s-68 51.5 -112 51.5c-47.333 0 -86.833 -16.833 -118.5 -50.5s-48.167 -86.5 -49.5 -158.5c1.33301 -74.667 17.833 -129.667 49.5 -165s70.167 -53 115.5 -53zM288.999 823c0 -19.333 -5.66699 -34.5 -17 -45.5
s-26 -16.5 -44 -16.5c-16.667 0 -30.834 5.66699 -42.501 17s-17.5 26.333 -17.5 45c0 19.333 5.83301 34.833 17.5 46.5s25.834 17.5 42.501 17.5c18 0 32.667 -5.83301 44 -17.5s17 -27.167 17 -46.5zM518.999 823c0 -19.333 -5.83301 -34.5 -17.5 -45.5
s-26.5 -16.5 -44.5 -16.5c-16.667 0 -30.834 5.66699 -42.501 17s-17.5 26.333 -17.5 45c0 19.333 5.83301 34.833 17.5 46.5s25.834 17.5 42.501 17.5c18 0 32.833 -5.83301 44.5 -17.5s17.5 -27.167 17.5 -46.5z" />
    <glyph glyph-name="multiply" unicode="&#xd7;" horiz-adv-x="403" 
d="M37 522l57 55l105 -104l103 102l61 -65l-104 -96l103 -102l-61 -58l-99 105c-11.333 -12 -28.833 -28.833 -52.5 -50.5l-53.5 -49.5l-54 56l98 99z" />
    <glyph glyph-name="Oslash" unicode="&#xd8;" 
d="M588 98c-30 -36 -65.999 -63.667 -107.999 -83s-86.333 -29 -133 -29c-38 0 -75 6 -111 18l-51 -123l-77 26l56 133c-92.667 66.667 -139 171 -139 313c1.33301 62.667 11.166 117.667 29.499 165s43 84.5 74 111.5s64.833 47 101.5 60s76 19.5 118 19.5
c36.667 0 70 -4.33301 100 -13l41 93l79 -15l-47 -111c95.333 -60.667 143 -168 143 -322c-2.66699 -102.667 -28 -183.667 -76 -243zM471.001 201c25.333 34 38 82 38 144c0 76.667 -17.667 132.667 -53 168l-159 -370c17.333 -5.33301 32.333 -8 45 -8c56 0 99 22 129 66z
M183.001 353c0.666992 -69.333 17.333 -122 50 -158l158 361c-12.667 4 -26 6 -40 6c-46.667 0 -86 -17.167 -118 -51.5s-48.667 -86.833 -50 -157.5z" />
    <glyph glyph-name="Ugrave" unicode="&#xd9;" horiz-adv-x="600" 
d="M314 754l-245 107l48 88l221 -140zM294 -15c-50.667 0.666992 -94.168 11.168 -130.501 31.501s-64.166 47.833 -83.499 82.5s-33.333 71.834 -42 111.501s-13 83.167 -13 130.5c0 37.333 2.33301 77.666 7 120.999s9.5 78.666 14.5 105.999s10.5 55.333 16.5 84
s9 43.334 9 44.001l166 2c-29.333 -150.667 -44 -267.667 -44 -351c0 -138.667 35.667 -208 107 -208s107 74.333 107 223c0 31.333 -1.66699 66.333 -5 105s-6.83301 71 -10.5 97l-12 83c-4.33301 29.333 -6.83301 45.333 -7.5 48c88 1.33301 142.333 2.66602 163 3.99902
c25.333 -101.333 38 -207 38 -317c0 -262 -93.333 -394.333 -280 -397z" />
    <glyph glyph-name="Uacute" unicode="&#xda;" horiz-adv-x="600" 
d="M515 861l-245 -107l-24 55l221 140zM294 -15c-50.667 0.666992 -94.168 11.168 -130.501 31.501s-64.166 47.833 -83.499 82.5s-33.333 71.834 -42 111.501s-13 83.167 -13 130.5c0 37.333 2.33301 77.666 7 120.999s9.5 78.666 14.5 105.999s10.5 55.333 16.5 84
s9 43.334 9 44.001l166 2c-29.333 -150.667 -44 -267.667 -44 -351c0 -138.667 35.667 -208 107 -208s107 74.333 107 223c0 31.333 -1.66699 66.333 -5 105s-6.83301 71 -10.5 97l-12 83c-4.33301 29.333 -6.83301 45.333 -7.5 48c88 1.33301 142.333 2.66602 163 3.99902
c25.333 -101.333 38 -207 38 -317c0 -262 -93.333 -394.333 -280 -397z" />
    <glyph glyph-name="Ucircumflex" unicode="&#xdb;" horiz-adv-x="600" 
d="M294 -15c-50.667 0.666992 -94.168 11.168 -130.501 31.501s-64.166 47.833 -83.499 82.5s-33.333 71.834 -42 111.501s-13 83.167 -13 130.5c0 37.333 2.33301 77.666 7 120.999s9.5 78.666 14.5 105.999s10.5 55.333 16.5 84s9 43.334 9 44.001l166 2
c-29.333 -150.667 -44 -267.667 -44 -351c0 -138.667 35.667 -208 107 -208s107 74.333 107 223c0 31.333 -1.66699 66.333 -5 105s-6.83301 71 -10.5 97l-12 83c-4.33301 29.333 -6.83301 45.333 -7.5 48c88 1.33301 142.333 2.66602 163 3.99902
c25.333 -101.333 38 -207 38 -317c0 -262 -93.333 -394.333 -280 -397zM307.999 944.001l177.001 -125l-57 -65l-120 99c-54.667 -44 -96.334 -76.667 -125.001 -98l-51 64z" />
    <glyph glyph-name="Udieresis" unicode="&#xdc;" horiz-adv-x="600" 
d="M294 -15c-50.667 0.666992 -94.168 11.168 -130.501 31.501s-64.166 47.833 -83.499 82.5s-33.333 71.834 -42 111.501s-13 83.167 -13 130.5c0 37.333 2.33301 77.666 7 120.999s9.5 78.666 14.5 105.999s10.5 55.333 16.5 84s9 43.334 9 44.001l166 2
c-29.333 -150.667 -44 -267.667 -44 -351c0 -138.667 35.667 -208 107 -208s107 74.333 107 223c0 31.333 -1.66699 66.333 -5 105s-6.83301 71 -10.5 97l-12 83c-4.33301 29.333 -6.83301 45.333 -7.5 48c88 1.33301 142.333 2.66602 163 3.99902
c25.333 -101.333 38 -207 38 -317c0 -262 -93.333 -394.333 -280 -397zM245.999 817.001c0 -19.333 -5.66699 -34.5 -17 -45.5s-26 -16.5 -44 -16.5c-16.667 0 -30.834 5.66699 -42.501 17s-17.5 26.333 -17.5 45c0 19.333 5.83301 34.833 17.5 46.5
s25.834 17.5 42.501 17.5c18 0 32.667 -5.83301 44 -17.5s17 -27.167 17 -46.5zM475.999 817.001c0 -19.333 -5.83301 -34.5 -17.5 -45.5s-26.5 -16.5 -44.5 -16.5c-16.667 0 -30.834 5.66699 -42.501 17s-17.5 26.333 -17.5 45c0 19.333 5.83301 34.833 17.5 46.5
s25.834 17.5 42.501 17.5c18 0 32.833 -5.83301 44.5 -17.5s17.5 -27.167 17.5 -46.5z" />
    <glyph glyph-name="Yacute" unicode="&#xdd;" horiz-adv-x="649" 
d="M559 861l-245 -107l-24 55l221 140zM25 627c2 2 31.832 14.999 89.499 38.999s87.5 36 89.5 36c10.667 -28 34.167 -81.833 70.5 -161.5s58.833 -130.5 67.5 -152.5c8 26 26.833 78.167 56.5 156.5s48.834 131.166 57.501 158.499l168 -56l-207 -370l10 -277h-179
c0 6.66699 0.5 18.334 1.5 35.001s2.16699 37.834 3.5 63.501s2.33301 46.5 3 62.5l6 125l-115 164c-78 108.667 -118.667 167.667 -122 177z" />
    <glyph glyph-name="Thorn" unicode="&#xde;" horiz-adv-x="530" 
d="M52 685l151.001 13.998c0 -18.667 0.166992 -46.5 0.5 -83.5s0.5 -64.833 0.5 -83.5c26.667 14 54 21 82 21c55.333 0 103.5 -18.667 144.5 -56s61.5 -84.666 61.5 -141.999s-19.833 -105.166 -59.5 -143.499s-87.167 -57.5 -142.5 -57.5
c-32.667 0 -60.334 4.66699 -83.001 14c0 -17.333 0.166992 -45 0.5 -83s0.5 -66.333 0.5 -85h-171c0 0.666992 0.5 20.167 1.5 58.5s2.16699 86.166 3.5 143.499s2.83301 116.833 4.5 178.5s3 120.834 4 177.501s1.5 99 1.5 127zM205.001 420.998
c0 -17.333 0.334961 -43 1.00195 -77v-77c9.33301 -3.33301 21 -5 35 -5c29.333 0 54.166 8.16699 74.499 24.5s30.5 38.166 30.5 65.499c0 36 -16.333 62.333 -49 79s-63.334 13.334 -92.001 -9.99902z" />
    <glyph glyph-name="germandbls" unicode="&#xdf;" horiz-adv-x="592" 
d="M174 475c0 -20.667 0.332031 -42.4961 0.999023 -65.4961s1.5 -69 2.5 -138s2.16699 -159.5 3.5 -271.5h-157v433c0 29.333 1.5 55.833 4.5 79.5s9 47.5 18 71.5s20.833 44.167 35.5 60.5s34.667 29.666 60 39.999s54.666 15.5 87.999 15.5
c77.333 0 139.833 -17.833 187.5 -53.5s71.5 -78.167 71.5 -127.5c0 -67.333 -23 -119.333 -69 -156c-4 -4 -6 -7.66699 -6 -11c0 -6 5 -11 15 -15c20 -6.66699 36.833 -13.334 50.5 -20.001s28.5 -16 44.5 -28s28.167 -27.5 36.5 -46.5s12.5 -40.833 12.5 -65.5
c0 -65.333 -20.667 -113 -62 -143s-97.333 -45 -168 -45c-39.333 0 -69.666 2.66699 -90.999 8l2 118c5.33301 -2 13.666 -3.66699 24.999 -5c18.667 -3.33301 35.334 -5 50.001 -5c22.667 0 42.5 4.66699 59.5 14s25.5 23.333 25.5 42
c0 15.333 -8.83301 28.166 -26.5 38.499s-37.167 18.5 -58.5 24.5s-40.833 17.333 -58.5 34s-26.5 38 -26.5 64c0 20 12.5 50.667 37.5 92s37.5 69.666 37.5 84.999c0 16 -6.16699 28.333 -18.5 37s-27.166 13 -44.499 13c-22 0 -41.167 -6.33301 -57.5 -19
s-24.5 -31 -24.5 -55z" />
    <glyph glyph-name="agrave" unicode="&#xe0;" horiz-adv-x="555" 
d="M370 562l-246 107l48 88l221 -140c-2 -6 -5.83301 -15 -11.5 -27s-9.5 -21.333 -11.5 -28zM25 228c0 69.333 21.5039 127.832 64.5039 175.499s95.167 71.5 156.5 71.5c59.333 0 109 -23.667 149 -71h3l2 1l2 56c0 10.667 0.333008 18.334 1 23.001l9 1
c5.33301 0.666992 13.166 1.5 23.499 2.5s20.166 2.16699 29.499 3.5l62 7l3 -498h-145v57c-10.667 -25.333 -29.834 -43.833 -57.501 -55.5s-54.834 -17.5 -81.501 -17.5c-61.333 0 -113.5 23.667 -156.5 71s-64.5 105 -64.5 173zM158.004 224.999
c0 -32.667 10 -60.5 30 -83.5s44.667 -34.5 74 -34.5c30 0 55.667 11.667 77 35s32 51 32 83c0 34.667 -10.5 64 -31.5 88s-46.833 36 -77.5 36c-29.333 0 -54 -12 -74 -36s-30 -53.333 -30 -88z" />
    <glyph glyph-name="aacute" unicode="&#xe1;" horiz-adv-x="555" 
d="M501 667l-246 -107.002c-2 6.66699 -5.66699 15.834 -11 27.501s-9.33301 20.834 -12 27.501l221 140zM25 227.998c0 69.333 21.5039 127.832 64.5039 175.499s95.167 71.5 156.5 71.5c59.333 0 109 -23.667 149 -71h3l2 1l2 56c0 10.667 0.333008 18.334 1 23.001l9 1
c5.33301 0.666992 13.166 1.5 23.499 2.5s20.166 2.16699 29.499 3.5l62 7l3 -498h-145v57c-10.667 -25.333 -29.834 -43.833 -57.501 -55.5s-54.834 -17.5 -81.501 -17.5c-61.333 0 -113.5 23.667 -156.5 71s-64.5 105 -64.5 173zM158.004 224.997
c0 -32.667 10 -60.5 30 -83.5s44.667 -34.5 74 -34.5c30 0 55.667 11.667 77 35s32 51 32 83c0 34.667 -10.5 64 -31.5 88s-46.833 36 -77.5 36c-29.333 0 -54 -12 -74 -36s-30 -53.333 -30 -88z" />
    <glyph glyph-name="acircumflex" unicode="&#xe2;" horiz-adv-x="555" 
d="M306 751l177.001 -125l-57 -65l-120 99c-54.667 -44 -96.334 -76.667 -125.001 -98l-51 64zM25.001 228c0 69.333 21.5039 127.832 64.5039 175.499s95.167 71.5 156.5 71.5c59.333 0 109 -23.667 149 -71h3l2 1l2 56c0 10.667 0.333008 18.334 1 23.001l9 1
c5.33301 0.666992 13.166 1.5 23.499 2.5s20.166 2.16699 29.499 3.5l62 7l3 -498h-145v57c-10.667 -25.333 -29.834 -43.833 -57.501 -55.5s-54.834 -17.5 -81.501 -17.5c-61.333 0 -113.5 23.667 -156.5 71s-64.5 105 -64.5 173zM158.005 224.999
c0 -32.667 10 -60.5 30 -83.5s44.667 -34.5 74 -34.5c30 0 55.667 11.667 77 35s32 51 32 83c0 34.667 -10.5 64 -31.5 88s-46.833 36 -77.5 36c-29.333 0 -54 -12 -74 -36s-30 -53.333 -30 -88z" />
    <glyph glyph-name="atilde" unicode="&#xe3;" horiz-adv-x="555" 
d="M395 563c-17.333 0 -41.001 8.16699 -71.001 24.5s-53.333 24.5 -70 24.5c-20 0 -30 -14.333 -30 -43l-10 -6c-14 -2 -35.333 -3.66699 -64 -5c-4.66699 15.333 -7 32.333 -7 51c0 26 6.83301 47 20.5 63s33.167 24 58.5 24c18.667 0 44.834 -8.83301 78.501 -26.5
s55.167 -26.5 64.5 -26.5c16 0 24 11.333 24 34c0 2 -0.166992 4.66699 -0.5 8s-0.5 6 -0.5 8l75 6c5.33301 -14.667 8 -33.667 8 -57s-6.5 -42.333 -19.5 -57s-31.833 -22 -56.5 -22zM24.999 228c0 69.333 21.5039 127.832 64.5039 175.499s95.167 71.5 156.5 71.5
c59.333 0 109 -23.667 149 -71h3l2 1l2 56c0 10.667 0.333008 18.334 1 23.001l9 1c5.33301 0.666992 13.166 1.5 23.499 2.5s20.166 2.16699 29.499 3.5l62 7l3 -498h-145v57c-10.667 -25.333 -29.834 -43.833 -57.501 -55.5s-54.834 -17.5 -81.501 -17.5
c-61.333 0 -113.5 23.667 -156.5 71s-64.5 105 -64.5 173zM158.003 224.999c0 -32.667 10 -60.5 30 -83.5s44.667 -34.5 74 -34.5c30 0 55.667 11.667 77 35s32 51 32 83c0 34.667 -10.5 64 -31.5 88s-46.833 36 -77.5 36c-29.333 0 -54 -12 -74 -36s-30 -53.333 -30 -88z
" />
    <glyph glyph-name="adieresis" unicode="&#xe4;" horiz-adv-x="555" 
d="M261 624c0 -19.333 -5.66699 -34.5 -17 -45.5s-26 -16.5 -44 -16.5c-16.667 0 -30.834 5.66699 -42.501 17s-17.5 26.333 -17.5 45c0 19.333 5.83301 34.833 17.5 46.5s25.834 17.5 42.501 17.5c18 0 32.667 -5.83301 44 -17.5s17 -27.167 17 -46.5zM491 624
c0 -19.333 -5.83301 -34.5 -17.5 -45.5s-26.5 -16.5 -44.5 -16.5c-16.667 0 -30.834 5.66699 -42.501 17s-17.5 26.333 -17.5 45c0 19.333 5.83301 34.833 17.5 46.5s25.834 17.5 42.501 17.5c18 0 32.833 -5.83301 44.5 -17.5s17.5 -27.167 17.5 -46.5zM25 228
c0 69.333 21.5039 127.832 64.5039 175.499s95.167 71.5 156.5 71.5c59.333 0 109 -23.667 149 -71h3l2 1l2 56c0 10.667 0.333008 18.334 1 23.001l9 1c5.33301 0.666992 13.166 1.5 23.499 2.5s20.166 2.16699 29.499 3.5l62 7l3 -498h-145v57
c-10.667 -25.333 -29.834 -43.833 -57.501 -55.5s-54.834 -17.5 -81.501 -17.5c-61.333 0 -113.5 23.667 -156.5 71s-64.5 105 -64.5 173zM158.004 224.999c0 -32.667 10 -60.5 30 -83.5s44.667 -34.5 74 -34.5c30 0 55.667 11.667 77 35s32 51 32 83
c0 34.667 -10.5 64 -31.5 88s-46.833 36 -77.5 36c-29.333 0 -54 -12 -74 -36s-30 -53.333 -30 -88z" />
    <glyph glyph-name="aring" unicode="&#xe5;" horiz-adv-x="555" 
d="M414 652c0 -29.333 -11 -52.666 -33 -69.999s-49.333 -26 -82 -26s-60.167 8.66699 -82.5 26s-33.5 40.666 -33.5 69.999s11.167 52.666 33.5 69.999s49.833 26 82.5 26s60 -8.66699 82 -26s33 -40.666 33 -69.999zM250 654c0 -13.333 4.66699 -24.666 14 -33.999
s20.666 -14 33.999 -14s24.666 4.66699 33.999 14s14 20.666 14 33.999s-4.66699 24.666 -14 33.999s-20.666 14 -33.999 14s-24.666 -4.66699 -33.999 -14s-14 -20.666 -14 -33.999zM25 228c0 69.333 21.5039 127.832 64.5039 175.499s95.167 71.5 156.5 71.5
c59.333 0 109 -23.667 149 -71h3l2 1l2 56c0 10.667 0.333008 18.334 1 23.001l9 1c5.33301 0.666992 13.166 1.5 23.499 2.5s20.166 2.16699 29.499 3.5l62 7l3 -498h-145v57c-10.667 -25.333 -29.834 -43.833 -57.501 -55.5s-54.834 -17.5 -81.501 -17.5
c-61.333 0 -113.5 23.667 -156.5 71s-64.5 105 -64.5 173zM158.004 224.999c0 -32.667 10 -60.5 30 -83.5s44.667 -34.5 74 -34.5c30 0 55.667 11.667 77 35s32 51 32 83c0 34.667 -10.5 64 -31.5 88s-46.833 36 -77.5 36c-29.333 0 -54 -12 -74 -36s-30 -53.333 -30 -88z
" />
    <glyph glyph-name="ae" unicode="&#xe6;" horiz-adv-x="1000" 
d="M725 -15c-78.667 0 -139.667 27.001 -183 81.001v-66h-145c0 2 0.166992 9.5 0.5 22.5s0.5 24.5 0.5 34.5c-10.667 -26 -31 -44.667 -61 -56s-59.333 -17 -88 -17c-60 0 -110.333 23.5 -151 70.5s-61 104.833 -61 173.5c0 69.333 21.667 127.833 65 175.5
s95.333 71.5 156 71.5s110.334 -23.667 149.001 -71c0.666992 0 1.66699 0.166992 3 0.5s2.33301 0.5 3 0.5c0 8.66699 0.166992 19 0.5 31s0.5 20.333 0.5 25c0 10.667 0.333008 18.334 1 23.001l9 1c5.33301 0.666992 13.166 1.5 23.499 2.5s20.166 2.16699 29.499 3.5
l63 7v-83c23.333 29.333 50.833 52.166 82.5 68.499s63.834 24.5 96.501 24.5c51.333 0 96.166 -14 134.499 -42s66 -61.333 83 -100s25.5 -79 25.5 -121c0 -6.66699 -0.666992 -17.334 -2 -32.001c-28.667 -1.33301 -85.5 -5 -170.5 -11l-172.5 -12
c14.667 -54.667 50 -82 106 -82c56.667 0 111.334 15.333 164.001 46l47 -120c-55.333 -32.667 -125 -49 -209 -49zM170 225.001c0 -32 10.167 -59.667 30.5 -83s45.166 -35 74.499 -35c30 0 55.667 11.667 77 35s32 51 32 83c0 34.667 -10.667 64 -32 88s-47 36 -77 36
c-29.333 0 -54.166 -12 -74.499 -36s-30.5 -53.333 -30.5 -88zM727 395.001h-5.00098c-36 -1.33301 -62.833 -14.5 -80.5 -39.5s-26.5 -53.5 -26.5 -85.5l227 16c-15.333 72.667 -53.666 109 -114.999 109z" />
    <glyph glyph-name="ccedilla" unicode="&#xe7;" horiz-adv-x="470" 
d="M255 492c47.333 0 87.0029 -5.5 119.003 -16.5s55 -22.5 69 -34.5c-3.33301 -17.333 -10.666 -58 -21.999 -122c-60.667 28.667 -112.334 43 -155.001 43c-72 0 -108 -42.333 -108 -127c0 -40.667 9.5 -71.167 28.5 -91.5s44.5 -30.5 76.5 -30.5
c39.333 0 92 14.333 158 43l24 -120c-39.333 -30 -90.666 -46.667 -153.999 -50c0 -3.33301 -0.166992 -7.5 -0.5 -12.5s-0.5 -8.5 -0.5 -10.5c31.333 -2 54 -8.33301 68 -19s22 -26 24 -46c2 -18.667 -3 -35.167 -15 -49.5s-26.333 -24.833 -43 -31.5
s-35.334 -12 -56.001 -16s-35.834 -6.33301 -45.501 -7s-16.5 -1 -20.5 -1c-5.33301 24 -9.33301 45.333 -12 64c24.667 1.33301 42 3 52 5c35.333 6.66699 53 17.667 53 33c0 20.667 -22.333 31 -67 31l-3 60c-60 6 -107.5 30 -142.5 72s-54.167 101.333 -57.5 178
c1.33301 83.333 22.666 146.833 63.999 190.5s96.666 65.5 165.999 65.5z" />
    <glyph glyph-name="egrave" unicode="&#xe8;" horiz-adv-x="523" 
d="M292 562l-245 107l48 88l221 -140zM266 -15c-72 0 -130.166 22.501 -174.499 67.501s-66.5 105.5 -66.5 181.5c0 81.333 24.333 145.166 73 191.499s102.667 69.5 162 69.5c73.333 0 133.5 -30 180.5 -90s65.5 -126.667 55.5 -200l-331 -22
c2.66699 -29.333 14.834 -50 36.501 -62s46.667 -16.167 75 -12.5s54.666 9.16699 78.999 16.5s43.833 15.333 58.5 24l43 -123c-58.667 -27.333 -122.334 -41 -191.001 -41zM264.001 380.001c-34 -1.33301 -58.999 -12.832 -74.999 -34.499s-25 -46.834 -27 -75.501
c13.333 0 84.666 5.33301 213.999 16c-1.33301 8.66699 -4 17.5 -8 26.5s-10 19 -18 30s-19.5 20 -34.5 27s-32.167 10.5 -51.5 10.5z" />
    <glyph glyph-name="eacute" unicode="&#xe9;" horiz-adv-x="523" 
d="M451 669l-246 -107c-2 6 -5.83301 15.167 -11.5 27.5s-9.5 21.5 -11.5 27.5l221 140zM266 -15c-72 0 -130.166 22.501 -174.499 67.501s-66.5 105.5 -66.5 181.5c0 81.333 24.333 145.166 73 191.499s102.667 69.5 162 69.5c73.333 0 133.5 -30 180.5 -90
s65.5 -126.667 55.5 -200l-331 -22c2.66699 -29.333 14.834 -50 36.501 -62s46.667 -16.167 75 -12.5s54.666 9.16699 78.999 16.5s43.833 15.333 58.5 24l43 -123c-58.667 -27.333 -122.334 -41 -191.001 -41zM264.001 380.001
c-34 -1.33301 -58.999 -12.832 -74.999 -34.499s-25 -46.834 -27 -75.501c13.333 0 84.666 5.33301 213.999 16c-1.33301 8.66699 -4 17.5 -8 26.5s-10 19 -18 30s-19.5 20 -34.5 27s-32.167 10.5 -51.5 10.5z" />
    <glyph glyph-name="ecircumflex" unicode="&#xea;" horiz-adv-x="523" 
d="M261 751l177.001 -125c-4 -4 -9.83301 -10.667 -17.5 -20s-15 -17.833 -22 -25.5s-13.167 -14.167 -18.5 -19.5l-119 99c-28.667 -21.333 -70.334 -54 -125.001 -98l-52 65zM266.001 -15c-72 0 -130.166 22.501 -174.499 67.501s-66.5 105.5 -66.5 181.5
c0 81.333 24.333 145.166 73 191.499s102.667 69.5 162 69.5c73.333 0 133.5 -30 180.5 -90s65.5 -126.667 55.5 -200l-331 -22c2.66699 -29.333 14.834 -50 36.501 -62s46.667 -16.167 75 -12.5s54.666 9.16699 78.999 16.5s43.833 15.333 58.5 24l43 -123
c-58.667 -27.333 -122.334 -41 -191.001 -41zM264.002 380.001c-34 -1.33301 -58.999 -12.832 -74.999 -34.499s-25 -46.834 -27 -75.501c13.333 0 84.666 5.33301 213.999 16c-1.33301 8.66699 -4 17.5 -8 26.5s-10 19 -18 30s-19.5 20 -34.5 27s-32.167 10.5 -51.5 10.5z
" />
    <glyph glyph-name="edieresis" unicode="&#xeb;" horiz-adv-x="523" 
d="M207 623c0 -19.333 -5.66699 -34.5 -17 -45.5s-26 -16.5 -44 -16.5c-16.667 0 -30.834 5.66699 -42.501 17s-17.5 26.333 -17.5 45c0 19.333 5.83301 34.833 17.5 46.5s25.834 17.5 42.501 17.5c18 0 32.667 -5.83301 44 -17.5s17 -27.167 17 -46.5zM437 623
c0 -19.333 -5.83301 -34.5 -17.5 -45.5s-26.5 -16.5 -44.5 -16.5c-16.667 0 -30.834 5.66699 -42.501 17s-17.5 26.333 -17.5 45c0 19.333 5.83301 34.833 17.5 46.5s25.834 17.5 42.501 17.5c18 0 32.833 -5.83301 44.5 -17.5s17.5 -27.167 17.5 -46.5zM266 -15
c-72 0 -130.166 22.501 -174.499 67.501s-66.5 105.5 -66.5 181.5c0 81.333 24.333 145.166 73 191.499s102.667 69.5 162 69.5c73.333 0 133.5 -30 180.5 -90s65.5 -126.667 55.5 -200l-331 -22c2.66699 -29.333 14.834 -50 36.501 -62s46.667 -16.167 75 -12.5
s54.666 9.16699 78.999 16.5s43.833 15.333 58.5 24l43 -123c-58.667 -27.333 -122.334 -41 -191.001 -41zM264.001 380.001c-34 -1.33301 -58.999 -12.832 -74.999 -34.499s-25 -46.834 -27 -75.501c13.333 0 84.666 5.33301 213.999 16c-1.33301 8.66699 -4 17.5 -8 26.5
s-10 19 -18 30s-19.5 20 -34.5 27s-32.167 10.5 -51.5 10.5z" />
    <glyph glyph-name="igrave" unicode="&#xec;" horiz-adv-x="285" 
d="M104 484l10 0.999023c6 0.666992 15 1.5 27 2.5s23.333 2.16699 34 3.5l72 7c0 -19.333 0.5 -101.5 1.5 -246.5s1.5 -228.833 1.5 -251.5h-166l10 239c6.66699 158.667 10 240.334 10 245.001zM228 560.999l-245 107l47 88l221 -140c-2 -6.66699 -5.66699 -16 -11 -28z
" />
    <glyph glyph-name="iacute" unicode="&#xed;" horiz-adv-x="285" 
d="M57 484l9 0.999023c6.66699 0.666992 16 1.5 28 2.5s23.333 2.16699 34 3.5l72 7c0 -19.333 0.5 -101.5 1.5 -246.5s1.5 -228.833 1.5 -251.5h-166l10 239c6.66699 158.667 10 240.334 10 245.001zM297 666.999l-246 -107.002c-2 6.66699 -5.83301 15.834 -11.5 27.501
s-9.5 20.834 -11.5 27.501l221 140z" />
    <glyph glyph-name="icircumflex" unicode="&#xee;" horiz-adv-x="325" 
d="M98 484l10 0.999023c6 0.666992 15.167 1.5 27.5 2.5s23.833 2.16699 34.5 3.5l72 7c0 -19.333 0.333008 -101.5 1 -246.5s1 -228.833 1 -251.5h-166l10 239c6.66699 158.667 10 240.334 10 245.001zM162 753.999l177 -125l-57 -65l-120 99l-125 -98l-51 65z" />
    <glyph glyph-name="idieresis" unicode="&#xef;" horiz-adv-x="307" 
d="M117 626c0 -19.333 -5.66699 -34.5 -17 -45.5s-26 -16.5 -44 -16.5c-16.667 0 -30.834 5.66699 -42.501 17s-17.5 26.333 -17.5 45c0 19.333 5.83301 34.833 17.5 46.5s25.834 17.5 42.501 17.5c18 0 32.667 -5.83301 44 -17.5s17 -27.167 17 -46.5zM317 626
c0 -19.333 -5.83301 -34.5 -17.5 -45.5s-26.5 -16.5 -44.5 -16.5c-16.667 0 -30.834 5.66699 -42.501 17s-17.5 26.333 -17.5 45c0 19.333 5.83301 34.833 17.5 46.5s25.834 17.5 42.501 17.5c18 0 32.833 -5.83301 44.5 -17.5s17.5 -27.167 17.5 -46.5zM87 484l9 0.999023
c6.66699 0.666992 16.167 1.5 28.5 2.5s23.833 2.16699 34.5 3.5l72 7c0 -19.333 0.333008 -101.5 1 -246.5s1 -228.833 1 -251.5h-166l10 239c6.66699 158.667 10 240.334 10 245.001z" />
    <glyph glyph-name="eth" unicode="&#xf0;" horiz-adv-x="524" 
d="M371 630l103 38.002c8 -16.667 13.667 -30.334 17 -41.001l-85 -31c60.667 -76.667 91 -161.334 91 -254.001c0 -108.667 -23.667 -193 -71 -253s-109 -90 -185 -90c-66.667 0 -119.5 22.167 -158.5 66.5s-58.5 102.833 -58.5 175.5c0 36 5.5 67.167 16.5 93.5
s26 46.333 45 60s38.667 23.5 59 29.5s41.833 9 64.5 9c14.667 0 28.5 -1 41.5 -3s25 -5 36 -9l26 -9.5c6.33301 -2.33301 13.5 -5.83301 21.5 -10.5l12 -7c0 53.333 -19.667 106.333 -59 159l-163 -60l-18 43l151 54c-30.667 34 -65.667 62 -105 84h159
c24.667 -14 44.667 -28.667 60 -44zM348 270.002c-0.666992 0 -4.99902 1.83203 -12.999 5.49902s-16.5 7.16699 -25.5 10.5s-20 6.5 -33 9.5s-24.833 4.5 -35.5 4.5c-26 0 -46.5 -7.33301 -61.5 -22s-22.5 -33 -22.5 -55c0 -23.333 7.66699 -42.666 23 -57.999
s34.666 -23 57.999 -23c26 0 48 9 66 27s29.833 36 35.5 54s8.5 33.667 8.5 47z" />
    <glyph glyph-name="ntilde" unicode="&#xf1;" horiz-adv-x="503" 
d="M339 566c-18 0 -42 7.99707 -72 23.9971s-52.333 24 -67 24c-21.333 0 -32 -12.333 -32 -37v-6l-11 -6c-28 -1.33301 -49 -3 -63 -5c-4.66699 12 -7 29 -7 51c0 26.667 6.66699 47.834 20 63.501s32.666 23.5 57.999 23.5c19.333 0 46 -8.66699 80 -26s55.333 -26 64 -26
c15.333 0 23 10.333 23 31v18c8.66699 0.666992 21.334 1.83398 38.001 3.50098s29 2.83398 37 3.50098c5.33301 -21.333 8 -40.333 8 -57c0 -24.667 -6.33301 -44 -19 -58s-31.667 -21 -57 -21zM44 473.997l139.002 13.999c0 -10.667 0.166992 -28 0.5 -52s0.5 -41 0.5 -51
c6.66699 26 22.167 49.833 46.5 71.5s54.5 32.5 90.5 32.5c104.667 0 157 -85 157 -255c0 -1.33301 -1.16699 -36.5 -3.5 -105.5s-3.5 -111.833 -3.5 -128.5h-157c0 7.33301 1.33301 42.333 4 105s4 101.334 4 116.001v5c0 14 -0.333008 26 -1 36s-2.33398 23 -5.00098 39
s-7.66699 28.333 -15 37s-16.666 13 -27.999 13c-24.667 0 -44.834 -8.33301 -60.501 -25s-24.834 -41.334 -27.501 -74.001c0.666992 -56 1 -140 1 -252h-161c0 20.667 3.16699 101.334 9.5 242.001s9.5 218 9.5 232z" />
    <glyph glyph-name="ograve" unicode="&#xf2;" horiz-adv-x="534" 
d="M25 238c0 70.667 23.667 130.834 71 180.501s104.333 74.5 171 74.5s123.667 -24.833 171 -74.5s71 -109.834 71 -180.501c0 -70 -23.667 -129.833 -71 -179.5s-104.333 -74.5 -171 -74.5s-123.667 24.833 -171 74.5s-71 109.5 -71 179.5zM154 235
c0 -34.667 11.167 -63.834 33.5 -87.501s49.833 -35.5 82.5 -35.5c34 0 62.333 11.833 85 35.5s34 52.834 34 87.501c0 36 -11.333 66.167 -34 90.5s-51 36.5 -85 36.5c-32.667 0 -60.167 -12.333 -82.5 -37s-33.5 -54.667 -33.5 -90zM313 562l-246.001 107l48 88
c3.33301 -2 38.833 -24.833 106.5 -68.5s105.834 -67.5 114.501 -71.5z" />
    <glyph glyph-name="oacute" unicode="&#xf3;" horiz-adv-x="534" 
d="M25 238c0 70.667 23.667 130.834 71 180.501s104.333 74.5 171 74.5s123.667 -24.833 171 -74.5s71 -109.834 71 -180.501c0 -70 -23.667 -129.833 -71 -179.5s-104.333 -74.5 -171 -74.5s-123.667 24.833 -171 74.5s-71 109.5 -71 179.5zM154 235
c0 -34.667 11.167 -63.834 33.5 -87.501s49.833 -35.5 82.5 -35.5c34 0 62.333 11.833 85 35.5s34 52.834 34 87.501c0 36 -11.333 66.167 -34 90.5s-51 36.5 -85 36.5c-32.667 0 -60.167 -12.333 -82.5 -37s-33.5 -54.667 -33.5 -90zM471 669l-245 -107l-24 55
c9.33301 7.33301 44.833 30.333 106.5 69l114.5 71z" />
    <glyph glyph-name="ocircumflex" unicode="&#xf4;" horiz-adv-x="534" 
d="M25 238c0 70.667 23.667 130.834 71 180.501s104.333 74.5 171 74.5s123.667 -24.833 171 -74.5s71 -109.834 71 -180.501c0 -70 -23.667 -129.833 -71 -179.5s-104.333 -74.5 -171 -74.5s-123.667 24.833 -171 74.5s-71 109.5 -71 179.5zM154 235
c0 -34.667 11.167 -63.834 33.5 -87.501s49.833 -35.5 82.5 -35.5c34 0 62.333 11.833 85 35.5s34 52.834 34 87.501c0 36 -11.333 66.167 -34 90.5s-51 36.5 -85 36.5c-32.667 0 -60.167 -12.333 -82.5 -37s-33.5 -54.667 -33.5 -90zM271 752l177.001 -125l-57 -65l-120 99
c-54.667 -44 -96.334 -76.667 -125.001 -98l-51 64z" />
    <glyph glyph-name="otilde" unicode="&#xf5;" horiz-adv-x="534" 
d="M25 238c0 70.667 23.667 130.834 71 180.501s104.333 74.5 171 74.5s123.667 -24.833 171 -74.5s71 -109.834 71 -180.501c0 -70 -23.667 -129.833 -71 -179.5s-104.333 -74.5 -171 -74.5s-123.667 24.833 -171 74.5s-71 109.5 -71 179.5zM154 235
c0 -34.667 11.167 -63.834 33.5 -87.501s49.833 -35.5 82.5 -35.5c34 0 62.333 11.833 85 35.5s34 52.834 34 87.501c0 36 -11.333 66.167 -34 90.5s-51 36.5 -85 36.5c-32.667 0 -60.167 -12.333 -82.5 -37s-33.5 -54.667 -33.5 -90zM355 566
c-18 0 -42 7.99707 -72 23.9971s-52.333 24 -67 24c-21.333 0 -32 -12.333 -32 -37v-6l-74 -11c-4.66699 12 -7 29 -7 51c0 26.667 6.66699 47.834 20 63.501s32.666 23.5 57.999 23.5c19.333 0 46 -8.66699 80 -26s55.333 -26 64 -26c15.333 0 23 10.333 23 31v18
c8 0.666992 20.333 1.83398 37 3.50098s29.334 2.83398 38.001 3.50098c5.33301 -21.333 8 -40.333 8 -57c0 -24.667 -6.33301 -44 -19 -58s-31.667 -21 -57 -21z" />
    <glyph glyph-name="odieresis" unicode="&#xf6;" horiz-adv-x="534" 
d="M25 238c0 70.667 23.667 130.834 71 180.501s104.333 74.5 171 74.5s123.667 -24.833 171 -74.5s71 -109.834 71 -180.501c0 -70 -23.667 -129.833 -71 -179.5s-104.333 -74.5 -171 -74.5s-123.667 24.833 -171 74.5s-71 109.5 -71 179.5zM154 235
c0 -34.667 11.167 -63.834 33.5 -87.501s49.833 -35.5 82.5 -35.5c34 0 62.333 11.833 85 35.5s34 52.834 34 87.501c0 36 -11.333 66.167 -34 90.5s-51 36.5 -85 36.5c-32.667 0 -60.167 -12.333 -82.5 -37s-33.5 -54.667 -33.5 -90zM213 623
c0 -19.333 -5.66699 -34.5 -17 -45.5s-26 -16.5 -44 -16.5c-17.333 0 -31.833 5.66699 -43.5 17s-17.5 26.333 -17.5 45c0 19.333 5.83301 34.833 17.5 46.5s26.167 17.5 43.5 17.5c18 0 32.667 -5.83301 44 -17.5s17 -27.167 17 -46.5zM442 623
c0 -19.333 -5.66699 -34.5 -17 -45.5s-26 -16.5 -44 -16.5c-17.333 0 -31.666 5.66699 -42.999 17s-17 26.333 -17 45c0 19.333 5.66699 34.833 17 46.5s25.666 17.5 42.999 17.5c18 0 32.667 -5.83301 44 -17.5s17 -27.167 17 -46.5z" />
    <glyph glyph-name="divide" unicode="&#xf7;" horiz-adv-x="427" 
d="M25 355v82l377 11v-93h-377zM270 574c0 -19.333 -6 -34.666 -18 -45.999s-27 -17 -45 -17s-33 5.66699 -45 17s-18 26.666 -18 45.999s6 34.833 18 46.5s27 17.5 45 17.5s33 -5.83301 45 -17.5s18 -27.167 18 -46.5zM280 224c0 -19.333 -6 -34.666 -18 -45.999
s-27 -17 -45 -17s-33 5.66699 -45 17s-18 26.666 -18 45.999s6 34.833 18 46.5s27 17.5 45 17.5s33 -5.83301 45 -17.5s18 -27.167 18 -46.5z" />
    <glyph glyph-name="oslash" unicode="&#xf8;" horiz-adv-x="535" 
d="M25 237c0 70.667 23.667 131.169 71 181.502s104.666 75.5 171.999 75.5c24.667 0 51 -5 79 -15l60 131l65 -12l-68 -149c32.667 -24 58.5 -54.5 77.5 -91.5s28.5 -77.167 28.5 -120.5c0 -70.667 -23.667 -130.834 -71 -180.501s-104.333 -74.5 -171 -74.5
c-22.667 0 -47 4 -73 12l-51 -112l-60 18l55 120c-35.333 22.667 -63.166 53.167 -83.499 91.5s-30.5 80.166 -30.5 125.499zM389 234.002c0 38 -12.999 69.333 -38.999 94l-100 -216l10 -2c37.333 0 68.166 11.333 92.499 34s36.5 52.667 36.5 90zM154.001 234.002
c0 -37.333 13.333 -67.666 40 -90.999l98 214c-8 2 -16 3 -24 3c-32 0 -59 -12.333 -81 -37s-33 -54.334 -33 -89.001z" />
    <glyph glyph-name="ugrave" unicode="&#xf9;" horiz-adv-x="491" 
d="M229 118c24.667 0 50.333 11.667 77 35l8 321c4.66699 0 19.167 1.33301 43.5 4l70.5 8l35 4l3 -490h-165c0 6 0.333008 11.333 1 16c0 4.66699 0.666992 18.334 2 41.001h-2c-19.333 -20.667 -42.5 -35.334 -69.5 -44.001s-51.167 -13 -72.5 -13
c-90 0 -135 60.667 -135 182l6 291c17.333 1.33301 43.333 4 78 8l78 9c-6 -186 -9 -284.333 -9 -295c0 -51.333 17 -77 51 -77zM290.999 561l-246 107l48 88l221 -140c-2.66699 -6.66699 -6.66699 -16 -12 -28s-9 -21 -11 -27z" />
    <glyph glyph-name="uacute" unicode="&#xfa;" horiz-adv-x="491" 
d="M229 118c24.667 0 50.333 11.667 77 35l8 321c4.66699 0 19.167 1.33301 43.5 4l70.5 8l35 4l3 -490h-165c0 6 0.333008 11.333 1 16c0 4.66699 0.666992 18.334 2 41.001h-2c-19.333 -20.667 -42.5 -35.334 -69.5 -44.001s-51.167 -13 -72.5 -13
c-90 0 -135 60.667 -135 182l6 291c17.333 1.33301 43.333 4 78 8l78 9c-6 -186 -9 -284.333 -9 -295c0 -51.333 17 -77 51 -77zM423.999 668l-245 -107l-24 55l221 140z" />
    <glyph glyph-name="ucircumflex" unicode="&#xfb;" horiz-adv-x="491" 
d="M229 118c24.667 0 50.333 11.667 77 35l8 321c4.66699 0 19.167 1.33301 43.5 4l70.5 8l35 4l3 -490h-165c0 6 0.333008 11.333 1 16c0 4.66699 0.666992 18.334 2 41.001h-2c-19.333 -20.667 -42.5 -35.334 -69.5 -44.001s-51.167 -13 -72.5 -13
c-90 0 -135 60.667 -135 182l6 291c17.333 1.33301 43.333 4 78 8l78 9c-6 -186 -9 -284.333 -9 -295c0 -51.333 17 -77 51 -77zM62.999 626l177 125l177 -125c-4 -4 -9.83301 -10.667 -17.5 -20s-15 -17.833 -22 -25.5s-13.167 -14.167 -18.5 -19.5l-119 99l-125 -98z" />
    <glyph glyph-name="udieresis" unicode="&#xfc;" horiz-adv-x="491" 
d="M229 118c24.667 0 50.333 11.667 77 35l8 321c4.66699 0 19.167 1.33301 43.5 4l70.5 8l35 4l3 -490h-165c0 6 0.333008 11.333 1 16c0 4.66699 0.666992 18.334 2 41.001h-2c-19.333 -20.667 -42.5 -35.334 -69.5 -44.001s-51.167 -13 -72.5 -13
c-90 0 -135 60.667 -135 182l6 291c17.333 1.33301 43.333 4 78 8l78 9c-6 -186 -9 -284.333 -9 -295c0 -51.333 17 -77 51 -77zM189.999 622c0 -19.333 -5.66699 -34.5 -17 -45.5s-26 -16.5 -44 -16.5c-16.667 0 -30.834 5.66699 -42.501 17s-17.5 26.333 -17.5 45
c0 19.333 5.83301 34.833 17.5 46.5s25.834 17.5 42.501 17.5c18 0 32.667 -5.83301 44 -17.5s17 -27.167 17 -46.5zM419.999 622c0 -19.333 -5.83301 -34.5 -17.5 -45.5s-26.5 -16.5 -44.5 -16.5c-16.667 0 -30.834 5.66699 -42.501 17s-17.5 26.333 -17.5 45
c0 19.333 5.83301 34.833 17.5 46.5s25.834 17.5 42.501 17.5c18 0 32.833 -5.83301 44.5 -17.5s17.5 -27.167 17.5 -46.5z" />
    <glyph glyph-name="yacute" unicode="&#xfd;" horiz-adv-x="498" 
d="M463 669l-246 -107l-12 27.5c-5.33301 12.333 -9 21.5 -11 27.5l221 140zM243 156c20 0 44.6602 9.99805 73.9932 29.998l6 285c2.66699 0 27.334 3 74.001 9s71 9 73 9c0 -314.667 -3.33301 -485 -10 -511c-3.33301 -23.333 -9.66602 -45.166 -18.999 -65.499
s-22.333 -39.833 -39 -58.5s-39.5 -33.5 -68.5 -44.5s-62.167 -16.5 -99.5 -16.5c-15.333 0 -30 0.5 -44 1.5s-26.667 2.33301 -38 4s-21.833 3.5 -31.5 5.5s-18.5 4.5 -26.5 7.5s-15 5.5 -21 7.5s-11.833 4.5 -17.5 7.5s-9.83398 5.33301 -12.501 7
s-5.66699 3.83398 -9 6.50098l-6 3c2.66699 5.33301 9.33398 25.666 20.001 60.999s17.334 55.666 20.001 60.999l10 -5c6 -4 10.5 -6.66699 13.5 -8s8.83301 -3.5 17.5 -6.5s16.834 -5.33301 24.501 -7s17.834 -3.16699 30.501 -4.5s26 -2 40 -2
c21.333 0 39.333 3.33301 54 10s25.834 14.334 33.501 23.001s13.834 21.334 18.501 38.001s7.5 31 8.5 43s1.83301 28.333 2.5 49c-20.667 -16.667 -46.167 -28.834 -76.5 -36.501s-55.5 -11.5 -75.5 -11.5c-24 0 -44.667 4.66699 -62 14s-30.166 19.833 -38.499 31.5
s-14.833 26.834 -19.5 45.501s-7.33398 33.167 -8.00098 43.5s-1 23.166 -1 38.499v3c2 28.667 4.33301 111.334 7 248.001l152 18c0 -28 -1.16699 -70.833 -3.5 -128.5s-3.5 -102.167 -3.5 -133.5c0 -47.333 17 -71 51 -71z" />
    <glyph glyph-name="thorn" unicode="&#xfe;" horiz-adv-x="562" 
d="M43 686l136.999 16c0 -61.333 3.33301 -161.333 10 -300c26 48 71.667 72 137 72c58.667 0 108.834 -23.833 150.501 -71.5s62.5 -105.5 62.5 -173.5c0 -49.333 -13 -94.5 -39 -135.5s-57.5 -71 -94.5 -90s-77 -24.167 -120 -15.5s-79.833 34 -110.5 76v-272h-139
c1.33301 100.667 2.5 249.667 3.5 447s1.83301 346.333 2.5 447zM397.999 225c0 34.667 -10.333 64.167 -31 88.5s-45.667 36.5 -75 36.5c-30 0 -55.667 -12.167 -77 -36.5s-32 -53.833 -32 -88.5c0 -32.667 10.667 -60.667 32 -84s47 -35 77 -35
c29.333 0 54.333 11.667 75 35s31 51.333 31 84z" />
    <glyph glyph-name="ydieresis" unicode="&#xff;" horiz-adv-x="495" 
d="M208 622c0 -19.333 -5.66699 -34.5 -17 -45.5s-26 -16.5 -44 -16.5c-16.667 0 -30.834 5.66699 -42.501 17s-17.5 26.333 -17.5 45c0 19.333 5.83301 34.833 17.5 46.5s25.834 17.5 42.501 17.5c18 0 32.667 -5.83301 44 -17.5s17 -27.167 17 -46.5zM438 622
c0 -19.333 -5.83301 -34.5 -17.5 -45.5s-26.5 -16.5 -44.5 -16.5c-16.667 0 -30.834 5.66699 -42.501 17s-17.5 26.333 -17.5 45c0 19.333 5.83301 34.833 17.5 46.5s25.834 17.5 42.501 17.5c18 0 32.833 -5.83301 44.5 -17.5s17.5 -27.167 17.5 -46.5zM243 156
c20 0 44.6602 9.99805 73.9932 29.998l6 285c2.66699 0 27.334 3 74.001 9s71 9 73 9c0 -314.667 -3.33301 -485 -10 -511c-3.33301 -23.333 -9.66602 -45.166 -18.999 -65.499s-22.333 -39.833 -39 -58.5s-39.5 -33.5 -68.5 -44.5s-62.167 -16.5 -99.5 -16.5
c-15.333 0 -30 0.5 -44 1.5s-26.667 2.33301 -38 4s-21.833 3.5 -31.5 5.5s-18.5 4.5 -26.5 7.5s-15 5.5 -21 7.5s-11.833 4.5 -17.5 7.5s-9.83398 5.33301 -12.501 7s-5.66699 3.83398 -9 6.50098l-6 3c2.66699 5.33301 9.33398 25.666 20.001 60.999
s17.334 55.666 20.001 60.999l10 -5c6 -4 10.5 -6.66699 13.5 -8s8.83301 -3.5 17.5 -6.5s16.834 -5.33301 24.501 -7s17.834 -3.16699 30.501 -4.5s26 -2 40 -2c21.333 0 39.333 3.33301 54 10s25.834 14.334 33.501 23.001s13.834 21.334 18.501 38.001s7.5 31 8.5 43
s1.83301 28.333 2.5 49c-20.667 -16.667 -46.167 -28.834 -76.5 -36.501s-55.5 -11.5 -75.5 -11.5c-24 0 -44.667 4.66699 -62 14s-30.166 19.833 -38.499 31.5s-14.833 26.834 -19.5 45.501s-7.33398 33.167 -8.00098 43.5s-1 23.166 -1 38.499v3
c2 28.667 4.33301 111.334 7 248.001l152 18c0 -28 -1.16699 -70.833 -3.5 -128.5s-3.5 -102.167 -3.5 -133.5c0 -47.333 17 -71 51 -71z" />
    <glyph glyph-name="Amacron" unicode="&#x100;" horiz-adv-x="609" 
d="M75 758v86l472 10v-96h-472zM420 706c0 -1.33301 27.1699 -116.834 81.5029 -346.501s81.833 -345.167 82.5 -346.5l-164 -25c0 0.666992 -2.5 12.834 -7.5 36.501l-16 77.5c-5.66699 28 -9.16699 46.667 -10.5 56c-0.666992 0 -2.83398 0.166992 -6.50098 0.5
s-7.16699 0.5 -10.5 0.5c-16.667 0 -45.334 -0.833008 -86.001 -2.5s-63.334 -2.5 -68.001 -2.5l-37 -165l-153 30c1.33301 5.33301 17.333 63.333 48 174l91 327l45 161c4 0 39.333 4.16699 106 12.5s101.667 12.5 105 12.5zM234.003 297.999l137.001 -10
c-4 14.667 -12.833 54.834 -26.5 120.501s-22.834 113.167 -27.501 142.5c-9.33301 -1.33301 -15.333 -2 -18 -2c-12 -54.667 -33.667 -138.334 -65 -251.001z" />
    <glyph glyph-name="amacron" unicode="&#x101;" horiz-adv-x="572" 
d="M71 563v85l472 10v-96c-44 0 -122.5 0.166992 -235.5 0.5s-191.833 0.5 -236.5 0.5zM25 228c0 69.333 21.5039 127.832 64.5039 175.499s95.167 71.5 156.5 71.5c59.333 0 109 -23.667 149 -71h3l2 1l2 56c0 10.667 0.333008 18.334 1 23.001l9 1
c5.33301 0.666992 13.166 1.5 23.499 2.5s20.166 2.16699 29.499 3.5l62 7l3 -498h-145v57c-10.667 -25.333 -29.834 -43.833 -57.501 -55.5s-54.834 -17.5 -81.501 -17.5c-61.333 0 -113.5 23.667 -156.5 71s-64.5 105 -64.5 173zM158.004 224.999
c0 -32.667 10 -60.5 30 -83.5s44.667 -34.5 74 -34.5c30 0 55.667 11.667 77 35s32 51 32 83c0 34.667 -10.5 64 -31.5 88s-46.833 36 -77.5 36c-29.333 0 -54 -12 -74 -36s-30 -53.333 -30 -88z" />
    <glyph glyph-name="Abreve" unicode="&#x102;" horiz-adv-x="609" 
d="M428 899c5.33301 -4.66699 14.8311 -12.5 28.498 -23.5l27.5 -22.5c-14 -28.667 -35.167 -52.667 -63.5 -72s-63.5 -29 -105.5 -29c-41.333 0 -76.666 10 -105.999 30s-50.666 44.333 -63.999 73l28.5 21.5c13.667 10.333 23.167 17.833 28.5 22.5
c30.667 -48 69 -72 115 -72s83 24 111 72zM419.998 706c0 -1.33301 27.1699 -116.834 81.5029 -346.501s81.833 -345.167 82.5 -346.5l-164 -25c0 0.666992 -2.5 12.834 -7.5 36.501l-16 77.5c-5.66699 28 -9.16699 46.667 -10.5 56
c-0.666992 0 -2.83398 0.166992 -6.50098 0.5s-7.16699 0.5 -10.5 0.5c-16.667 0 -45.334 -0.833008 -86.001 -2.5s-63.334 -2.5 -68.001 -2.5l-37 -165l-153 30c1.33301 5.33301 17.333 63.333 48 174l91 327l45 161c4 0 39.333 4.16699 106 12.5s101.667 12.5 105 12.5z
M234.001 297.999l137.001 -10c-4 14.667 -12.833 54.834 -26.5 120.501s-22.834 113.167 -27.501 142.5c-9.33301 -1.33301 -15.333 -2 -18 -2c-12 -54.667 -33.667 -138.334 -65 -251.001z" />
    <glyph glyph-name="abreve" unicode="&#x103;" horiz-adv-x="555" 
d="M419 701c35.333 -28 53.998 -42.999 55.998 -44.999c-14 -28.667 -35.167 -52.834 -63.5 -72.501s-63.5 -29.5 -105.5 -29.5c-41.333 0 -76.666 10 -105.999 30s-50.666 44.333 -63.999 73l57 44c30.667 -48 69 -72 115 -72c44 0 81 24 111 72zM24.998 228.001
c0 69.333 21.5039 127.832 64.5039 175.499s95.167 71.5 156.5 71.5c59.333 0 109 -23.667 149 -71h3l2 1l2 56c0 10.667 0.333008 18.334 1 23.001l9 1c5.33301 0.666992 13.166 1.5 23.499 2.5s20.166 2.16699 29.499 3.5l62 7l3 -498h-145v57
c-10.667 -25.333 -29.834 -43.833 -57.501 -55.5s-54.834 -17.5 -81.501 -17.5c-61.333 0 -113.5 23.667 -156.5 71s-64.5 105 -64.5 173zM158.002 225c0 -32.667 10 -60.5 30 -83.5s44.667 -34.5 74 -34.5c30 0 55.667 11.667 77 35s32 51 32 83
c0 34.667 -10.5 64 -31.5 88s-46.833 36 -77.5 36c-29.333 0 -54 -12 -74 -36s-30 -53.333 -30 -88z" />
    <glyph glyph-name="Aogonek" unicode="&#x104;" horiz-adv-x="609" 
d="M420 706c0 -1.33301 27.1699 -116.834 81.5029 -346.501s81.833 -345.167 82.5 -346.5c-10.667 -2.66699 -41 -7.33398 -91 -14.001h1c-64 -29.333 -96 -55.333 -96 -78c0 -11.333 4.16699 -20.166 12.5 -26.499s18.166 -9.5 29.499 -9.5c26.667 0 49.334 8 68.001 24
l10 -85c-28 -17.333 -60.667 -26 -98 -26c-64.667 0 -97 26.333 -97 79c0 60 31.333 101 94 123c-16 64.667 -26.333 117.334 -31 158.001c-0.666992 0 -2.83398 0.166992 -6.50098 0.5s-7.16699 0.5 -10.5 0.5c-16.667 0 -45.334 -0.833008 -86.001 -2.5
s-63.334 -2.5 -68.001 -2.5l-37 -165l-153 30c1.33301 5.33301 17.333 63.333 48 174l91 327l45 161c4 0 39.333 4.16699 106 12.5s101.667 12.5 105 12.5zM234.003 297.999l137.001 -10c-4 14.667 -12.833 54.834 -26.5 120.501s-22.834 113.167 -27.501 142.5
c-9.33301 -1.33301 -15.333 -2 -18 -2c-12 -54.667 -33.667 -138.334 -65 -251.001z" />
    <glyph glyph-name="aogonek" unicode="&#x105;" horiz-adv-x="555" 
d="M387 0l-1.99316 -0.00195312v57c-10.667 -25.333 -29.834 -43.833 -57.501 -55.5s-54.834 -17.5 -81.501 -17.5c-61.333 0 -113.5 23.667 -156.5 71s-64.5 105 -64.5 173c0 69.333 21.5 127.833 64.5 175.5s95.167 71.5 156.5 71.5c59.333 0 109 -23.667 149 -71h3l2 1
l2 56c0 10.667 0.333008 18.334 1 23.001l9 1c5.33301 0.666992 13.166 1.5 23.499 2.5s20.166 2.16699 29.499 3.5l62 7l3 -498h-66c-2 -1.33301 -6.83301 -3.66602 -14.5 -6.99902s-12.834 -5.83301 -15.501 -7.5s-7.33398 -4.16699 -14.001 -7.5s-11.5 -6 -14.5 -8
l-12.5 -8.5c-5.33301 -3.66699 -9.16602 -6.83398 -11.499 -9.50098l-8 -9c-3 -3.33301 -5 -6.83301 -6 -10.5s-1.5 -7.5 -1.5 -11.5c0 -11.333 4 -20.166 12 -26.499s18 -9.5 30 -9.5c27.333 0 49.666 8 66.999 24l11 -85c-28.667 -17.333 -61.334 -26 -98.001 -26
c-66 0 -100.333 27.667 -103 83c0 56 34 95.667 102 119zM158.007 224.998c0 -32.667 10 -60.5 30 -83.5s44.667 -34.5 74 -34.5c30 0 55.667 11.667 77 35s32 51 32 83c0 34.667 -10.5 64 -31.5 88s-46.833 36 -77.5 36c-29.333 0 -54 -12 -74 -36s-30 -53.333 -30 -88z
" />
    <glyph glyph-name="Cacute" unicode="&#x106;" horiz-adv-x="581" 
d="M549 861l-245 -107l-24 55l221 140zM316 709c22.667 0 44.332 -1.16797 64.999 -3.50098s38.667 -5.66602 54 -9.99902s29.5 -8.83301 42.5 -13.5s24.167 -9.66699 33.5 -15s17 -10 23 -14l16 -11l6 -6c0 -0.666992 -4.33301 -26.167 -13 -76.5s-13 -76.166 -13 -77.499
l-15.5 7.5c-9 4.33301 -16.667 7.83301 -23 10.5l-27 11c-11.667 4.66699 -22.5 8.5 -32.5 11.5l-33 9.5c-12 3.33301 -24.167 5.83301 -36.5 7.5s-24.166 2.5 -35.499 2.5c-46.667 0 -84.167 -17.167 -112.5 -51.5s-42.5 -83.5 -42.5 -147.5
c0 -51.333 13.333 -96.333 40 -135s65.667 -58 117 -58c11.333 0 23 0.833008 35 2.5s24 4 36 7s23 6 33 9s20.667 7 32 12s20 8.66699 26 11s13.833 5.66602 23.5 9.99902s14.834 6.83301 15.501 7.5c0 -2 4.33301 -27.833 13 -77.5s13 -74.834 13 -75.501l-6 -6
c-4.66699 -3.33301 -10 -6.83301 -16 -10.5l-23 -13.5c-9.33301 -5.33301 -20.5 -10.333 -33.5 -15s-27.167 -9.16699 -42.5 -13.5s-33.333 -7.66602 -54 -9.99902s-42.334 -3.5 -65.001 -3.5c-86 0 -155 30.5 -207 91.5s-80 150.5 -84 268.5
c1.33301 118 28.833 208.333 82.5 271s123.167 94 208.5 94z" />
    <glyph glyph-name="cacute" unicode="&#x107;" horiz-adv-x="503" 
d="M255 492c47.333 0 87.0039 -5.50098 119.004 -16.501s55 -22.5 69 -34.5c-3.33301 -17.333 -10.666 -58 -21.999 -122c-60.667 28.667 -112.334 43 -155.001 43c-72 0 -108 -42.333 -108 -127c0 -40 9.16699 -70.333 27.5 -91s44.166 -31 77.499 -31
c39.333 0 92 14.333 158 43l24 -120c-6 -6 -15.333 -12.5 -28 -19.5s-33.834 -14.167 -63.501 -21.5s-62.5 -11 -98.5 -11c-68 0 -122.667 21.333 -164 64s-63.333 105.334 -66 188.001c1.33301 83.333 22.666 146.833 63.999 190.5s96.666 65.5 165.999 65.5z
M483.004 667.999l-246 -107c-2.66699 6 -6.5 15.167 -11.5 27.5s-8.83301 21.5 -11.5 27.5l221 140z" />
    <glyph glyph-name="Ccircumflex" unicode="&#x108;" horiz-adv-x="581" 
d="M146 821l177 125l177 -125c-4 -4 -9.83301 -10.667 -17.5 -20s-15 -17.833 -22 -25.5s-13.167 -14.167 -18.5 -19.5l-119 99l-125 -98zM316 709c22.667 0 44.332 -1.16797 64.999 -3.50098s38.667 -5.66602 54 -9.99902s29.5 -8.83301 42.5 -13.5
s24.167 -9.66699 33.5 -15s17 -10 23 -14l16 -11l6 -6c0 -0.666992 -4.33301 -26.167 -13 -76.5s-13 -76.166 -13 -77.499l-15.5 7.5c-9 4.33301 -16.667 7.83301 -23 10.5l-27 11c-11.667 4.66699 -22.5 8.5 -32.5 11.5l-33 9.5c-12 3.33301 -24.167 5.83301 -36.5 7.5
s-24.166 2.5 -35.499 2.5c-46.667 0 -84.167 -17.167 -112.5 -51.5s-42.5 -83.5 -42.5 -147.5c0 -51.333 13.333 -96.333 40 -135s65.667 -58 117 -58c11.333 0 23 0.833008 35 2.5s24 4 36 7s23 6 33 9s20.667 7 32 12s20 8.66699 26 11s13.833 5.66602 23.5 9.99902
s14.834 6.83301 15.501 7.5c0 -2 4.33301 -27.833 13 -77.5s13 -74.834 13 -75.501l-6 -6c-4.66699 -3.33301 -10 -6.83301 -16 -10.5l-23 -13.5c-9.33301 -5.33301 -20.5 -10.333 -33.5 -15s-27.167 -9.16699 -42.5 -13.5s-33.333 -7.66602 -54 -9.99902
s-42.334 -3.5 -65.001 -3.5c-86 0 -155 30.5 -207 91.5s-80 150.5 -84 268.5c1.33301 118 28.833 208.333 82.5 271s123.167 94 208.5 94z" />
    <glyph glyph-name="ccircumflex" unicode="&#x109;" horiz-adv-x="470" 
d="M265 750l177 -125l-57 -65l-120 99l-125 -98l-51 65zM255 492c47.333 0 87.0039 -5.50098 119.004 -16.501s55 -22.5 69 -34.5c-3.33301 -17.333 -10.666 -58 -21.999 -122c-60.667 28.667 -112.334 43 -155.001 43c-72 0 -108 -42.333 -108 -127
c0 -40 9.16699 -70.333 27.5 -91s44.166 -31 77.499 -31c39.333 0 92 14.333 158 43l24 -120c-6 -6 -15.333 -12.5 -28 -19.5s-33.834 -14.167 -63.501 -21.5s-62.5 -11 -98.5 -11c-68 0 -122.667 21.333 -164 64s-63.333 105.334 -66 188.001
c1.33301 83.333 22.666 146.833 63.999 190.5s96.666 65.5 165.999 65.5z" />
    <glyph glyph-name="Cdotaccent" unicode="&#x10a;" horiz-adv-x="581" 
d="M365 823c0 -20 -6.16699 -35.833 -18.5 -47.5s-27.833 -17.5 -46.5 -17.5c-18 0 -33.333 5.83301 -46 17.5s-19 27.5 -19 47.5c0 19.333 6.33301 34.833 19 46.5s28 17.5 46 17.5c18.667 0 34.167 -5.83301 46.5 -17.5s18.5 -27.167 18.5 -46.5zM316 709
c22.667 0 44.332 -1.16797 64.999 -3.50098s38.667 -5.66602 54 -9.99902s29.5 -8.83301 42.5 -13.5s24.167 -9.66699 33.5 -15s17 -10 23 -14l16 -11l6 -6c0 -0.666992 -4.33301 -26.167 -13 -76.5s-13 -76.166 -13 -77.499l-15.5 7.5c-9 4.33301 -16.667 7.83301 -23 10.5
l-27 11c-11.667 4.66699 -22.5 8.5 -32.5 11.5l-33 9.5c-12 3.33301 -24.167 5.83301 -36.5 7.5s-24.166 2.5 -35.499 2.5c-46.667 0 -84.167 -17.167 -112.5 -51.5s-42.5 -83.5 -42.5 -147.5c0 -51.333 13.333 -96.333 40 -135s65.667 -58 117 -58
c11.333 0 23 0.833008 35 2.5s24 4 36 7s23 6 33 9s20.667 7 32 12s20 8.66699 26 11s13.833 5.66602 23.5 9.99902s14.834 6.83301 15.501 7.5c0 -2 4.33301 -27.833 13 -77.5s13 -74.834 13 -75.501l-6 -6c-4.66699 -3.33301 -10 -6.83301 -16 -10.5l-23 -13.5
c-9.33301 -5.33301 -20.5 -10.333 -33.5 -15s-27.167 -9.16699 -42.5 -13.5s-33.333 -7.66602 -54 -9.99902s-42.334 -3.5 -65.001 -3.5c-86 0 -155 30.5 -207 91.5s-80 150.5 -84 268.5c1.33301 118 28.833 208.333 82.5 271s123.167 94 208.5 94z" />
    <glyph glyph-name="cdotaccent" unicode="&#x10b;" horiz-adv-x="470" 
d="M255 492c47.333 0 87.0039 -5.50098 119.004 -16.501s55 -22.5 69 -34.5c-3.33301 -17.333 -10.666 -58 -21.999 -122c-60.667 28.667 -112.334 43 -155.001 43c-72 0 -108 -42.333 -108 -127c0 -40 9.16699 -70.333 27.5 -91s44.166 -31 77.499 -31
c39.333 0 92 14.333 158 43l24 -120c-6 -6 -15.333 -12.5 -28 -19.5s-33.834 -14.167 -63.501 -21.5s-62.5 -11 -98.5 -11c-68 0 -122.667 21.333 -164 64s-63.333 105.334 -66 188.001c1.33301 83.333 22.666 146.833 63.999 190.5s96.666 65.5 165.999 65.5z
M318.004 628.999c0 -20 -6.16699 -35.667 -18.5 -47s-28.166 -17 -47.499 -17c-18 0 -33.333 5.66699 -46 17s-19 27 -19 47s6.33301 35.667 19 47s28 17 46 17c19.333 0 35.166 -5.66699 47.499 -17s18.5 -27 18.5 -47z" />
    <glyph glyph-name="Ccaron" unicode="&#x10c;" horiz-adv-x="581" 
d="M511 884l-176.999 -123.999l-177 124l51 65l126 -98l119 98c17.333 -20.667 36.666 -42.334 57.999 -65.001zM316.001 709.001c22.667 0 44.332 -1.16797 64.999 -3.50098s38.667 -5.66602 54 -9.99902s29.5 -8.83301 42.5 -13.5s24.167 -9.66699 33.5 -15s17 -10 23 -14
l16 -11l6 -6c0 -0.666992 -4.33301 -26.167 -13 -76.5s-13 -76.166 -13 -77.499l-15.5 7.5c-9 4.33301 -16.667 7.83301 -23 10.5l-27 11c-11.667 4.66699 -22.5 8.5 -32.5 11.5l-33 9.5c-12 3.33301 -24.167 5.83301 -36.5 7.5s-24.166 2.5 -35.499 2.5
c-46.667 0 -84.167 -17.167 -112.5 -51.5s-42.5 -83.5 -42.5 -147.5c0 -51.333 13.333 -96.333 40 -135s65.667 -58 117 -58c11.333 0 23 0.833008 35 2.5s24 4 36 7s23 6 33 9s20.667 7 32 12s20 8.66699 26 11s13.833 5.66602 23.5 9.99902s14.834 6.83301 15.501 7.5
c0 -2 4.33301 -27.833 13 -77.5s13 -74.834 13 -75.501l-6 -6c-4.66699 -3.33301 -10 -6.83301 -16 -10.5l-23 -13.5c-9.33301 -5.33301 -20.5 -10.333 -33.5 -15s-27.167 -9.16699 -42.5 -13.5s-33.333 -7.66602 -54 -9.99902s-42.334 -3.5 -65.001 -3.5
c-86 0 -155 30.5 -207 91.5s-80 150.5 -84 268.5c1.33301 118 28.833 208.333 82.5 271s123.167 94 208.5 94z" />
    <glyph glyph-name="ccaron" unicode="&#x10d;" horiz-adv-x="470" 
d="M255 492c47.333 0 87.0039 -5.50098 119.004 -16.501s55 -22.5 69 -34.5c-3.33301 -17.333 -10.666 -58 -21.999 -122c-60.667 28.667 -112.334 43 -155.001 43c-72 0 -108 -42.333 -108 -127c0 -40 9.16699 -70.333 27.5 -91s44.166 -31 77.499 -31
c39.333 0 92 14.333 158 43l24 -120c-6 -6 -15.333 -12.5 -28 -19.5s-33.834 -14.167 -63.501 -21.5s-62.5 -11 -98.5 -11c-68 0 -122.667 21.333 -164 64s-63.333 105.334 -66 188.001c1.33301 83.333 22.666 146.833 63.999 190.5s96.666 65.5 165.999 65.5z
M428.004 690.999l-176 -124l-177 124l50 65l127 -98l118 98z" />
    <glyph glyph-name="Dcaron" unicode="&#x10e;" horiz-adv-x="570" 
d="M25 688c30.667 12.667 80.665 18.999 149.998 18.999c114.667 0 205.334 -31.5 272.001 -94.5s101.334 -148.833 104.001 -257.5c0 -117.333 -37 -206.166 -111 -266.499s-176.667 -90.5 -308 -90.5c-52 0 -87 3.33301 -105 10c0 8 -0.5 64.333 -1.5 169
s-1.66699 197 -2 277s0.166992 158 1.5 234zM181.998 537.999h-11c1.33301 -44 2.66602 -166.667 3.99902 -368c18 0.666992 34.833 2.16699 50.5 4.5s34.667 7.33301 57 15s41.5 17.5 57.5 29.5s30 29.5 42 52.5s18.333 49.833 19 80.5
c-0.666992 30.667 -6.5 57.5 -17.5 80.5s-24.167 41 -39.5 54s-33.166 23.5 -53.499 31.5s-39 13.333 -56 16s-34.5 4 -52.5 4zM426.998 877.999l-182 -128l-182 128l59 76l123 -96l114 96z" />
    <glyph glyph-name="dcaron" unicode="&#x10f;" horiz-adv-x="749" 
d="M654 751c51.333 0 76.999 -34.666 76.999 -103.999c0 -42 -12.167 -74.333 -36.5 -97s-54.833 -34.667 -91.5 -36c-5.33301 0 -10.333 4.16699 -15 12.5s-7 14.5 -7 18.5c0 6.66699 2.33301 11 7 13s12.667 4.33301 24 7s22 7 32 13c10.667 6 20.334 20.667 29.001 44
c-4.66699 -0.666992 -11 -1 -19 -1c-14 0 -26 2.66699 -36 8s-17 11.833 -21 19.5s-6.66699 14.5 -8 20.5s-2 11.333 -2 16c0 15.333 5 30.166 15 44.499s27.333 21.5 52 21.5zM370.999 595.001l2.00098 89l9 1c6.66699 0.666992 16 1.5 28 2.5s23.333 2.16699 34 3.5l72 7
l3 -698h-145v57c-8.66699 -24.667 -27.834 -43 -57.501 -55s-56.834 -18 -81.501 -18c-61.333 0 -113.5 23.667 -156.5 71s-64.5 105 -64.5 173c0 69.333 21.5 127.833 64.5 175.5s95.167 71.5 156.5 71.5c48.667 0 92.334 -19.333 131.001 -58c2 34 3.66699 93.333 5 178z
M147 225.001c0 -32.667 10 -60.5 30 -83.5s44.667 -34.5 74 -34.5c30 0 55.667 11.667 77 35s32 51 32 83c0 34.667 -10.5 64 -31.5 88s-46.833 36 -77.5 36c-29.333 0 -54 -12 -74 -36s-30 -53.333 -30 -88z" />
    <glyph glyph-name="Dcroat" unicode="&#x110;" horiz-adv-x="604" 
d="M-8 297v80.998l67 2c-1.33301 158.667 -1.33301 261.334 0 308.001c39.333 12 85.666 18 138.999 18c110.667 0 201.334 -30.167 272.001 -90.5s106.667 -145.833 108 -256.5c0 -107.333 -36.833 -192.833 -110.5 -256.5s-168.167 -96.167 -283.5 -97.5
c-60.667 0 -102 3.66699 -124 11c0 8.66699 -0.166992 45.834 -0.5 111.501s-0.5 122.167 -0.5 169.5h-67zM203 539.998c0 -17.333 0.167969 -43.3311 0.500977 -77.998s0.5 -60.667 0.5 -78c12 0.666992 48.667 2 110 4v-92c-10.667 0 -28 0.166992 -52 0.5
s-42.667 0.5 -56 0.5c0 -54 0.333008 -94.333 1 -121c20 0 39.167 1.16699 57.5 3.5s37.833 7.5 58.5 15.5s38.5 18.333 53.5 31s27.5 30.167 37.5 52.5s15.333 48.166 16 77.499c-4.66699 119.333 -80.334 180.666 -227.001 183.999z" />
    <glyph glyph-name="dcroat" unicode="&#x111;" horiz-adv-x="598" 
d="M279 616l92.001 4l2 64l9 1c6.66699 0.666992 16 1.5 28 2.5s23.333 2.16699 34 3.5l72 7v-72l89 4l3 -100h-91l2 -530h-145v57c-8.66699 -24.667 -27.834 -43 -57.501 -55s-56.834 -18 -81.501 -18c-61.333 0 -113.5 23.667 -156.5 71s-64.5 105 -64.5 173
c0 69.333 21.5 127.833 64.5 175.5s95.167 71.5 156.5 71.5c48.667 0 92.334 -19.333 131.001 -58l3 113l-90 1v85zM147.001 225c0 -32.667 10 -60.5 30 -83.5s44.667 -34.5 74 -34.5c30 0 55.667 11.667 77 35s32 51 32 83c0 34.667 -10.5 64 -31.5 88s-46.833 36 -77.5 36
c-29.333 0 -54 -12 -74 -36s-30 -53.333 -30 -88z" />
    <glyph glyph-name="Emacron" unicode="&#x112;" horiz-adv-x="476" 
d="M441 0l-416.002 0.000976562l10 330c6.66699 221.333 10 333.666 10 336.999c4.66699 0 31.167 2.16699 79.5 6.5l171.5 15c66 5.66699 117.667 9.5 155 11.5c-1.33301 -10.667 -6.66602 -68.667 -15.999 -174l-246 8c0 -20 0.166992 -49.667 0.5 -89s0.5 -69 0.5 -89
l157 18c0 -56 -0.333008 -98.333 -1 -127l-156 1v-128l258 31c-1.33301 -17.333 -2.66602 -42.5 -3.99902 -75.5zM10.998 758.001v86l472 10v-96h-472z" />
    <glyph glyph-name="emacron" unicode="&#x113;" horiz-adv-x="529" 
d="M28 561v86l473 10v-96h-473zM266 -15c-72 0 -130.166 22.501 -174.499 67.501s-66.5 105.5 -66.5 181.5c0 81.333 24.333 145.166 73 191.499s102.667 69.5 162 69.5c73.333 0 133.5 -30 180.5 -90s65.5 -126.667 55.5 -200l-331 -22
c2.66699 -29.333 14.834 -50 36.501 -62s46.667 -16.167 75 -12.5s54.666 9.16699 78.999 16.5s43.833 15.333 58.5 24l43 -123c-58.667 -27.333 -122.334 -41 -191.001 -41zM264.001 380.001c-34 -1.33301 -58.999 -12.832 -74.999 -34.499s-25 -46.834 -27 -75.501
c13.333 0 84.666 5.33301 213.999 16c-1.33301 8.66699 -4 17.5 -8 26.5s-10 19 -18 30s-19.5 20 -34.5 27s-32.167 10.5 -51.5 10.5z" />
    <glyph glyph-name="Ebreve" unicode="&#x114;" horiz-adv-x="476" 
d="M441 0l-416.001 0.000976562l10 330c6.66699 221.333 10 333.666 10 336.999c4.66699 0 31.167 2.16699 79.5 6.5l171.5 15c66 5.66699 117.667 9.5 155 11.5c-1.33301 -10.667 -6.66602 -68.667 -15.999 -174l-246 8c0 -20 0.166992 -49.667 0.5 -89s0.5 -69 0.5 -89
l157 18c0 -56 -0.333008 -98.333 -1 -127h-105c-6.66699 0 -15.5 0.166992 -26.5 0.5s-19.167 0.5 -24.5 0.5v-128l259 31zM341.999 899.001c5.33301 -4.66699 14.8311 -12.5 28.498 -23.5l27.5 -22.5c-14 -28.667 -35.167 -52.667 -63.5 -72s-63.5 -29 -105.5 -29
c-41.333 0 -76.666 10 -105.999 30s-50.666 44.333 -63.999 73l28.5 21.5c13.667 10.333 23.167 17.833 28.5 22.5c30.667 -48 69 -72 115 -72s83 24 111 72z" />
    <glyph glyph-name="ebreve" unicode="&#x115;" horiz-adv-x="523" 
d="M370 708c26.667 -21.333 44.9951 -36.333 54.9951 -45c-14 -28.667 -35.167 -52.834 -63.5 -72.501s-63.166 -29.5 -104.499 -29.5s-76.666 10 -105.999 30s-50.666 44.333 -63.999 73l56 44c30.667 -48 69.334 -72 116.001 -72c26 0 47.333 6.33301 64 19
s32.334 30.334 47.001 53.001zM265.995 -15c-72 0 -130.166 22.501 -174.499 67.501s-66.5 105.5 -66.5 181.5c0 81.333 24.333 145.166 73 191.499s102.667 69.5 162 69.5c73.333 0 133.5 -30 180.5 -90s65.5 -126.667 55.5 -200l-331 -22
c2.66699 -29.333 14.834 -50 36.501 -62s46.667 -16.167 75 -12.5s54.666 9.16699 78.999 16.5s43.833 15.333 58.5 24l43 -123c-58.667 -27.333 -122.334 -41 -191.001 -41zM263.996 380.001c-34 -1.33301 -58.999 -12.832 -74.999 -34.499s-25 -46.834 -27 -75.501
c13.333 0 84.666 5.33301 213.999 16c-1.33301 8.66699 -4 17.5 -8 26.5s-10 19 -18 30s-19.5 20 -34.5 27s-32.167 10.5 -51.5 10.5z" />
    <glyph glyph-name="Edotaccent" unicode="&#x116;" horiz-adv-x="476" 
d="M441 0l-416.002 0.000976562l10 330c6.66699 221.333 10 333.666 10 336.999c4.66699 0 31.167 2.16699 79.5 6.5l171.5 15c66 5.66699 117.667 9.5 155 11.5c-1.33301 -10.667 -6.66602 -68.667 -15.999 -174l-246 8c0 -20 0.166992 -49.667 0.5 -89s0.5 -69 0.5 -89
l157 18c0 -56 -0.333008 -98.333 -1 -127l-156 1v-128l258 31c-1.33301 -17.333 -2.66602 -42.5 -3.99902 -75.5zM304.998 823.001c0 -20 -6.16699 -35.833 -18.5 -47.5s-27.833 -17.5 -46.5 -17.5c-18 0 -33.333 5.83301 -46 17.5s-19 27.5 -19 47.5
c0 19.333 6.33301 34.833 19 46.5s28 17.5 46 17.5c18.667 0 34.167 -5.83301 46.5 -17.5s18.5 -27.167 18.5 -46.5z" />
    <glyph glyph-name="edotaccent" unicode="&#x117;" horiz-adv-x="523" 
d="M327 626c0 -20 -6.16699 -35.833 -18.5 -47.5s-28.166 -17.5 -47.499 -17.5c-18 0 -33.333 5.83301 -46 17.5s-19 27.5 -19 47.5c0 19.333 6.33301 34.833 19 46.5s28 17.5 46 17.5c19.333 0 35.166 -5.83301 47.499 -17.5s18.5 -27.167 18.5 -46.5zM266 -15
c-72 0 -130.166 22.501 -174.499 67.501s-66.5 105.5 -66.5 181.5c0 81.333 24.333 145.166 73 191.499s102.667 69.5 162 69.5c73.333 0 133.5 -30 180.5 -90s65.5 -126.667 55.5 -200l-331 -22c2.66699 -29.333 14.834 -50 36.501 -62s46.667 -16.167 75 -12.5
s54.666 9.16699 78.999 16.5s43.833 15.333 58.5 24l43 -123c-58.667 -27.333 -122.334 -41 -191.001 -41zM264.001 380.001c-34 -1.33301 -58.999 -12.832 -74.999 -34.499s-25 -46.834 -27 -75.501c13.333 0 84.666 5.33301 213.999 16c-1.33301 8.66699 -4 17.5 -8 26.5
s-10 19 -18 30s-19.5 20 -34.5 27s-32.167 10.5 -51.5 10.5z" />
    <glyph glyph-name="Eogonek" unicode="&#x118;" horiz-adv-x="476" 
d="M365 0h-339.999l10 330c6.66699 221.333 10 333.666 10 336.999c4.66699 0 31.167 2.16699 79.5 6.5l171.5 15c66 5.66699 117.667 9.5 155 11.5c-1.33301 -10.667 -6.66602 -68.667 -15.999 -174l-246 8c0 -20 0.166992 -49.667 0.5 -89s0.5 -69 0.5 -89l157 18
c0 -56 -0.333008 -98.333 -1 -127l-156 1v-128l258 31c-1.33301 -17.333 -2.66602 -42.5 -3.99902 -75.5l-3 -75.5h1c-2 -1.33301 -6.83301 -3.66602 -14.5 -6.99902s-12.834 -5.83301 -15.501 -7.5s-7.33398 -4.16699 -14.001 -7.5s-11.5 -6 -14.5 -8l-12.5 -8.5
c-5.33301 -3.66699 -9.16602 -6.83398 -11.499 -9.50098l-8 -9c-3 -3.33301 -5 -6.83301 -6 -10.5s-1.5 -7.5 -1.5 -11.5c0 -11.333 4 -20.166 12 -26.499s18 -9.5 30 -9.5c27.333 0 49.666 8 66.999 24l11 -85c-28.667 -17.333 -61.334 -26 -98.001 -26
c-66 0 -100.333 27.667 -103 83c0 56 34 95.667 102 119z" />
    <glyph glyph-name="eogonek" unicode="&#x119;" horiz-adv-x="523" 
d="M266 -15c-72 0 -130.166 22.5 -174.499 67.5s-66.5 105.5 -66.5 181.5c0 81.333 24.333 145.166 73 191.499s102.667 69.5 162 69.5c73.333 0 131.333 -26.667 174 -80s64 -112.666 64 -177.999c0 -6.66699 -0.666992 -17.334 -2 -32.001l-142 -10
c-20.667 -1.33301 -42.667 -2.83301 -66 -4.5s-47.166 -3.16699 -71.499 -4.5s-41.5 -2.33301 -51.5 -3c10 -26 22.667 -44.833 38 -56.5s35.666 -17.5 60.999 -17.5c53.333 0 103.333 13.333 150 40l43 -123l-1 -1l-25 -11h-1l-2 -1c-48 -20.667 -72 -42.334 -72 -65.001
c0 -11.333 4 -20.166 12 -26.499s18 -9.5 30 -9.5c27.333 0 49.666 8 66.999 24l11 -85c-27.333 -17.333 -60 -26 -98 -26c-30.667 0 -55.5 6.66699 -74.5 20s-28.5 34 -28.5 62c0 32.667 11 59.334 33 80.001c-20 -1.33301 -34 -2 -42 -2zM268.001 380l-4 0.000976562
c-34 -1.33301 -59 -12.833 -75 -34.5s-25 -46.834 -27 -75.501c11.333 0.666992 41.333 3 90 7l124 9c-1.33301 8.66699 -4 17.5 -8 26.5s-9.83301 19 -17.5 30s-18.667 20 -33 27s-30.833 10.5 -49.5 10.5z" />
    <glyph glyph-name="Ecaron" unicode="&#x11a;" horiz-adv-x="476" 
d="M235 760l-177 125c2.66699 3.33301 21 25 55 65l122 -99l123 98l54 -65zM441 0l-416.001 0.000976562l10 330c6.66699 221.333 10 333.666 10 336.999c4.66699 0 31.167 2.16699 79.5 6.5l171.5 15c66 5.66699 117.667 9.5 155 11.5
c-1.33301 -10.667 -6.66602 -68.667 -15.999 -174l-246 8c0 -20 0.166992 -49.667 0.5 -89s0.5 -69 0.5 -89l157 18c0 -56 -0.333008 -98.333 -1 -127h-105c-6.66699 0 -15.5 0.166992 -26.5 0.5s-19.167 0.5 -24.5 0.5v-128l259 31z" />
    <glyph glyph-name="ecaron" unicode="&#x11b;" horiz-adv-x="523" 
d="M438 686l-176.999 -123.999l-177 124l51 65l126 -98l119 98c17.333 -20.667 36.666 -42.334 57.999 -65.001zM266.001 -14.999c-72 0 -130.166 22.501 -174.499 67.501s-66.5 105.5 -66.5 181.5c0 81.333 24.333 145.166 73 191.499s102.667 69.5 162 69.5
c73.333 0 133.5 -30 180.5 -90s65.5 -126.667 55.5 -200l-331 -22c2.66699 -29.333 14.834 -50 36.501 -62s46.667 -16.167 75 -12.5s54.666 9.16699 78.999 16.5s43.833 15.333 58.5 24l43 -123c-58.667 -27.333 -122.334 -41 -191.001 -41zM264.002 380.002
c-34 -1.33301 -58.999 -12.832 -74.999 -34.499s-25 -46.834 -27 -75.501c13.333 0 84.666 5.33301 213.999 16c-1.33301 8.66699 -4 17.5 -8 26.5s-10 19 -18 30s-19.5 20 -34.5 27s-32.167 10.5 -51.5 10.5z" />
    <glyph glyph-name="Gcircumflex" unicode="&#x11c;" horiz-adv-x="617" 
d="M146 821l177 125l177 -125c-4 -4 -9.83301 -10.667 -17.5 -20s-15 -17.833 -22 -25.5s-13.167 -14.167 -18.5 -19.5l-119 99l-125 -98zM288 272c0 20.667 3.33398 58.6621 10.001 113.995c28.667 1.33301 77.334 2.66602 146.001 3.99902s118 2.33301 148 3l-6 -319
c-0.666992 0 -4.66699 -2.5 -12 -7.5s-13.666 -9.16699 -18.999 -12.5s-13.666 -8.16602 -24.999 -14.499s-22 -11.666 -32 -15.999s-22.5 -9.16602 -37.5 -14.499s-29.833 -9.66602 -44.5 -12.999s-31.334 -6.16602 -50.001 -8.49902s-37.334 -3.5 -56.001 -3.5
c-87.333 0 -156.333 33.333 -207 100s-76.667 153.334 -78 260.001c1.33301 117.333 28.666 207.5 81.999 270.5s121.666 94.5 204.999 94.5c48 0 93.667 -5.5 137 -16.5s73.666 -21.167 90.999 -30.5s28 -16 32 -20c0 -1.33301 -4.16699 -27 -12.5 -77
s-12.5 -75.667 -12.5 -77c-80 36.667 -148.333 55 -205 55c-54 0 -96.167 -20.333 -126.5 -61s-45.5 -90.667 -45.5 -150c0 -63.333 14.667 -112.166 44 -146.499s68 -51.5 116 -51.5c36 0 76.333 9.66699 121 29c0.666992 11.333 1.33398 24.166 2.00098 38.499
s1.16699 28.5 1.5 42.5s0.5 23.667 0.5 29c-8 0 -37 -0.166992 -87 -0.5s-76.667 -0.5 -80 -0.5z" />
    <glyph glyph-name="gcircumflex" unicode="&#x11d;" horiz-adv-x="525" 
d="M353 416c0 10.667 -0.167969 24.502 -0.500977 41.502s-0.5 28.167 -0.5 33.5l148 8c-1.33301 -214 -3 -377 -5 -489c-1.33301 -66 -21.5 -118.5 -60.5 -157.5s-93.833 -58.5 -164.5 -58.5c-16.667 0 -32.5 0.666992 -47.5 2s-28 2.83301 -39 4.5s-21.833 4 -32.5 7
s-19.334 5.83301 -26.001 8.5s-13.5 5.66699 -20.5 9s-12.167 6 -15.5 8l-10 7c-4 2.66699 -6.33301 4 -7 4c0 1.33301 4.83301 22.166 14.5 62.499s14.834 61.5 15.501 63.5c33.333 -24 80 -36 140 -36c40.667 0 69.834 13.167 87.501 39.5s24.5 61.833 20.5 106.5
c-32.667 -40.667 -77 -61 -133 -61c-53.333 0 -98.666 22.833 -135.999 68.5s-56 101.167 -56 166.5s18.667 120.666 56 165.999s82.666 68 135.999 68c54.667 0 100 -24 136 -72zM359.999 251.002c0 34 -9.99902 62.167 -29.999 84.5s-45 33.5 -75 33.5
s-55.167 -11.167 -75.5 -33.5s-30.5 -50.5 -30.5 -84.5c0 -31.333 10.333 -58.166 31 -80.499s45.667 -33.5 75 -33.5s54.166 11.167 74.499 33.5s30.5 49.166 30.5 80.499zM270 753.002l177 -125l-57 -65l-120 99l-125 -98l-51 65z" />
    <glyph glyph-name="Gbreve" unicode="&#x11e;" horiz-adv-x="617" 
d="M288 272c0 20.667 3.33398 58.6621 10.001 113.995c28.667 1.33301 77.334 2.66602 146.001 3.99902s118 2.33301 148 3l-6 -319c-0.666992 0 -4.66699 -2.5 -12 -7.5s-13.666 -9.16699 -18.999 -12.5s-13.666 -8.16602 -24.999 -14.499s-22 -11.666 -32 -15.999
s-22.5 -9.16602 -37.5 -14.499s-29.833 -9.66602 -44.5 -12.999s-31.334 -6.16602 -50.001 -8.49902s-37.334 -3.5 -56.001 -3.5c-87.333 0 -156.333 33.333 -207 100s-76.667 153.334 -78 260.001c1.33301 117.333 28.666 207.5 81.999 270.5s121.666 94.5 204.999 94.5
c48 0 93.667 -5.5 137 -16.5s73.666 -21.167 90.999 -30.5s28 -16 32 -20c0 -1.33301 -4.16699 -27 -12.5 -77s-12.5 -75.667 -12.5 -77c-80 36.667 -148.333 55 -205 55c-54 0 -96.167 -20.333 -126.5 -61s-45.5 -90.667 -45.5 -150c0 -63.333 14.667 -112.166 44 -146.499
s68 -51.5 116 -51.5c36 0 76.333 9.66699 121 29c0.666992 11.333 1.33398 24.166 2.00098 38.499s1.16699 28.5 1.5 42.5s0.5 23.667 0.5 29c-8 0 -37 -0.166992 -87 -0.5s-76.667 -0.5 -80 -0.5zM423.001 898.995l54.9971 -46c-34.667 -67.333 -90.667 -101 -168 -101
c-41.333 0 -76.666 10 -105.999 30s-50.666 44.333 -63.999 73l56 44c30.667 -48 69.334 -72 116.001 -72c44.667 0 81.667 24 111 72z" />
    <glyph glyph-name="gbreve" unicode="&#x11f;" horiz-adv-x="525" 
d="M353 416c0 10.667 -0.167969 24.502 -0.500977 41.502s-0.5 28.167 -0.5 33.5l148 8c-1.33301 -214 -3 -377 -5 -489c-1.33301 -66 -21.5 -118.5 -60.5 -157.5s-93.833 -58.5 -164.5 -58.5c-16.667 0 -32.5 0.666992 -47.5 2s-28 2.83301 -39 4.5s-21.833 4 -32.5 7
s-19.334 5.83301 -26.001 8.5s-13.5 5.66699 -20.5 9s-12.167 6 -15.5 8l-10 7c-4 2.66699 -6.33301 4 -7 4c0 1.33301 4.83301 22.166 14.5 62.499s14.834 61.5 15.501 63.5c33.333 -24 80 -36 140 -36c40.667 0 69.834 13.167 87.501 39.5s24.5 61.833 20.5 106.5
c-32.667 -40.667 -77 -61 -133 -61c-53.333 0 -98.666 22.833 -135.999 68.5s-56 101.167 -56 166.5s18.667 120.666 56 165.999s82.666 68 135.999 68c54.667 0 100 -24 136 -72zM359.999 251.002c0 34 -9.99902 62.167 -29.999 84.5s-45 33.5 -75 33.5
s-55.167 -11.167 -75.5 -33.5s-30.5 -50.5 -30.5 -84.5c0 -31.333 10.333 -58.166 31 -80.499s45.667 -33.5 75 -33.5s54.166 11.167 74.499 33.5s30.5 49.166 30.5 80.499zM386 702.002l54.9971 -46c-34.667 -67.333 -90.667 -101 -168 -101
c-41.333 0 -76.666 10 -105.999 30s-50.666 44.333 -63.999 73l56 44c30.667 -48 69.334 -72 116.001 -72c44.667 0 81.667 24 111 72z" />
    <glyph glyph-name="Gdotaccent" unicode="&#x120;" horiz-adv-x="617" 
d="M288 272c0 20.667 3.33398 58.6621 10.001 113.995c28.667 1.33301 77.334 2.66602 146.001 3.99902s118 2.33301 148 3l-6 -319c-0.666992 0 -4.66699 -2.5 -12 -7.5s-13.666 -9.16699 -18.999 -12.5s-13.666 -8.16602 -24.999 -14.499s-22 -11.666 -32 -15.999
s-22.5 -9.16602 -37.5 -14.499s-29.833 -9.66602 -44.5 -12.999s-31.334 -6.16602 -50.001 -8.49902s-37.334 -3.5 -56.001 -3.5c-87.333 0 -156.333 33.333 -207 100s-76.667 153.334 -78 260.001c1.33301 117.333 28.666 207.5 81.999 270.5s121.666 94.5 204.999 94.5
c48 0 93.667 -5.5 137 -16.5s73.666 -21.167 90.999 -30.5s28 -16 32 -20c0 -1.33301 -4.16699 -27 -12.5 -77s-12.5 -75.667 -12.5 -77c-80 36.667 -148.333 55 -205 55c-54 0 -96.167 -20.333 -126.5 -61s-45.5 -90.667 -45.5 -150c0 -63.333 14.667 -112.166 44 -146.499
s68 -51.5 116 -51.5c36 0 76.333 9.66699 121 29c0.666992 11.333 1.33398 24.166 2.00098 38.499s1.16699 28.5 1.5 42.5s0.5 23.667 0.5 29c-8 0 -37 -0.166992 -87 -0.5s-76.667 -0.5 -80 -0.5zM368.001 822.995c0 -20 -6.16699 -35.833 -18.5 -47.5
s-27.833 -17.5 -46.5 -17.5c-18 0 -33.333 5.83301 -46 17.5s-19 27.5 -19 47.5c0 19.333 6.33301 34.833 19 46.5s28 17.5 46 17.5c18.667 0 34.167 -5.83301 46.5 -17.5s18.5 -27.167 18.5 -46.5z" />
    <glyph glyph-name="gdotaccent" unicode="&#x121;" horiz-adv-x="525" 
d="M353 416c0 10.667 -0.167969 24.502 -0.500977 41.502s-0.5 28.167 -0.5 33.5l148 8c-1.33301 -214 -3 -377 -5 -489c-1.33301 -66 -21.5 -118.5 -60.5 -157.5s-93.833 -58.5 -164.5 -58.5c-16.667 0 -32.5 0.666992 -47.5 2s-28 2.83301 -39 4.5s-21.833 4 -32.5 7
s-19.334 5.83301 -26.001 8.5s-13.5 5.66699 -20.5 9s-12.167 6 -15.5 8l-10 7c-4 2.66699 -6.33301 4 -7 4c0 1.33301 4.83301 22.166 14.5 62.499s14.834 61.5 15.501 63.5c33.333 -24 80 -36 140 -36c40.667 0 69.834 13.167 87.501 39.5s24.5 61.833 20.5 106.5
c-32.667 -40.667 -77 -61 -133 -61c-53.333 0 -98.666 22.833 -135.999 68.5s-56 101.167 -56 166.5s18.667 120.666 56 165.999s82.666 68 135.999 68c54.667 0 100 -24 136 -72zM359.999 251.002c0 34 -9.99902 62.167 -29.999 84.5s-45 33.5 -75 33.5
s-55.167 -11.167 -75.5 -33.5s-30.5 -50.5 -30.5 -84.5c0 -31.333 10.333 -58.166 31 -80.499s45.667 -33.5 75 -33.5s54.166 11.167 74.499 33.5s30.5 49.166 30.5 80.499zM362 630.002c0 -20 -6.16699 -35.833 -18.5 -47.5s-28.166 -17.5 -47.499 -17.5
c-18 0 -33.333 5.83301 -46 17.5s-19 27.5 -19 47.5c0 19.333 6.33301 34.833 19 46.5s28 17.5 46 17.5c19.333 0 35.166 -5.83301 47.499 -17.5s18.5 -27.167 18.5 -46.5z" />
    <glyph glyph-name="Gcommaaccent" unicode="&#x122;" horiz-adv-x="617" 
d="M288 272c0 20.667 3.33398 58.6621 10.001 113.995c28.667 1.33301 77.334 2.66602 146.001 3.99902s118 2.33301 148 3l-6 -319c-0.666992 0 -4.66699 -2.5 -12 -7.5s-13.666 -9.16699 -18.999 -12.5s-13.666 -8.16602 -24.999 -14.499s-22 -11.666 -32 -15.999
s-22.5 -9.16602 -37.5 -14.499s-29.833 -9.66602 -44.5 -12.999s-31.334 -6.16602 -50.001 -8.49902s-37.334 -3.5 -56.001 -3.5c-87.333 0 -156.333 33.333 -207 100s-76.667 153.334 -78 260.001c1.33301 117.333 28.666 207.5 81.999 270.5s121.666 94.5 204.999 94.5
c48 0 93.667 -5.5 137 -16.5s73.666 -21.167 90.999 -30.5s28 -16 32 -20c0 -1.33301 -4.16699 -27 -12.5 -77s-12.5 -75.667 -12.5 -77c-80 36.667 -148.333 55 -205 55c-54 0 -96.167 -20.333 -126.5 -61s-45.5 -90.667 -45.5 -150c0 -63.333 14.667 -112.166 44 -146.499
s68 -51.5 116 -51.5c36 0 76.333 9.66699 121 29c0.666992 11.333 1.33398 24.166 2.00098 38.499s1.16699 28.5 1.5 42.5s0.5 23.667 0.5 29c-8 0 -37 -0.166992 -87 -0.5s-76.667 -0.5 -80 -0.5zM335.001 -37.0049c24 0 41.667 -8.16895 53 -24.502s17 -36.833 17 -61.5
c0 -34.667 -11.167 -61.667 -33.5 -81s-49.5 -29 -81.5 -29c-16.667 0 -25 8.33301 -25 25c0 8 5.66699 12.667 17 14c34 2.66699 57.333 20 70 52c-9.33301 -1.33301 -15 -2 -17 -2c-16.667 0 -30 3.83301 -40 11.5s-15.833 14.834 -17.5 21.501s-2.5 13.334 -2.5 20.001v5
c5.33301 32.667 25.333 49 60 49z" />
    <glyph glyph-name="gcommaaccent" unicode="&#x123;" horiz-adv-x="525" 
d="M353 416c0 10.667 -0.167969 24.502 -0.500977 41.502s-0.5 28.167 -0.5 33.5l148 8c-1.33301 -214 -3 -377 -5 -489c-1.33301 -66 -21.5 -118.5 -60.5 -157.5s-93.833 -58.5 -164.5 -58.5c-16.667 0 -32.5 0.666992 -47.5 2s-28 2.83301 -39 4.5s-21.833 4 -32.5 7
s-19.334 5.83301 -26.001 8.5s-13.5 5.66699 -20.5 9s-12.167 6 -15.5 8l-10 7c-4 2.66699 -6.33301 4 -7 4c0 1.33301 4.83301 22.166 14.5 62.499s14.834 61.5 15.501 63.5c33.333 -24 80 -36 140 -36c40.667 0 69.834 13.167 87.501 39.5s24.5 61.833 20.5 106.5
c-32.667 -40.667 -77 -61 -133 -61c-53.333 0 -98.666 22.833 -135.999 68.5s-56 101.167 -56 166.5s18.667 120.666 56 165.999s82.666 68 135.999 68c54.667 0 100 -24 136 -72zM359.999 251.002c0 34 -9.99902 62.167 -29.999 84.5s-45 33.5 -75 33.5
s-55.167 -11.167 -75.5 -33.5s-30.5 -50.5 -30.5 -84.5c0 -31.333 10.333 -58.166 31 -80.499s45.667 -33.5 75 -33.5s54.166 11.167 74.499 33.5s30.5 49.166 30.5 80.499zM293 567.002c-51.333 0 -76.999 34.3311 -76.999 102.998c0 40.667 12.167 72.667 36.5 96
s54.5 35.666 90.5 36.999c4.66699 0 9.5 -4 14.5 -12s7.5 -14.333 7.5 -19c0 -7.33301 -2.33301 -12.166 -7 -14.499s-12.667 -4.66602 -24 -6.99902s-21.666 -6.16602 -30.999 -11.499c-14 -8 -23.667 -22.667 -29 -44c9.33301 1.33301 15.666 2 18.999 2
c14 0 25.833 -2.66699 35.5 -8s16.5 -12 20.5 -20s6.66699 -14.833 8 -20.5s2 -11.167 2 -16.5c0 -14.667 -4.83301 -29.167 -14.5 -43.5s-26.834 -21.5 -51.501 -21.5z" />
    <glyph glyph-name="Hcircumflex" unicode="&#x124;" horiz-adv-x="596" 
d="M58 683l33.998 2.99902l71 8c24 2.66699 36.667 4 38 4c0 -161.333 0.333008 -282.333 1 -363c86.667 1.33301 153.334 3 200.001 5c0.666992 20.667 1.5 48.334 2.5 83.001s2 64.667 3 90s1.83301 47.333 2.5 66l3 105l9 1c6.66699 0.666992 16 1.5 28 2.5
s23.333 2.16699 34 3.5l72 7l2 -698h-166l2 57c2.66699 86.667 4 131.667 4 135c-16.667 1.33301 -49.167 2.66602 -97.5 3.99902s-81.166 2.33301 -98.499 3c0.666992 -45.333 1 -111.666 1 -198.999h-166l10 335c1.33301 48 3 101.167 5 159.5s3.5 103.833 4.5 136.5
s1.5 50 1.5 52zM299.998 955.999l177.001 -125c-4 -4 -9.83301 -10.667 -17.5 -20s-15 -17.833 -22 -25.5s-13.167 -14.167 -18.5 -19.5l-119 99c-28.667 -21.333 -70.334 -54 -125.001 -98l-52 65z" />
    <glyph glyph-name="hcircumflex" unicode="&#x125;" horiz-adv-x="507" 
d="M233 950l177 -125l-57 -65l-120 99l-125 -98l-51 65zM38 697l147 11.999v-313c28 62 73.333 93 136 93c55.333 0 95.333 -22.5 120 -67.5s37 -112.833 37 -203.5l-5 -218h-159c4.66699 54.667 7 128.334 7 221.001c0 60 -6.66699 99 -20 117
c-9.33301 13.333 -22 20 -38 20c-26.667 0 -46 -11.333 -58 -34s-18 -50.334 -18 -83.001c0 -107.333 0.333008 -187.666 1 -240.999h-163z" />
    <glyph glyph-name="Hbar" unicode="&#x126;" horiz-adv-x="680" 
d="M99 683l34.999 3l70 8c24 2.66699 36.667 4 38 4v-110l209 2c0 24 0.666992 46.667 2 68c0.666992 6 1 14.667 1 26l10 1c6 0.666992 15 1.5 27 2.5s23.333 2.16699 34 3.5l72 7v-106l70 2v-96h-70c1.33301 -224 2 -390 2 -498h-166l2 57c2.66699 86.667 4 131.667 4 135
c-16.667 1.33301 -49.167 2.66602 -97.5 3.99902s-81.166 2.33301 -98.499 3c0.666992 -45.333 1 -111.666 1 -198.999h-166l6 173l9 325h-80v86c6.66699 0 19.167 0.166992 37.5 0.5s33.5 0.5 45.5 0.5c2 35.333 3 68 3 98zM442.999 340
c1.33301 72 2.99902 124.669 4.99902 158.002h-206c0 -18.667 0.166992 -45.834 0.5 -81.501s0.5 -62.834 0.5 -81.501c86.667 1.33301 153.334 3 200.001 5z" />
    <glyph glyph-name="hbar" unicode="&#x127;" horiz-adv-x="577" 
d="M111 679v17.002l10 1c6.66699 0.666992 16.334 1.5 29.001 2.5s24.667 2.16699 36 3.5l75 7v-72l201 4v-96c-17.333 0 -48.5 0.166992 -93.5 0.5s-80.833 0.5 -107.5 0.5v-140c28.667 62 73 93 133 93c105.333 0 158 -85 158 -255c0 -4 -1.16699 -43.333 -3.5 -118
s-3.5 -117 -3.5 -127h-161c0 7.33301 1.33301 44.5 4 111.5s4 107.167 4 120.5c0 57.333 -6 95 -18 113c-9.33301 13.333 -21.666 20.333 -36.999 21c-38.667 0 -63.334 -34 -74.001 -102c0 -117.333 0.333008 -205.333 1 -264h-166l3 197c0.666992 36 1.66699 94.5 3 175.5
s2.66602 139.167 3.99902 174.5h-118v85l120 3c0 7.33301 0.166992 15.666 0.5 24.999s0.5 15.666 0.5 18.999z" />
    <glyph glyph-name="Itilde" unicode="&#x128;" horiz-adv-x="310" 
d="M94 684l10 1c6 0.666992 15 1.5 27 2.5s23 2.16699 33 3.5l71 7l2 -698h-163l10 339c6.66699 226.667 10 341.667 10 345zM243 752c-17.333 0 -41 8.16699 -71 24.5s-53.333 24.5 -70 24.5c-20 0 -30 -16 -30 -48l-73 -6c-4.66699 12 -7 29 -7 51c0 26 6.66699 47 20 63
s32.666 24 57.999 24c18.667 0 44.834 -8.83301 78.501 -26.5s55.167 -26.5 64.5 -26.5c16 0 24 11.333 24 34c0 1.33301 -0.166992 4 -0.5 8s-0.5 6.66699 -0.5 8l75 6c5.33301 -14.667 8 -33.667 8 -57s-6.5 -42.333 -19.5 -57s-31.833 -22 -56.5 -22z" />
    <glyph glyph-name="itilde" unicode="&#x129;" horiz-adv-x="311" 
d="M87 484l9 0.999023c6.66699 0.666992 16 1.5 28 2.5s23.333 2.16699 34 3.5l72 7c0 -19.333 0.5 -101.5 1.5 -246.5s1.5 -228.833 1.5 -251.5h-166l10 239c6.66699 158.667 10 240.334 10 245.001zM249 559.999c-17.333 0 -40.999 8.16797 -70.999 24.501
s-53.333 24.5 -70 24.5c-20 0 -30 -12.333 -30 -37v-6l-74 -11c-4.66699 15.333 -7 32.333 -7 51c0 25.333 6.66699 46.166 20 62.499s32.666 24.5 57.999 24.5c19.333 0 46 -8.83301 80 -26.5s55.333 -26.5 64 -26.5c15.333 0 23 10.333 23 31v19l75 6
c5.33301 -19.333 8 -38.333 8 -57c0 -23.333 -6.5 -42.333 -19.5 -57s-31.833 -22 -56.5 -22z" />
    <glyph glyph-name="Imacron" unicode="&#x12a;" horiz-adv-x="339" 
d="M-11 758v85l371 10v-96c-78 0.666992 -201.667 1 -371 1zM101 684l9 1c6.66699 0.666992 16 1.5 28 2.5s23 2.16699 33 3.5l71 7l3 -698h-164c0.666992 0 4.16699 112.5 10.5 337.5s9.5 340.5 9.5 346.5z" />
    <glyph glyph-name="imacron" unicode="&#x12b;" horiz-adv-x="353" 
d="M-16 561l-0.000976562 85l372 10v-96c-38 0 -99.667 0.166992 -185 0.5s-147.666 0.5 -186.999 0.5zM105.999 484l10 0.999023c6 0.666992 15 1.5 27 2.5s23.333 2.16699 34 3.5l72 7c0 -19.333 0.5 -101.5 1.5 -246.5s1.5 -228.833 1.5 -251.5h-166l10 239
c6.66699 158.667 10 240.334 10 245.001z" />
    <glyph glyph-name="Ibreve" unicode="&#x12c;" horiz-adv-x="321" 
d="M97 684l9 1c6.66699 0.666992 16 1.5 28 2.5s23 2.16699 33 3.5l71 7l3 -698h-164c0.666992 0 4.16699 112.5 10.5 337.5s9.5 340.5 9.5 346.5zM274 897c5.33301 -4 14.667 -11.501 28 -22.501l28 -23.5c-14 -28.667 -35.167 -52.667 -63.5 -72s-63.5 -29 -105.5 -29
c-41.333 0 -76.5 10 -105.5 30s-50.167 44.333 -63.5 73c5.33301 4.66699 15 12.334 29 23.001s23 17.667 27 21c30.667 -48 69 -72 115 -72s83 24 111 72z" />
    <glyph glyph-name="ibreve" unicode="&#x12d;" horiz-adv-x="322" 
d="M97 484l9 0.999023c6.66699 0.666992 16.167 1.5 28.5 2.5s23.833 2.16699 34.5 3.5l72 7c0 -19.333 0.333008 -101.5 1 -246.5s1 -228.833 1 -251.5h-166l10 239c6.66699 158.667 10 240.334 10 245.001zM275 707.999l54.9971 -46
c-34.667 -67.333 -90.667 -101 -168 -101c-41.333 0 -76.666 10 -105.999 30s-50.666 44.333 -63.999 73l56 44c30.667 -48 69.334 -72 116.001 -72c44.667 0 81.667 24 111 72z" />
    <glyph glyph-name="Iogonek" unicode="&#x12e;" horiz-adv-x="251" 
d="M127 0l-89.9971 -0.000976562l10 339c6.66699 226.667 10 341.667 10 345l9 1c6.66699 0.666992 16 1.5 28 2.5s23 2.16699 33 3.5l71 7l3 -698h3c-2 -1.33301 -6.83301 -3.66602 -14.5 -6.99902s-12.834 -5.83301 -15.501 -7.5s-7.33398 -4.16699 -14.001 -7.5
s-11.5 -6 -14.5 -8l-12.5 -8.5c-5.33301 -3.66699 -9.16602 -6.83398 -11.499 -9.50098l-8 -9c-3 -3.33301 -5 -6.83301 -6 -10.5s-1.5 -7.5 -1.5 -11.5c0 -11.333 4 -20.166 12 -26.499s18 -9.5 30 -9.5c27.333 0 49.666 8 66.999 24l11 -85
c-28.667 -17.333 -61.334 -26 -98.001 -26c-66 0 -100.333 27.667 -103 83c0 56 34 95.667 102 119z" />
    <glyph glyph-name="iogonek" unicode="&#x12f;" horiz-adv-x="221" 
d="M43 626c0 22.667 8 42 24 58s35 24 57 24c23.333 0 42.833 -8 58.5 -24s23.5 -35.333 23.5 -58c0 -22 -7.83301 -41 -23.5 -57s-35.167 -24 -58.5 -24c-22 0 -41 8 -57 24s-24 35 -24 57zM124 0h-88.9971l10 237c6.66699 160 10 241.333 10 244l9 1
c6.66699 0.666992 16 1.5 28 2.5s23.333 2.16699 34 3.5l72 7c0 -18.667 0.5 -100.334 1.5 -245.001s1.5 -228 1.5 -250c-2 -1.33301 -6.83301 -3.66602 -14.5 -6.99902s-12.834 -5.83301 -15.501 -7.5s-7.33398 -4.16699 -14.001 -7.5s-11.5 -6 -14.5 -8l-12.5 -8.5
c-5.33301 -3.66699 -9.16602 -6.83398 -11.499 -9.50098l-8 -9c-3 -3.33301 -5 -6.83301 -6 -10.5s-1.5 -7.5 -1.5 -11.5c0 -11.333 4 -20.166 12 -26.499s18 -9.5 30 -9.5c27.333 0 49.666 8 66.999 24l11 -85c-28.667 -17.333 -61.334 -26 -98.001 -26
c-66 0 -100.333 27.667 -103 83c0 56 34 95.667 102 119z" />
    <glyph glyph-name="Idotaccent" unicode="&#x130;" horiz-adv-x="237" 
d="M57 684l9 1c6.66699 0.666992 16 1.5 28 2.5s23 2.16699 33 3.5l71 7l2 -698h-163l10 339c6.66699 226.667 10 341.667 10 345zM185 822c0 -20 -6.16699 -35.667 -18.5 -47s-27.833 -17 -46.5 -17c-18 0 -33.333 5.66699 -46 17s-19 27 -19 47s6.33301 35.667 19 47
s28 17 46 17c18.667 0 34.167 -5.66699 46.5 -17s18.5 -27 18.5 -47z" />
    <glyph glyph-name="dotlessi" unicode="&#x131;" horiz-adv-x="217" 
d="M45 484l9 0.999023c6.66699 0.666992 16 1.5 28 2.5s23.333 2.16699 34 3.5l72 7c0 -19.333 0.5 -101.5 1.5 -246.5s1.5 -228.833 1.5 -251.5h-166l10 239c6.66699 158.667 10 240.334 10 245.001z" />
    <glyph glyph-name="IJ" unicode="&#x132;" horiz-adv-x="838" 
d="M45 684l9 1c6.66699 0.666992 16 1.5 28 2.5s23 2.16699 33 3.5l71 7l2 -698h-163l10 339c6.66699 226.667 10 341.667 10 345zM536 -14c-55.333 0 -102.832 12.166 -142.499 36.499s-69.5 56.833 -89.5 97.5s-33.333 84.667 -40 132s-7.33398 97 -2.00098 149
c102 -23.333 158.667 -36.666 170 -39.999c0 -147.333 36.667 -221 110 -221c64 0 98 70 102 210c0 82 -11 193.333 -33 334l168 14c0 -2 1.33301 -9.66699 4 -23s5 -26 7 -38s4.5 -28.333 7.5 -49s5.5 -40.5 7.5 -59.5s3.66699 -40.667 5 -65s2 -47.833 2 -70.5
c0 -54 -4 -103.167 -12 -147.5s-21.667 -87 -41 -128s-47.833 -73.167 -85.5 -96.5s-83.5 -35 -137.5 -35z" />
    <glyph glyph-name="ij" unicode="&#x133;" horiz-adv-x="499" 
d="M45 481l9 1.00098c6.66699 0.666992 16 1.5 28 2.5s23.333 2.16699 34 3.5l72 7c0 -18.667 0.5 -100.334 1.5 -245.001s1.5 -228 1.5 -250h-166l10 237c6.66699 160 10 241.333 10 244zM33 626.001c0 22.667 8 42 24 58s35 24 57 24c23.333 0 42.833 -8 58.5 -24
s23.5 -35.333 23.5 -58c0 -22 -7.83301 -41 -23.5 -57s-35.167 -24 -58.5 -24c-22 0 -41 8 -57 24s-24 35 -24 57zM305 134.001l0.00195312 156.999c0 90 -0.333008 150.667 -1 182l162 16l-3 -442c0 -162 -61.333 -243 -184 -243c-34.667 0 -73.667 6.66699 -117 20l19 141
c15.333 -8 29 -12 41 -12c10 0 19.167 1.33301 27.5 4s15.166 7 20.499 13s10.166 12 14.499 18s7.83301 14 10.5 24s4.66699 18.333 6 25s2.33301 15.834 3 27.501s1 20.167 1 25.5v25v19zM299.002 629c0 22 7.83301 41.001 23.5 57.001s34.167 24 55.5 24
c22.667 0 41.667 -7.83301 57 -23.5s23 -34.834 23 -57.501c0 -22 -7.66699 -40.667 -23 -56s-34.333 -23 -57 -23c-21.333 0 -39.833 7.83301 -55.5 23.5s-23.5 34.167 -23.5 55.5z" />
    <glyph glyph-name="Jcircumflex" unicode="&#x134;" horiz-adv-x="603" 
d="M301 -14c-43.333 0 -81.666 7.16602 -114.999 21.499s-60 32.833 -80 55.5s-36.333 50 -49 82s-21.334 63.833 -26.001 95.5s-7 65.834 -7 102.501c0 19.333 1 38.666 3 57.999c102 -23.333 158.667 -36.666 170 -39.999c0 -147.333 36.667 -221 110 -221
c64 0 98 70 102 210c0 82 -11 193.333 -33 334l168 14c0 -2 1.33301 -9.66699 4 -23s5 -26 7 -38s4.5 -28.333 7.5 -49s5.5 -40.5 7.5 -59.5s3.66699 -40.667 5 -65s2 -47.833 2 -70.5c0 -54 -4 -103.167 -12 -147.5s-21.667 -87 -41 -128s-47.833 -73.167 -85.5 -96.5
s-83.5 -35 -137.5 -35zM451 949.999l177 -125l-57 -65l-120 99l-125 -98l-51 65z" />
    <glyph glyph-name="jcircumflex" unicode="&#x135;" horiz-adv-x="386" 
d="M48 627l177 125l177 -125c-4 -4 -9.83301 -10.667 -17.5 -20s-15 -17.833 -22 -25.5s-13.167 -14.167 -18.5 -19.5l-119 99l-125 -98zM138 134c0 203.333 -0.331055 316.334 -0.998047 339.001l161 16c-1.33301 -126 -2 -273.333 -2 -442c0 -162 -61.333 -243 -184 -243
c-36.667 0 -75.667 6.66699 -117 20l19 141c15.333 -8 29 -12 41 -12c13.333 0 25 2.16699 35 6.5s18 11.5 24 21.5s10.667 19.167 14 27.5s5.66602 20.666 6.99902 36.999s2.16602 28.833 2.49902 37.5s0.5 21.667 0.5 39v12z" />
    <glyph glyph-name="Kcommaaccent" unicode="&#x136;" horiz-adv-x="558" 
d="M45 684c-0.666992 0 11.334 1.16504 36.001 3.49805l75.5 7c25.667 2.33301 38.834 3.5 39.501 3.5l-7 -349c8 18 19.5 42 34.5 72l46 90.5l44.5 86.5l36 69l15 28l146 -60l-205 -307c1.33301 -1.33301 7.16602 -6.66602 17.499 -15.999l38.5 -34l50.5 -44l54 -47.5
l48 -43l34.5 -31.5c8.66699 -8 12.667 -12 12 -12c-2.66699 0 -16.5 -8.5 -41.5 -25.5l-74.5 -51.5c-24.667 -17.333 -37.334 -26 -38.001 -26l-79 102l-119 154c-2.66699 -11.333 -6 -27.166 -10 -47.499s-7 -34.833 -9 -43.5l1 -162h-166l10 336
c6.66699 222.667 10 338.667 10 348zM299.001 -37.002c24 0 41.667 -8.16895 53 -24.502s17 -36.833 17 -61.5c0 -34.667 -11.167 -61.667 -33.5 -81s-49.5 -29 -81.5 -29c-16.667 0 -25 8.33301 -25 25c0 8 5.66699 12.667 17 14c34 2.66699 57.333 20 70 52
c-9.33301 -1.33301 -15 -2 -17 -2c-16.667 0 -30 3.83301 -40 11.5s-15.833 14.834 -17.5 21.501s-2.5 13.334 -2.5 20.001v5c5.33301 32.667 25.333 49 60 49z" />
    <glyph glyph-name="kcommaaccent" unicode="&#x137;" horiz-adv-x="510" 
d="M242 -8c24 0 41.4971 -8.16797 52.4971 -24.501s16.5 -36.833 16.5 -61.5c0 -34.667 -11.167 -61.667 -33.5 -81s-49.5 -29 -81.5 -29c-15.333 0 -23.666 8.33301 -24.999 25c0.666992 8 6.33398 12.667 17.001 14c36 2.66699 59.333 20 70 52
c-9.33301 -1.33301 -14.666 -2 -15.999 -2c-16.667 0 -30 3.83301 -40 11.5s-16 15 -18 22s-3 13.5 -3 19.5c0 12.667 4.5 24.834 13.5 36.501s24.833 17.5 47.5 17.5zM44.9971 683.999l70 7.00098c46.667 4 71 6.33301 73 7v-201c0 -88.667 0.333008 -155.667 1 -201
l59.5 81.5l82 111.5c19 25.333 28.5 37.666 28.5 36.999c1.33301 -2 21.5 -17.5 60.5 -46.5s58.833 -43.833 59.5 -44.5l-142 -176l87.5 -103.5c47 -55 74.833 -86.833 83.5 -95.5c1.33301 0 -7.16699 -8.33301 -25.5 -25l-56 -51c-19 -17.333 -28.5 -26.666 -28.5 -27.999
c0 -0.666992 -10.333 12.666 -31 39.999l-73 97l-64 87l-38 -43c0 -4.66699 -0.5 -27.667 -1.5 -69s-0.833008 -64 0.5 -68h-166l10 336c6.66699 222.667 10 338.667 10 348z" />
    <glyph glyph-name="kgreenlandic" unicode="&#x138;" horiz-adv-x="510" 
d="M45 684l70 7.00098c46.667 4 71 6.33301 73 7v-201c0 -88.667 0.333008 -155.667 1 -201l59.5 81.5l82 111.5c19 25.333 28.5 37.666 28.5 36.999c1.33301 -2 21.5 -17.5 60.5 -46.5s58.833 -43.833 59.5 -44.5l-142 -176l87.5 -103.5c47 -55 74.833 -86.833 83.5 -95.5
c1.33301 0 -7.16699 -8.33301 -25.5 -25l-56 -51c-19 -17.333 -28.5 -26.666 -28.5 -27.999c0 -0.666992 -10.333 12.666 -31 39.999l-73 97l-64 87l-38 -43c0 -4.66699 -0.5 -27.667 -1.5 -69s-0.833008 -64 0.5 -68h-166l10 336c6.66699 222.667 10 338.667 10 348z" />
    <glyph glyph-name="Lacute" unicode="&#x139;" horiz-adv-x="418" 
d="M319 861l-245 -107l-24 55l221 140zM45 684l70 7.00195c46.667 4.66699 70.667 7 72 7l3 -579l203 32c-1.33301 -16.667 -3 -41.834 -5 -75.501s-3.66699 -58.834 -5 -75.501h-358c0 18.667 3.33301 132.667 10 342s10 323.333 10 342z" />
    <glyph glyph-name="lacute" unicode="&#x13a;" horiz-adv-x="289" 
d="M43 342l10 342l9 1c6.66699 0.666992 16 1.5 28 2.5s23.333 2.16699 34 3.5l72 7l3 -698h-166zM309 859l-246 -107l-23 55c8.66699 4.66699 46.667 28.5 114 71.5l107 68.5z" />
    <glyph glyph-name="Lcommaaccent" unicode="&#x13b;" horiz-adv-x="418" 
d="M45 684l70 7.00195c46.667 4.66699 70.667 7 72 7l3 -579l203 32c-1.33301 -16.667 -3 -41.834 -5 -75.501s-3.66699 -58.834 -5 -75.501h-358c0 18.667 3.33301 132.667 10 342s10 323.333 10 342zM209 -36.998c24 0 41.667 -8.16895 53 -24.502s17 -36.833 17 -61.5
c0 -34.667 -11.167 -61.667 -33.5 -81s-49.5 -29 -81.5 -29c-16.667 0 -25 8.33301 -25 25c0 8 5.66699 12.667 17 14c34 2.66699 57.333 20 70 52c-9.33301 -1.33301 -15 -2 -17 -2c-16.667 0 -30 3.83301 -40 11.5s-15.833 14.834 -17.5 21.501s-2.5 13.334 -2.5 20.001v5
c5.33301 32.667 25.333 49 60 49z" />
    <glyph glyph-name="lcommaaccent" unicode="&#x13c;" horiz-adv-x="230" 
d="M57 684l9 1c6.66699 0.666992 16 1.5 28 2.5s23.333 2.16699 34 3.5l72 7l3 -698h-166l10 337c6.66699 225.333 10 341 10 347zM113 -28c24 0 41.4971 -8.16797 52.4971 -24.501s16.5 -36.833 16.5 -61.5c0 -34.667 -11.167 -61.667 -33.5 -81s-49.5 -29 -81.5 -29
c-15.333 0 -23.666 8.33301 -24.999 25c0.666992 8 6.33398 12.667 17.001 14c36 2.66699 59.333 20 70 52c-9.33301 -1.33301 -14.666 -2 -15.999 -2c-16.667 0 -30 3.83301 -40 11.5s-16 15 -18 22s-3 13.5 -3 19.5c0 12.667 4.5 24.834 13.5 36.501
s24.833 17.5 47.5 17.5z" />
    <glyph glyph-name="Lcaron" unicode="&#x13d;" horiz-adv-x="421" 
d="M332 700c24 0 41.4971 -8.16797 52.4971 -24.501s16.5 -36.833 16.5 -61.5c0 -34.667 -11.167 -61.667 -33.5 -81s-49.5 -29 -81.5 -29c-15.333 0 -23.666 8.33301 -24.999 25c0.666992 8 6.33398 12.667 17.001 14c36 2.66699 59.333 20 70 52
c-9.33301 -1.33301 -14.666 -2 -15.999 -2c-16.667 0 -30 3.83301 -40 11.5s-16 15 -18 22s-3 13.5 -3 19.5c0 12.667 4.5 24.834 13.5 36.501s24.833 17.5 47.5 17.5zM44.9971 683.999l70 7.00195c46.667 4.66699 70.667 7 72 7l3 -579l203 32
c-1.33301 -16.667 -3 -41.834 -5 -75.501s-3.66699 -58.834 -5 -75.501h-358c0 18.667 3.33301 132.667 10 342s10 323.333 10 342z" />
    <glyph glyph-name="lcaron" unicode="&#x13e;" horiz-adv-x="359" 
d="M47 684l9 1c6.66699 0.666992 16.167 1.5 28.5 2.5s23.833 2.16699 34.5 3.5l72 7l2 -698h-166l10 337c6.66699 225.333 10 341 10 347zM338 751c51.333 0 76.999 -34.666 76.999 -103.999c0 -42 -12.167 -74.333 -36.5 -97s-54.833 -34.667 -91.5 -36
c-5.33301 0 -10.333 4.16699 -15 12.5s-7 14.5 -7 18.5c0 6.66699 2.33301 11 7 13s12.667 4.33301 24 7s22 7 32 13c10.667 6 20.334 20.667 29.001 44c-4.66699 -0.666992 -11 -1 -19 -1c-14 0 -26 2.66699 -36 8s-17 11.833 -21 19.5s-6.66699 14.5 -8 20.5
s-2 11.333 -2 16c0 15.333 5 30.166 15 44.499s27.333 21.5 52 21.5z" />
    <glyph glyph-name="Ldot" unicode="&#x13f;" horiz-adv-x="418" 
d="M45 684l70 7.00195c46.667 4.66699 70.667 7 72 7l3 -579l203 32c-1.33301 -16.667 -3 -41.834 -5 -75.501s-3.66699 -58.834 -5 -75.501h-358c0 18.667 3.33301 132.667 10 342s10 323.333 10 342zM377 375.002c0 -20 -6.16699 -35.833 -18.5 -47.5
s-27.833 -17.5 -46.5 -17.5c-18 0 -33.333 5.83301 -46 17.5s-19 27.5 -19 47.5c0 19.333 6.33301 34.833 19 46.5s28 17.5 46 17.5c18.667 0 34.167 -5.83301 46.5 -17.5s18.5 -27.167 18.5 -46.5z" />
    <glyph glyph-name="ldot" unicode="&#x140;" horiz-adv-x="376" 
d="M47 684l9 1c6.66699 0.666992 16.167 1.5 28.5 2.5s23.833 2.16699 34.5 3.5l72 7l2 -698h-166l10 337c6.66699 225.333 10 341 10 347zM357 341c0 -20 -6.16699 -35.833 -18.5 -47.5s-27.833 -17.5 -46.5 -17.5c-18 0 -33.333 5.83301 -46 17.5s-19 27.5 -19 47.5
c0 19.333 6.33301 34.833 19 46.5s28 17.5 46 17.5c18.667 0 34.167 -5.83301 46.5 -17.5s18.5 -27.167 18.5 -46.5z" />
    <glyph glyph-name="Lslash" unicode="&#x141;" horiz-adv-x="482" 
d="M109 683c1.33301 0 25.165 2.33496 71.498 7.00195s69.833 7 70.5 7l2 -290l151 52l18 -88c-10 -2.66699 -23.333 -5.83398 -40 -9.50098l-64.5 -14l-63.5 -13.5c-1.33301 -18 -1.66602 -53.833 -0.999023 -107.5s1 -89.5 1 -107.5l203 32l-9 -151h-359l9 287
c-47.333 -19.333 -76.666 -30.333 -87.999 -33c-1.33301 3.33301 -4.33301 17.166 -9 41.499l-8 41.5l107 25c6 178.667 9 285.667 9 321z" />
    <glyph glyph-name="lslash" unicode="&#x142;" horiz-adv-x="447" 
d="M145 587l3 97.001l10 1c6 0.666992 15 1.5 27 2.5s23.333 2.16699 34 3.5l72 7c0.666992 -64 1 -159.667 1 -287l132 49l20 -91l-152 -32l2 -337h-166c0 17.333 0.666992 46.666 2 87.999c1.33301 62.667 3.33301 129.667 6 201c-43.333 -16 -77.333 -29.333 -102 -40
l-22 91l127 28c0.666992 24.667 1.5 62 2.5 112s2.16699 85.667 3.5 107z" />
    <glyph glyph-name="Nacute" unicode="&#x143;" horiz-adv-x="554" 
d="M503 861l-246 -107c-2.66699 6 -6.5 15.167 -11.5 27.5s-8.83301 21.5 -11.5 27.5l221 140zM514 0l-147 0.00195312c-22 34.667 -86.667 159 -194 373l-3 -373h-145l29 684l123 14l199 -443v63c0 43.333 -0.5 113.166 -1.5 209.499s-1.5 148.5 -1.5 156.5l156 14
c0 -15.333 -2.5 -132.833 -7.5 -352.5s-7.5 -334.834 -7.5 -345.501z" />
    <glyph glyph-name="nacute" unicode="&#x144;" horiz-adv-x="503" 
d="M446 668l-246 -107c-2 6 -5.66699 15.167 -11 27.5l-12 27.5l221 140zM44 474l139.002 13.999c0 -10.667 0.166992 -28 0.5 -52s0.5 -41 0.5 -51c6.66699 26 22.167 49.833 46.5 71.5s54.5 32.5 90.5 32.5c104.667 0 157 -85 157 -255
c0 -1.33301 -1.16699 -36.5 -3.5 -105.5s-3.5 -111.833 -3.5 -128.5h-157c0 7.33301 1.33301 42.333 4 105s4 101.334 4 116.001v5c0 14 -0.333008 26 -1 36s-2.33398 23 -5.00098 39s-7.66699 28.333 -15 37s-16.666 13 -27.999 13c-24.667 0 -44.834 -8.33301 -60.501 -25
s-24.834 -41.334 -27.501 -74.001c0.666992 -56 1 -140 1 -252h-161c0 20.667 3.16699 101.334 9.5 242.001s9.5 218 9.5 232z" />
    <glyph glyph-name="Ncommaaccent" unicode="&#x145;" horiz-adv-x="554" 
d="M514 0l-147 0.00195312c-22 34.667 -86.667 159 -194 373l-3 -373h-145l29 684l123 14l199 -443v63c0 43.333 -0.5 113.166 -1.5 209.499s-1.5 148.5 -1.5 156.5l156 14c0 -15.333 -2.5 -132.833 -7.5 -352.5s-7.5 -334.834 -7.5 -345.501zM276 -5.99805
c24 0 41.667 -8.16895 53 -24.502s17 -36.833 17 -61.5c0 -34.667 -11.167 -61.667 -33.5 -81s-49.5 -29 -81.5 -29c-16.667 0 -25 8.33301 -25 25c0 8 5.66699 12.667 17 14c34 2.66699 57.333 20 70 52c-9.33301 -1.33301 -15 -2 -17 -2c-16.667 0 -30 3.83301 -40 11.5
s-15.833 14.834 -17.5 21.501s-2.5 13.334 -2.5 20.001v5c5.33301 32.667 25.333 49 60 49z" />
    <glyph glyph-name="ncommaaccent" unicode="&#x146;" horiz-adv-x="503" 
d="M246 -16c24 0 41.667 -8.16895 53 -24.502s17 -36.833 17 -61.5c0 -34.667 -11.167 -61.667 -33.5 -81s-49.5 -29 -81.5 -29c-16.667 0 -25 8.33301 -25 25c0 8 5.66699 12.667 17 14c34 2.66699 57.333 20 70 52c-9.33301 -1.33301 -15 -2 -17 -2
c-16.667 0 -30 3.83301 -40 11.5s-15.833 14.834 -17.5 21.501s-2.5 13.334 -2.5 20.001v5c5.33301 32.667 25.333 49 60 49zM44 473.998l139.002 13.999c0 -10.667 0.166992 -28 0.5 -52s0.5 -41 0.5 -51c6.66699 26 22.167 49.833 46.5 71.5s54.5 32.5 90.5 32.5
c104.667 0 157 -85 157 -255c0 -1.33301 -1.16699 -36.5 -3.5 -105.5s-3.5 -111.833 -3.5 -128.5h-157c0 7.33301 1.33301 42.333 4 105s4 101.334 4 116.001v5c0 14 -0.333008 26 -1 36s-2.33398 23 -5.00098 39s-7.66699 28.333 -15 37s-16.666 13 -27.999 13
c-24.667 0 -44.834 -8.33301 -60.501 -25s-24.834 -41.334 -27.501 -74.001c0.666992 -56 1 -140 1 -252h-161c0 20.667 3.16699 101.334 9.5 242.001s9.5 218 9.5 232z" />
    <glyph glyph-name="Ncaron" unicode="&#x147;" horiz-adv-x="554" 
d="M289 750l-176.999 125c34 40 52.333 61.667 55 65l122 -99l123 98c7.33301 -8 17.166 -19.833 29.499 -35.5l23.5 -29.5zM514.001 0l-147 0.000976562c-22 34.667 -86.667 159 -194 373l-3 -373h-145l29 684l123 14l199 -443c0 55.333 -0.5 135.833 -1.5 241.5
s-1.5 168.167 -1.5 187.5l156 14c0 -15.333 -2.5 -132.833 -7.5 -352.5s-7.5 -334.834 -7.5 -345.501z" />
    <glyph glyph-name="ncaron" unicode="&#x148;" horiz-adv-x="503" 
d="M428 684l-177 -124l-177 125l51 65l126 -99l119 98zM44 474l139.002 13.999c0 -10.667 0.166992 -28 0.5 -52s0.5 -41 0.5 -51c6.66699 26 22.167 49.833 46.5 71.5s54.5 32.5 90.5 32.5c104.667 0 157 -85 157 -255c0 -1.33301 -1.16699 -36.5 -3.5 -105.5
s-3.5 -111.833 -3.5 -128.5h-157c0 7.33301 1.33301 42.333 4 105s4 101.334 4 116.001v5c0 14 -0.333008 26 -1 36s-2.33398 23 -5.00098 39s-7.66699 28.333 -15 37s-16.666 13 -27.999 13c-24.667 0 -44.834 -8.33301 -60.501 -25s-24.834 -41.334 -27.501 -74.001
c0.666992 -56 1 -140 1 -252h-161c0 20.667 3.16699 101.334 9.5 242.001s9.5 218 9.5 232z" />
    <glyph glyph-name="napostrophe" unicode="&#x149;" horiz-adv-x="555" 
d="M75 690c24 0 41.667 -8.16895 53 -24.502s17 -36.833 17 -61.5c0 -34.667 -11.167 -61.667 -33.5 -81s-49.5 -29 -81.5 -29c-16.667 0 -25 8.33301 -25 25c0 8 5.66699 12.667 17 14c34 2.66699 57.333 20 70 52c-9.33301 -1.33301 -15 -2 -17 -2
c-16.667 0 -30 3.83301 -40 11.5s-15.833 14.834 -17.5 21.501s-2.5 13.334 -2.5 20.001v5c5.33301 32.667 25.333 49 60 49zM84 473.998l139.002 13.999c0 -10.667 0.166992 -28 0.5 -52s0.5 -41 0.5 -51c6.66699 26 22.167 49.833 46.5 71.5s54.5 32.5 90.5 32.5
c104.667 0 157 -85 157 -255c0 -1.33301 -1.16699 -36.5 -3.5 -105.5s-3.5 -111.833 -3.5 -128.5h-157c0 7.33301 1.33301 42.333 4 105s4 101.334 4 116.001v5c0 14 -0.333008 26 -1 36s-2.33398 23 -5.00098 39s-7.66699 28.333 -15 37s-16.666 13 -27.999 13
c-24.667 0 -44.834 -8.33301 -60.501 -25s-24.834 -41.334 -27.501 -74.001c0.666992 -56 1 -140 1 -252h-161c0 20.667 3.16699 101.334 9.5 242.001s9.5 218 9.5 232z" />
    <glyph glyph-name="Omacron" unicode="&#x14c;" 
d="M664 341c-2 -64 -14.168 -122 -36.501 -174s-57.833 -95.167 -106.5 -129.5s-106.667 -51.5 -174 -51.5c-32 0 -62.667 3.83301 -92 11.5s-58 20.667 -86 39s-52.333 41.333 -73 69s-37.5 62.667 -50.5 105s-19.833 89.833 -20.5 142.5
c1.33301 64 11.333 119.833 30 167.5s43.834 84.834 75.501 111.501s66 46.167 103 58.5s77.167 18.5 120.5 18.5c39.333 0 76.333 -6.33301 111 -19s67.5 -32.5 98.5 -59.5s55.5 -65.333 73.5 -115s27 -107.834 27 -174.501zM347.999 135c51.333 0 91 21 119 63
s42 91 42 147c0 76 -15.333 131.167 -46 165.5s-68 51.5 -112 51.5c-47.333 0 -86.833 -16.833 -118.5 -50.5s-48.167 -86.5 -49.5 -158.5c1.33301 -74.667 17.833 -129.667 49.5 -165s70.167 -53 115.5 -53zM93.999 758v86l472 10v-96h-472z" />
    <glyph glyph-name="omacron" unicode="&#x14d;" horiz-adv-x="534" 
d="M25 238c0 70.667 23.667 130.834 71 180.501s104.333 74.5 171 74.5s123.667 -24.833 171 -74.5s71 -109.834 71 -180.501c0 -70 -23.667 -129.833 -71 -179.5s-104.333 -74.5 -171 -74.5s-123.667 24.833 -171 74.5s-71 109.5 -71 179.5zM154 235
c0 -34.667 11.167 -63.834 33.5 -87.501s49.833 -35.5 82.5 -35.5c34 0 62.333 11.833 85 35.5s34 52.834 34 87.501c0 36 -11.333 66.167 -34 90.5s-51 36.5 -85 36.5c-32.667 0 -60.167 -12.333 -82.5 -37s-33.5 -54.667 -33.5 -90zM31 561v86l472 10v-96h-472z" />
    <glyph glyph-name="Obreve" unicode="&#x14e;" 
d="M664 341c-2 -64 -14.168 -122 -36.501 -174s-57.833 -95.167 -106.5 -129.5s-106.667 -51.5 -174 -51.5c-32 0 -62.667 3.83301 -92 11.5s-58 20.667 -86 39s-52.333 41.333 -73 69s-37.5 62.667 -50.5 105s-19.833 89.833 -20.5 142.5
c1.33301 64 11.333 119.833 30 167.5s43.834 84.834 75.501 111.501s66 46.167 103 58.5s77.167 18.5 120.5 18.5c39.333 0 76.333 -6.33301 111 -19s67.5 -32.5 98.5 -59.5s55.5 -65.333 73.5 -115s27 -107.834 27 -174.501zM347.999 135c51.333 0 91 21 119 63
s42 91 42 147c0 76 -15.333 131.167 -46 165.5s-68 51.5 -112 51.5c-47.333 0 -86.833 -16.833 -118.5 -50.5s-48.167 -86.5 -49.5 -158.5c1.33301 -74.667 17.833 -129.667 49.5 -165s70.167 -53 115.5 -53zM458.999 898c26.667 -21.333 44.9951 -36.333 54.9951 -45
c-14 -28.667 -35.167 -52.834 -63.5 -72.501s-63.166 -29.5 -104.499 -29.5s-76.666 10 -105.999 30s-50.666 44.333 -63.999 73l56 44c30.667 -48 69.334 -72 116.001 -72c26 0 47.333 6.33301 64 19s32.334 30.334 47.001 53.001z" />
    <glyph glyph-name="obreve" unicode="&#x14f;" horiz-adv-x="534" 
d="M25 238c0 70.667 23.667 130.834 71 180.501s104.333 74.5 171 74.5s123.667 -24.833 171 -74.5s71 -109.834 71 -180.501c0 -70 -23.667 -129.833 -71 -179.5s-104.333 -74.5 -171 -74.5s-123.667 24.833 -171 74.5s-71 109.5 -71 179.5zM154 235
c0 -34.667 11.167 -63.834 33.5 -87.501s49.833 -35.5 82.5 -35.5c34 0 62.333 11.833 85 35.5s34 52.834 34 87.501c0 36 -11.333 66.167 -34 90.5s-51 36.5 -85 36.5c-32.667 0 -60.167 -12.333 -82.5 -37s-33.5 -54.667 -33.5 -90zM385 708l28.4971 -22.5
c13.667 -11 22.834 -18.833 27.501 -23.5c-14 -28.667 -35.167 -52.667 -63.5 -72s-63.5 -29 -105.5 -29c-41.333 0 -76.666 10 -105.999 30s-50.666 44.333 -63.999 73l28.5 21.5c13.667 10.333 23.167 17.833 28.5 22.5c30.667 -48 69 -72 115 -72s83 24 111 72z" />
    <glyph glyph-name="Ohungarumlaut" unicode="&#x150;" 
d="M664 341c-2 -64 -14.168 -122 -36.501 -174s-57.833 -95.167 -106.5 -129.5s-106.667 -51.5 -174 -51.5c-32 0 -62.667 3.83301 -92 11.5s-58 20.667 -86 39s-52.333 41.333 -73 69s-37.5 62.667 -50.5 105s-19.833 89.833 -20.5 142.5
c1.33301 64 11.333 119.833 30 167.5s43.834 84.834 75.501 111.501s66 46.167 103 58.5s77.167 18.5 120.5 18.5c39.333 0 76.333 -6.33301 111 -19s67.5 -32.5 98.5 -59.5s55.5 -65.333 73.5 -115s27 -107.834 27 -174.501zM347.999 135c51.333 0 91 21 119 63
s42 91 42 147c0 76 -15.333 131.167 -46 165.5s-68 51.5 -112 51.5c-47.333 0 -86.833 -16.833 -118.5 -50.5s-48.167 -86.5 -49.5 -158.5c1.33301 -74.667 17.833 -129.667 49.5 -165s70.167 -53 115.5 -53zM363.999 950l37 -88l-191 -108l-19 56
c16 12 44.167 34.667 84.5 68zM592.999 862l-191 -108l-19 56c16 12 44 34.5 84 67.5l89 72.5c4 -10.667 10.167 -25.5 18.5 -44.5s14.5 -33.5 18.5 -43.5z" />
    <glyph glyph-name="ohungarumlaut" unicode="&#x151;" horiz-adv-x="542" 
d="M25 238c0 70.667 23.667 130.834 71 180.501s104.333 74.5 171 74.5s123.667 -24.833 171 -74.5s71 -109.834 71 -180.501c0 -70 -23.667 -129.833 -71 -179.5s-104.333 -74.5 -171 -74.5s-123.667 24.833 -171 74.5s-71 109.5 -71 179.5zM154 235
c0 -34.667 11.167 -63.834 33.5 -87.501s49.833 -35.5 82.5 -35.5c34 0 62.333 11.833 85 35.5s34 52.834 34 87.501c0 36 -11.333 66.167 -34 90.5s-51 36.5 -85 36.5c-32.667 0 -60.167 -12.333 -82.5 -37s-33.5 -54.667 -33.5 -90zM289 758l36 -88l-190 -108l-19 56
c16 12 44.167 34.667 84.5 68zM480 758l38 -88l-191 -108l-19 56c16 12 43.833 34.5 83.5 67.5z" />
    <glyph glyph-name="OE" unicode="&#x152;" horiz-adv-x="932" 
d="M897 0l-416 0.00195312v3c0 0.666992 0.166992 2.16699 0.5 4.5s0.5 4.16602 0.5 5.49902c-45.333 -18.667 -87.666 -28 -126.999 -28c-41.333 0 -80.5 6.5 -117.5 19.5s-71.667 33 -104 60s-58.333 65.333 -78 115s-29.834 107.5 -30.501 173.5
c1.33301 63.333 11.333 118.666 30 165.999s43.5 84.5 74.5 111.5s64.833 47 101.5 60s76 19.5 118 19.5c63.333 0 118.666 -14.333 165.999 -43c68 8.66699 198.667 19.667 392 33c-2.66699 -26.667 -5.66699 -60.167 -9 -100.5s-5.33301 -64.833 -6 -73.5l-247 8v-49
c12 -38.667 18.333 -81.334 19 -128.001c33.333 4.66699 80 10.334 140 17.001l-2 -127c-16 0 -39.667 0.166992 -71 0.5s-54.666 0.5 -69.999 0.5c-3.33301 -28 -8 -51 -14 -69v-59l258 31zM471 201.002c25.333 34 38 82 38 144c0 76 -15.333 131.167 -46 165.5
s-68 51.5 -112 51.5c-47.333 0 -86.833 -16.833 -118.5 -50.5s-48.167 -86.5 -49.5 -158.5c1.33301 -74.667 17.833 -129.667 49.5 -165s70.167 -53 115.5 -53c50 0 91 22 123 66z" />
    <glyph glyph-name="oe" unicode="&#x153;" horiz-adv-x="907" 
d="M651 -15c-86 0 -150.666 30 -193.999 90c-47.333 -60.667 -109 -91 -185 -91c-66.667 0 -123.667 24.833 -171 74.5s-71 109.5 -71 179.5c0 70.667 23.667 130.834 71 180.501s104.333 74.5 171 74.5c38 0 73.333 -8.5 106 -25.5s60 -40.5 82 -70.5
c22.667 32 51 56.333 85 73s67.667 25 101 25c37.333 0 71.666 -7.83301 102.999 -23.5s56.5 -35.834 75.5 -60.501s33.667 -51.834 44 -81.501s15.5 -59.167 15.5 -88.5c0 -9.33301 -0.666992 -21.333 -2 -36l-127 -8c-21.333 -1.33301 -55.833 -3.66602 -103.5 -6.99902
l-100.5 -7c8.66699 -25.333 20.667 -44 36 -56s36.333 -18 63 -18c53.333 0 103.333 13.333 150 40l42 -123c-57.333 -27.333 -121 -41 -191 -41zM159.001 235c0 -34.667 11.167 -63.834 33.5 -87.501s49.833 -35.5 82.5 -35.5c34 0 62.333 11.833 85 35.5
s34 52.834 34 87.501c0 36 -11.333 66.167 -34 90.5s-51 36.5 -85 36.5c-32.667 0 -60.167 -12.333 -82.5 -37s-33.5 -54.667 -33.5 -90zM654.001 380h-5c-33.333 -1.33301 -58.5 -13 -75.5 -35s-25.5 -47 -25.5 -75c11.333 0.666992 41.333 3 90 7l124 9
c-2 12.667 -6 25.167 -12 37.5s-17.5 24.833 -34.5 37.5s-37.5 19 -61.5 19z" />
    <glyph glyph-name="Racute" unicode="&#x154;" horiz-adv-x="575" 
d="M485 861l-246 -107c-2 6 -5.83301 15.167 -11.5 27.5s-9.5 21.5 -11.5 27.5l221 140zM39 656c1.33301 0.666992 6.99805 3.16602 16.998 7.49902s21.5 9 34.5 14s28.833 10 47.5 15s40.834 9.16699 66.501 12.5s52.167 5 79.5 5c79.333 0 141 -20.833 185 -62.5
s66 -102.167 66 -181.5c0 -53.333 -14.667 -101.666 -44 -144.999s-68.666 -76.333 -117.999 -99l175 -123l-125 -126c-2 0.666992 -12.667 13.5 -32 38.5l-70.5 90c-27.667 35 -50.167 61.5 -67.5 79.5c-24 -7.33301 -49 -9.33301 -75 -6c0 -16 0.166992 -45.833 0.5 -89.5
s0.5 -72.167 0.5 -85.5h-154c0 36.667 2.16699 155.167 6.5 355.5s6.83301 300.5 7.5 300.5zM170.998 544.999v-236.999c54 -2.66699 103 8.66602 147 33.999s66 65.333 66 120c0 36.667 -11 63.167 -33 79.5s-49 24.5 -81 24.5c-36.667 0 -69.667 -7 -99 -21z" />
    <glyph glyph-name="racute" unicode="&#x155;" horiz-adv-x="399" 
d="M45 476l17.001 0.999023l54 5l72 7c0.666992 -28.667 1 -70.667 1 -126c19.333 27.333 43.666 51.333 72.999 72s53.5 34.834 72.5 42.501s31.5 11.5 37.5 11.5c0 -6.66699 1.33301 -38 4 -94s4.66699 -84.667 6 -86c-96.667 -6.66699 -160.667 -25.667 -192 -57
c0 -112 0.333008 -196 1 -252h-166l10 235c6.66699 156 10 236.333 10 241zM394.001 667.999l-246 -107c-2 6 -5.83301 15.167 -11.5 27.5s-9.5 21.5 -11.5 27.5l221 140z" />
    <glyph glyph-name="Rcommaaccent" unicode="&#x156;" horiz-adv-x="575" 
d="M274 -8c24 0 41.667 -8.16895 53 -24.502s17 -36.833 17 -61.5c0 -34.667 -11.167 -61.667 -33.5 -81s-49.5 -29 -81.5 -29c-16.667 0 -25 8.33301 -25 25c0 8 5.66699 12.667 17 14c34 2.66699 57.333 20 70 52c-9.33301 -1.33301 -15 -2 -17 -2
c-16.667 0 -30 3.83301 -40 11.5s-15.833 14.834 -17.5 21.501s-2.5 13.334 -2.5 20.001v5c5.33301 32.667 25.333 49 60 49zM39 655.998c1.33301 0.666992 6.99805 3.16602 16.998 7.49902s21.5 9 34.5 14s28.833 10 47.5 15s40.834 9.16699 66.501 12.5s52.167 5 79.5 5
c79.333 0 141 -20.833 185 -62.5s66 -102.167 66 -181.5c0 -53.333 -14.667 -101.666 -44 -144.999s-68.666 -76.333 -117.999 -99l175 -123l-125 -126c-2 0.666992 -12.667 13.5 -32 38.5l-70.5 90c-27.667 35 -50.167 61.5 -67.5 79.5c-24 -7.33301 -49 -9.33301 -75 -6
c0 -16 0.166992 -45.833 0.5 -89.5s0.5 -72.167 0.5 -85.5h-154c0 36.667 2.16699 155.167 6.5 355.5s6.83301 300.5 7.5 300.5zM170.998 544.997v-236.999c54 -2.66699 103 8.66602 147 33.999s66 65.333 66 120c0 36.667 -11 63.167 -33 79.5s-49 24.5 -81 24.5
c-36.667 0 -69.667 -7 -99 -21z" />
    <glyph glyph-name="rcommaaccent" unicode="&#x157;" horiz-adv-x="399" 
d="M49 476l17.001 0.999023l54 5l72 7c0.666992 -28.667 1 -70.667 1 -126c19.333 27.333 43.666 51.333 72.999 72s53.5 34.834 72.5 42.501s31.5 11.5 37.5 11.5c0 -6.66699 1.33301 -38 4 -94s4.66699 -84.667 6 -86c-96.667 -6.66699 -160.667 -25.667 -192 -57
c0 -112 0.333008 -196 1 -252h-166l10 235c6.66699 156 10 236.333 10 241zM113.001 -28.001c24 0 41.4971 -8.16797 52.4971 -24.501s16.5 -36.833 16.5 -61.5c0 -34.667 -11.167 -61.667 -33.5 -81s-49.5 -29 -81.5 -29c-15.333 0 -23.666 8.33301 -24.999 25
c0.666992 8 6.33398 12.667 17.001 14c36 2.66699 59.333 20 70 52c-9.33301 -1.33301 -14.666 -2 -15.999 -2c-16.667 0 -30 3.83301 -40 11.5s-16 15 -18 22s-3 13.5 -3 19.5c0 12.667 4.5 24.834 13.5 36.501s24.833 17.5 47.5 17.5z" />
    <glyph glyph-name="Rcaron" unicode="&#x158;" horiz-adv-x="575" 
d="M414 881l-176.999 -123.999l-177 124l51 65l126 -98l119 98c17.333 -20.667 36.666 -42.334 57.999 -65.001zM39.001 656.001c1.33301 0.666992 6.99805 3.16602 16.998 7.49902s21.5 9 34.5 14s28.833 10 47.5 15s40.834 9.16699 66.501 12.5s52.167 5 79.5 5
c79.333 0 141 -20.833 185 -62.5s66 -102.167 66 -181.5c0 -53.333 -14.667 -101.666 -44 -144.999s-68.666 -76.333 -117.999 -99l175 -123l-125 -126c-2 0.666992 -12.667 13.5 -32 38.5l-70.5 90c-27.667 35 -50.167 61.5 -67.5 79.5c-24 -7.33301 -49 -9.33301 -75 -6
c0 -16 0.166992 -45.833 0.5 -89.5s0.5 -72.167 0.5 -85.5h-154c0 36.667 2.16699 155.167 6.5 355.5s6.83301 300.5 7.5 300.5zM170.999 545v-236.999c54 -2.66699 103 8.66602 147 33.999s66 65.333 66 120c0 36.667 -11 63.167 -33 79.5s-49 24.5 -81 24.5
c-36.667 0 -69.667 -7 -99 -21z" />
    <glyph glyph-name="rcaron" unicode="&#x159;" horiz-adv-x="411" 
d="M61 477l17.001 0.999023l54 5l72 7c0.666992 -28.667 1 -71 1 -127c19.333 27.333 43.666 51.333 72.999 72s53.5 34.834 72.5 42.501s31.5 11.5 37.5 11.5c0 -6.66699 1.33301 -38 4 -94s4.66699 -84.667 6 -86c-96.667 -6.66699 -160.667 -25.667 -192 -57
c0 -112 0.333008 -196 1 -252h-166l10 236c6.66699 156 10 236.333 10 241zM376.001 683.999l-175.999 -123.999l-177 125l50 65l127 -99l118 98c21.333 -22.667 40.666 -44.334 57.999 -65.001z" />
    <glyph glyph-name="Sacute" unicode="&#x15a;" horiz-adv-x="594" 
d="M454 861l-246 -107l-12 27.5c-5.33301 12.333 -9 21.5 -11 27.5l221 140zM265 709c50.667 0 104.499 -14.166 161.499 -42.499s94.833 -59.833 113.5 -94.5l-96 -96c-16 22 -39.167 43 -69.5 63s-62.5 30 -96.5 30c-59.333 0 -89 -18 -89 -54c0 -19.333 7 -36.333 21 -51
s32.167 -26.667 54.5 -36s47 -18.5 74 -27.5s54 -19 81 -30s51.667 -23.667 74 -38s40.5 -33.5 54.5 -57.5s21 -52 21 -84c0 -48.667 -12.167 -89 -36.5 -121s-53.833 -54 -88.5 -66s-73.334 -18 -116.001 -18c-35.333 0 -68.5 4.33301 -99.5 13s-56.333 18.834 -76 30.501
s-37.667 25.167 -54 40.5s-28 27.666 -35 36.999s-12.833 18.333 -17.5 27c4.66699 2 9.33398 5 14.001 9s15.334 12.667 32.001 26l60 47c14.667 -20 37.5 -40.167 68.5 -60.5s63.167 -30.5 96.5 -30.5c60.667 0 91 18 91 54c0 24.667 -12.667 45.667 -38 63
c-17.333 8 -40.5 17 -69.5 27l-77.5 26.5c-22.667 7.66699 -47 17.834 -73 30.501s-47.5 26.167 -64.5 40.5s-31.333 33.166 -43 56.499s-17.5 49.666 -17.5 78.999c0 48 12.167 88.167 36.5 120.5s53.833 54.833 88.5 67.5s73 19 115 19z" />
    <glyph glyph-name="sacute" unicode="&#x15b;" horiz-adv-x="492" 
d="M430 668l-245 -107l-24 55l221 140zM219 492c45.333 2.66699 90.6689 -6.83203 136.002 -28.499s75.666 -45.834 90.999 -72.501l-87 -75c-9.33301 14 -26.333 28.833 -51 44.5s-50.667 23.5 -78 23.5c-42 0 -63 -11.667 -63 -35c0 -15.333 6.16699 -26.5 18.5 -33.5
s36.833 -15.167 73.5 -24.5c58 -13.333 100.333 -27.666 127 -42.999c52 -29.333 78 -68.333 78 -117c0 -51.333 -19.167 -88.5 -57.5 -111.5s-85.166 -34.5 -140.499 -34.5c-61.333 0 -110 10.833 -146 32.5s-67.333 49.5 -94 83.5l106 50
c38.667 -38.667 82.667 -58 132 -58c37.333 0 58 10.333 62 31c0 20.667 -27 37.667 -81 51c-4 0.666992 -12.833 2.83398 -26.5 6.50098l-34 9c-9 2.33301 -21 6 -36 11s-27.5 10.167 -37.5 15.5s-21 12.166 -33 20.499s-21.667 17.333 -29 27s-13.5 21.167 -18.5 34.5
s-7.5 27.666 -7.5 42.999c0 26.667 5.5 50.167 16.5 70.5s26.167 36 45.5 47s40.166 19.167 62.499 24.5s46.166 8 71.499 8z" />
    <glyph glyph-name="Scircumflex" unicode="&#x15c;" horiz-adv-x="594" 
d="M287 946l177.001 -125l-57 -65l-120 99c-54.667 -44 -96.334 -76.667 -125.001 -98l-51 64zM265.001 709c50.667 0 104.499 -14.166 161.499 -42.499s94.833 -59.833 113.5 -94.5l-96 -96c-16 22 -39.167 43 -69.5 63s-62.5 30 -96.5 30c-59.333 0 -89 -18 -89 -54
c0 -19.333 7 -36.333 21 -51s32.167 -26.667 54.5 -36s47 -18.5 74 -27.5s54 -19 81 -30s51.667 -23.667 74 -38s40.5 -33.5 54.5 -57.5s21 -52 21 -84c0 -48.667 -12.167 -89 -36.5 -121s-53.833 -54 -88.5 -66s-73.334 -18 -116.001 -18c-35.333 0 -68.5 4.33301 -99.5 13
s-56.333 18.834 -76 30.501s-37.667 25.167 -54 40.5s-28 27.666 -35 36.999s-12.833 18.333 -17.5 27c4.66699 2 9.33398 5 14.001 9s15.334 12.667 32.001 26l60 47c14.667 -20 37.5 -40.167 68.5 -60.5s63.167 -30.5 96.5 -30.5c60.667 0 91 18 91 54
c0 24.667 -12.667 45.667 -38 63c-17.333 8 -40.5 17 -69.5 27l-77.5 26.5c-22.667 7.66699 -47 17.834 -73 30.501s-47.5 26.167 -64.5 40.5s-31.333 33.166 -43 56.499s-17.5 49.666 -17.5 78.999c0 48 12.167 88.167 36.5 120.5s53.833 54.833 88.5 67.5s73 19 115 19z
" />
    <glyph glyph-name="scircumflex" unicode="&#x15d;" horiz-adv-x="492" 
d="M236 751l177.001 -125l-57 -65l-120 99c-54.667 -44 -96.334 -76.667 -125.001 -98l-51 64zM219.001 492c45.333 2.66699 90.6689 -6.83203 136.002 -28.499s75.666 -45.834 90.999 -72.501l-87 -75c-9.33301 14 -26.333 28.833 -51 44.5s-50.667 23.5 -78 23.5
c-42 0 -63 -11.667 -63 -35c0 -15.333 6.16699 -26.5 18.5 -33.5s36.833 -15.167 73.5 -24.5c58 -13.333 100.333 -27.666 127 -42.999c52 -29.333 78 -68.333 78 -117c0 -51.333 -19.167 -88.5 -57.5 -111.5s-85.166 -34.5 -140.499 -34.5c-61.333 0 -110 10.833 -146 32.5
s-67.333 49.5 -94 83.5l106 50c38.667 -38.667 82.667 -58 132 -58c37.333 0 58 10.333 62 31c0 20.667 -27 37.667 -81 51c-4 0.666992 -12.833 2.83398 -26.5 6.50098l-34 9c-9 2.33301 -21 6 -36 11s-27.5 10.167 -37.5 15.5s-21 12.166 -33 20.499
s-21.667 17.333 -29 27s-13.5 21.167 -18.5 34.5s-7.5 27.666 -7.5 42.999c0 26.667 5.5 50.167 16.5 70.5s26.167 36 45.5 47s40.166 19.167 62.499 24.5s46.166 8 71.499 8z" />
    <glyph glyph-name="Scedilla" unicode="&#x15e;" horiz-adv-x="594" 
d="M265 709c50.667 0 104.497 -14.168 161.497 -42.501s94.833 -59.833 113.5 -94.5l-96 -96c-16 22 -39.167 43 -69.5 63s-62.5 30 -96.5 30c-59.333 0 -89 -18 -89 -54c0 -19.333 7 -36.333 21 -51s32.167 -26.667 54.5 -36s47 -18.5 74 -27.5s54 -19 81 -30
s51.667 -23.667 74 -38s40.5 -33.5 54.5 -57.5s21 -52 21 -84c0 -68 -21.167 -118.333 -63.5 -151s-95.166 -50.334 -158.499 -53.001l-2 -34c30.667 -2 53.667 -9 69 -21s23 -26.667 23 -44c0 -19.333 -6.33301 -36 -19 -50s-27.167 -24.333 -43.5 -31s-34.5 -12 -54.5 -16
s-34.5 -6.33301 -43.5 -7s-15.5 -1 -19.5 -1c-5.33301 24 -9.33301 45.333 -12 64c24.667 1.33301 42 3 52 5c35.333 6.66699 53 17.667 53 33c0 20.667 -22.333 31 -67 31l-4 73c-35.333 4.66699 -67.833 13.334 -97.5 26.001s-53.5 27.334 -71.5 44.001
s-31.833 30.834 -41.5 42.501s-17.167 22.5 -22.5 32.5c4.66699 2 9.33398 5 14.001 9s15.334 12.667 32.001 26l60 47c14.667 -20 37.5 -40.167 68.5 -60.5s63.167 -30.5 96.5 -30.5c60.667 0 91 18 91 54c0 24.667 -12.667 45.667 -38 63c-17.333 8 -40.5 17 -69.5 27
l-77.5 26.5c-22.667 7.66699 -47 17.834 -73 30.501s-47.5 26.167 -64.5 40.5s-31.333 33.166 -43 56.499s-17.5 49.666 -17.5 78.999c0 48 12.167 88.167 36.5 120.5s53.833 54.833 88.5 67.5s73 19 115 19z" />
    <glyph glyph-name="scedilla" unicode="&#x15f;" horiz-adv-x="492" 
d="M219 492c45.333 2.66699 90.6699 -6.83203 136.003 -28.499s75.666 -45.834 90.999 -72.501l-87 -75c-9.33301 14 -26.333 28.833 -51 44.5s-50.667 23.5 -78 23.5c-42 0 -63 -11.667 -63 -35c0 -15.333 6.16699 -26.5 18.5 -33.5s36.833 -15.167 73.5 -24.5
c58 -13.333 100.333 -27.666 127 -42.999c52 -29.333 78 -68.333 78 -117c0 -51.333 -19 -88.5 -57 -111.5s-84.667 -34.5 -140 -34.5l-2 -32c30.667 -2 53.667 -9 69 -21s23 -26.667 23 -44c0 -19.333 -6.33301 -36 -19 -50s-27.167 -24.333 -43.5 -31s-34.5 -12 -54.5 -16
s-34.5 -6.33301 -43.5 -7s-15.5 -1 -19.5 -1c-5.33301 24 -9.33301 45.333 -12 64c24.667 1.33301 42 3 52 5c35.333 6.66699 53 17.667 53 33c0 20.667 -22.333 31 -67 31l-4 75c-70 12 -127.667 48.667 -173 110l106 50c38.667 -38.667 82.667 -58 132 -58
c37.333 0 58 10.333 62 31c0 20.667 -27 37.667 -81 51c-4 0.666992 -12.833 2.83398 -26.5 6.50098l-34 9c-9 2.33301 -21 6 -36 11s-27.5 10.167 -37.5 15.5s-21 12.166 -33 20.499s-21.667 17.333 -29 27s-13.5 21.167 -18.5 34.5s-7.5 27.666 -7.5 42.999
c0 26.667 5.5 50.167 16.5 70.5s26.167 36 45.5 47s40.166 19.167 62.499 24.5s46.166 8 71.499 8z" />
    <glyph glyph-name="Scaron" unicode="&#x160;" horiz-adv-x="594" 
d="M449 883l-175.999 -123.999l-177 125l50 65l127 -99l118 98c21.333 -22.667 40.666 -44.334 57.999 -65.001zM265.001 709.001c50.667 0 104.499 -14.166 161.499 -42.499s94.833 -59.833 113.5 -94.5l-96 -96c-16 22 -39.167 43 -69.5 63s-62.5 30 -96.5 30
c-59.333 0 -89 -18 -89 -54c0 -19.333 7 -36.333 21 -51s32.167 -26.667 54.5 -36s47 -18.5 74 -27.5s54 -19 81 -30s51.667 -23.667 74 -38s40.5 -33.5 54.5 -57.5s21 -52 21 -84c0 -48.667 -12.167 -89 -36.5 -121s-53.833 -54 -88.5 -66s-73.334 -18 -116.001 -18
c-35.333 0 -68.5 4.33301 -99.5 13s-56.333 18.834 -76 30.501s-37.667 25.167 -54 40.5s-28 27.666 -35 36.999s-12.833 18.333 -17.5 27c4.66699 2 9.33398 5 14.001 9s15.334 12.667 32.001 26l60 47c14.667 -20 37.5 -40.167 68.5 -60.5s63.167 -30.5 96.5 -30.5
c60.667 0 91 18 91 54c0 24.667 -12.667 45.667 -38 63c-17.333 8 -40.5 17 -69.5 27l-77.5 26.5c-22.667 7.66699 -47 17.834 -73 30.501s-47.5 26.167 -64.5 40.5s-31.333 33.166 -43 56.499s-17.5 49.666 -17.5 78.999c0 48 12.167 88.167 36.5 120.5
s53.833 54.833 88.5 67.5s73 19 115 19z" />
    <glyph glyph-name="scaron" unicode="&#x161;" horiz-adv-x="492" 
d="M417 684l-175.999 -123.999l-177 125l50 65l127 -99l118 98c21.333 -22.667 40.666 -44.334 57.999 -65.001zM219.001 492.001c45.333 2.66699 90.6689 -6.83203 136.002 -28.499s75.666 -45.834 90.999 -72.501l-87 -75c-9.33301 14 -26.333 28.833 -51 44.5
s-50.667 23.5 -78 23.5c-42 0 -63 -11.667 -63 -35c0 -15.333 6.16699 -26.5 18.5 -33.5s36.833 -15.167 73.5 -24.5c58 -13.333 100.333 -27.666 127 -42.999c52 -29.333 78 -68.333 78 -117c0 -51.333 -19.167 -88.5 -57.5 -111.5s-85.166 -34.5 -140.499 -34.5
c-61.333 0 -110 10.833 -146 32.5s-67.333 49.5 -94 83.5l106 50c38.667 -38.667 82.667 -58 132 -58c37.333 0 58 10.333 62 31c0 20.667 -27 37.667 -81 51c-4 0.666992 -12.833 2.83398 -26.5 6.50098l-34 9c-9 2.33301 -21 6 -36 11s-27.5 10.167 -37.5 15.5
s-21 12.166 -33 20.499s-21.667 17.333 -29 27s-13.5 21.167 -18.5 34.5s-7.5 27.666 -7.5 42.999c0 26.667 5.5 50.167 16.5 70.5s26.167 36 45.5 47s40.166 19.167 62.499 24.5s46.166 8 71.499 8z" />
    <glyph glyph-name="Tcommaaccent" unicode="&#x162;" horiz-adv-x="553" 
d="M254 -23c24 0 41.667 -8.16895 53 -24.502s17 -36.833 17 -61.5c0 -34.667 -11.167 -61.667 -33.5 -81s-49.5 -29 -81.5 -29c-16.667 0 -25 8.33301 -25 25c0 8 5.66699 12.667 17 14c34 2.66699 57.333 20 70 52c-9.33301 -1.33301 -15 -2 -17 -2
c-16.667 0 -30 3.83301 -40 11.5s-15.833 14.834 -17.5 21.501s-2.5 13.334 -2.5 20.001v5c5.33301 32.667 25.333 49 60 49zM31 691.998c4.66699 0 48.1689 0.666016 130.502 1.99902s163.666 2.83301 243.999 4.5s120.833 2.5 121.5 2.5c0 -1.33301 0.166992 -28 0.5 -80
s0.5 -78.333 0.5 -79c-4 0 -65.333 -3 -184 -9l3 -533h-168c1.33301 86 3 150.333 5 193l10 332c-26 0 -52.333 -0.666992 -79 -2s-48.334 -2.66602 -65.001 -3.99902l-25 -2c0 2 1 31.333 3 88s3 85.667 3 87z" />
    <glyph glyph-name="tcommaaccent" unicode="&#x163;" horiz-adv-x="524" 
d="M28 322c0 0.666992 -0.5 23.665 -1.5 68.998s-1.5 69 -1.5 71l107 -8v121l153 16c-1.33301 -37.333 -2 -82.333 -2 -135c17.333 0.666992 39.833 1.66699 67.5 3s50.5 2.33301 68.5 3l27 2v-22c0 -4 0.166992 -11.5 0.5 -22.5s0.5 -19.5 0.5 -25.5v-69h-98h-68
c0 -3.33301 -0.333008 -13.166 -1 -29.499s-1 -29.666 -1 -39.999s1.16699 -23.5 3.5 -39.5s5.66602 -28.833 9.99902 -38.5s11 -18.167 20 -25.5s20.167 -11 33.5 -11c10.667 0 21.167 2 31.5 6s19.333 8.83301 27 14.5s15 12 22 19s12.5 13.333 16.5 19l11 15.5l4 7
c2.66699 -7.33301 11.334 -28.666 26.001 -63.999l34 -81l-18 -18c-3.33301 -3.33301 -12.833 -11 -28.5 -23s-30.167 -20.833 -43.5 -26.5s-31.333 -11.334 -54 -17.001s-46 -8.5 -70 -8.5c-114.667 0 -172 92.333 -172 277v64c-11.333 0 -46 -1 -104 -3zM315 -46.002
c24 0 41.668 -8.33301 53.001 -25s17 -37.334 17 -62.001c0 -33.333 -11.333 -60 -34 -80s-49.667 -30 -81 -30c-16.667 0 -25 8.33301 -25 25c0 8.66699 5.66699 13.667 17 15c36 2.66699 59.333 19.667 70 51c-9.33301 -1.33301 -15 -2 -17 -2c-13.333 0 -24.333 2 -33 6
s-14.834 9.5 -18.501 16.5s-6 12.833 -7 17.5s-1.5 9.33398 -1.5 14.001v5c6 32.667 26 49 60 49z" />
    <glyph glyph-name="Tcaron" unicode="&#x164;" horiz-adv-x="553" 
d="M31 692c4.66699 0 48.1689 0.666016 130.502 1.99902s163.666 2.83301 243.999 4.5s120.833 2.5 121.5 2.5c0 -1.33301 0.166992 -28 0.5 -80s0.5 -78.333 0.5 -79c-4 0 -65.333 -3 -184 -9l3 -533h-168c1.33301 86 3 150.333 5 193l10 332
c-26 0 -52.333 -0.666992 -79 -2s-48.334 -2.66602 -65.001 -3.99902l-25 -2c0 2 1 31.333 3 88s3 85.667 3 87zM452.002 883.999l-176.999 -123.999l-177 124l51 65l126 -98l119 98c17.333 -20.667 36.666 -42.334 57.999 -65.001z" />
    <glyph glyph-name="tcaron" unicode="&#x165;" horiz-adv-x="619" 
d="M23 322c0 0.666992 -0.499023 23.6641 -1.49902 68.9971s-1.5 69 -1.5 71l107 -8v121l153 16c-1.33301 -37.333 -2 -82.333 -2 -135c17.333 0.666992 39.833 1.66699 67.5 3s50.5 2.33301 68.5 3l27 2v-22c0 -4 0.166992 -11.5 0.5 -22.5s0.5 -19.5 0.5 -25.5v-69h-98
h-68c0 -3.33301 -0.333008 -13.166 -1 -29.499s-1 -29.666 -1 -39.999s1.16699 -23.5 3.5 -39.5s5.66602 -28.833 9.99902 -38.5s11 -18.167 20 -25.5s20.167 -11 33.5 -11c10.667 0 21.167 2 31.5 6s19.333 8.83301 27 14.5s15 12 22 19s12.5 13.333 16.5 19
s7.33301 10.834 10 15.501l5 7c2.66699 -7.33301 11.334 -28.666 26.001 -63.999l34 -81l-19 -18c-2.66699 -3.33301 -11.834 -11 -27.501 -23s-30.167 -20.833 -43.5 -26.5s-31.333 -11.334 -54 -17.001s-46 -8.5 -70 -8.5c-114.667 0 -172 92.333 -172 277v64
c-11.333 0 -46 -1 -104 -3zM534.001 612.997c26 0 44.832 -10.0029 56.499 -30.0029s17.5 -44.667 17.5 -74c0 -40.667 -11.833 -73 -35.5 -97s-52.167 -36 -85.5 -36c-17.333 0 -26 10 -26 30c0 7.33301 3 12.333 9 15s14.833 5.33398 26.5 8.00098
s21.167 6.33398 28.5 11.001c12 8 21 22.667 27 44c-4.66699 -0.666992 -10.667 -1 -18 -1c-12.667 0 -23.667 2.66699 -33 8s-16 11.833 -20 19.5s-6.66699 14.5 -8 20.5s-2 11.333 -2 16c0 14.667 4.83301 29.334 14.5 44.001s25.834 22 48.501 22z" />
    <glyph glyph-name="Tbar" unicode="&#x166;" horiz-adv-x="553" 
d="M31 692c4.66699 0 48.1689 0.665039 130.502 1.99805s163.666 2.83301 243.999 4.5s120.833 2.5 121.5 2.5c0 -1.33301 0.166992 -28 0.5 -80s0.5 -78.333 0.5 -79c-4 0 -65.333 -3 -184 -9v-120l168 3v-96c-14 0 -39.667 0.166992 -77 0.5s-67.333 0.5 -90 0.5l2 -321
h-168l3 100c1.33301 21.333 2.5 57.333 3.5 108s1.83301 88.334 2.5 113.001h-148v85l151 4c0 12.667 1 51 3 115c-26 0 -52.333 -0.666992 -79 -2s-48.334 -2.66602 -65.001 -3.99902l-25 -2c0 2 1 31.333 3 88s3 85.667 3 87z" />
    <glyph glyph-name="tbar" unicode="&#x167;" horiz-adv-x="525" 
d="M24 447l-0.000976562 94.0039h108v34l153 16c-0.666992 -7.33301 -1 -23 -1 -47c21.333 0 52.166 0.5 92.499 1.5s63.166 1.5 68.499 1.5v-31v-70c-37.333 0.666992 -91 1 -161 1v-41c50.667 1.33301 85.334 3 104.001 5l58 3v-17c0 -3.33301 0.166992 -9.33301 0.5 -18
s0.5 -15.334 0.5 -20.001c0 -22.667 0.333008 -40.667 1 -54h-99h-68v-61c0 -68.667 21.667 -103 65 -103c20 0 39.333 6.66699 58 20s32.334 26.166 41.001 38.499s13 19.833 13 22.5l34 -81c14.667 -35.333 23.334 -56.666 26.001 -63.999l-19 -18
c-2.66699 -3.33301 -11.834 -11 -27.501 -23s-30.167 -20.833 -43.5 -26.5s-31.166 -11.334 -53.499 -17.001s-45.5 -8.5 -69.5 -8.5c-30 0 -56 6.66699 -78 20s-39 29.5 -51 48.5s-21.5 41.5 -28.5 67.5s-11.333 48.5 -13 67.5s-2.5 38.833 -2.5 59.5
c0 7.33301 0.166992 17 0.5 29s0.5 21.667 0.5 29c-8 0 -43 -1 -105 -3c0 1.33301 -0.5 19.666 -1.5 54.999s-1.5 53.666 -1.5 54.999l108 -8v43h-109z" />
    <glyph glyph-name="Utilde" unicode="&#x168;" horiz-adv-x="600" 
d="M294 -15c-50.667 0.666992 -94.168 11.168 -130.501 31.501s-64.166 47.833 -83.499 82.5s-33.333 71.834 -42 111.501s-13 83.167 -13 130.5c0 37.333 2.33301 77.666 7 120.999s9.5 78.666 14.5 105.999s10.5 55.333 16.5 84s9 43.334 9 44.001l166 2
c-29.333 -150.667 -44 -267.667 -44 -351c0 -138.667 35.667 -208 107 -208s107 74.333 107 223c0 31.333 -1.66699 66.333 -5 105s-6.83301 71 -10.5 97l-12 83c-4.33301 29.333 -6.83301 45.333 -7.5 48c88 1.33301 142.333 2.66602 163 3.99902
c25.333 -101.333 38 -207 38 -317c0 -262 -93.333 -394.333 -280 -397zM386.999 752.001c-18 0 -41.835 8.00098 -71.502 24.001s-52.167 24 -67.5 24c-11.333 0 -19.5 -3.33301 -24.5 -10s-7.5 -17.667 -7.5 -33l-10 -6c-29.333 -1.33301 -50.666 -3 -63.999 -5
c-4.66699 15.333 -7 32.333 -7 51c0 26.667 6.66699 47.834 20 63.501s33 23.5 59 23.5c18.667 0 44.834 -8.66699 78.501 -26s55.167 -26 64.5 -26c16 0 24 11 24 33c0 2.66699 -0.166992 5.66699 -0.5 9s-0.5 5.66602 -0.5 6.99902l38 3
c16.667 1.33301 29 2.66602 37 3.99902c5.33301 -16 8 -35 8 -57c0 -24.667 -6.33301 -44 -19 -58s-31.667 -21 -57 -21z" />
    </font>
</defs>
</svg>
