<?xml version="1.0" standalone="no"?>
<!DOCTYPE svg PUBLIC "-//W3C//DTD SVG 1.1//EN" "http://www.w3.org/Graphics/SVG/1.1/DTD/svg11.dtd" >
<svg>
<metadata>
Created by FontForge 20090914 at Wed Nov 25 14:52:23 2020
 By www-data
Rodrigo Araya Salas www.rodrigotypo.com
</metadata>
<defs>
<font id="Tobi-Black" horiz-adv-x="535" >
  <font-face 
    font-family="Tobi-Black"
    font-weight="400"
    font-stretch="normal"
    units-per-em="1000"
    panose-1="0 0 0 0 0 0 0 0 0 0"
    ascent="766"
    descent="-234"
    x-height="500"
    cap-height="699.998"
    bbox="-77.0029 -294 1165.33 970"
    underline-thickness="50"
    underline-position="-100"
    unicode-range="U+000D-U+FB02"
  />
<missing-glyph horiz-adv-x="250" 
 />
    <glyph glyph-name="ff" unicode="ff" horiz-adv-x="774" 
d="M651 277l4.00293 -276.998h-207c0 6 0.166992 19.333 0.5 40s1 56.5 2 107.5s1.83301 100.833 2.5 149.5h-175v-20l4 -277h-207c0 6 0.166992 19.333 0.5 40s1 56.5 2 107.5s1.83301 100.833 2.5 149.5h-55l3 144h49c-4 179.333 57.333 269 184 269
c27.333 0 73 -7.33301 137 -22c2.66699 -0.666992 5 -1.33398 7 -2.00098l-22 -178c-22 10.667 -40.167 16.667 -54.5 18s-24.833 -2 -31.5 -10s-11.334 -16.5 -14.001 -25.5s-4.33398 -21.167 -5.00098 -36.5v-13h172c-0.666992 44.667 2.83301 83.667 10.5 117
s17.334 59.666 29.001 78.999s26.667 34.833 45 46.5s36 19.167 53 22.5s36.5 4.5 58.5 3.5s40.667 -3 56 -6s32.333 -6.83301 51 -11.5l25 -6l-22 -178c-22 10.667 -40.167 16.667 -54.5 18s-24.833 -2 -31.5 -10s-11.334 -16.5 -14.001 -25.5
s-4.33398 -21.167 -5.00098 -36.5v-13h91l-4 -144h-87v-20z" />
    <glyph glyph-name="l_l" unicode="ll" horiz-adv-x="522" 
d="M30 341l-13.998 342l8 1c5.33301 0 14.166 0.5 26.499 1.5s23.166 1.83301 32.499 2.5l42 3l110 9l4 -700h-196zM292.002 576v106.997l14 1c8.66699 0.666992 22.667 1.83398 42 3.50098s35.333 2.83398 48 3.50098l105 9l-14 -700h-197
c0 160.667 0.333008 274.334 1 341.001c0 30 0.166992 71.833 0.5 125.5s0.5 90.167 0.5 109.5z" />
    <glyph glyph-name="tt" unicode="tt" horiz-adv-x="934" 
d="M522 309l-232.998 0.000976562v-38c0 -60.667 18 -91 54 -91c14.667 0 29.834 5.66699 45.501 17s27.167 21.666 34.5 30.999s12 16 14 20l74 -175c-59.333 -59.333 -135 -89 -227 -89c-72.667 0 -124.334 35 -155.001 105c-3.33301 7.33301 -6.33301 15 -9 23
s-4.83398 16.5 -6.50098 25.5l-4.5 24.5c-1.33301 7.33301 -2.5 16.333 -3.5 27s-1.66699 18.834 -2 24.501s-0.666016 14.5 -0.999023 26.5s-0.5 20 -0.5 24v24v21l-86 -4v11c-0.666992 7.33301 -1.16699 19 -1.5 35s-0.5 29.333 -0.5 40l-2 86l31 -2l59 -3v102l192 19
c-1.33301 -22.667 -2 -62.334 -2 -119.001c1.33301 0 29.666 -0.666992 84.999 -2s103.666 -1.33301 144.999 0v102l192 19c-1.33301 -22.667 -2 -62.334 -2 -119.001c73.333 3.33301 120.333 5 141 5l1 -45c0.666992 -29.333 1 -56.666 1 -81.999v-46
c-20 0 -35.333 0.333008 -46 1c-36 1.33301 -69.333 2 -100 2v-38c0 -60.667 18 -91 54 -91c14.667 0 29.834 5.66699 45.501 17s27.167 21.666 34.5 30.999s12 16 14 20l74 -175c-59.333 -59.333 -135 -89 -227 -89c-72.667 0 -124.334 35 -155.001 105
c-3.33301 7.33301 -6.33301 15 -9 23s-4.83398 16.5 -6.50098 25.5l-4.5 24.5c-1.33301 7.33301 -2.5 16.333 -3.5 27s-1.66699 18.834 -2 24.501s-0.666016 14.5 -0.999023 26.5s-0.5 20 -0.5 24v24v21z" />
    <glyph glyph-name=".notdef" horiz-adv-x="250" 
 />
    <glyph glyph-name="NULL" horiz-adv-x="0" 
 />
    <glyph glyph-name="NULL" horiz-adv-x="0" 
 />
    <glyph glyph-name="CR" unicode="&#xd;" horiz-adv-x="250" 
 />
    <glyph glyph-name="space" unicode=" " horiz-adv-x="250" 
 />
    <glyph glyph-name="exclam" unicode="!" horiz-adv-x="296" 
d="M225 226l-25.998 -1.99902c-4 0 -12.833 -0.666992 -26.5 -2s-24.5 -2.33301 -32.5 -3l-85 -6l-5 517h196c-2.66699 -55.333 -6.33398 -139.333 -11.001 -252c-2 -40.667 -3.83301 -80.834 -5.5 -120.501s-2.83398 -71.5 -3.50098 -95.5zM227.002 87.001
c0 -27.333 -8.33105 -49.166 -24.998 -65.499s-37.334 -24.5 -62.001 -24.5s-45.334 8.16699 -62.001 24.5s-25 38.166 -25 65.499c0 28.667 8.33301 51 25 67s37.334 24 62.001 24c25.333 0 46.166 -8 62.499 -24s24.5 -38.333 24.5 -67z" />
    <glyph glyph-name="quotedbl" unicode="&#x22;" horiz-adv-x="398" 
d="M50 539v220l117 4v-224h-117zM231 539v220l117 4v-224h-117z" />
    <glyph glyph-name="numbersign" unicode="#" horiz-adv-x="675" 
d="M141 139l-91.0029 -0.996094l12 126c5.33301 0 12.5 0.166992 21.5 0.5s20.5 0.666016 34.5 0.999023s26.667 0.5 38 0.5c4 26 8.33301 60.667 13 104l-97 -2l12 125c45.333 0 79.333 0.666992 102 2l12 90.5l9 70.5c2 15.333 3 23.333 3 24
c0.666992 1.33301 23.667 0 69 -4l67 -7l-24 -169l84 2l17 126l7 52c0.666992 1.33301 25.334 0 74.001 -4l72 -7l-26 -163l75 3l-15 -132l-80 -2v1l-1 -1h1l-16 -99c34.667 0 62.667 0.666992 84 2l-15 -131l-89 -2l-23 -145l-31 3
c-14 1.33301 -24.333 2.66602 -31 3.99902l-63 6l2 13c0.666992 9.33301 2.5 26.666 5.5 51.999l7.5 65l-90 -2l-20 -141l-31 3c-14 1.33301 -24.333 2.66602 -31 3.99902l-63 6l2 13c0.666992 9.33301 2.33398 25.5 5.00098 48.5s5.33398 44.5 8.00098 64.5z
M288.997 270.004l88.001 2c3.33301 30 7.66602 63.333 12.999 100l-1 1l-85 -1v1l-1 -1h1zM319.998 500.004h2v-1z" />
    <glyph glyph-name="dollar" unicode="$" horiz-adv-x="517" 
d="M370 568c31.333 -15.333 57.668 -37.335 79.001 -66.002l-94 -85c-4.66699 6 -10.834 12.833 -18.501 20.5s-20 15.834 -37 24.501s-34.5 13 -52.5 13c-24 0 -36.667 -5.66699 -38 -17c-3.33301 -10.667 1.66699 -18.667 15 -24c2.66699 -2 16 -5.66699 40 -11
c52 -15.333 81 -24.333 87 -27c17.333 -6 33.666 -13.167 48.999 -21.5s30.333 -22.666 45 -42.999s22 -43.5 22 -69.5c0 -41.333 -13 -73.5 -39 -96.5s-59.333 -37.5 -100 -43.5l7 -97l-135 -1l5 102c-20 4.66699 -38.333 11 -55 19c-32.667 17.333 -62.667 44.333 -90 81
l-10 14l117 53c36 -36 71.667 -54 107 -54c26 0 39.667 5.33301 41 16c1.33301 10 -4.66699 18.333 -18 25c-8.66699 3.33301 -22 7 -40 11c-45.333 12 -74 20.333 -86 25c-79.333 26 -119 71 -119 135c0 42.667 13.333 75.667 40 99s61 38 103 44l-10 80l141 21l3 -111
c16.667 -4.66699 30.334 -10 41.001 -16z" />
    <glyph glyph-name="percent" unicode="%" horiz-adv-x="705" 
d="M400 700h144l-248 -700h-137zM17 526c0 37.333 12.333 69.166 37 95.499s54 39.5 88 39.5s63.167 -13.167 87.5 -39.5s36.5 -58.166 36.5 -95.499s-12.167 -69.166 -36.5 -95.499s-53.5 -39.5 -87.5 -39.5s-63.333 13.167 -88 39.5s-37 58.166 -37 95.499zM99 523
c0 -14 4.16699 -25.667 12.5 -35s19.166 -14 32.499 -14s24.333 4.66699 33 14s13 21 13 35c0 14.667 -4.33301 27 -13 37s-19.667 15 -33 15s-24.166 -5 -32.499 -15s-12.5 -22.333 -12.5 -37zM430 186c0 37.333 12.333 69.166 37 95.499s54 39.5 88 39.5
s63.167 -13.167 87.5 -39.5s36.5 -58.166 36.5 -95.499s-12.167 -69.166 -36.5 -95.499s-53.5 -39.5 -87.5 -39.5s-63.333 13.167 -88 39.5s-37 58.166 -37 95.499zM512 183c0 -14 4.16699 -25.667 12.5 -35s19.166 -14 32.499 -14s24.333 4.66699 33 14s13 21 13 35
c0 14.667 -4.33301 27 -13 37s-19.667 15 -33 15s-24.166 -5 -32.499 -15s-12.5 -22.333 -12.5 -37z" />
    <glyph glyph-name="ampersand" unicode="&#x26;" horiz-adv-x="646" 
d="M90 528c0 49.333 19.333 91.335 58 126.002s85.667 52 141 52s102.666 -17.333 141.999 -52s59 -76.667 59 -126c0 -33.333 -11.833 -66.833 -35.5 -100.5s-55.167 -62.5 -94.5 -86.5c21.333 -26 51.666 -56.333 90.999 -91l4 1c40.667 79.333 61.334 119 62.001 119
s5.83398 -4.16699 15.501 -12.5l34.5 -30l39.5 -34.5l33 -29.5c9 -8.33301 13.167 -12.5 12.5 -12.5l-81 -99c7.33301 -6 21.333 -15 42 -27s33 -19.333 37 -22l-122 -123c-4.66699 2.66699 -14 13.167 -28 31.5s-23.333 29.5 -28 33.5c-78.667 -44 -156.667 -66 -234 -66
c-62.667 0 -117.167 18.5 -163.5 55.5s-69.5 86.5 -69.5 148.5c0 45.333 14.667 83.666 44 114.999s60.333 54.666 93 69.999c-34.667 52.667 -52 106 -52 160zM229 264.002c-22 -17.333 -37 -31.832 -45 -43.499s-12 -24.834 -12 -39.501c0 -22 8.83301 -41.167 26.5 -57.5
s39.5 -24.5 65.5 -24.5c29.333 0 62.333 12.333 99 37c-35.333 29.333 -80 72 -134 128zM281 437.003c45.333 49.333 68 82.001 68 98.001c0 16.667 -4.83301 30.5 -14.5 41.5s-23.167 16.5 -40.5 16.5c-16 0 -29.333 -6.33301 -40 -19s-16 -27.334 -16 -44.001
c0 -23.333 14.333 -54.333 43 -93z" />
    <glyph glyph-name="quotesingle" unicode="'" horiz-adv-x="217" 
d="M50 539v220l117 4v-224h-117z" />
    <glyph glyph-name="parenleft" unicode="(" horiz-adv-x="284" 
d="M50 259c0 150 35.667 297 107 441h135c-66 -125.333 -99 -272.333 -99 -441c0 -156 27.333 -293 82 -411h-134c-60.667 126 -91 263 -91 411z" />
    <glyph glyph-name="parenright" unicode=")" horiz-adv-x="284" 
d="M292 259c0 -148 -30.333 -285 -91 -411h-134c54.667 118 82 255 82 411c0 168.667 -33 315.667 -99 441h135c71.333 -144 107 -291 107 -441z" />
    <glyph glyph-name="asterisk" unicode="*" horiz-adv-x="400" 
d="M139 617l40.999 -34.001l-2 6l-2 15l-4.5 20.5l-5 22.5c-1.66699 7.33301 -3 14 -4 20s-1.83301 10.833 -2.5 14.5s-0.666992 5.5 0 5.5l28 1c18.667 0 37.334 0.166992 56.001 0.5s27.334 0.5 26.001 0.5c-0.666992 0 -1.83398 -4 -3.50098 -12
s-3.83398 -17.833 -6.50098 -29.5s-5.16699 -23.334 -7.5 -35.001l-6 -29c-1.66699 -7.66699 -2.5 -11.167 -2.5 -10.5l3 3c2 2.66699 5.66699 6.5 11 11.5l13.5 12.5l17.5 16l45 41l47 -92l-44 -15l-13.5 -4c-4.33301 -1.33301 -8.33301 -2.66602 -12 -3.99902l-10 -3.5
c-3 -1 -5.16699 -1.83301 -6.5 -2.5l-2 -1l5 -3c3.33301 -1.33301 7.5 -3.16602 12.5 -5.49902l17 -8l18.5 -9l16.5 -8l11.5 -5.5l5 -2l-26 -32l-31 -39c0 0.666992 -6.66699 6.83398 -20 18.501l-39.5 33c-13 10.333 -19.5 15.166 -19.5 14.499l32 -112
c0 0.666992 -9.16699 0.333984 -27.5 -0.999023s-36.666 -2.5 -54.999 -3.5s-27.5 -1.16699 -27.5 -0.5c0.666992 2 5 21.5 13 58.5s11.667 55.5 11 55.5c-4.66699 -4.66699 -19.667 -16.334 -45 -35.001l-45 -35l-23 39c-14.667 26 -21.334 39.667 -20.001 41
c0.666992 0 2.83398 1 6.50098 3l14.5 8c6 3.33301 11.667 6.33301 17 9l36 17l-80 40l23 38c14 24 22 37 24 39c0.666992 0 14.667 -11 42 -33z" />
    <glyph glyph-name="plus" unicode="+" horiz-adv-x="427" 
d="M25 345v102l135 4l-4 130h113v-127l133 4v-113h-133v-131h-102l-4 131h-138z" />
    <glyph glyph-name="comma" unicode="," horiz-adv-x="225" 
d="M110 178c50.667 0 79.999 -30 87.999 -90c1.33301 -14.667 2 -25.667 2 -33c0 -12.667 -1 -25.334 -3 -38.001c-6.66699 -35.333 -23.334 -63.833 -50.001 -85.5s-56.667 -32.5 -90 -32.5c-21.333 0 -32 12.333 -32 37c0 8 2.33301 14.333 7 19
c2.66699 2.66699 5 4.33398 7 5.00098c16.667 0 33.667 4.5 51 13.5s30.333 21.833 39 38.5c-2.66699 0 -6 -0.166992 -10 -0.5s-7 -0.5 -9 -0.5c-18 0 -32.833 3.5 -44.5 10.5s-19.667 16 -24 27s-7.16602 19.833 -8.49902 26.5s-2 13 -2 19s0.666992 12.5 2 19.5
s4.33301 16 9 27s12.834 20 24.501 27s26.167 10.5 43.5 10.5z" />
    <glyph glyph-name="hyphen" unicode="-" horiz-adv-x="427" 
d="M25 235v102l377 11v-113h-377z" />
    <glyph glyph-name="period" unicode="." horiz-adv-x="224" 
d="M199 87c0 -27.333 -8.33105 -49.166 -24.998 -65.499s-37.334 -24.5 -62.001 -24.5s-45.334 8.16699 -62.001 24.5s-25 38.166 -25 65.499c0 28.667 8.33301 51 25 67s37.334 24 62.001 24c25.333 0 46.166 -8 62.499 -24s24.5 -38.333 24.5 -67z" />
    <glyph glyph-name="slash" unicode="/" horiz-adv-x="445" 
d="M291 700h144l-248 -700h-137z" />
    <glyph glyph-name="zero" unicode="0" horiz-adv-x="671" 
d="M619 298c-2 -25.333 -5.49805 -50.001 -10.498 -74.001s-14.167 -51.167 -27.5 -81.5s-30 -56.666 -50 -78.999s-47.333 -41.166 -82 -56.499s-74.334 -23 -119.001 -23c-46 0 -86.5 9 -121.5 27s-61.833 39.5 -80.5 64.5s-34.167 55 -46.5 90s-20.333 65.5 -24 91.5
s-5.83398 53 -6.50098 81c-2 47.333 2.33301 92.833 13 136.5s27.5 83.167 50.5 118.5s54 63.666 93 84.999s83.5 32 133.5 32c44 0 83.167 -9 117.5 -27s62 -41.167 83 -69.5s37.833 -61 50.5 -98s21 -73.5 25 -109.5s4.66699 -72 2 -108zM440.002 322.999
c0.666992 22.667 -0.333008 45.498 -3 68.498s-7.5 45.333 -14.5 67s-17.5 39.334 -31.5 53.001s-30.667 20.5 -50 20.5c-35.333 0 -62 -18.667 -80 -56s-26.333 -81.666 -25 -132.999c0 -16.667 1.33301 -34.167 4 -52.5s7.33398 -37.833 14.001 -58.5
s17.167 -37.5 31.5 -50.5s31.166 -19.5 50.499 -19.5c26 0 47.167 10.333 63.5 31s26.833 41.5 31.5 62.5s7.66699 43.5 9 67.5z" />
    <glyph glyph-name="one" unicode="1" horiz-adv-x="488" 
d="M43 665c0 0.666992 61 7.00195 183 19.002l184 17l-2 -701h-211c0 32 2.5 119 7.5 261s8.5 217.667 10.5 227c-4.66699 -2.66699 -34.667 -10 -90 -22s-83.333 -18.333 -84 -19c-0.666992 0 -1 7.16699 -1 21.5s0.333008 32.166 1 53.499l1 64
c0 21.333 0.166992 39.666 0.5 54.999s0.5 23.333 0.5 24z" />
    <glyph glyph-name="two" unicode="2" horiz-adv-x="604" 
d="M50 578c18 32 42.833 58.835 74.5 80.502s65.334 36.5 101.001 44.5s71.834 8.16699 108.501 0.5s69.334 -22.334 98.001 -44.001s51 -54.167 67 -97.5s21.667 -94 17 -152c-6.66699 -94.667 -45.667 -170.334 -117 -227.001c-12.667 -10.667 -23.334 -18 -32.001 -22
c4 0 38 5.33301 102 16l98 13v-190h-494l-10 158c42 11.333 81 28.666 117 51.999s64.833 48.666 86.5 75.999s38.5 54.833 50.5 82.5s16.833 53 14.5 76s-11.5 40.5 -27.5 52.5c-12.667 10.667 -26 15 -40 13s-26.833 -6.66699 -38.5 -14s-23.334 -17.166 -35.001 -29.499
s-21.167 -24 -28.5 -35l-20 -29.5l-8 -14l-26 58c-1.33301 4.66699 -4 11 -8 19c-30.667 74.667 -47.334 112.334 -50.001 113.001z" />
    <glyph glyph-name="three" unicode="3" horiz-adv-x="596" 
d="M344 212c0 33.333 -22.667 50 -68 50c-12.667 0 -27.334 -1.66699 -44.001 -5l-20 -4v189c5.33301 -2 12 -3.66699 20 -5c8.66699 -2.66699 23.334 -4 44.001 -4c45.333 0 68 16.667 68 50c-0.666992 32.667 -17.334 49 -50.001 49c-22.667 0 -49.5 -9.16699 -80.5 -27.5
s-56.833 -41.166 -77.5 -68.499l-86 174l8 6c5.33301 4.66699 10.833 9.16699 16.5 13.5s13.667 9.66602 24 15.999s20.666 12.333 30.999 18s22.833 11.5 37.5 17.5s29.334 11.167 44.001 15.5s31 7.83301 49 10.5s36 4 54 4c74.667 0 132 -19.167 172 -57.5
s60 -84.833 60 -139.5c0 -68 -28.667 -124 -86 -168c57.333 -40.667 86 -95.667 86 -165c0 -54.667 -20 -101.167 -60 -139.5s-97.333 -57.5 -172 -57.5c-18 0 -36 1.33301 -54 4s-34.333 6.16699 -49 10.5s-29.334 9.5 -44.001 15.5s-27.167 11.833 -37.5 17.5
s-20.666 11.667 -30.999 18s-18.333 11.666 -24 15.999l-16.5 12.5l-8 7l86 174c20.667 -27.333 46.5 -50.166 77.5 -68.499s57.833 -27.5 80.5 -27.5c32.667 0 49.334 16.333 50.001 49z" />
    <glyph glyph-name="four" unicode="4" horiz-adv-x="602" 
d="M51 217c0 6.66699 35.667 165.999 107 477.999l180 -67l-12 -40l-19 -66.5l-19 -70.5l-15 -57c-4 -15.333 -5.66699 -22.666 -5 -21.999c2 2 17.667 3 47 3h46l3 302l186 23l2 -700h-203c2 83.333 3.33301 128 4 134l3 78c-72 0 -123 0.333008 -153 1
c-101.333 0 -152 1.33301 -152 4z" />
    <glyph glyph-name="five" unicode="5" horiz-adv-x="574" 
d="M110 288l-28 -7l9 172c0.666992 24 1.83398 53.333 3.50098 88s3 64.167 4 88.5s1.5 41.833 1.5 52.5l379 18v-198l-221 15v-81c26 6.66699 48 10 66 10c58.667 0 106.667 -16.167 144 -48.5s56 -81.5 56 -147.5c0 -84.667 -23.5 -149.834 -70.5 -195.501
s-109.167 -69.167 -186.5 -70.5c-51.333 0 -103 7.33301 -155 22c-8.66699 2.66699 -29.334 10 -62.001 22l34 186c10.667 -5.33301 27.334 -12.666 50.001 -21.999c41.333 -14.667 78.666 -22 111.999 -22c52.667 0 79 18.333 79 55c0 47.333 -45 71 -135 71
c-28 0 -54.667 -2.66699 -80 -8z" />
    <glyph glyph-name="six" unicode="6" horiz-adv-x="604" 
d="M234 414c20 20 50.665 32.665 91.998 37.998c10.667 1.33301 21.334 2 32.001 2c24 0 46.667 -3.16699 68 -9.5s42 -16.666 62 -30.999s36 -35.333 48 -63s18 -60.5 18 -98.5c0 -80.667 -21.167 -145.5 -63.5 -194.5s-98.833 -73.5 -169.5 -73.5
c-37.333 0 -71.5 6 -102.5 18s-59.5 31 -85.5 57s-46.333 62.5 -61 109.5s-22 102.833 -22 167.5c0 68 8.66699 127.167 26 177.5s41.166 89.333 71.499 117s63.333 47.834 99 60.501s74.167 19 115.5 19c52 0 107 -15.667 165 -47l-57 -178
c-29.333 26 -69.666 41 -120.999 45c-20 0 -37.5 -3.83301 -52.5 -11.5s-26.167 -17.167 -33.5 -28.5s-13.166 -22.5 -17.499 -33.5s-7.5 -20.833 -9.5 -29.5zM237.998 267.998c2 -14.667 5 -28.002 9 -40.002c8.66699 -28.667 22.667 -47.667 42 -57
c12.667 -6.66699 25.667 -10 39 -10c33.333 0 53.333 17.333 60 52c0 1.33301 0.333008 3 1 5s1.16699 3.83301 1.5 5.5s0.5 3.16699 0.5 4.5c0 18.667 -6.5 33.334 -19.5 44.001s-29.5 16.334 -49.5 17.001c-11.333 0 -24 -1.83301 -38 -5.5s-25.167 -7 -33.5 -10
s-12.5 -4.83301 -12.5 -5.5z" />
    <glyph glyph-name="seven" unicode="7" horiz-adv-x="525" 
d="M52 700l31.001 -0.998047c20.667 -0.666992 49.667 -1.33398 87 -2.00098s72.666 -1.33398 105.999 -2.00098l225 -3v-180l-113 -246l-121 -265l-189 71l125 241l106 201l-259 -18c0 48 0.333008 82.333 1 103c0 14.667 0.166992 30.667 0.5 48s0.5 30.333 0.5 39v14z
" />
    <glyph glyph-name="eight" unicode="8" horiz-adv-x="590" 
d="M548 217l-0.000976562 -19.998c0 -70 -24.667 -123 -74 -159s-111.666 -54 -186.999 -54c-73.333 0 -134.5 18.167 -183.5 54.5s-73.5 89.166 -73.5 158.499c0 38 6.16699 72.667 18.5 104s30.833 54.666 55.5 69.999c-26.667 32.667 -40 72 -40 118
c0 65.333 21 118.5 63 159.5s94.333 61.5 157 61.5c62 0 114.333 -20.667 157 -62s64 -94.333 64 -159c0 -46 -13.333 -85.333 -40 -118c55.333 -34.667 83 -86 83 -154zM339.999 512.002c0 13.333 -5.16699 24.833 -15.5 34.5s-25.166 14.5 -44.499 14.5
c-14.667 0 -26.834 -5.16699 -36.501 -15.5s-14.5 -22.5 -14.5 -36.5c0 -12 6.66699 -24.167 20 -36.5s32 -23.5 56 -33.5c23.333 20 35 44.333 35 73zM347.999 198.002c0 13.333 -7.16797 25.333 -21.501 36s-39.5 25 -75.5 43c-3.33301 2 -6 3.33301 -8 4
c-26.667 -19.333 -40 -41 -40 -65c0 -42.667 27.333 -64 82 -64c18.667 0 33.834 4 45.501 12s17.5 19.333 17.5 34z" />
    <glyph glyph-name="nine" unicode="9" horiz-adv-x="604" 
d="M370 280c-20 -20 -50.666 -32.665 -91.999 -37.998l-32 -2c-24 0 -46.667 3.16699 -68 9.5s-42 16.666 -62 30.999s-36 35.333 -48 63s-18 60.5 -18 98.5c0 80.667 21.167 145.5 63.5 194.5s98.833 73.5 169.5 73.5c37.333 0 71.5 -6 102.5 -18s59.5 -31 85.5 -57
s46.333 -62.5 61 -109.5s22 -102.833 22 -167.5c0 -68 -8.66699 -127.167 -26 -177.5s-41.166 -89.333 -71.499 -117s-63.333 -47.834 -99 -60.501s-74.167 -19 -115.5 -19c-52 0 -107 15.667 -165 47l57 178c29.333 -26 69.666 -41 120.999 -45
c20 0 37.5 3.83301 52.5 11.5s26.167 17.167 33.5 28.5s13.166 22.5 17.499 33.5s7.5 20.833 9.5 29.5zM366.001 426.002c-2 13.333 -5 26.6689 -9 40.002c-9.33301 28 -23.333 47 -42 57c-12.667 6.66699 -25.667 10 -39 10c-33.333 0 -53.333 -17.333 -60 -52l-3 -15
c0 -18.667 6.5 -33.334 19.5 -44.001s29.5 -16.334 49.5 -17.001c11.333 0 24 1.83301 38 5.5s25.167 7 33.5 10s12.5 4.83301 12.5 5.5z" />
    <glyph glyph-name="colon" unicode=":" horiz-adv-x="280" 
d="M239 377c0 -27.333 -8.33105 -49.166 -24.998 -65.499s-37.334 -24.5 -62.001 -24.5s-45.334 8.16699 -62.001 24.5s-25 38.166 -25 65.499c0 28.667 8.33301 51 25 67s37.334 24 62.001 24c25.333 0 46.166 -8 62.499 -24s24.5 -38.333 24.5 -67zM239.002 87
c0 -27.333 -8.33105 -49.166 -24.998 -65.499s-37.334 -24.5 -62.001 -24.5s-45.334 8.16699 -62.001 24.5s-25 38.166 -25 65.499c0 28.667 8.33301 51 25 67s37.334 24 62.001 24c25.333 0 46.166 -8 62.499 -24s24.5 -38.333 24.5 -67z" />
    <glyph glyph-name="semicolon" unicode=";" horiz-adv-x="280" 
d="M150 178c50.667 0 79.999 -30 87.999 -90c1.33301 -14.667 2 -25.667 2 -33c0 -12.667 -1 -25.334 -3 -38.001c-6.66699 -35.333 -23.334 -63.833 -50.001 -85.5s-56.667 -32.5 -90 -32.5c-21.333 0 -32 12.333 -32 37c0 8 2.33301 14.333 7 19
c2.66699 2.66699 5 4.33398 7 5.00098c16.667 0 33.667 4.5 51 13.5s30.333 21.833 39 38.5c-2 0 -5 -0.166992 -9 -0.5s-7.33301 -0.5 -10 -0.5c-18 0 -32.833 3.5 -44.5 10.5s-19.667 16 -24 27s-7.16602 19.833 -8.49902 26.5s-2 13 -2 19s0.666992 12.5 2 19.5
s4.33301 16 9 27s12.834 20 24.501 27s26.167 10.5 43.5 10.5zM238.999 377c0 -27.333 -8.33105 -49.166 -24.998 -65.499s-37.334 -24.5 -62.001 -24.5s-45.334 8.16699 -62.001 24.5s-25 38.166 -25 65.499c0 28.667 8.33301 51 25 67s37.334 24 62.001 24
c25.333 0 46.166 -8 62.499 -24s24.5 -38.333 24.5 -67z" />
    <glyph glyph-name="less" unicode="&#x3c;" horiz-adv-x="480" 
d="M430 13l-380 188v118l380 189v-134l-229 -113v-2l229 -113v-133z" />
    <glyph glyph-name="equal" unicode="=" horiz-adv-x="427" 
d="M25 345v102l377 11v-113h-377zM25 185v102l377 11v-113h-377z" />
    <glyph glyph-name="greater" unicode="&#x3e;" horiz-adv-x="480" 
d="M430 201l-380 -188v133l229 113v2l-229 113v134l380 -189v-118z" />
    <glyph glyph-name="question" unicode="?" horiz-adv-x="377" 
d="M16 641l22.999 18.9971c53.333 38.667 106 58.334 158 59.001s95 -18.666 129 -57.999s51 -93.666 51 -162.999c0 -23.333 -2.66699 -45.666 -8 -66.999s-12.5 -40.333 -21.5 -57s-19.5 -32.5 -31.5 -47.5s-24.5 -28 -37.5 -39s-26 -21.167 -39 -30.5
s-25.333 -17 -37 -23s-22.167 -11 -31.5 -15l-21 -9l-8 -3l-8 29l-18 60l-9 30l11 8c8 4.66699 17.667 11.5 29 20.5s21.833 19.667 31.5 32s16.667 25.666 21 39.999s3.5 29.833 -2.5 46.5c-13.333 32.667 -39.666 40.667 -78.999 24c-16.667 -6.66699 -35 -19 -55 -37z
M256.999 86.9971c0 -27.333 -8.33105 -49.166 -24.998 -65.499s-37.334 -24.5 -62.001 -24.5s-45.334 8.16699 -62.001 24.5s-25 38.166 -25 65.499c0 28.667 8.33301 51 25 67s37.334 24 62.001 24c25.333 0 46.166 -8 62.499 -24s24.5 -38.333 24.5 -67z" />
    <glyph glyph-name="at" unicode="@" horiz-adv-x="592" 
d="M331 169l-0.000976562 66.0039c-13.333 -20.667 -32.333 -31 -57 -31c-30.667 0 -56.667 13 -78 39s-32 57.333 -32 94c0 37.333 10.667 68.666 32 93.999s47.333 38 78 38c26.667 0 48.334 -9.33301 65.001 -28h6c0 3.33301 0.166992 7.66602 0.5 12.999s0.5 9 0.5 11v9
l76 9l1 -210l10 -2c12 0 23 11.167 33 33.5s15 50.166 15 83.499c0 61.333 -12 108.5 -36 141.5s-59.667 49.5 -107 49.5c-61.333 0 -113 -27.333 -155 -82s-63 -123.667 -63 -207c0 -48 10.833 -90.833 32.5 -128.5s53.834 -56.5 96.501 -56.5
c12.667 0 28.334 1.66699 47.001 5c0 0.666992 1.33301 1 4 1v-108c-0.666992 -0.666992 -2 -1 -4 -1c-17.333 -6.66699 -39.333 -10 -66 -10c-59.333 0 -108 27 -146 81s-57 123.667 -57 209c1.33301 119.333 34 217.166 98 293.499s137.667 114.5 221 114.5
c73.333 0 128.666 -25.5 165.999 -76.5s56 -118.833 56 -203.5c0 -74 -14.333 -132.667 -43 -176s-62.334 -65 -101.001 -65h-93zM245.999 335.004c0 -14 3.49902 -25.5 10.499 -34.5s16.167 -13.5 27.5 -13.5c12.667 0 22.834 4.5 30.501 13.5s11.5 20.5 11.5 34.5
s-4 26 -12 36s-18 15 -30 15c-11.333 0 -20.5 -5 -27.5 -15s-10.5 -22 -10.5 -36z" />
    <glyph glyph-name="A" unicode="A" horiz-adv-x="643" 
d="M452 708l8.99902 -38.0039l23.5 -100.5l32 -135l35 -147.5l32 -134.5c9.66699 -40.333 17.834 -73.166 24.501 -98.499l9 -38l-31 -5l-70 -11l-102 -16c-4 16.667 -9 41.334 -15 74.001c-9.33301 48.667 -13.666 73.334 -12.999 74.001c0.666992 0 -5 -0.666992 -17 -2
l-54 -4l-72 -6l-28 -136l-190 39l93 328c61.333 219.333 92.666 329 93.999 329l14 2c8.66699 0.666992 20 1.83398 34 3.50098s29.667 3.66699 47 6s34.5 4.5 51.5 6.5l46.5 5.5l34 4c8.66699 1 13 1.16699 13 0.5zM264.999 296.996l105.001 -7l-20 98
c-10.667 48 -19 90.333 -25 127h-2l-32 -123c-8.66699 -35.333 -17.334 -67 -26.001 -95z" />
    <glyph glyph-name="B" unicode="B" horiz-adv-x="605" 
d="M25 677c0 2 6.49805 4.66309 19.498 7.99609s36.333 7.33301 70 12s72.167 8.33398 115.5 11.001c15.333 -0.666992 34.5 -0.5 57.5 0.5s48.5 -1.66699 76.5 -8s54.333 -14.166 79 -23.499s46.334 -24.5 65.001 -45.5s30.334 -45.833 35.001 -74.5
c10 -64 1 -115.333 -27 -154c-14 -18 -29 -31.333 -45 -40c20.667 -3.33301 38.667 -10.666 54 -21.999c36.667 -27.333 55 -70.333 55 -129c0 -52 -14 -95.167 -42 -129.5s-62.333 -58 -103 -71s-86.5 -20.833 -137.5 -23.5s-96.667 -1.66699 -137 3
s-76.833 11.334 -109.5 20.001l-13 331c-8.66699 180 -13 291.667 -13 335zM218.998 548.996l10.001 -142.999c19.333 -4.66699 41.333 -5.33398 66 -2.00098c20 4.66699 35.667 13 47 25s16.333 31.333 15 58c-2.66699 40.667 -26.334 63 -71.001 67
c-16 2 -38.333 0.333008 -67 -5zM234.999 288.997l10.001 -143.001c28.667 -5.33301 52 -6.66602 70 -3.99902c46 6.66699 67.667 33.667 65 81c-2.66699 40.667 -27.334 63.667 -74.001 69c-21.333 3.33301 -45 2.33301 -71 -3z" />
    <glyph glyph-name="C" unicode="C" horiz-adv-x="582" 
d="M316 709c18.667 0 36.666 -0.833008 53.999 -2.5s32.666 -3.83398 45.999 -6.50098s26.166 -5.83398 38.499 -9.50098s23.166 -7.66699 32.499 -12s17.833 -8.5 25.5 -12.5s14.167 -7.83301 19.5 -11.5l13.5 -9.5c3.66699 -2.66699 6.5 -5 8.5 -7l2 -2l-8 -50
l-16.5 -101.5c-5.66699 -33.667 -8.16699 -50.167 -7.5 -49.5l-36 21c-90.667 44 -161.334 55.333 -212.001 34c-45.333 -20 -68 -67 -68 -141v-2c0 -38.667 5.83301 -70 17.5 -94s27 -40 46 -48s39.667 -12.167 62 -12.5s44.833 3.33398 67.5 11.001
s43.167 15.334 61.5 23.001s33.333 14.834 45 21.501s17.167 10 16.5 10l16 -100l16 -101l-2 -3c-2 -1.33301 -4.83301 -3.33301 -8.5 -6l-13.5 -9.5c-5.33301 -3.66699 -11.833 -7.5 -19.5 -11.5s-16.167 -8.16699 -25.5 -12.5s-20.166 -8.33301 -32.499 -12
s-25.166 -6.83398 -38.499 -9.50098s-28.666 -4.83398 -45.999 -6.50098s-35.333 -2.5 -54 -2.5c-85.333 0 -154.166 30.833 -206.499 92.5s-80.5 150.834 -84.5 267.501c4 118.667 31.833 209.167 83.5 271.5s120.834 93.5 207.501 93.5z" />
    <glyph glyph-name="D" unicode="D" horiz-adv-x="571" 
d="M26 688c0.666992 0.666992 6.83691 2.33203 18.5039 4.99902s27.5 5.33398 47.5 8.00098s42.667 4.66699 68 6s52.166 0.166016 80.499 -3.50098s56.666 -9.16699 84.999 -16.5s55.333 -19.666 81 -36.999s48.667 -38 69 -62s36.666 -55.167 48.999 -93.5
s19.166 -81.5 20.499 -129.5c2.66699 -176 -82.333 -289 -255 -339c-78.667 -22 -165.667 -29.667 -261 -23l-3 341v344zM201.003 497.998l8 -280c47.333 6 83.833 20.333 109.5 43s38.5 57.334 38.5 104.001c0 87.333 -52 131.666 -156 132.999z" />
    <glyph glyph-name="E" unicode="E" horiz-adv-x="496" 
d="M461 0l-436.001 0.00195312l11 333c0.666992 12.667 1.83398 47.667 3.50098 105s3.16699 98.666 4.5 123.999l3 104l328 27c38.667 3.33301 70.667 5.66602 96 6.99902c-6.66699 -66 -13 -137.667 -19 -215l-225 14l1 -132l140 19l-2 -153l-137 3v-87l242 36z" />
    <glyph glyph-name="F" unicode="F" horiz-adv-x="496" 
d="M44 562l2.99902 104.002l328 27c38.667 3.33301 70.667 5.66602 96 6.99902c-6.66699 -66 -13 -137.667 -19 -215l-225 14l1 -132l140 19l-2 -153l-137 3l2 -236h-206l11 333c0.666992 12.667 1.83398 47.667 3.50098 105s3.16699 98.666 4.5 123.999z" />
    <glyph glyph-name="G" unicode="G" horiz-adv-x="618" 
d="M287 259c1.33301 25.333 2.99902 44.666 4.99902 57.999l7 80l294 10l-7 -333c-87.333 -60 -180 -90 -278 -90c-83.333 0 -150.333 30.667 -201 92s-78 150.666 -82 267.999c4 118.667 31.167 209.167 81.5 271.5s117.5 93.5 201.5 93.5c18 0 36 -0.666992 54 -2
s34.5 -3.16602 49.5 -5.49902s29.667 -5 44 -8s27.333 -6.33301 39 -10l32.5 -10.5c10 -3.33301 18.833 -6.5 26.5 -9.5s14.167 -5.66699 19.5 -8s9.33301 -4.16602 12 -5.49902l4 -2l-9 -50l-16 -101.5c-5.33301 -33.667 -7.33301 -50.167 -6 -49.5l-39 19
c-98.667 40.667 -176.667 50 -234 28c-54 -20 -81.333 -68.333 -82 -145v-22c0 -40.667 6.83301 -73.334 20.5 -98.001s31.834 -40.5 54.501 -47.5s45.667 -9.66699 69 -8s47.333 6.83398 72 15.501c0 8 0.166992 18.167 0.5 30.5s0.5 22.5 0.5 30.5l1 11
c-1.33301 0 -11 -0.166992 -29 -0.5s-33 -0.5 -45 -0.5c-12.667 -0.666992 -32.667 -1 -60 -1z" />
    <glyph glyph-name="H" unicode="H" horiz-adv-x="656" 
d="M69 576l3.00098 107.001c4 0 13.333 0.666992 28 2c17.333 0.666992 37.666 2.66699 60.999 6l90 9l2 -351l158 4c5.33301 148.667 8 225.667 8 231l3 99c4 0 13.333 0.666992 28 2c17.333 0.666992 37.666 2.66699 60.999 6l90 9l5 -700h-206
c0 21.333 0.333008 38.333 1 51c2.66699 77.333 4 117.333 4 120l-151 8l2 -179h-206l11 341c0.666992 15.333 1.83398 52.166 3.50098 110.499s3.16699 99.833 4.5 124.5z" />
    <glyph glyph-name="I" unicode="I" horiz-adv-x="256" 
d="M44 576l3 107.001c4 0 13.333 0.666992 28 2c17.333 0.666992 37.666 2.66699 60.999 6l90 9l5 -700h-206l11 341c0.666992 15.333 1.83398 52.166 3.50098 110.499s3.16699 99.833 4.5 124.5z" />
    <glyph glyph-name="J" unicode="J" horiz-adv-x="625" 
d="M302 -15c-40.667 0 -77.168 6.16602 -109.501 18.499s-58.333 29 -78 50s-36.5 45.667 -50.5 74s-23.5 58.666 -28.5 90.999s-8.5 65.666 -10.5 99.999s-1 68.166 3 101.499l208 -51c-6 -127.333 19 -191 75 -191c20 0 36.5 8 49.5 24s21.667 37.667 26 65
s6.83301 56.833 7.5 88.5s-0.833008 65.5 -4.5 101.5s-7.5 68.167 -11.5 96.5l-12 81c-4 25.667 -6.33301 41.834 -7 48.501l206 17c3.33301 -16 6.33301 -31.167 9 -45.5s6.5 -39.5 11.5 -75.5s8.5 -69.167 10.5 -99.5s2.66699 -66.666 2 -108.999
s-4.16699 -80.166 -10.5 -113.499s-16.5 -67.666 -30.5 -102.999s-31.667 -64.833 -53 -88.5s-49.166 -43 -83.499 -58s-73.833 -22.5 -118.5 -22.5z" />
    <glyph glyph-name="K" unicode="K" horiz-adv-x="623" 
d="M44 576l2.99805 107c4.66699 0 14.334 0.666992 29.001 2c21.333 1.33301 43 3.33301 65 6l95 9l-8 -313c26.667 62.667 55.334 126.334 86.001 191.001l57 123l182 -74l-201 -299l124 -104l36.5 -30.5l34 -28.5l26.5 -22.5l18.5 -16
c4.33301 -3.66699 6.16602 -5.5 5.49902 -5.5l-96 -64l-93 -63l-69 93c-43.333 56.667 -80 106.667 -110 150l2 -237h-206l11 341c0.666992 15.333 1.83398 52.166 3.50098 110.499s3.16699 99.833 4.5 124.5z" />
    <glyph glyph-name="L" unicode="L" horiz-adv-x="440" 
d="M44 576l3 107.001c4 0 13.333 0.666992 28 2c17.333 0.666992 37.666 2.66699 60.999 6l90 9l4 -552l185 37l-11 -185h-379l11 341c0.666992 15.333 1.83398 52.166 3.50098 110.499s3.16699 99.833 4.5 124.5z" />
    <glyph glyph-name="M" unicode="M" horiz-adv-x="700" 
d="M228 310l-9 -310.005h-194c0 18.667 8.33301 131.834 25 339.501s27.334 324.5 32.001 350.5l152 10c5.33301 -10.667 18.5 -39.834 39.5 -87.501l59 -133.5c18.333 -41.333 27.833 -62 28.5 -62c0 -0.666992 4.16699 8.33301 12.5 27l30 68l35 80.5l29.5 69.5l12 28
c21.333 0.666992 45.333 2.33398 72 5.00098c40 3.33301 64.667 5 74 5l49 -700h-198c0 6.66699 -1.16699 35.334 -3.5 86.001s-4.33301 99.334 -6 146.001s-1.83398 72.334 -0.500977 77.001c-4.66699 -16 -26.334 -57.333 -65.001 -124
c-6.66699 -11.333 -16.667 -29.666 -30 -54.999s-23.666 -44.333 -30.999 -57z" />
    <glyph glyph-name="N" unicode="N" horiz-adv-x="588" 
d="M548 0l-180.998 -0.000976562c-12 18.667 -40.333 69.167 -85 151.5l-77 142.5h-1v-294h-179c1.33301 22.667 6.66602 137.334 15.999 344.001s14.666 319.667 15.999 339l151 17l170 -393c-2 38.667 -3.66699 93.667 -5 165c-4 114.667 -6 185 -6 211l196 17
c0 -20 -2.5 -140 -7.5 -360s-7.5 -333.333 -7.5 -340z" />
    <glyph glyph-name="O" unicode="O" horiz-adv-x="689" 
d="M588 98c-37.333 -46.667 -86.167 -79.334 -146.5 -98.001s-121.5 -19.5 -183.5 -2.5s-113 50.167 -153 99.5c-50.667 64.667 -77.334 150 -80.001 256c2.66699 120 36.334 210.667 101.001 272c38 37.333 85 62.833 141 76.5s112.667 12.834 170 -2.49902
s105 -44 143 -86c56 -65.333 84 -156 84 -272c-2.66699 -102.667 -28 -183.667 -76 -243zM439.999 228c18.667 27.333 28.332 66.665 28.999 117.998c0 57.333 -10.667 101 -32 131c-22 30.667 -51.167 46.334 -87.5 47.001s-65.166 -12.666 -86.499 -39.999
c-25.333 -29.333 -38.333 -73.333 -39 -132c0.666992 -52 11 -93.667 31 -125c24.667 -36.667 56 -54.5 94 -53.5s68.333 19.167 91 54.5z" />
    <glyph glyph-name="P" unicode="P" horiz-adv-x="575" 
d="M39 650c8.66699 5.33301 20.168 11.332 34.501 17.999s43.833 15.334 88.5 26.001s90.667 16 138 16c166.667 0 250 -82.667 250 -248c0 -80.667 -32.333 -147 -97 -199s-143.334 -78 -236.001 -78c0 -2 0.333008 -30.5 1 -85.5s1 -88.167 1 -99.5h-194
c0 28.667 1 96.5 3 203.5s4.16699 208.167 6.5 303.5s3.83301 143 4.5 143zM207.001 528.999l1 -180c27.333 1.33301 52 6.33301 74 15c49.333 20 74 55 74 105c0 50.667 -25 76 -75 76c-25.333 0 -50 -5.33301 -74 -16z" />
    <glyph glyph-name="Q" unicode="Q" horiz-adv-x="689" 
d="M588 98c-23.333 -29.333 -53.667 -54.001 -91 -74.001l63 -162l-173 -56l-44 181c-100.667 0 -180 36.667 -238 110c-50.667 64.667 -77.334 150 -80.001 256c2.66699 120 36.334 210.667 101.001 272c38 37.333 85 62.833 141 76.5s112.667 12.834 170 -2.49902
s105 -44 143 -86c56 -65.333 84 -156 84 -272c-2.66699 -102.667 -28 -183.667 -76 -243zM439.999 227.999c18.667 27.333 28.332 66.665 28.999 117.998c0 57.333 -10.667 101 -32 131c-22 30.667 -51.167 46.334 -87.5 47.001s-65.166 -12.666 -86.499 -39.999
c-25.333 -29.333 -38.333 -73.333 -39 -132c0.666992 -52 11 -93.667 31 -125c24.667 -36.667 56 -54.5 94 -53.5s68.333 19.167 91 54.5z" />
    <glyph glyph-name="R" unicode="R" horiz-adv-x="605" 
d="M39 650c8.66699 5.33301 20.168 11.332 34.501 17.999s43.666 15.334 87.999 26.001s90.5 16 138.5 16c166.667 0 250 -82.667 250 -248c0 -50.667 -13.167 -96 -39.5 -136s-62.5 -72.333 -108.5 -97l178 -113l-79 -79l-54 -55l-24 -25l-35 37l-87 90.5l-84 89.5
c0 -11.333 0.333008 -41 1 -89s1 -76.333 1 -85h-194c0 46 2 165.5 6 358.5s6.66699 290.167 8 291.5zM207.001 518.999l1 -180c27.333 1.33301 52 6.33301 74 15c49.333 20 74 55 74 105c0 50.667 -25 76 -75 76c-25.333 0 -50 -5.33301 -74 -16z" />
    <glyph glyph-name="S" unicode="S" horiz-adv-x="600" 
d="M446 667c40 -24 74.3311 -56.668 102.998 -98.001l-120 -122c-10.667 18.667 -29.667 37.5 -57 56.5s-56.666 28.5 -87.999 28.5c-16 0 -28.333 -1.5 -37 -4.5s-13.834 -6.16699 -15.501 -9.5s-3.16699 -8.33301 -4.5 -15c-1.33301 -14 3.83398 -26.5 15.501 -37.5
s27.667 -20.5 48 -28.5s43 -16 68 -24s50.167 -17.667 75.5 -29s48.5 -24.5 69.5 -39.5s38.167 -34.833 51.5 -59.5s20 -52.667 20 -84c0 -40 -7.33301 -74.833 -22 -104.5s-34.667 -52.5 -60 -68.5s-52.5 -27.5 -81.5 -34.5s-59.833 -10.167 -92.5 -9.5
c-70.667 3.33301 -125.334 17 -164.001 41c-47.333 28.667 -87 69.667 -119 123v-1l-5.5 8c-2.33301 3.33301 -4.16602 6.33301 -5.49902 9l150 78c7.33301 -10 16.666 -20.5 27.999 -31.5s28 -22.167 50 -33.5s44 -17 66 -17c40 0 60.667 9.66699 62 29
c1.33301 16 -8.33398 30.667 -29.001 44c-5.33301 1.33301 -18.5 5 -39.5 11s-35.5 10.333 -43.5 13l-42.5 14c-20.333 6.66699 -35.166 12.334 -44.499 17.001l-40 20c-17.333 8.66699 -30.166 17 -38.499 25l-30.5 29.5c-12 11.667 -20.667 23.667 -26 36
s-10.166 26.333 -14.499 42s-6.5 32.167 -6.5 49.5c0 39.333 7.16699 73.833 21.5 103.5s33.833 52.5 58.5 68.5s51 27.833 79 35.5s58 11.5 90 11.5c73.333 0 130.333 -14 171 -42z" />
    <glyph glyph-name="T" unicode="T" horiz-adv-x="555" 
d="M33 692c0.666992 0 83.332 1.66992 247.999 5.00293s247.334 4.66602 248.001 3.99902v-31c0 -6 0.166992 -16.833 0.5 -32.5s0.5 -27.834 0.5 -36.501v-99l-49 -3c-11.333 -1.33301 -30.333 -2.5 -57 -3.5s-46.667 -1.83301 -60 -2.5l4 -493h-206
c1.33301 72.667 3 128 5 166c4 124.667 7.66699 230 11 316h-1c-12.667 -0.666992 -31.167 -1.5 -55.5 -2.5s-41.5 -2.16699 -51.5 -3.5l-44 -3c-0.666992 0 -0.5 18.167 0.5 54.5s2.16699 72.666 3.5 108.999s2.33301 54.833 3 55.5z" />
    <glyph glyph-name="U" unicode="U" horiz-adv-x="626" 
d="M303 -15c-51.333 0 -95.666 9.66602 -132.999 28.999s-65.666 44.5 -84.999 75.5s-34 67.5 -44 109.5s-15.167 83.667 -15.5 125s1.66699 84.166 6 128.499s9.66602 82.333 15.999 114s12.5 60.5 18.5 86.5s9 40 9 42l214 6c-8 -31.333 -16 -68.833 -24 -112.5
s-16.167 -100 -24.5 -169s-6.83301 -126.5 4.5 -172.5s33.666 -69 66.999 -69c20 0 36.333 8.16699 49 24.5s21.167 38.666 25.5 66.999s7 58.333 8 90s-0.333008 66.5 -4 104.5s-7.33398 70.833 -11.001 98.5s-7.66699 55.5 -12 83.5s-6.83301 44.333 -7.5 49l206 5
c3.33301 -16 6.33301 -31.167 9 -45.5s6.5 -39.5 11.5 -75.5s8.5 -69.167 10.5 -99.5s2.66699 -66.666 2 -108.999s-4.16699 -80.166 -10.5 -113.499s-16.5 -67.666 -30.5 -102.999s-31.667 -64.833 -53 -88.5s-49.166 -43 -83.499 -58s-73.833 -22.5 -118.5 -22.5z" />
    <glyph glyph-name="V" unicode="V" horiz-adv-x="659" 
d="M189 -2c-0.666992 -0.666992 -12.498 47.666 -35.498 144.999l-76 321.5c-27.667 117 -45.167 189.833 -52.5 218.5l218 27c2 -18 16.5 -103.333 43.5 -256s40.5 -235 40.5 -247c2 20.667 15 97.334 39 230.001s39.667 214.667 47 246l221 27
c-5.33301 -27.333 -39 -156 -101 -386l-87 -324h-128h-27h-26c-8.66699 -0 -16.834 -0.166992 -24.501 -0.5s-14.5 -0.5 -20.5 -0.5s-11.333 -0.166992 -16 -0.5s-8.33398 -0.5 -11.001 -0.5h-4z" />
    <glyph glyph-name="W" unicode="W" horiz-adv-x="834" 
d="M354 0l-213.001 -0.000976562c-2.66699 16.667 -21.667 127 -57 331s-55 321.333 -59 352l223 27l20 -271c0 -3.33301 4.66699 -75 14 -215l36 193l17 93l15 85.5c4 23.667 6.33301 36.5 7 38.5l127 7l78 -350l24 174c11.333 94.667 21.333 167.334 30 218.001l193 27
c-3.33301 -22 -25.166 -142.167 -65.499 -360.5s-61.5 -334.833 -63.5 -349.5h-195c-8.66699 35.333 -34.667 124 -78 266z" />
    <glyph glyph-name="X" unicode="X" horiz-adv-x="697" 
d="M236 716c-0.666992 0 1.99902 -6 7.99902 -18l24 -47.5l30 -56.5l62 -120l106 243l178 -100l-43.5 -62l-54.5 -78l-73 -106l98 -138c8.66699 -14 21.5 -32.333 38.5 -55s26.833 -36 29.5 -40l32 -44l-32 -18c-29.333 -17.333 -52.666 -30 -69.999 -38l-105 -54l-112 265
l-110 -263l-217 87l209 285l-189 274l95 43c63.333 28 95.333 41.667 96 41z" />
    <glyph glyph-name="Y" unicode="Y" horiz-adv-x="687" 
d="M26 619c0 1.33301 5.00098 4 15.001 8l45 18.5l51 21.5l110 45l117 -304l90 302l208 -69l-205 -365l12 -276h-222c0 28.667 3 82.667 9 162c1.33301 14 2.66602 35 3.99902 63l3 63l-119 164c-78.667 106 -118 161.667 -118 167z" />
    <glyph glyph-name="Z" unicode="Z" horiz-adv-x="533" 
d="M501 700l7.00098 -119.002l-56 -100c-60.667 -106 -124.334 -210 -191.001 -312c11.333 2 31.166 6 59.499 12s49.5 10.333 63.5 13l59.5 11.5l46.5 8.5l18 2c0 -66 -3 -138 -9 -216h-468l-6 121l247 412l-124 -28c-16 -3.33301 -35.167 -7.66602 -57.5 -12.999
s-38.833 -9.16602 -49.5 -11.499s-16 -2.83301 -16 -1.5l1 15c0 10 0.333008 25 1 45s1.33398 37 2.00098 51l5 110h467z" />
    <glyph glyph-name="bracketleft" unicode="[" horiz-adv-x="383" 
d="M202 -13l131 12v-151l-266 1l-17 851l283 -2v-147l-136 11z" />
    <glyph glyph-name="backslash" unicode="\" horiz-adv-x="445" 
d="M50 700h144l241 -700h-137z" />
    <glyph glyph-name="bracketright" unicode="]" horiz-adv-x="373" 
d="M50 -1l131 -12l5 575l-136 -11v147l283 2l-17 -851l-266 -1v151z" />
    <glyph glyph-name="asciicircum" unicode="^" horiz-adv-x="464" 
d="M232 955l182 -128l-68 -76l-114 96l-123 -96l-59 76z" />
    <glyph glyph-name="underscore" unicode="_" horiz-adv-x="522" 
d="M50 -5v101l422 10v-111h-422z" />
    <glyph glyph-name="grave" unicode="`" horiz-adv-x="326" 
d="M273 749l-248 104l57 104l219 -142z" />
    <glyph glyph-name="a" unicode="a" horiz-adv-x="576" 
d="M25 229c0 68.667 21.6699 126.833 65.0029 174.5s95.666 71.5 156.999 71.5c50 0 95 -17.333 135 -52h7l2 43c0 10 0.333008 15.667 1 17c-0.666992 0 5.66602 0.666992 18.999 2l58 6l77 9l5 -500h-181v42h-8c-10.667 -20 -27.334 -34.667 -50.001 -44
s-44.334 -14 -65.001 -14c-61.333 0 -113.666 23.833 -156.999 71.5s-65 105.5 -65 173.5zM190.003 224.999c0 -24.667 7.66699 -45.667 23 -63s34.333 -26 57 -26c23.333 0 43 8.66699 59 26s24 38.333 24 63c0 26.667 -8 49 -24 67s-35.667 27 -59 27
c-22.667 0 -41.667 -9 -57 -27s-23 -40.333 -23 -67z" />
    <glyph glyph-name="b" unicode="b" horiz-adv-x="555" 
d="M181 701l28.0029 4.00195l2 -83c1.33301 -55.333 3.33301 -116 6 -182c33.333 23.333 70.666 35 111.999 35c61.333 0 113.666 -23.833 156.999 -71.5s65 -105.834 65 -174.501c0 -68 -21.667 -125.833 -65 -173.5s-95.666 -71.5 -156.999 -71.5
c-20.667 0 -42.334 4.66699 -65.001 14s-39.334 24 -50.001 44h-8v-42h-181l5 684l90 10c6 0.666992 16.167 1.66699 30.5 3s24.5 2.66602 30.5 3.99902zM386.003 225.002c0 26.667 -7.66699 49 -23 67s-34.333 27 -57 27c-23.333 0 -43 -9 -59 -27s-24 -40.333 -24 -67
c0 -24.667 8 -45.667 24 -63s35.667 -26 59 -26c22.667 0 41.667 8.66699 57 26s23 38.333 23 63z" />
    <glyph glyph-name="c" unicode="c" horiz-adv-x="485" 
d="M264 509c83.333 0 147.668 -17.334 193.001 -52.001l-29 -160c-18 10 -41.833 20.167 -71.5 30.5s-56.834 15.5 -81.501 15.5c-57.333 0 -86 -32 -86 -96c0 -65.333 28.667 -98 86 -98c26 0 54.667 5.33301 86 16s54 20.667 68 30l31 -157
c-6.66699 -6.66699 -16.167 -13.5 -28.5 -20.5s-33.833 -14.333 -64.5 -22s-65 -11.5 -103 -11.5c-70 0 -126.667 22.5 -170 67.5s-66.333 109.5 -69 193.5c0 86.667 21.833 152.334 65.5 197.001s101.5 67 173.5 67z" />
    <glyph glyph-name="d" unicode="d" horiz-adv-x="554" 
d="M343 611l2.00391 71.999c4 0 13.333 0.666992 28 2c17.333 0.666992 37.666 2.66699 60.999 6l90 9l5 -700h-181v42h-8c-10.667 -20 -27.334 -34.667 -50.001 -44s-44.334 -14 -65.001 -14c-61.333 0 -113.666 23.833 -156.999 71.5s-65 105.5 -65 173.5
c0 68.667 21.667 126.834 65 174.501s95.666 71.5 156.999 71.5c41.333 0 78.666 -11.667 111.999 -35c2.66699 66 4.66699 123 6 171zM168.004 224.999c0 -24.667 7.66699 -45.667 23 -63s34.333 -26 57 -26c23.333 0 43 8.66699 59 26s24 38.333 24 63
c0 26.667 -8 49 -24 67s-35.667 27 -59 27c-22.667 0 -41.667 -9 -57 -27s-23 -40.333 -23 -67z" />
    <glyph glyph-name="e" unicode="e" 
d="M265 -16c-72.667 0 -130.832 24.668 -174.499 74.001s-65.5 112 -65.5 188c0 73.333 23.667 135.5 71 186.5s104.666 76.5 171.999 76.5c66.667 0 123.667 -25.5 171 -76.5s71 -113.167 71 -186.5c0 -6.66699 -0.666992 -17.334 -2 -32.001l-308 -21
c0 -0.666992 1.33301 -4.5 4 -11.5s4.66699 -11.5 6 -13.5c14 -18.667 36.333 -28 67 -28c48 0 96.667 13.667 146 41l58 -147c-66.667 -33.333 -138.667 -50 -216 -50zM272.002 366.001c-40 0 -64.333 -27 -73 -81l159 9c-17.333 48 -46 72 -86 72z" />
    <glyph glyph-name="f" unicode="f" horiz-adv-x="403" 
d="M278 277l4.00195 -276.999h-207c0 6 0.166992 19.333 0.5 40s1 56.5 2 107.5s1.83301 100.833 2.5 149.5h-55l3 144h49c-4 179.333 57.333 269 184 269c27.333 0 73 -7.33301 137 -22c2.66699 -0.666992 5 -1.33398 7 -2.00098l-22 -178
c-22 10.667 -40.167 16.667 -54.5 18s-24.833 -2 -31.5 -10s-11.334 -16.5 -14.001 -25.5s-4.33398 -21.167 -5.00098 -36.5v-13h91l-4 -144h-87v-20z" />
    <glyph glyph-name="g" unicode="g" horiz-adv-x="542" 
d="M334 436l-0.998047 55l184 9l-6 -500c-2.66699 -68.667 -23.334 -122.667 -62.001 -162s-96 -59 -172 -59c-68.667 0 -124.334 8.66699 -167.001 26c-18.667 7.33301 -33 16 -43 26c0.666992 0 3.83398 12.5 9.50098 37.5l17.5 76c6 25.667 9.33301 38.834 10 39.501
l12 -7c8 -4.66699 23.5 -10 46.5 -16s50.5 -9 82.5 -9c57.333 0 86 36.333 86 109c-28.667 -28 -68 -42 -118 -42c-52.667 0 -97.167 23 -133.5 69s-54.5 101.667 -54.5 167s18.167 120.666 54.5 165.999s80.833 68 133.5 68c45.333 0 85.666 -17.667 120.999 -53z
M348.002 252c0 26 -8.16699 47.833 -24.5 65.5s-36.166 26.5 -59.499 26.5c-24.667 0 -45.334 -8.83301 -62.001 -26.5s-25 -39.5 -25 -65.5c0 -24.667 8.33301 -45.667 25 -63s37.334 -26 62.001 -26c23.333 0 43.166 8.66699 59.499 26s24.5 38.333 24.5 63z" />
    <glyph glyph-name="h" unicode="h" horiz-adv-x="542" 
d="M36 584l2 109.001c4.66699 0 14.334 0.666992 29.001 2c21.333 1.33301 43 3.33301 65 6l94 9l1 -302c28 61.333 71.333 92 130 92c52.667 0 92.5 -20 119.5 -60s40.5 -107.667 40.5 -203l-1 -21c0 -14 -0.333008 -31.5 -1 -52.5s-1.5 -42.5 -2.5 -64.5
s-1.66699 -42.333 -2 -61s-0.5 -31.334 -0.5 -38.001h-204c0 10 1.5 44.833 4.5 104.5s4.5 98.167 4.5 115.5v16v18c0 4.66699 -0.166992 11 -0.5 19s-1 14.5 -2 19.5s-2.33301 10.5 -4 16.5s-3.83398 11 -6.50098 15s-5.66699 7.33301 -9 10c-6 6 -16.167 6 -30.5 0
s-25.5 -17.333 -33.5 -34l2 -300h-206l7 346z" />
    <glyph glyph-name="i" unicode="i" horiz-adv-x="258" 
d="M44 407l3 76.001c4 0 13.333 0.666992 28 2c17.333 0.666992 37.666 2.66699 60.999 6l90 9l5 -500h-206l11 241c0.666992 10.667 1.83398 36.667 3.50098 78s3.16699 70.666 4.5 87.999zM34 625.001c0 27.333 9.83301 50.833 29.5 70.5s42.834 29.5 69.501 29.5
c27.333 0 50.833 -9.83301 70.5 -29.5s29.5 -43.167 29.5 -70.5c0 -26.667 -9.83301 -49.834 -29.5 -69.501s-43.167 -29.5 -70.5 -29.5c-26.667 0 -49.834 9.83301 -69.501 29.5s-29.5 42.834 -29.5 69.501z" />
    <glyph glyph-name="j" unicode="j" horiz-adv-x="333" 
d="M105 229l-3.00195 249.999l206 22l-2 -446c0.666992 -44.667 -2.83301 -83.667 -10.5 -117s-17.334 -59.666 -29.001 -78.999s-26.667 -34.833 -45 -46.5s-36 -19.167 -53 -22.5s-36.5 -4.5 -58.5 -3.5s-40.667 3 -56 6s-32.333 6.83301 -51 11.5l-25 6l22 178
c21.333 -10.667 39.333 -16.667 54 -18s25.334 2 32.001 10s11.334 16.667 14.001 26s4.33398 21.333 5.00098 36v187zM98.998 624.999c0 27.333 9.83301 50.833 29.5 70.5s42.834 29.5 69.501 29.5c28 0 51.667 -9.66699 71 -29s29 -43 29 -71
c0 -26.667 -9.83301 -49.834 -29.5 -69.501s-43.167 -29.5 -70.5 -29.5c-26.667 0 -49.834 9.83301 -69.501 29.5s-29.5 42.834 -29.5 69.501z" />
    <glyph glyph-name="k" unicode="k" horiz-adv-x="520" 
d="M44 576l2.99902 107.002c4 0 13.333 0.666992 28 2c17.333 0.666992 37.666 2.66699 60.999 6l90 9l2 -363h1l51.5 74l65 92c15.667 22 23.5 32.667 23.5 32c0 -3.33301 24.667 -22.333 74 -57l74 -55l-135 -171l79 -89c52.667 -59.333 80 -89 82 -89
c0.666992 0 -3.66602 -4.33301 -12.999 -13l-34 -31l-40 -37l-34.5 -33c-9.66699 -9.33301 -14.5 -14.333 -14.5 -15s-4.5 5.16602 -13.5 17.499l-35.5 49l-46 62.5l-46 64l-37 49l2 -187h-206l11 341c0.666992 15.333 1.83398 52.166 3.50098 110.499
s3.16699 99.833 4.5 124.5z" />
    <glyph glyph-name="l" unicode="l" horiz-adv-x="256" 
d="M44 576l3 107.001c4 0 13.333 0.666992 28 2c17.333 0.666992 37.666 2.66699 60.999 6l90 9l5 -700h-206l11 341c0.666992 15.333 1.83398 52.166 3.50098 110.499s3.16699 99.833 4.5 124.5z" />
    <glyph glyph-name="m" unicode="m" horiz-adv-x="819" 
d="M592 220c0 4.66699 -0.167969 13.0039 -0.500977 25.0039s-0.666016 21.5 -0.999023 28.5s-1.33301 15.5 -3 25.5s-4.16699 17.333 -7.5 22s-7.66602 8.66699 -12.999 12s-12.666 3.66602 -21.999 0.999023s-20 -8 -32 -16c2.66699 -21.333 4 -48.333 4 -81l-1 -21
c0 -14 -0.333008 -31.5 -1 -52.5s-1.5 -42.5 -2.5 -64.5s-1.66699 -42.333 -2 -61s-0.5 -31.334 -0.5 -38.001h-204c0 10 1.5 44.833 4.5 104.5s4.5 98.167 4.5 115.5v16v19c0 4 -0.166992 10 -0.5 18s-1 14.5 -2 19.5s-2.33301 10.5 -4 16.5s-3.83398 11 -6.50098 15
s-5.66699 7.33301 -9 10c-6 6 -16.167 6 -30.5 0s-25.5 -17.333 -33.5 -34l2 -300h-206l11 241c0.666992 10.667 1.83398 36.667 3.50098 78s3.16699 70.666 4.5 87.999l3 76c4 0 13.333 0.666992 28 2c17.333 0.666992 37.666 2.66699 60.999 6l90 9l1 -92
c28 61.333 71.333 92 130 92c59.333 0 101.666 -25 126.999 -75c14 26 36 45 66 57s58 18 84 18c52.667 0 92.5 -20 119.5 -60s40.5 -107.667 40.5 -203v-21l-2 -52c-1.33301 -21.333 -2.33301 -43 -3 -65s-1.16699 -42.333 -1.5 -61s-0.5 -31.334 -0.5 -38.001h-204
c0 10 1.5 44.833 4.5 104.5s4.5 98.167 4.5 115.5z" />
    <glyph glyph-name="n" unicode="n" horiz-adv-x="542" 
d="M44 407l3.00098 76.002c4 0 13.333 0.666992 28 2c17.333 0.666992 37.666 2.66699 60.999 6l90 9l1 -92c28 61.333 71.333 92 130 92c52.667 0 92.5 -20 119.5 -60s40.5 -107.667 40.5 -203l-1 -21c0 -14 -0.333008 -31.5 -1 -52.5s-1.5 -42.5 -2.5 -64.5
s-1.66699 -42.333 -2 -61s-0.5 -31.334 -0.5 -38.001h-204c0 10 1.5 44.833 4.5 104.5s4.5 98.167 4.5 115.5v16v19c0 4 -0.166992 10 -0.5 18s-1 14.5 -2 19.5s-2.33301 10.5 -4 16.5s-3.83398 11 -6.50098 15s-5.66699 7.33301 -9 10c-6 6 -16.167 6 -30.5 0
s-25.5 -17.333 -33.5 -34l2 -300h-206l11 241c0.666992 10.667 1.83398 36.667 3.50098 78s3.16699 70.666 4.5 87.999z" />
    <glyph glyph-name="o" unicode="o" 
d="M25 246c0 73.333 23.667 135.5 71 186.5s104.666 76.5 171.999 76.5c66.667 0 123.667 -25.5 171 -76.5s71 -113.167 71 -186.5c0 -72.667 -23.667 -134.5 -71 -185.5s-104.333 -76.5 -171 -76.5c-67.333 0 -124.666 25.5 -171.999 76.5s-71 112.833 -71 185.5zM185 242
c0 -26.667 8.33301 -49.334 25 -68.001s37.334 -28 62.001 -28c25.333 0 46.666 9.33301 63.999 28s26 41.334 26 68.001c0 28 -8.66699 51.667 -26 71s-38.666 29 -63.999 29c-24.667 0 -45.334 -9.66699 -62.001 -29s-25 -43 -25 -71z" />
    <glyph glyph-name="p" unicode="p" horiz-adv-x="561" 
d="M218 500l-1 -51c38 40 79.667 60 125 60c53.333 0 99 -25.5 137 -76.5s57 -112.833 57 -185.5s-19 -134.667 -57 -186s-83.667 -77 -137 -77c-54 0 -96.667 18 -128 54l6 -246h-195l2 689zM202 244c0 -28 8.33301 -51.501 25 -70.501s37.334 -28.5 62.001 -28.5
c25.333 0 46.666 9.83301 63.999 29.5s26 42.834 26 69.501c0 29.333 -8.66699 53.833 -26 73.5s-38.666 29.5 -63.999 29.5c-24.667 0 -45.334 -9.66699 -62.001 -29s-25 -44 -25 -74z" />
    <glyph glyph-name="q" unicode="q" horiz-adv-x="559" 
d="M344 449l-1 40l191 11l-5 -708h-199l17 246c-31.333 -36 -74 -54 -128 -54c-53.333 0 -99 25.667 -137 77s-57 113.333 -57 186s19 134.5 57 185.5s83.667 76.5 137 76.5c45.333 0 87 -20 125 -60zM359 244c0 30 -8.33301 54.668 -25 74.001s-37.334 29 -62.001 29
c-25.333 0 -46.666 -9.83301 -63.999 -29.5s-26 -44.167 -26 -73.5c0 -26.667 8.66699 -49.834 26 -69.501s38.666 -29.5 63.999 -29.5c24.667 0 45.334 9.5 62.001 28.5s25 42.5 25 70.5z" />
    <glyph glyph-name="r" unicode="r" horiz-adv-x="406" 
d="M44 407l3 76.001c4 0 13.333 0.666992 28 2c17.333 0.666992 37.666 2.66699 60.999 6l90 9l2 -109c27.333 35.333 62.666 65.333 105.999 90c22 12.667 41 22 57 28l6 -110c2.66699 -74 5 -111 7 -111c-95.333 -4.66699 -153.666 -14.667 -174.999 -30l2 -258h-206
l11 241c0.666992 10.667 1.83398 36.667 3.50098 78s3.16699 70.666 4.5 87.999z" />
    <glyph glyph-name="s" unicode="s" horiz-adv-x="516" 
d="M382 478c32.667 -16 61.999 -40.332 87.999 -72.999l-105 -93c-4.66699 6 -11.5 13.167 -20.5 21.5s-23 17.333 -42 27s-38.167 14.5 -57.5 14.5c-17.333 0 -28.666 -1.5 -33.999 -4.5s-8.33301 -7.5 -9 -13.5c-3.33301 -11.333 2.33398 -20.333 17.001 -27
c0.666992 0 15.667 -4 45 -12c52 -14 84.333 -23.667 97 -29c14 -4.66699 27.333 -10.167 40 -16.5s26.334 -15.166 41.001 -26.499s26.5 -26 35.5 -44s13.5 -38 13.5 -60c0 -38.667 -11.167 -70.5 -33.5 -95.5s-49 -42 -80 -51s-65.167 -12.833 -102.5 -11.5
c-56 1.33301 -102.333 11 -139 29c-42 21.333 -75.333 51 -100 89l-11 15l130 59c40 -40 80 -60 120 -60c29.333 0 44.666 6 45.999 18c1.33301 11.333 -5.33398 20.333 -20.001 27c-12 5.33301 -27 9.66602 -45 12.999c-46.667 11.333 -78.667 20.333 -96 27
c-14 4 -27.5 9.33301 -40.5 16s-27 15.667 -42 27s-27.167 26.166 -36.5 44.499s-14 38.5 -14 60.5c0 38 10.833 69.5 32.5 94.5s47.5 42.167 77.5 51.5s63.333 14 100 14c60.667 0 109 -10.333 145 -31z" />
    <glyph glyph-name="t" unicode="t" horiz-adv-x="512" 
d="M115 309l-86 -4l-1 11c0 7.33301 -0.166992 19 -0.5 35s-0.5 29.333 -0.5 40l-2 86l31 -2l59 -3v102l192 19c-1.33301 -22.667 -2 -62.334 -2 -119.001c73.333 3.33301 120.333 5 141 5l1 -45c0.666992 -29.333 1 -56.666 1 -81.999v-46c-20 0 -35.333 0.333008 -46 1
c-36 1.33301 -69.333 2 -100 2v-38c0 -60.667 18 -91 54 -91c14.667 0 29.834 5.66699 45.501 17s27.167 21.666 34.5 30.999s12 16 14 20l74 -175c-59.333 -59.333 -135 -89 -227 -89c-72.667 0 -124.334 35 -155.001 105c-3.33301 7.33301 -6.33301 15 -9 23
s-4.83398 16.5 -6.50098 25.5l-4.5 24.5c-1.33301 7.33301 -2.5 16.333 -3.5 27s-1.66699 18.834 -2 24.501s-0.666016 14.5 -0.999023 26.5s-0.5 20 -0.5 24v24v21z" />
    <glyph glyph-name="u" unicode="u" horiz-adv-x="523" 
d="M258 148c16.667 0 29.3311 2.33398 37.998 7.00098l8 323c2.66699 0 7.16699 0.5 13.5 1.5l15.5 2.5c6 1.33301 16.667 2.66602 32 3.99902s26.333 2.33301 33 3c52.667 6 84.334 9.66699 95.001 11l5 -500h-206c0.666992 0.666992 1 3.66699 1 9c0 10 0.333008 19 1 27
l-3 1c-30 -24.667 -70 -37 -120 -37c-29.333 -0 -54.166 5.33301 -74.499 16s-35.333 25.667 -45 45s-16.5 39.5 -20.5 60.5s-6 44.833 -6 71.5l5 285l196 22l-10 -289c0 -42 14 -63 42 -63z" />
    <glyph glyph-name="v" unicode="v" horiz-adv-x="487" 
d="M316 478l186 23.002l-41.5 -134l-71 -229.5c-23 -74.333 -37.5 -120.166 -43.5 -137.499h-221c-6 17.333 -18.333 60.166 -37 128.499l-58 215.5c-20 75.333 -32.333 120.666 -37 135.999l183 20c2 -10.667 8.83301 -43 20.5 -97l32.5 -154
c10 -48.667 15 -76.334 15 -83.001c2.66699 18 26.667 122 72 312z" />
    <glyph glyph-name="w" unicode="w" horiz-adv-x="679" 
d="M290 0l-172.001 0.000976562c-1.33301 9.33301 -16.333 87.666 -45 234.999s-44.667 232.333 -48 255l180 19c4.66699 -43.333 9.66699 -100.333 15 -171l11 -130l16.5 64.5c7 27 11.167 43.5 12.5 49.5c18 66.667 28.667 110.667 32 132l101 5l63 -250l19 124
c6 36 14 88.333 24 157l155 19l-104 -509h-157c-1.33301 3.33301 -11.666 35 -30.999 95l-31 96z" />
    <glyph glyph-name="x" unicode="x" horiz-adv-x="526" 
d="M141 498l27 8.99902l17 -28c2.66699 -4 8 -13.167 16 -27.5s15 -25.5 21 -33.5l54 -87l94 177l156 -73c-5.33301 -5.33301 -18 -20.5 -38 -45.5l-47 -57.5l-64 -78l86 -94l87 -95l-28 -14c-23.333 -10.667 -44 -19.667 -62 -27l-92 -40l-100 182l-95 -180l-191 63
l183 197l-166 200l84 31c5.33301 2 14.833 5.33301 28.5 10s23.5 8.33398 29.5 11.001z" />
    <glyph glyph-name="y" unicode="y" horiz-adv-x="505" 
d="M252 182c16 0 28.335 2.33203 37.002 6.99902l8 289h5c2.66699 0.666992 7.16699 1.5 13.5 2.5s13.166 1.83301 20.499 2.5s15.666 1.66699 24.999 3s18.333 2.33301 27 3c45.333 4.66699 76 8.33398 92 11.001c0 -221.333 -0.666992 -361.333 -2 -420
s-4.33301 -98.334 -9 -119.001c-26.667 -121.333 -102.667 -182 -228 -182c-68.667 0 -124.334 8.66699 -167.001 26c-18.667 7.33301 -33 16 -43 26c0.666992 0 3.83398 12.5 9.50098 37.5l17.5 76c6 25.667 9.33301 38.834 10 39.501l12 -7c8 -4.66699 23.5 -10 46.5 -16
s50.5 -9 82.5 -9c57.333 0 86 43 86 129l-1 1c-30.667 -22 -73 -33 -127 -33c-94.667 0 -142 58 -142 174l5 255l191 22l-10 -261c0 -38 13.667 -57 41 -57z" />
    <glyph glyph-name="z" unicode="z" horiz-adv-x="476" 
d="M445 500l5.99805 -87c-9.33301 -15.333 -25.666 -38 -48.999 -68l-169 -222l109 18l31.5 5c12.333 2 22.5 3.5 30.5 4.5s15.833 2.16699 23.5 3.5s13.5 2 17.5 2l6 1l-3 -69c-1.33301 -14 -2.5 -31.667 -3.5 -53s-1.5 -33 -1.5 -35h-413l-5 88l218 290
c-53.333 -9.33301 -89.666 -16 -108.999 -20c-64.667 -12.667 -101 -19 -109 -19c0 18.667 1.33301 45.667 4 81l4 80h412z" />
    <glyph glyph-name="braceleft" unicode="{" horiz-adv-x="443" 
d="M271 398c0 -60.667 -10.9971 -102.006 -32.9971 -124.006c22 -22 33 -63.333 33 -124c0 -23.333 -0.333008 -52.333 -1 -87c-1.33301 -50.667 0.166992 -82 4.5 -94s18.166 -17.333 41.499 -16c39.333 1.33301 62.666 2.66602 69.999 3.99902l24 3l5 -125l-145 1
c-29.333 1.33301 -55 8.33301 -77 21c-49.333 28.667 -70.666 80 -63.999 154c3.33301 34 8.66602 75 15.999 123c7.33301 51.333 8.66602 81 3.99902 89c-4.66699 6 -13 8 -25 6c-46.667 -7.33301 -71.334 -11.666 -74.001 -12.999v115l74 -12c6 0 11 -0.166992 15 -0.5
s7 1.33398 9 5.00098s3.5 7.33398 4.5 11.001s1.16699 9.83398 0.5 18.501s-1.66699 17.334 -3 26.001s-3 20.334 -5 35.001c-1.33301 10.667 -2.5 19.334 -3.5 26.001l-4 27c-1.66699 11.333 -3.16699 22.833 -4.5 34.5l-4 35.5c-6.66699 74 14.666 125 63.999 153
c20.667 12.667 46.334 20 77.001 22l145 1l-5 -125l-24 3c-38.667 2.66699 -62 4 -70 4c-23.333 1.33301 -37.166 -4 -41.499 -16s-5.83301 -43.333 -4.5 -94c0.666992 -34.667 1 -63.667 1 -87z" />
    <glyph glyph-name="bar" unicode="|" horiz-adv-x="266" 
d="M69 606l3 141c-0.666992 0 4.66602 0.666992 15.999 2l53 6l70 9l5 -914h-166l11 448c0.666992 16 1.83398 63.167 3.50098 141.5s3.16699 133.833 4.5 166.5z" />
    <glyph glyph-name="braceright" unicode="}" horiz-adv-x="443" 
d="M194 398c0 23.333 0.333008 52.3389 1 87.0059c1.33301 50.667 -0.166992 82 -4.5 94s-18.166 17.333 -41.499 16c-8 0 -31.333 -1.33301 -70 -4l-24 -3l-5 125l145 -1c30.667 -2 56.334 -9.33301 77.001 -22c49.333 -28 70.666 -79 63.999 -153
c-3.33301 -34 -8.66602 -75 -15.999 -123c-7.33301 -51.333 -8.66602 -81 -3.99902 -89c3.33301 -6 11.666 -8 24.999 -6l74 12v-115c-2.66699 1.33301 -27.334 5.66602 -74.001 12.999c-6 0 -11 0.166992 -15 0.5s-7 -1.33398 -9 -5.00098s-3.5 -7.33398 -4.5 -11.001
s-1.16699 -9.83398 -0.5 -18.501s1.66699 -17.334 3 -26.001s3 -20.334 5 -35.001c1.33301 -10.667 2.5 -19.334 3.5 -26.001l4 -27c1.66699 -11.333 3.16699 -22.833 4.5 -34.5l4 -35.5c6.66699 -74 -14.666 -125.333 -63.999 -154c-22 -12.667 -47.667 -19.667 -77 -21
l-145 -1l5 125l24 -3c7.33301 -1.33301 30.666 -2.66602 69.999 -3.99902c23.333 -1.33301 37.166 4 41.499 16s5.83301 43.333 4.5 94c-0.666992 34.667 -1 63.667 -1 87c0 60.667 11 102 33 124c-22 22 -33 63.333 -33 124z" />
    <glyph glyph-name="asciitilde" unicode="~" horiz-adv-x="441" 
d="M310 740c-20 0 -43.667 7.66797 -71 23.001c-3.33301 1.33301 -8.33301 3.66602 -15 6.99902c-34.667 16 -56.5 21.667 -65.5 17s-12.833 -17.667 -11.5 -39l-89 -8c-5.33301 16 -8 35 -8 57c0 26 7.16699 46.833 21.5 62.5s34.166 23.5 59.499 23.5
c18 0 41.667 -7.66699 71 -23c38 -17.333 61.333 -26 70 -26c16 0 23.333 13.667 22 41l89 8c5.33301 -16 8 -35 8 -57c0 -26 -7.16699 -46.833 -21.5 -62.5s-34.166 -23.5 -59.499 -23.5z" />
    <glyph glyph-name="exclamdown" unicode="&#xa1;" horiz-adv-x="296" 
d="M225 10l-25.998 -1.99902c-4 0 -12.833 -0.666992 -26.5 -2s-24.5 -2.33301 -32.5 -3l-85 -6l-5 517h196c-2.66699 -55.333 -6.33398 -139.333 -11.001 -252c-2 -40.667 -3.83301 -80.834 -5.5 -120.501s-2.83398 -71.5 -3.50098 -95.5zM69.002 640.001
c0 27.333 8.33105 49.166 24.998 65.499s37.334 24.5 62.001 24.5s45.334 -8.16699 62.001 -24.5s25 -38.166 25 -65.499c0 -28.667 -8.33301 -51 -25 -67s-37.334 -24 -62.001 -24c-25.333 0 -46.166 8 -62.499 24s-24.5 38.333 -24.5 67z" />
    <glyph glyph-name="cent" unicode="&#xa2;" horiz-adv-x="508" 
d="M429 309l28.9971 -134.001c-20.667 -20.667 -59.667 -34.667 -117 -42v-1c0 -11.333 0.333008 -25.666 1 -42.999s1.33398 -32.333 2.00098 -45l1 -20c0.666992 -0.666992 -4.66602 -1 -15.999 -1h-51h-69l2 39c1.33301 30.667 2 55.334 2 74.001
c-49.333 10 -88.166 33 -116.499 69s-43.833 84.667 -46.5 146c0 62 14.667 111.5 44 148.5s69.333 60.833 120 71.5c-1.33301 10.667 -2.83301 24.834 -4.5 42.501l-4 42c-1 10.333 -1.83301 15.5 -2.5 15.5h1c1.33301 0 3.16602 0.166992 5.49902 0.5s5 0.5 8 0.5
s6.5 0.166992 10.5 0.5l12.5 1c4.33301 0.333008 9 0.666016 14 0.999023s9.83301 0.833008 14.5 1.5c4 0 14 0.5 30 1.5l39 2.5v-39c0 -8 0.166992 -19.833 0.5 -35.5s0.5 -26.834 0.5 -33.501c50.667 -6.66699 89.334 -20 116.001 -40l-27 -136
c-15.333 8 -37.333 16.5 -66 25.5s-54.667 13.5 -78 13.5c-53.333 0 -80 -27.333 -80 -82c0 -55.333 26.667 -83 80 -83c42 0 90.333 13 145 39zM337.997 571.999h1v-1z" />
    <glyph glyph-name="sterling" unicode="&#xa3;" horiz-adv-x="557" 
d="M104 -12l-49.0039 135.003c30.667 38 50 66.667 58 86s13 42.666 15 69.999v1l-75 -9l-3 137l56 -7c-10.667 41.333 -16 78.666 -16 111.999c0 63.333 21.833 113.166 65.5 149.499s98.834 54.5 165.501 54.5c98.667 0 160.667 -61.333 186 -184l-151 -30
c-5.33301 54 -22.333 81 -51 81c-16.667 0 -30.167 -6.16699 -40.5 -18.5s-15.5 -27.5 -15.5 -45.5c0 -19.333 7.66699 -59 23 -119l122 6l-3 -132l-99 6c-3.33301 -44 -10.666 -81 -21.999 -111c0.666992 0.666992 4.33398 1 11.001 1c13.333 0 32 -4 56 -12
c29.333 -7.33301 49.333 -11 60 -11c11.333 0 24.333 1.66699 39 5l23 9l36 -162c-42 -8 -73.333 -12 -94 -12c-27.333 0 -54.666 5.33301 -81.999 16l-75 23c-5.33301 2.66699 -16 4 -32 4c-33.333 0 -69.333 -14.333 -108 -43z" />
    <glyph glyph-name="yen" unicode="&#xa5;" horiz-adv-x="631" 
d="M170 260l-0.00195312 61.999h69l-63 88l-88 122.5c-25.333 35.667 -37.666 53.834 -36.999 54.501c0 2.66699 31 16 93 40l91 38l98 -253l75 251l173 -57l-156 -280l64 2v-68h-78l1 -30l77 1v-68h-73l4 -92h-185c2.66699 43.333 4.33398 74 5.00098 92h-70v62l74 2l2 33
h-76z" />
    <glyph glyph-name="brokenbar" unicode="&#xa6;" horiz-adv-x="266" 
d="M216 -150h-165.999l3 126c1.33301 28 2.66602 75 3.99902 141s2.33301 113.333 3 142h153zM69.001 630l3 116.999c-0.666992 0 5 0.666992 17 2l52 6l70 9l2 -400h-150c0.666992 30.667 1.5 76.334 2.5 137.001s2.16699 103.667 3.5 129z" />
    <glyph glyph-name="section" unicode="&#xa7;" horiz-adv-x="471" 
d="M328 493l15.002 -12.002c52 -32.667 78 -78.667 78 -138c0 -45.333 -10.667 -80.666 -32 -105.999c16.667 -25.333 25 -54.666 25 -87.999c0 -57.333 -16.667 -99.166 -50 -125.499s-73 -38.5 -119 -36.5c-45.333 1.33301 -81.333 11.333 -108 30
c-31.333 20.667 -57.666 51 -78.999 91l-8 15l101 61c28.667 -41.333 60 -62 94 -62c22.667 0 34.667 6.33301 36 19c1.33301 11.333 -4 20.333 -16 27c-6.66699 4 -18.334 8.66699 -35.001 14l-9 2c-30.667 4.66699 -56.334 13.667 -77.001 27l-14 9
c-52 30.667 -78 77.667 -78 141c0 46 10.333 81.333 31 106c-16 24.667 -24 54 -24 88c0 57.333 16 99 48 125s70.667 39 116 39c47.333 0 85 -10.667 113 -32c24 -14.667 47 -39.334 69 -74.001l-82 -96c-6 11.333 -17.833 25 -35.5 41s-36.834 24 -57.501 24
c-14 0 -23.167 -1.5 -27.5 -4.5s-6.83301 -7.83301 -7.5 -14.5c0 -12.667 4.66699 -21.667 14 -27c2.66699 -2 8 -4.16699 16 -6.5s14.333 -4.5 19 -6.5c0 -0.666992 0.333008 -1 1 -1h1c0 -0.666992 0.666992 -1 2 -1c32 -4 58.667 -13.333 80 -28zM238.002 375.998
c-14.667 4 -25.667 7.33203 -33 9.99902c-10 -2 -15.667 -7.66699 -17 -17c-2.66699 -11.333 1.66602 -20.666 12.999 -27.999c0.666992 -0.666992 12.334 -4.66699 35.001 -12l32 -11c13.333 2 20 7.66699 20 17c1.33301 12.667 -3.66699 22 -15 28
c-8 4.66699 -19.667 9 -35 13z" />
    <glyph glyph-name="dieresis" unicode="&#xa8;" horiz-adv-x="415" 
d="M160 815c0 -21.333 -6.33301 -38.166 -19 -50.499s-29 -18.5 -49 -18.5c-18.667 0 -34.5 6.16699 -47.5 18.5s-19.5 29.166 -19.5 50.499c0 22.667 6.5 40.334 19.5 53.001s28.833 19 47.5 19c20 0 36.333 -6.33301 49 -19s19 -30.334 19 -53.001zM390 815
c0 -21.333 -6.33301 -38.166 -19 -50.499s-29 -18.5 -49 -18.5c-18.667 0 -34.5 6.16699 -47.5 18.5s-19.5 29.166 -19.5 50.499c0 22.667 6.5 40.334 19.5 53.001s28.833 19 47.5 19c20 0 36.333 -6.33301 49 -19s19 -30.334 19 -53.001z" />
    <glyph glyph-name="copyright" unicode="&#xa9;" horiz-adv-x="677" 
d="M627 399c0 -95.333 -27.167 -170 -81.5 -224s-122.833 -81 -205.5 -81c-82 0 -150.833 27.167 -206.5 81.5s-83.5 128.833 -83.5 223.5s27.833 169 83.5 223s124.5 81 206.5 81s150.333 -27 205 -81s82 -128.333 82 -223zM346 555c-41.333 0 -74.5 -13 -99.5 -39
s-37.5 -63.333 -37.5 -112c2 -48.667 15.167 -85.667 39.5 -111s56.833 -38 97.5 -38c54 0 91.333 10.333 112 31l-17 89c-30 -17.333 -59.667 -26 -89 -26c-32.667 0 -49 18.667 -49 56c0 36.667 16.333 55 49 55c28 0 57.333 -8.66699 88 -26l17 91
c-26.667 20 -63.667 30 -111 30z" />
    <glyph glyph-name="ordfeminine" unicode="&#xaa;" horiz-adv-x="422" 
d="M50 535c0 42 13.332 77.667 39.999 107s58.667 44 96 44c30.667 0 58.334 -10.667 83.001 -32h4c0 4 0.166992 8.83301 0.5 14.5s0.5 9.5 0.5 11.5c0 6.66699 0.333008 10.334 1 11.001l6 1c4 0 10 0.5 18 1.5s15.667 1.83301 23 2.5l47 5l3 -306h-110v26h-5
c-14 -24 -37.667 -36 -71 -36c-37.333 0 -69.333 14.667 -96 44s-40 64.666 -40 105.999zM150.999 533c0 -15.333 4.83301 -28.333 14.5 -39s21.167 -16 34.5 -16c14 0 26 5.33301 36 16s15 23.667 15 39c0 16 -5 29.5 -15 40.5s-22 16.5 -36 16.5
c-13.333 0 -24.833 -5.5 -34.5 -16.5s-14.5 -24.5 -14.5 -40.5z" />
    <glyph glyph-name="guillemotleft" unicode="&#xab;" horiz-adv-x="552" 
d="M50 253l146 206l89 -78l-93 -128l93 -126l-89 -78zM267 253l146 206l89 -78l-93 -128l93 -126l-89 -78z" />
    <glyph glyph-name="logicalnot" unicode="&#xac;" horiz-adv-x="427" 
d="M25 345v102l377 11v-164h-135l-3 51h-239z" />
    <glyph glyph-name="uni00AD" unicode="&#xad;" horiz-adv-x="427" 
d="M25 345v102l377 11v-113h-377z" />
    <glyph glyph-name="registered" unicode="&#xae;" horiz-adv-x="677" 
d="M627 399c0 -95.333 -27.167 -170 -81.5 -224s-122.833 -81 -205.5 -81c-82 0 -150.833 27.167 -206.5 81.5s-83.5 128.833 -83.5 223.5s27.833 169 83.5 223s124.5 81 206.5 81s150.333 -27 205 -81s82 -128.333 82 -223zM317 417l-0.000976562 83.999
c10 4.66699 21.333 7 34 7c23.333 0 35 -11.667 35 -35s-11.667 -39.666 -35 -48.999c-11.333 -4 -22.666 -6.33301 -33.999 -7zM238.999 561.999l-1 -26.999c0 -18 -0.333008 -40.5 -1 -67.5l-2 -82.5c-0.666992 -28 -1.16699 -53.833 -1.5 -77.5s-0.5 -39.5 -0.5 -47.5h89
c0 4 -0.166992 17.167 -0.5 39.5s-0.5 36.166 -0.5 41.499c5.33301 -5.33301 11.333 -11.666 18 -18.999l23 -24.5l20 -20.5c16 -16 27.667 -28.333 35 -37l11 12l25 25l37 37l-83 52c46 26 69 62 69 108c0 77.333 -38.667 116 -116 116c-14 0 -27.667 -1 -41 -3
s-24.5 -4.33301 -33.5 -7s-17 -5.33398 -24 -8.00098s-12.5 -5 -16.5 -7z" />
    <glyph glyph-name="macron" unicode="&#xaf;" horiz-adv-x="643" 
d="M91 750v101l472 10v-111h-472z" />
    <glyph glyph-name="degree" unicode="&#xb0;" horiz-adv-x="384" 
d="M334 572c0 -44.667 -13.5 -79.5 -40.5 -104.5s-60.833 -37.5 -101.5 -37.5c-40 0 -73.667 12.5 -101 37.5s-41 59.833 -41 104.5c0 44 13.667 78.833 41 104.5s61 38.5 101 38.5c40.667 0 74.5 -12.667 101.5 -38s40.5 -60.333 40.5 -105zM143 575
c0 -16 4.66699 -29.667 14 -41s20.666 -17 33.999 -17s24.666 5.66699 33.999 17s14 25 14 41c0 16.667 -4.66699 30.5 -14 41.5s-20.666 16.5 -33.999 16.5s-24.666 -5.5 -33.999 -16.5s-14 -24.833 -14 -41.5z" />
    <glyph glyph-name="plusminus" unicode="&#xb1;" horiz-adv-x="522" 
d="M50 -5v101l422 10v-111h-422zM65 345v102l135 4l-4 130h113v-127l133 4v-113h-133v-131h-102l-4 131h-138z" />
    <glyph glyph-name="twosuperior" unicode="&#xb2;" horiz-adv-x="353" 
d="M50 679c12.667 24 32.501 41.502 59.501 52.502s53.5 14.5 79.5 10.5s48.167 -18.833 66.5 -44.5s26.166 -59.5 23.499 -101.5c-4.66699 -52.667 -29 -93.334 -73 -122.001c1.33301 1.33301 18 4 50 8l47 6v-93h-241l-5 78c20.667 6 39.667 14.667 57 26
s31.333 23.666 42 36.999s18.834 26.833 24.501 40.5s8 26 7 37s-5.16699 19.5 -12.5 25.5c-11.333 8.66699 -24 8.5 -38 -0.5s-25 -19.5 -33 -31.5s-12 -19.333 -12 -22l-10 23l-21 48c-6.66699 16 -10.334 23.667 -11.001 23z" />
    <glyph glyph-name="threesuperior" unicode="&#xb3;" horiz-adv-x="354" 
d="M199 502c0 16.667 -11.333 25 -34 25c-1.33301 0 -9 -1 -23 -3l-10 -3v94l10 -2c9.33301 -1.33301 17 -2 23 -2c22.667 0 34 8.33301 34 25c0 16 -8 24 -24 24c-12 0 -25.833 -4.5 -41.5 -13.5s-29.167 -20.5 -40.5 -34.5l-43 85
c3.33301 3.33301 9.66602 8.33301 18.999 15s25.333 14.334 48 23.001s45.334 13 68.001 13c38 0 67.333 -9.66699 88 -29s31 -42 31 -68c0 -32.667 -15 -60.334 -45 -83.001c30 -21.333 45 -48.333 45 -81c0 -26 -10.333 -48.667 -31 -68s-50 -29 -88 -29
c-22.667 0 -45 3.83301 -67 11.5s-38.333 15.167 -49 22.5s-17 12.333 -19 15l43 86c11.333 -13.333 24.833 -24.5 40.5 -33.5s29.5 -13.5 41.5 -13.5c16 0 24 8 24 24z" />
    <glyph glyph-name="acute" unicode="&#xb4;" horiz-adv-x="326" 
d="M301 853l-248 -104l-28 66l219 142z" />
    <glyph glyph-name="paragraph" unicode="&#xb6;" horiz-adv-x="581" 
d="M25 459c0 50.667 9.33301 93.165 28 127.498s44.834 60 78.501 77s68.334 28.833 104.001 35.5s76.5 10 122.5 10c47.333 0 106.333 -3.33301 177 -10l-6 -856l-29 -4c-8 -1.33301 -30.333 -4 -67 -8l-12 744l-53 -3l-18 -751c-45.333 -4.66699 -73.666 -7 -84.999 -7
c-6 0 -9 0.333008 -9 1c0 2.66699 0.5 29.5 1.5 80.5s2 106 3 165s1.5 99.167 1.5 120.5c-14 0 -25.667 0.166992 -35 0.5s-23 2.33301 -41 6s-33.333 8.83398 -46 15.501s-26.834 16.834 -42.501 30.501s-28.334 30 -38.001 49s-17.834 43.667 -24.501 74
s-10 64.5 -10 102.5z" />
    <glyph glyph-name="periodcentered" unicode="&#xb7;" horiz-adv-x="329" 
d="M279 289c0 -35.333 -10.833 -62.833 -32.5 -82.5s-49.167 -29.5 -82.5 -29.5c-32 0 -59 9.83301 -81 29.5s-33 47.167 -33 82.5s11 62.833 33 82.5s49 29.5 81 29.5c33.333 0 60.833 -9.83301 82.5 -29.5s32.5 -47.167 32.5 -82.5z" />
    <glyph glyph-name="cedilla" unicode="&#xb8;" horiz-adv-x="251" 
d="M55 14l84.001 3l-4 -52c36 -2.66699 62 -14.667 78 -36c8 -10 12.333 -20.667 13 -32c0 -43.333 -31 -74.333 -93 -93c-26 -8 -57 -12.667 -93 -14l-15 72c17.333 0.666992 33.666 2.66699 48.999 6c33.333 6.66699 50 16 50 28c0 17.333 -21.667 26 -65 26z" />
    <glyph glyph-name="onesuperior" unicode="&#xb9;" horiz-adv-x="316" 
d="M52 737l14 1.00391c10 1.33301 24.167 2.66602 42.5 3.99902s34.833 2.66602 49.5 3.99902l107 9l-2 -360h-122c0 19.333 1.33301 65.166 4 137.499s5 110.166 7 113.499c-2 -1.33301 -11.5 -3.66602 -28.5 -6.99902s-33.333 -6.33301 -49 -9
s-23.5 -4.33398 -23.5 -5.00098z" />
    <glyph glyph-name="ordmasculine" unicode="&#xba;" horiz-adv-x="417" 
d="M50 524c0 47.333 15.667 87.833 47 121.5s68.666 50.5 111.999 50.5s80.5 -16.833 111.5 -50.5s46.5 -74.167 46.5 -121.5s-15.5 -87.666 -46.5 -120.999s-68.167 -50 -111.5 -50s-80.666 16.667 -111.999 50s-47 73.666 -47 120.999zM155 521
c0 -17.333 5.5 -32.166 16.5 -44.499s24.5 -18.5 40.5 -18.5c16.667 0 30.667 6.16699 42 18.5s17 27.166 17 44.499c0 18.667 -5.66699 34.167 -17 46.5s-25.333 18.5 -42 18.5c-16 0 -29.5 -6.16699 -40.5 -18.5s-16.5 -27.833 -16.5 -46.5z" />
    <glyph glyph-name="guillemotright" unicode="&#xbb;" horiz-adv-x="552" 
d="M356 459l146 -206l-146 -204l-89 78l93 126l-93 128zM139 459l146 -206l-146 -204l-89 78l93 126l-93 128z" />
    <glyph glyph-name="onequarter" unicode="&#xbc;" horiz-adv-x="669" 
d="M52 685l10.001 1c6.66699 0.666992 17.5 1.83398 32.5 3.50098s27.5 2.83398 37.5 3.50098l80 8l-1 -306h-92c0 21.333 0.833008 61.333 2.5 120s3.5 89.667 5.5 93c-1.33301 -0.666992 -8.33301 -2.33398 -21 -5.00098l-37 -8c-12 -2.66699 -18 -4.33398 -18 -5.00098
v44c1.33301 33.333 1.66602 50.333 0.999023 51zM379.001 700h144l-248 -700h-137zM400.001 95c2 2 17.665 71.3359 46.998 208.003l79 -29l-10 -35.5c-5.33301 -19 -10 -36.5 -14 -52.5l-7 -24h7c1.33301 0 3.5 0.166992 6.5 0.5s5.5 0.5 7.5 0.5h20l1 132l82 10v-305h-88
c0 13.333 0.666992 32.666 2 57.999c0.666992 7.33301 1 18.666 1 33.999c-31.333 0 -53.666 0.333008 -66.999 1c-13.333 -0.666992 -28.666 -0.333984 -45.999 0.999023c-4.66699 0.666992 -11.667 1 -21 1z" />
    <glyph glyph-name="onehalf" unicode="&#xbd;" horiz-adv-x="669" 
d="M52 685l10.001 1c6.66699 0.666992 17.5 1.83398 32.5 3.50098s27.5 2.83398 37.5 3.50098l80 8l-1 -306h-92c0 21.333 0.833008 61.333 2.5 120s3.5 89.667 5.5 93c-1.33301 -0.666992 -8.33301 -2.33398 -21 -5.00098l-37 -8c-12 -2.66699 -18 -4.33398 -18 -5.00098
v44c1.33301 33.333 1.66602 50.333 0.999023 51zM379.001 700h144l-248 -700h-137zM413.001 250c10.667 21.333 27.833 36.834 51.5 46.501s47 12.5 70 8.5s42.667 -17.167 59 -39.5s23.166 -51.833 20.499 -88.5c-0.666992 -8.66699 -1.83398 -16.834 -3.50098 -24.501
s-4 -14.667 -7 -21s-6 -12.333 -9 -18s-6.33301 -10.5 -10 -14.5s-7.33398 -7.66699 -11.001 -11s-7 -6.16602 -10 -8.49902l-8 -6c-2.33301 -1.66699 -4.16602 -2.83398 -5.49902 -3.50098h-1c2 0 17 2 45 6l42 6v-82h-214l-4 68c18 5.33301 34.833 13 50.5 23
s28.167 21 37.5 33s16.5 24 21.5 36s7 22.833 6 32.5s-4.83301 17.167 -11.5 22.5c-9.33301 7.33301 -20.166 7 -32.499 -1s-22.166 -17.333 -29.499 -28s-11 -17 -11 -19l-9 21l-18 42c-6 14 -9 20.667 -9 20z" />
    <glyph glyph-name="threequarters" unicode="&#xbe;" horiz-adv-x="669" 
d="M379 700h144l-248 -700h-137zM400 95c2 2 17.665 71.3359 46.998 208.003l79 -29l-10 -35.5c-5.33301 -19 -10 -36.5 -14 -52.5l-7 -24h7c1.33301 0 3.5 0.166992 6.5 0.5s5.5 0.5 7.5 0.5h20l1 132l82 10v-305h-88c0 13.333 0.666992 32.666 2 57.999
c0.666992 7.33301 1 18.666 1 33.999c-31.333 0 -53.666 0.333008 -66.999 1c-13.333 -0.666992 -28.666 -0.333984 -45.999 0.999023c-4.66699 0.666992 -11.667 1 -21 1zM168.998 493.003c0 14 -9.66895 20.998 -29.002 20.998c-4 0 -10.667 -0.666992 -20 -2l-8 -2v81
l8 -2c9.33301 -1.33301 16 -2 20 -2c19.333 0 29 7.33301 29 22c-0.666992 14 -8 21 -22 21c-9.33301 0 -20.666 -4 -33.999 -12s-24.666 -17.667 -33.999 -29l-37 74l6 4c3.33301 2.66699 7.16602 5.5 11.499 8.5s10.166 6.33301 17.499 10s14.666 7 21.999 10
s16.166 5.5 26.499 7.5s20.5 3 30.5 3c32 0 56.5 -8.16699 73.5 -24.5s25.5 -36.166 25.5 -59.499c0 -29.333 -12 -53.333 -36 -72c24 -17.333 36 -41 36 -71c0 -23.333 -8.5 -43.166 -25.5 -59.499s-41.5 -24.5 -73.5 -24.5c-10 0 -20.167 1 -30.5 3
s-19.166 4.5 -26.499 7.5s-14.666 6.33301 -21.999 10s-13.166 7 -17.499 10s-8.16602 5.83301 -11.499 8.5l-6 4l37 75c9.33301 -12 20.5 -21.833 33.5 -29.5s24.5 -11.5 34.5 -11.5c14 0 21.333 7 22 21z" />
    <glyph glyph-name="questiondown" unicode="&#xbf;" horiz-adv-x="390" 
d="M388 82l-23 -18.9971c-53.333 -38.667 -106 -58.334 -158 -59.001s-95 18.666 -129 57.999s-51 93.666 -51 162.999c0 23.333 2.66699 45.666 8 66.999s12.5 40.333 21.5 57s19.5 32.5 31.5 47.5s24.5 28 37.5 39s26 21.167 39 30.5s25.333 17 37 23s22.167 11 31.5 15
l21 9l8 3l8 -30l18 -60l9 -29l-11 -7c-8 -5.33301 -17.667 -12.5 -29 -21.5s-21.833 -19.667 -31.5 -32s-16.667 -25.666 -21 -39.999s-3.5 -29.833 2.5 -46.5c14 -34.667 40.333 -42.667 79 -24c16.667 6.66699 35 19 55 37zM147 636.003
c0 27.333 8.33105 49.166 24.998 65.499s37.334 24.5 62.001 24.5s45.334 -8.16699 62.001 -24.5s25 -38.166 25 -65.499c0 -28.667 -8.33301 -51 -25 -67s-37.334 -24 -62.001 -24c-25.333 0 -46.166 8 -62.499 24s-24.5 38.333 -24.5 67z" />
    <glyph glyph-name="Agrave" unicode="&#xc0;" horiz-adv-x="643" 
d="M346 749l-248 104l57 104l219 -142zM452 708l8.99902 -38.0039l23.5 -100.5l32 -135l35 -147.5l32 -134.5c9.66699 -40.333 17.834 -73.166 24.501 -98.499l9 -38l-31 -5l-70 -11l-102 -16c-4 16.667 -9 41.334 -15 74.001
c-9.33301 48.667 -13.666 73.334 -12.999 74.001c0.666992 0 -5 -0.666992 -17 -2l-54 -4l-72 -6l-28 -136l-190 39l93 328c61.333 219.333 92.666 329 93.999 329l14 2c8.66699 0.666992 20 1.83398 34 3.50098s29.667 3.66699 47 6s34.5 4.5 51.5 6.5l46.5 5.5l34 4
c8.66699 1 13 1.16699 13 0.5zM264.999 296.996l105.001 -7l-20 98c-10.667 48 -19 90.333 -25 127h-2l-32 -123c-8.66699 -35.333 -17.334 -67 -26.001 -95z" />
    <glyph glyph-name="Aacute" unicode="&#xc1;" horiz-adv-x="643" 
d="M554 853l-248 -104l-28 66l219 142zM452 708l8.99902 -38.0039l23.5 -100.5l32 -135l35 -147.5l32 -134.5c9.66699 -40.333 17.834 -73.166 24.501 -98.499l9 -38l-31 -5l-70 -11l-102 -16c-4 16.667 -9 41.334 -15 74.001
c-9.33301 48.667 -13.666 73.334 -12.999 74.001c0.666992 0 -5 -0.666992 -17 -2l-54 -4l-72 -6l-28 -136l-190 39l93 328c61.333 219.333 92.666 329 93.999 329l14 2c8.66699 0.666992 20 1.83398 34 3.50098s29.667 3.66699 47 6s34.5 4.5 51.5 6.5l46.5 5.5l34 4
c8.66699 1 13 1.16699 13 0.5zM264.999 296.996l105.001 -7l-20 98c-10.667 48 -19 90.333 -25 127h-2l-32 -123c-8.66699 -35.333 -17.334 -67 -26.001 -95z" />
    <glyph glyph-name="Acircumflex" unicode="&#xc2;" horiz-adv-x="643" 
d="M344 955l182 -128l-68 -76l-114 96l-123 -96l-59 76zM452 708l8.99902 -38.0039l23.5 -100.5l32 -135l35 -147.5l32 -134.5c9.66699 -40.333 17.834 -73.166 24.501 -98.499l9 -38l-31 -5l-70 -11l-102 -16c-4 16.667 -9 41.334 -15 74.001
c-9.33301 48.667 -13.666 73.334 -12.999 74.001c0.666992 0 -5 -0.666992 -17 -2l-54 -4l-72 -6l-28 -136l-190 39l93 328c61.333 219.333 92.666 329 93.999 329l14 2c8.66699 0.666992 20 1.83398 34 3.50098s29.667 3.66699 47 6s34.5 4.5 51.5 6.5l46.5 5.5l34 4
c8.66699 1 13 1.16699 13 0.5zM264.999 296.996l105.001 -7l-20 98c-10.667 48 -19 90.333 -25 127h-2l-32 -123c-8.66699 -35.333 -17.334 -67 -26.001 -95z" />
    <glyph glyph-name="Atilde" unicode="&#xc3;" horiz-adv-x="643" 
d="M410 740c-20 0 -43.667 7.66797 -71 23.001c-3.33301 1.33301 -8.33301 3.66602 -15 6.99902c-34.667 16 -56.5 21.667 -65.5 17s-12.833 -17.667 -11.5 -39l-89 -8c-5.33301 16 -8 35 -8 57c0 26 7.16699 46.833 21.5 62.5s34.166 23.5 59.499 23.5
c18 0 41.667 -7.66699 71 -23c38 -17.333 61.333 -26 70 -26c16 0 23.333 13.667 22 41l89 8c5.33301 -16 8 -35 8 -57c0 -26 -7.16699 -46.833 -21.5 -62.5s-34.166 -23.5 -59.499 -23.5zM452 708.001l8.99902 -38.0039l23.5 -100.5l32 -135l35 -147.5l32 -134.5
c9.66699 -40.333 17.834 -73.166 24.501 -98.499l9 -38l-31 -5l-70 -11l-102 -16c-4 16.667 -9 41.334 -15 74.001c-9.33301 48.667 -13.666 73.334 -12.999 74.001c0.666992 0 -5 -0.666992 -17 -2l-54 -4l-72 -6l-28 -136l-190 39l93 328
c61.333 219.333 92.666 329 93.999 329l14 2c8.66699 0.666992 20 1.83398 34 3.50098s29.667 3.66699 47 6s34.5 4.5 51.5 6.5l46.5 5.5l34 4c8.66699 1 13 1.16699 13 0.5zM264.999 296.997l105.001 -7l-20 98c-10.667 48 -19 90.333 -25 127h-2l-32 -123
c-8.66699 -35.333 -17.334 -67 -26.001 -95z" />
    <glyph glyph-name="Adieresis" unicode="&#xc4;" horiz-adv-x="643" 
d="M281 815c0 -21.333 -6.33301 -38.166 -19 -50.499s-29 -18.5 -49 -18.5c-18.667 0 -34.5 6.16699 -47.5 18.5s-19.5 29.166 -19.5 50.499c0 22.667 6.5 40.334 19.5 53.001s28.833 19 47.5 19c20 0 36.333 -6.33301 49 -19s19 -30.334 19 -53.001zM511 815
c0 -21.333 -6.33301 -38.166 -19 -50.499s-29 -18.5 -49 -18.5c-18.667 0 -34.5 6.16699 -47.5 18.5s-19.5 29.166 -19.5 50.499c0 22.667 6.5 40.334 19.5 53.001s28.833 19 47.5 19c20 0 36.333 -6.33301 49 -19s19 -30.334 19 -53.001zM452 708l8.99902 -38.0039
l23.5 -100.5l32 -135l35 -147.5l32 -134.5c9.66699 -40.333 17.834 -73.166 24.501 -98.499l9 -38l-31 -5l-70 -11l-102 -16c-4 16.667 -9 41.334 -15 74.001c-9.33301 48.667 -13.666 73.334 -12.999 74.001c0.666992 0 -5 -0.666992 -17 -2l-54 -4l-72 -6l-28 -136
l-190 39l93 328c61.333 219.333 92.666 329 93.999 329l14 2c8.66699 0.666992 20 1.83398 34 3.50098s29.667 3.66699 47 6s34.5 4.5 51.5 6.5l46.5 5.5l34 4c8.66699 1 13 1.16699 13 0.5zM264.999 296.996l105.001 -7l-20 98c-10.667 48 -19 90.333 -25 127h-2l-32 -123
c-8.66699 -35.333 -17.334 -67 -26.001 -95z" />
    <glyph glyph-name="Aring" unicode="&#xc5;" horiz-adv-x="643" 
d="M434 847c0 -29.333 -11 -52.666 -33 -69.999s-49.333 -26 -82 -26s-60.167 8.66699 -82.5 26s-33.5 40.666 -33.5 69.999s11.167 52.666 33.5 69.999s49.833 26 82.5 26s60 -8.66699 82 -26s33 -40.666 33 -69.999zM279 849c0 -11.333 3.66699 -20.666 11 -27.999
s16.666 -11 27.999 -11s20.666 3.66699 27.999 11s11 16.666 11 27.999s-3.66699 20.666 -11 27.999s-16.666 11 -27.999 11s-20.666 -3.66699 -27.999 -11s-11 -16.666 -11 -27.999zM452 708l8.99902 -38.0039l23.5 -100.5l32 -135l35 -147.5l32 -134.5
c9.66699 -40.333 17.834 -73.166 24.501 -98.499l9 -38l-31 -5l-70 -11l-102 -16c-4 16.667 -9 41.334 -15 74.001c-9.33301 48.667 -13.666 73.334 -12.999 74.001c0.666992 0 -5 -0.666992 -17 -2l-54 -4l-72 -6l-28 -136l-190 39l93 328
c61.333 219.333 92.666 329 93.999 329l14 2c8.66699 0.666992 20 1.83398 34 3.50098s29.667 3.66699 47 6s34.5 4.5 51.5 6.5l46.5 5.5l34 4c8.66699 1 13 1.16699 13 0.5zM264.999 296.996l105.001 -7l-20 98c-10.667 48 -19 90.333 -25 127h-2l-32 -123
c-8.66699 -35.333 -17.334 -67 -26.001 -95z" />
    <glyph glyph-name="AE" unicode="&#xc6;" horiz-adv-x="805" 
d="M770 12l-366.003 -15l-14 69c-9.33301 45.333 -13.666 68.333 -12.999 69l-9 -1c-6 0 -15 -0.5 -27 -1.5s-23 -1.83301 -33 -2.5c-15.333 -2 -38.666 -3.66699 -69.999 -5l-28 -128l-185 36l81 294c55.333 198 88 313.333 98 346l575 28
c-3.33301 -29.333 -6.66602 -66.5 -9.99902 -111.5s-6 -77.5 -8 -97.5l-259 14l29 -131l148 19l-2 -151l-124 2l15 -82l212 31zM258.997 292l102 -7l-20 92c-11.333 48.667 -19.333 88.334 -24 119.001h-2c-2 -10.667 -12.333 -49.334 -31 -116.001z" />
    <glyph glyph-name="Ccedilla" unicode="&#xc7;" horiz-adv-x="582" 
d="M316 709c18.667 0 36.6709 -0.831055 54.0039 -2.49805s32.666 -3.83398 45.999 -6.50098s26.166 -5.83398 38.499 -9.50098s23.166 -7.66699 32.499 -12s17.833 -8.5 25.5 -12.5s14.167 -7.83301 19.5 -11.5l13.5 -9.5c3.66699 -2.66699 6.5 -5 8.5 -7l2 -2l-8 -50
l-16.5 -101.5c-5.66699 -33.667 -8.16699 -50.167 -7.5 -49.5l-36 21c-90.667 44 -161.334 55.333 -212.001 34c-45.333 -20 -68 -67 -68 -141v-2c0 -38.667 5.83301 -70 17.5 -94s27 -40 46 -48s39.667 -12.167 62 -12.5s44.833 3.33398 67.5 11.001
s43.167 15.334 61.5 23.001s33.333 14.834 45 21.501s17.167 10 16.5 10l16 -100l16 -101l-2 -3l-8 -5.5c-3.33301 -2.33301 -7.33301 -5.33301 -12 -9s-10.334 -7.33398 -17.001 -11.001s-14.167 -7.5 -22.5 -11.5s-18 -7.83301 -29 -11.5s-22.667 -6.83398 -35 -9.50098
s-26.166 -5 -41.499 -7s-31.333 -3.33301 -48 -4l-1 -20c36 -2.66699 62 -14.667 78 -36c8 -10 12.333 -20.667 13 -32c0 -43.333 -31 -74.333 -93 -93c-26 -8 -57 -12.667 -93 -14l-15 72c17.333 0.666992 33.666 2.66699 48.999 6c33.333 6.66699 50 16 50 28
c0 17.333 -21.667 26 -65 26l-3 67c-70.667 12.667 -127 49.167 -169 109.5s-64.333 142.166 -67 245.499c4 118.667 31.833 209.167 83.5 271.5s120.834 93.5 207.501 93.5z" />
    <glyph glyph-name="Egrave" unicode="&#xc8;" horiz-adv-x="496" 
d="M286 749l-248 104l57 104l219 -142zM461 0l-436.001 0.00195312l11 333c0.666992 12.667 1.83398 47.667 3.50098 105s3.16699 98.666 4.5 123.999l3 104l328 27c38.667 3.33301 70.667 5.66602 96 6.99902c-6.66699 -66 -13 -137.667 -19 -215l-225 14l1 -132l140 19
l-2 -153l-137 3v-87l242 36z" />
    <glyph glyph-name="Eacute" unicode="&#xc9;" horiz-adv-x="496" 
d="M474 853l-248 -104l-28 66l219 142zM461 0l-436.001 0.00195312l11 333c0.666992 12.667 1.83398 47.667 3.50098 105s3.16699 98.666 4.5 123.999l3 104l328 27c38.667 3.33301 70.667 5.66602 96 6.99902c-6.66699 -66 -13 -137.667 -19 -215l-225 14l1 -132l140 19
l-2 -153l-137 3v-87l242 36z" />
    <glyph glyph-name="Ecircumflex" unicode="&#xca;" horiz-adv-x="496" 
d="M254 955l182 -128l-68 -76l-114 96l-123 -96l-59 76zM461 0l-436.001 0.00195312l11 333c0.666992 12.667 1.83398 47.667 3.50098 105s3.16699 98.666 4.5 123.999l3 104l328 27c38.667 3.33301 70.667 5.66602 96 6.99902c-6.66699 -66 -13 -137.667 -19 -215l-225 14
l1 -132l140 19l-2 -153l-137 3v-87l242 36z" />
    <glyph glyph-name="Edieresis" unicode="&#xcb;" horiz-adv-x="496" 
d="M461 0l-436.001 0.00195312l11 333c0.666992 12.667 1.83398 47.667 3.50098 105s3.16699 98.666 4.5 123.999l3 104l328 27c38.667 3.33301 70.667 5.66602 96 6.99902c-6.66699 -66 -13 -137.667 -19 -215l-225 14l1 -132l140 19l-2 -153l-137 3v-87l242 36z
M199.999 818.002c0 -21.333 -6.33301 -38.166 -19 -50.499s-29 -18.5 -49 -18.5c-18.667 0 -34.5 6.16699 -47.5 18.5s-19.5 29.166 -19.5 50.499c0 22.667 6.5 40.334 19.5 53.001s28.833 19 47.5 19c20 0 36.333 -6.33301 49 -19s19 -30.334 19 -53.001zM429.999 818.002
c0 -21.333 -6.33301 -38.166 -19 -50.499s-29 -18.5 -49 -18.5c-18.667 0 -34.5 6.16699 -47.5 18.5s-19.5 29.166 -19.5 50.499c0 22.667 6.5 40.334 19.5 53.001s28.833 19 47.5 19c20 0 36.333 -6.33301 49 -19s19 -30.334 19 -53.001z" />
    <glyph glyph-name="Igrave" unicode="&#xcc;" horiz-adv-x="256" 
d="M186 749l-248 104l57 104l219 -142zM44 576l3 107.001c4 0 13.333 0.666992 28 2c17.333 0.666992 37.666 2.66699 60.999 6l90 9l5 -700h-206l11 341c0.666992 15.333 1.83398 52.166 3.50098 110.499s3.16699 99.833 4.5 124.5z" />
    <glyph glyph-name="Iacute" unicode="&#xcd;" horiz-adv-x="256" 
d="M354 853l-248 -104l-28 66l219 142zM44 576l3 107.001c4 0 13.333 0.666992 28 2c17.333 0.666992 37.666 2.66699 60.999 6l90 9l5 -700h-206l11 341c0.666992 15.333 1.83398 52.166 3.50098 110.499s3.16699 99.833 4.5 124.5z" />
    <glyph glyph-name="Icircumflex" unicode="&#xce;" horiz-adv-x="256" 
d="M144 955l182 -128l-68 -76l-114 96l-123 -96l-59 76zM44 576l3 107.001c4 0 13.333 0.666992 28 2c17.333 0.666992 37.666 2.66699 60.999 6l90 9l5 -700h-206l11 341c0.666992 15.333 1.83398 52.166 3.50098 110.499s3.16699 99.833 4.5 124.5z" />
    <glyph glyph-name="Idieresis" unicode="&#xcf;" horiz-adv-x="256" 
d="M44 576l3 107.001c4 0 13.333 0.666992 28 2c17.333 0.666992 37.666 2.66699 60.999 6l90 9l5 -700h-206l11 341c0.666992 15.333 1.83398 52.166 3.50098 110.499s3.16699 99.833 4.5 124.5zM81 818.001c0 -21.333 -6.33301 -38.166 -19 -50.499s-29 -18.5 -49 -18.5
c-18.667 0 -34.5 6.16699 -47.5 18.5s-19.5 29.166 -19.5 50.499c0 22.667 6.5 40.334 19.5 53.001s28.833 19 47.5 19c20 0 36.333 -6.33301 49 -19s19 -30.334 19 -53.001zM311 818.001c0 -21.333 -6.33301 -38.166 -19 -50.499s-29 -18.5 -49 -18.5
c-18.667 0 -34.5 6.16699 -47.5 18.5s-19.5 29.166 -19.5 50.499c0 22.667 6.5 40.334 19.5 53.001s28.833 19 47.5 19c20 0 36.333 -6.33301 49 -19s19 -30.334 19 -53.001z" />
    <glyph glyph-name="Eth" unicode="&#xd0;" horiz-adv-x="571" 
d="M-41 289l0.00292969 100.996l67 2v296c0.666992 0.666992 6.83398 2.33398 18.501 5.00098s27.5 5.33398 47.5 8.00098s42.667 4.66699 68 6s52.166 0.166016 80.499 -3.50098s56.666 -9.16699 84.999 -16.5s55.333 -19.666 81 -36.999s48.667 -38 69 -62
s36.666 -55.167 48.999 -93.5s19.166 -81.5 20.499 -129.5c2.66699 -176 -82.333 -289 -255 -339c-78.667 -22 -165.667 -29.667 -261 -23c0 36.667 -0.333008 65.334 -1 86.001c-1.33301 70.667 -2 137.334 -2 200.001h-67zM201.003 497.996l3 -101l77 3v-111h-74l2 -71
c47.333 6 83.833 20.333 109.5 43s38.5 57.334 38.5 104.001c0 87.333 -52 131.666 -156 132.999z" />
    <glyph glyph-name="Ntilde" unicode="&#xd1;" horiz-adv-x="588" 
d="M548 0l-180.998 -0.000976562c-12 18.667 -40.333 69.167 -85 151.5l-77 142.5h-1v-294h-179c1.33301 22.667 6.66602 137.334 15.999 344.001s14.666 319.667 15.999 339l151 17l170 -393c-2 38.667 -3.66699 93.667 -5 165c-4 114.667 -6 185 -6 211l196 17
c0 -20 -2.5 -140 -7.5 -360s-7.5 -333.333 -7.5 -340zM383.002 750.999c-20 0 -43.667 7.66797 -71 23.001c-3.33301 1.33301 -8.33301 3.66602 -15 6.99902c-34.667 16 -56.5 21.667 -65.5 17s-12.833 -17.667 -11.5 -39l-89 -8c-5.33301 16 -8 35 -8 57
c0 26 7.16699 46.833 21.5 62.5s34.166 23.5 59.499 23.5c18 0 41.667 -7.66699 71 -23c38 -17.333 61.333 -26 70 -26c16 0 23.333 13.667 22 41l89 8c5.33301 -16 8 -35 8 -57c0 -26 -7.16699 -46.833 -21.5 -62.5s-34.166 -23.5 -59.499 -23.5z" />
    <glyph glyph-name="Ograve" unicode="&#xd2;" horiz-adv-x="689" 
d="M356 749l-248 104l57 104l219 -142zM588 98c-37.333 -46.667 -86.167 -79.334 -146.5 -98.001s-121.5 -19.5 -183.5 -2.5s-113 50.167 -153 99.5c-50.667 64.667 -77.334 150 -80.001 256c2.66699 120 36.334 210.667 101.001 272c38 37.333 85 62.833 141 76.5
s112.667 12.834 170 -2.49902s105 -44 143 -86c56 -65.333 84 -156 84 -272c-2.66699 -102.667 -28 -183.667 -76 -243zM439.999 228c18.667 27.333 28.332 66.665 28.999 117.998c0 57.333 -10.667 101 -32 131c-22 30.667 -51.167 46.334 -87.5 47.001
s-65.166 -12.666 -86.499 -39.999c-25.333 -29.333 -38.333 -73.333 -39 -132c0.666992 -52 11 -93.667 31 -125c24.667 -36.667 56 -54.5 94 -53.5s68.333 19.167 91 54.5z" />
    <glyph glyph-name="Oacute" unicode="&#xd3;" horiz-adv-x="689" 
d="M554 853l-248 -104l-28 66l219 142zM588 98c-37.333 -46.667 -86.167 -79.334 -146.5 -98.001s-121.5 -19.5 -183.5 -2.5s-113 50.167 -153 99.5c-50.667 64.667 -77.334 150 -80.001 256c2.66699 120 36.334 210.667 101.001 272c38 37.333 85 62.833 141 76.5
s112.667 12.834 170 -2.49902s105 -44 143 -86c56 -65.333 84 -156 84 -272c-2.66699 -102.667 -28 -183.667 -76 -243zM439.999 228c18.667 27.333 28.332 66.665 28.999 117.998c0 57.333 -10.667 101 -32 131c-22 30.667 -51.167 46.334 -87.5 47.001
s-65.166 -12.666 -86.499 -39.999c-25.333 -29.333 -38.333 -73.333 -39 -132c0.666992 -52 11 -93.667 31 -125c24.667 -36.667 56 -54.5 94 -53.5s68.333 19.167 91 54.5z" />
    <glyph glyph-name="Ocircumflex" unicode="&#xd4;" horiz-adv-x="689" 
d="M588 98c-37.333 -46.667 -86.167 -79.334 -146.5 -98.001s-121.5 -19.5 -183.5 -2.5s-113 50.167 -153 99.5c-50.667 64.667 -77.334 150 -80.001 256c2.66699 120 36.334 210.667 101.001 272c38 37.333 85 62.833 141 76.5s112.667 12.834 170 -2.49902
s105 -44 143 -86c56 -65.333 84 -156 84 -272c-2.66699 -102.667 -28 -183.667 -76 -243zM439.999 228c18.667 27.333 28.332 66.665 28.999 117.998c0 57.333 -10.667 101 -32 131c-22 30.667 -51.167 46.334 -87.5 47.001s-65.166 -12.666 -86.499 -39.999
c-25.333 -29.333 -38.333 -73.333 -39 -132c0.666992 -52 11 -93.667 31 -125c24.667 -36.667 56 -54.5 94 -53.5s68.333 19.167 91 54.5zM333.997 950.999l182 -128l-68 -76l-114 96l-123 -96l-59 76z" />
    <glyph glyph-name="Otilde" unicode="&#xd5;" horiz-adv-x="689" 
d="M588 98c-37.333 -46.667 -86.167 -79.334 -146.5 -98.001s-121.5 -19.5 -183.5 -2.5s-113 50.167 -153 99.5c-50.667 64.667 -77.334 150 -80.001 256c2.66699 120 36.334 210.667 101.001 272c38 37.333 85 62.833 141 76.5s112.667 12.834 170 -2.49902
s105 -44 143 -86c56 -65.333 84 -156 84 -272c-2.66699 -102.667 -28 -183.667 -76 -243zM439.999 228c18.667 27.333 28.332 66.665 28.999 117.998c0 57.333 -10.667 101 -32 131c-22 30.667 -51.167 46.334 -87.5 47.001s-65.166 -12.666 -86.499 -39.999
c-25.333 -29.333 -38.333 -73.333 -39 -132c0.666992 -52 11 -93.667 31 -125c24.667 -36.667 56 -54.5 94 -53.5s68.333 19.167 91 54.5zM423.997 747.999c-20 0 -43.667 7.66797 -71 23.001c-3.33301 1.33301 -8.33301 3.66602 -15 6.99902
c-34.667 16 -56.5 21.667 -65.5 17s-12.833 -17.667 -11.5 -39l-89 -8c-5.33301 16 -8 35 -8 57c0 26 7.16699 46.833 21.5 62.5s34.166 23.5 59.499 23.5c18 0 41.667 -7.66699 71 -23c38 -17.333 61.333 -26 70 -26c16 0 23.333 13.667 22 41l89 8
c5.33301 -16 8 -35 8 -57c0 -26 -7.16699 -46.833 -21.5 -62.5s-34.166 -23.5 -59.499 -23.5z" />
    <glyph glyph-name="Odieresis" unicode="&#xd6;" horiz-adv-x="689" 
d="M588 98c-37.333 -46.667 -86.167 -79.334 -146.5 -98.001s-121.5 -19.5 -183.5 -2.5s-113 50.167 -153 99.5c-50.667 64.667 -77.334 150 -80.001 256c2.66699 120 36.334 210.667 101.001 272c38 37.333 85 62.833 141 76.5s112.667 12.834 170 -2.49902
s105 -44 143 -86c56 -65.333 84 -156 84 -272c-2.66699 -102.667 -28 -183.667 -76 -243zM439.999 228c18.667 27.333 28.332 66.665 28.999 117.998c0 57.333 -10.667 101 -32 131c-22 30.667 -51.167 46.334 -87.5 47.001s-65.166 -12.666 -86.499 -39.999
c-25.333 -29.333 -38.333 -73.333 -39 -132c0.666992 -52 11 -93.667 31 -125c24.667 -36.667 56 -54.5 94 -53.5s68.333 19.167 91 54.5zM296.997 820.999c0 -21.333 -6.33301 -38.166 -19 -50.499s-29 -18.5 -49 -18.5c-18.667 0 -34.5 6.16699 -47.5 18.5
s-19.5 29.166 -19.5 50.499c0 22.667 6.5 40.334 19.5 53.001s28.833 19 47.5 19c20 0 36.333 -6.33301 49 -19s19 -30.334 19 -53.001zM526.997 820.999c0 -21.333 -6.33301 -38.166 -19 -50.499s-29 -18.5 -49 -18.5c-18.667 0 -34.5 6.16699 -47.5 18.5
s-19.5 29.166 -19.5 50.499c0 22.667 6.5 40.334 19.5 53.001s28.833 19 47.5 19c20 0 36.333 -6.33301 49 -19s19 -30.334 19 -53.001z" />
    <glyph glyph-name="multiply" unicode="&#xd7;" horiz-adv-x="445" 
d="M50 517l73 72l98 -94l90 94l79 -81l-91 -88l96 -93l-81 -79l-93 95l-93 -92l-72 73l91 95z" />
    <glyph glyph-name="Oslash" unicode="&#xd8;" horiz-adv-x="689" 
d="M588 98c-38.667 -49.333 -91.001 -82.833 -157.001 -100.5s-128.667 -16.167 -188 4.5l-53 -122l-94 30l59 138c-20 16 -36.667 32.333 -50 49c-50.667 64.667 -77.334 150 -80.001 256c2.66699 120 36.334 210.667 101.001 272
c36.667 36.667 84.167 61.834 142.5 75.501s114.5 13.167 168.5 -1.5l40 93l103 -20l-50 -115c18.667 -12.667 35.334 -27.334 50.001 -44.001c56 -65.333 84 -156 84 -272c-2.66699 -102.667 -28 -183.667 -76 -243zM439.999 228c18.667 27.333 28.333 66.667 29 118
c0 50 -8 89.333 -24 118l-125 -287c22 -6 44 -4.5 66 4.5s40 24.5 54 46.5zM223.998 352.001c0 -39.333 6.33301 -73.334 19 -102.001l118 274c-39.333 4.66699 -72 -8.66602 -98 -39.999c-25.333 -29.333 -38.333 -73.333 -39 -132z" />
    <glyph glyph-name="Ugrave" unicode="&#xd9;" horiz-adv-x="626" 
d="M326 749l-248 104l57 104l219 -142zM303 -15c-51.333 0 -95.666 9.66602 -132.999 28.999s-65.666 44.5 -84.999 75.5s-34 67.5 -44 109.5s-15.167 83.667 -15.5 125s1.66699 84.166 6 128.499s9.66602 82.333 15.999 114s12.5 60.5 18.5 86.5s9 40 9 42l214 6
c-8 -31.333 -16 -68.833 -24 -112.5s-16.167 -100 -24.5 -169s-6.83301 -126.5 4.5 -172.5s33.666 -69 66.999 -69c20 0 36.333 8.16699 49 24.5s21.167 38.666 25.5 66.999s7 58.333 8 90s-0.333008 66.5 -4 104.5s-7.33398 70.833 -11.001 98.5s-7.66699 55.5 -12 83.5
s-6.83301 44.333 -7.5 49l206 5c3.33301 -16 6.33301 -31.167 9 -45.5s6.5 -39.5 11.5 -75.5s8.5 -69.167 10.5 -99.5s2.66699 -66.666 2 -108.999s-4.16699 -80.166 -10.5 -113.499s-16.5 -67.666 -30.5 -102.999s-31.667 -64.833 -53 -88.5s-49.166 -43 -83.499 -58
s-73.833 -22.5 -118.5 -22.5z" />
    <glyph glyph-name="Uacute" unicode="&#xda;" horiz-adv-x="626" 
d="M534 853l-248 -104l-28 66l219 142zM303 -15c-51.333 0 -95.666 9.66602 -132.999 28.999s-65.666 44.5 -84.999 75.5s-34 67.5 -44 109.5s-15.167 83.667 -15.5 125s1.66699 84.166 6 128.499s9.66602 82.333 15.999 114s12.5 60.5 18.5 86.5s9 40 9 42l214 6
c-8 -31.333 -16 -68.833 -24 -112.5s-16.167 -100 -24.5 -169s-6.83301 -126.5 4.5 -172.5s33.666 -69 66.999 -69c20 0 36.333 8.16699 49 24.5s21.167 38.666 25.5 66.999s7 58.333 8 90s-0.333008 66.5 -4 104.5s-7.33398 70.833 -11.001 98.5s-7.66699 55.5 -12 83.5
s-6.83301 44.333 -7.5 49l206 5c3.33301 -16 6.33301 -31.167 9 -45.5s6.5 -39.5 11.5 -75.5s8.5 -69.167 10.5 -99.5s2.66699 -66.666 2 -108.999s-4.16699 -80.166 -10.5 -113.499s-16.5 -67.666 -30.5 -102.999s-31.667 -64.833 -53 -88.5s-49.166 -43 -83.499 -58
s-73.833 -22.5 -118.5 -22.5z" />
    <glyph glyph-name="Ucircumflex" unicode="&#xdb;" horiz-adv-x="626" 
d="M303 -15c-51.333 0 -95.666 9.66602 -132.999 28.999s-65.666 44.5 -84.999 75.5s-34 67.5 -44 109.5s-15.167 83.667 -15.5 125s1.66699 84.166 6 128.499s9.66602 82.333 15.999 114s12.5 60.5 18.5 86.5s9 40 9 42l214 6c-8 -31.333 -16 -68.833 -24 -112.5
s-16.167 -100 -24.5 -169s-6.83301 -126.5 4.5 -172.5s33.666 -69 66.999 -69c20 0 36.333 8.16699 49 24.5s21.167 38.666 25.5 66.999s7 58.333 8 90s-0.333008 66.5 -4 104.5s-7.33398 70.833 -11.001 98.5s-7.66699 55.5 -12 83.5s-6.83301 44.333 -7.5 49l206 5
c3.33301 -16 6.33301 -31.167 9 -45.5s6.5 -39.5 11.5 -75.5s8.5 -69.167 10.5 -99.5s2.66699 -66.666 2 -108.999s-4.16699 -80.166 -10.5 -113.499s-16.5 -67.666 -30.5 -102.999s-31.667 -64.833 -53 -88.5s-49.166 -43 -83.499 -58s-73.833 -22.5 -118.5 -22.5z
M313 950.999l182 -128l-68 -76l-114 96l-123 -96l-59 76z" />
    <glyph glyph-name="Udieresis" unicode="&#xdc;" horiz-adv-x="626" 
d="M303 -15c-51.333 0 -95.666 9.66602 -132.999 28.999s-65.666 44.5 -84.999 75.5s-34 67.5 -44 109.5s-15.167 83.667 -15.5 125s1.66699 84.166 6 128.499s9.66602 82.333 15.999 114s12.5 60.5 18.5 86.5s9 40 9 42l214 6c-8 -31.333 -16 -68.833 -24 -112.5
s-16.167 -100 -24.5 -169s-6.83301 -126.5 4.5 -172.5s33.666 -69 66.999 -69c20 0 36.333 8.16699 49 24.5s21.167 38.666 25.5 66.999s7 58.333 8 90s-0.333008 66.5 -4 104.5s-7.33398 70.833 -11.001 98.5s-7.66699 55.5 -12 83.5s-6.83301 44.333 -7.5 49l206 5
c3.33301 -16 6.33301 -31.167 9 -45.5s6.5 -39.5 11.5 -75.5s8.5 -69.167 10.5 -99.5s2.66699 -66.666 2 -108.999s-4.16699 -80.166 -10.5 -113.499s-16.5 -67.666 -30.5 -102.999s-31.667 -64.833 -53 -88.5s-49.166 -43 -83.499 -58s-73.833 -22.5 -118.5 -22.5z
M265 817.999c0 -21.333 -6.33301 -38.166 -19 -50.499s-29 -18.5 -49 -18.5c-18.667 0 -34.5 6.16699 -47.5 18.5s-19.5 29.166 -19.5 50.499c0 22.667 6.5 40.334 19.5 53.001s28.833 19 47.5 19c20 0 36.333 -6.33301 49 -19s19 -30.334 19 -53.001zM495 817.999
c0 -21.333 -6.33301 -38.166 -19 -50.499s-29 -18.5 -49 -18.5c-18.667 0 -34.5 6.16699 -47.5 18.5s-19.5 29.166 -19.5 50.499c0 22.667 6.5 40.334 19.5 53.001s28.833 19 47.5 19c20 0 36.333 -6.33301 49 -19s19 -30.334 19 -53.001z" />
    <glyph glyph-name="Yacute" unicode="&#xdd;" horiz-adv-x="687" 
d="M584 853l-248 -104l-28 66l219 142zM26 619c0 1.33301 5.00098 4 15.001 8l45 18.5l51 21.5l110 45l117 -304l90 302l208 -69l-205 -365l12 -276h-222c0 28.667 3 82.667 9 162c1.33301 14 2.66602 35 3.99902 63l3 63l-119 164c-78.667 106 -118 161.667 -118 167z" />
    <glyph glyph-name="Thorn" unicode="&#xde;" horiz-adv-x="581" 
d="M69 576l3 107.001c4 0 13.333 0.666992 28 2c17.333 0.666992 37.666 2.66699 60.999 6l90 9l1 -159c22 10.667 48 16 78 16c54.667 0 101.834 -19.833 141.501 -59.5s59.5 -87.5 59.5 -143.5s-19.833 -104 -59.5 -144s-86.834 -60 -141.501 -60c-30 0 -55 3 -75 9
l1 -159h-206l11 341c0.666992 15.333 1.83398 52.166 3.50098 110.499s3.16699 99.833 4.5 124.5zM275 431.001c-5.33301 0 -12.667 -0.666992 -22 -2l1 -152c3.33301 -1.33301 10.333 -2 21 -2c26 0 48.167 7.5 66.5 22.5s27.5 33.167 27.5 54.5
c0 22.667 -9.16699 41.5 -27.5 56.5s-40.5 22.5 -66.5 22.5z" />
    <glyph glyph-name="germandbls" unicode="&#xdf;" horiz-adv-x="589" 
d="M190 472c0 -11.333 0.167969 -23.168 0.500977 -35.501s0.833008 -28 1.5 -47s1.5 -62.333 2.5 -130s1.83301 -154.167 2.5 -259.5h-173v431c0 29.333 1.5 56 4.5 80s9.16699 48.167 18.5 72.5s21.5 44.666 36.5 60.999s35.167 29.666 60.5 39.999s55.333 15.5 90 15.5
c78 0 141 -18.167 189 -54.5s72 -80.166 72 -131.499c0 -68.667 -23.667 -121.667 -71 -159c-1.33301 -1.33301 -2 -2.33301 -2 -3c0 -5.33301 4.66699 -8 14 -8c93.333 -20.667 140 -74.334 140 -161.001c0 -66.667 -21.167 -115.667 -63.5 -147s-98.833 -47 -169.5 -47
c-30 0 -53.333 1.33301 -70 4c-12.667 1.33301 -22.334 3 -29.001 5l3 137l26 -6c21.333 -4 40 -6 56 -6c39.333 0 62.666 11 69.999 33c0 2 0.166992 3.83301 0.5 5.5s0.5 3.16699 0.5 4.5l1 1c0 10 -6.16699 19 -18.5 27s-26.666 14.5 -42.999 19.5
s-33.666 12.333 -51.999 22s-31.833 20.834 -40.5 33.501c-10.667 16.667 -16 35.334 -16 56.001c0 20 13 50.333 39 91s39 67 39 79c0 10 -4.83301 17.667 -14.5 23s-21.834 8 -36.501 8c-18.667 0 -34.667 -4.66699 -48 -14s-20 -22.666 -20 -39.999z" />
    <glyph glyph-name="agrave" unicode="&#xe0;" horiz-adv-x="576" 
d="M25 229c0 68.667 21.6699 126.833 65.0029 174.5s95.666 71.5 156.999 71.5c50 0 95 -17.333 135 -52h7l2 43c0 10 0.333008 15.667 1 17c-0.666992 0 5.66602 0.666992 18.999 2l58 6l77 9l5 -500h-181v42h-8c-10.667 -20 -27.334 -34.667 -50.001 -44
s-44.334 -14 -65.001 -14c-61.333 0 -113.666 23.833 -156.999 71.5s-65 105.5 -65 173.5zM190.003 224.999c0 -24.667 7.66699 -45.667 23 -63s34.333 -26 57 -26c23.333 0 43 8.66699 59 26s24 38.333 24 63c0 26.667 -8 49 -24 67s-35.667 27 -59 27
c-22.667 0 -41.667 -9 -57 -27s-23 -40.333 -23 -67zM368.003 555.999l-248 104l57 104l219 -142z" />
    <glyph glyph-name="aacute" unicode="&#xe1;" horiz-adv-x="576" 
d="M25 229c0 68.667 21.6699 126.833 65.0029 174.5s95.666 71.5 156.999 71.5c50 0 95 -17.333 135 -52h7l2 43c0 10 0.333008 15.667 1 17c-0.666992 0 5.66602 0.666992 18.999 2l58 6l77 9l5 -500h-181v42h-8c-10.667 -20 -27.334 -34.667 -50.001 -44
s-44.334 -14 -65.001 -14c-61.333 0 -113.666 23.833 -156.999 71.5s-65 105.5 -65 173.5zM190.003 224.999c0 -24.667 7.66699 -45.667 23 -63s34.333 -26 57 -26c23.333 0 43 8.66699 59 26s24 38.333 24 63c0 26.667 -8 49 -24 67s-35.667 27 -59 27
c-22.667 0 -41.667 -9 -57 -27s-23 -40.333 -23 -67zM506.003 657.999l-248 -104l-28 66l219 142z" />
    <glyph glyph-name="acircumflex" unicode="&#xe2;" horiz-adv-x="576" 
d="M25 229c0 68.667 21.6699 126.833 65.0029 174.5s95.666 71.5 156.999 71.5c50 0 95 -17.333 135 -52h7l2 43c0 10 0.333008 15.667 1 17c-0.666992 0 5.66602 0.666992 18.999 2l58 6l77 9l5 -500h-181v42h-8c-10.667 -20 -27.334 -34.667 -50.001 -44
s-44.334 -14 -65.001 -14c-61.333 0 -113.666 23.833 -156.999 71.5s-65 105.5 -65 173.5zM190.003 224.999c0 -24.667 7.66699 -45.667 23 -63s34.333 -26 57 -26c23.333 0 43 8.66699 59 26s24 38.333 24 63c0 26.667 -8 49 -24 67s-35.667 27 -59 27
c-22.667 0 -41.667 -9 -57 -27s-23 -40.333 -23 -67zM308.003 759.999l182 -128l-68 -76l-114 96l-123 -96l-59 76z" />
    <glyph glyph-name="atilde" unicode="&#xe3;" horiz-adv-x="576" 
d="M25 229c0 68.667 21.6699 126.833 65.0029 174.5s95.666 71.5 156.999 71.5c50 0 95 -17.333 135 -52h7l2 43c0 10 0.333008 15.667 1 17c-0.666992 0 5.66602 0.666992 18.999 2l58 6l77 9l5 -500h-181v42h-8c-10.667 -20 -27.334 -34.667 -50.001 -44
s-44.334 -14 -65.001 -14c-61.333 0 -113.666 23.833 -156.999 71.5s-65 105.5 -65 173.5zM190.003 224.999c0 -24.667 7.66699 -45.667 23 -63s34.333 -26 57 -26c23.333 0 43 8.66699 59 26s24 38.333 24 63c0 26.667 -8 49 -24 67s-35.667 27 -59 27
c-22.667 0 -41.667 -9 -57 -27s-23 -40.333 -23 -67zM397.003 556.999c-20 0 -43.667 7.66797 -71 23.001c-3.33301 1.33301 -8.33301 3.66602 -15 6.99902c-34.667 16 -56.5 21.667 -65.5 17s-12.833 -17.667 -11.5 -39l-89 -8c-5.33301 16 -8 35 -8 57
c0 26 7.16699 46.833 21.5 62.5s34.166 23.5 59.499 23.5c18 0 41.667 -7.66699 71 -23c38 -17.333 61.333 -26 70 -26c16 0 23.333 13.667 22 41l89 8c5.33301 -16 8 -35 8 -57c0 -26 -7.16699 -46.833 -21.5 -62.5s-34.166 -23.5 -59.499 -23.5z" />
    <glyph glyph-name="adieresis" unicode="&#xe4;" horiz-adv-x="576" 
d="M25 229c0 68.667 21.6699 126.833 65.0029 174.5s95.666 71.5 156.999 71.5c50 0 95 -17.333 135 -52h7l2 43c0 10 0.333008 15.667 1 17c-0.666992 0 5.66602 0.666992 18.999 2l58 6l77 9l5 -500h-181v42h-8c-10.667 -20 -27.334 -34.667 -50.001 -44
s-44.334 -14 -65.001 -14c-61.333 0 -113.666 23.833 -156.999 71.5s-65 105.5 -65 173.5zM190.003 224.999c0 -24.667 7.66699 -45.667 23 -63s34.333 -26 57 -26c23.333 0 43 8.66699 59 26s24 38.333 24 63c0 26.667 -8 49 -24 67s-35.667 27 -59 27
c-22.667 0 -41.667 -9 -57 -27s-23 -40.333 -23 -67zM270.003 624.999c0 -21.333 -6.33301 -38.166 -19 -50.499s-29 -18.5 -49 -18.5c-18.667 0 -34.5 6.16699 -47.5 18.5s-19.5 29.166 -19.5 50.499c0 22.667 6.5 40.334 19.5 53.001s28.833 19 47.5 19
c20 0 36.333 -6.33301 49 -19s19 -30.334 19 -53.001zM500.003 624.999c0 -21.333 -6.33301 -38.166 -19 -50.499s-29 -18.5 -49 -18.5c-18.667 0 -34.5 6.16699 -47.5 18.5s-19.5 29.166 -19.5 50.499c0 22.667 6.5 40.334 19.5 53.001s28.833 19 47.5 19
c20 0 36.333 -6.33301 49 -19s19 -30.334 19 -53.001z" />
    <glyph glyph-name="aring" unicode="&#xe5;" horiz-adv-x="576" 
d="M25 229c0 68.667 21.6699 126.833 65.0029 174.5s95.666 71.5 156.999 71.5c50 0 95 -17.333 135 -52h7l2 43c0 10 0.333008 15.667 1 17c-0.666992 0 5.66602 0.666992 18.999 2l58 6l77 9l5 -500h-181v42h-8c-10.667 -20 -27.334 -34.667 -50.001 -44
s-44.334 -14 -65.001 -14c-61.333 0 -113.666 23.833 -156.999 71.5s-65 105.5 -65 173.5zM190.003 224.999c0 -24.667 7.66699 -45.667 23 -63s34.333 -26 57 -26c23.333 0 43 8.66699 59 26s24 38.333 24 63c0 26.667 -8 49 -24 67s-35.667 27 -59 27
c-22.667 0 -41.667 -9 -57 -27s-23 -40.333 -23 -67zM413.003 653.999c0 -29.333 -11 -52.666 -33 -69.999s-49.333 -26 -82 -26s-60.167 8.66699 -82.5 26s-33.5 40.666 -33.5 69.999s11.167 52.666 33.5 69.999s49.833 26 82.5 26s60 -8.66699 82 -26
s33 -40.666 33 -69.999zM258.003 655.999c0 -11.333 3.66699 -20.666 11 -27.999s16.666 -11 27.999 -11s20.666 3.66699 27.999 11s11 16.666 11 27.999s-3.66699 20.666 -11 27.999s-16.666 11 -27.999 11s-20.666 -3.66699 -27.999 -11s-11 -16.666 -11 -27.999z" />
    <glyph glyph-name="ae" unicode="&#xe6;" horiz-adv-x="1074" 
d="M779 -16c-94.667 0 -162.663 38.333 -203.996 115l1 -99h-181v42h-8c-10.667 -20 -27.334 -34.667 -50.001 -44s-44.334 -14 -65.001 -14c-61.333 0 -113.666 23.833 -156.999 71.5s-65 105.5 -65 173.5c0 68.667 21.667 126.834 65 174.501s95.666 71.5 156.999 71.5
c50 0 95 -17.333 135 -52h7l2 43c0 10 0.333008 15.667 1 17c-0.666992 0 5.66602 0.666992 18.999 2l58 6l77 9l1 -121c22 40.667 51.167 72.5 87.5 95.5s77.166 34.5 122.499 34.5c66.667 0 123.667 -25.5 171 -76.5s71 -113.167 71 -186.5
c0 -6.66699 -0.666992 -17.334 -2 -32.001l-308 -21c0 -0.666992 1.33301 -4.5 4 -11.5s4.66699 -11.5 6 -13.5c14 -18.667 36.333 -28 67 -28c48 0 96.667 13.667 146 41l58 -147c-66.667 -33.333 -138.667 -50 -216 -50zM215.004 225c0 -24.667 7.66699 -45.667 23 -63
s34.333 -26 57 -26c23.333 0 43 8.66699 59 26s24 38.333 24 63c0 26.667 -8 49 -24 67s-35.667 27 -59 27c-22.667 0 -41.667 -9 -57 -27s-23 -40.333 -23 -67zM786.004 366c-40 0 -64.333 -27 -73 -81l159 9c-17.333 48 -46 72 -86 72z" />
    <glyph glyph-name="ccedilla" unicode="&#xe7;" horiz-adv-x="485" 
d="M264 509c83.333 0 147.669 -17.334 193.002 -52.001l-29 -160c-18 10 -41.833 20.167 -71.5 30.5s-56.834 15.5 -81.501 15.5c-57.333 0 -86 -32 -86 -96c0 -65.333 28.667 -98 86 -98c26 0 54.667 5.33301 86 16s54 20.667 68 30l31 -157
c-37.333 -32 -92.666 -49.667 -165.999 -53l-1 -20c36 -2.66699 62 -14.667 78 -36c8 -10 12.333 -20.667 13 -32c0 -43.333 -31 -74.333 -93 -93c-26 -8 -57 -12.667 -93 -14l-15 72c17.333 0.666992 33.666 2.66699 48.999 6c33.333 6.66699 50 16 50 28
c0 17.333 -21.667 26 -65 26l-3 66c-58 10 -103.333 36.5 -136 79.5s-50.334 102.167 -53.001 177.5c0 86.667 21.833 152.334 65.5 197.001s101.5 67 173.5 67z" />
    <glyph glyph-name="egrave" unicode="&#xe8;" 
d="M265 -16c-72.667 0 -130.832 24.668 -174.499 74.001s-65.5 112 -65.5 188c0 73.333 23.667 135.5 71 186.5s104.666 76.5 171.999 76.5c66.667 0 123.667 -25.5 171 -76.5s71 -113.167 71 -186.5c0 -6.66699 -0.666992 -17.334 -2 -32.001l-308 -21
c0 -0.666992 1.33301 -4.5 4 -11.5s4.66699 -11.5 6 -13.5c14 -18.667 36.333 -28 67 -28c48 0 96.667 13.667 146 41l58 -147c-66.667 -33.333 -138.667 -50 -216 -50zM272.002 366.001c-40 0 -64.333 -27 -73 -81l159 9c-17.333 48 -46 72 -86 72zM297.002 557.001
l-248 104l57 104l219 -142z" />
    <glyph glyph-name="eacute" unicode="&#xe9;" 
d="M265 -16c-72.667 0 -130.832 24.668 -174.499 74.001s-65.5 112 -65.5 188c0 73.333 23.667 135.5 71 186.5s104.666 76.5 171.999 76.5c66.667 0 123.667 -25.5 171 -76.5s71 -113.167 71 -186.5c0 -6.66699 -0.666992 -17.334 -2 -32.001l-308 -21
c0 -0.666992 1.33301 -4.5 4 -11.5s4.66699 -11.5 6 -13.5c14 -18.667 36.333 -28 67 -28c48 0 96.667 13.667 146 41l58 -147c-66.667 -33.333 -138.667 -50 -216 -50zM272.002 366.001c-40 0 -64.333 -27 -73 -81l159 9c-17.333 48 -46 72 -86 72zM465.002 661.001
l-248 -104l-28 66l219 142z" />
    <glyph glyph-name="ecircumflex" unicode="&#xea;" 
d="M265 -16c-72.667 0 -130.832 24.668 -174.499 74.001s-65.5 112 -65.5 188c0 73.333 23.667 135.5 71 186.5s104.666 76.5 171.999 76.5c66.667 0 123.667 -25.5 171 -76.5s71 -113.167 71 -186.5c0 -6.66699 -0.666992 -17.334 -2 -32.001l-308 -21
c0 -0.666992 1.33301 -4.5 4 -11.5s4.66699 -11.5 6 -13.5c14 -18.667 36.333 -28 67 -28c48 0 96.667 13.667 146 41l58 -147c-66.667 -33.333 -138.667 -50 -216 -50zM272.002 366.001c-40 0 -64.333 -27 -73 -81l159 9c-17.333 48 -46 72 -86 72zM267.002 760.001
l182 -128l-68 -76l-114 96l-123 -96l-59 76z" />
    <glyph glyph-name="edieresis" unicode="&#xeb;" 
d="M220 626c0 -21.333 -6.33301 -38.166 -19 -50.499s-29 -18.5 -49 -18.5c-18.667 0 -34.5 6.16699 -47.5 18.5s-19.5 29.166 -19.5 50.499c0 22.667 6.5 40.334 19.5 53.001s28.833 19 47.5 19c20 0 36.333 -6.33301 49 -19s19 -30.334 19 -53.001zM450 626
c0 -21.333 -6.33301 -38.166 -19 -50.499s-29 -18.5 -49 -18.5c-18.667 0 -34.5 6.16699 -47.5 18.5s-19.5 29.166 -19.5 50.499c0 22.667 6.5 40.334 19.5 53.001s28.833 19 47.5 19c20 0 36.333 -6.33301 49 -19s19 -30.334 19 -53.001zM265 -16
c-72.667 0 -130.832 24.668 -174.499 74.001s-65.5 112 -65.5 188c0 73.333 23.667 135.5 71 186.5s104.666 76.5 171.999 76.5c66.667 0 123.667 -25.5 171 -76.5s71 -113.167 71 -186.5c0 -6.66699 -0.666992 -17.334 -2 -32.001l-308 -21
c0 -0.666992 1.33301 -4.5 4 -11.5s4.66699 -11.5 6 -13.5c14 -18.667 36.333 -28 67 -28c48 0 96.667 13.667 146 41l58 -147c-66.667 -33.333 -138.667 -50 -216 -50zM272.002 366.001c-40 0 -64.333 -27 -73 -81l159 9c-17.333 48 -46 72 -86 72z" />
    <glyph glyph-name="igrave" unicode="&#xec;" horiz-adv-x="258" 
d="M44 407l3 76.001c4 0 13.333 0.666992 28 2c17.333 0.666992 37.666 2.66699 60.999 6l90 9l5 -500h-206l11 241c0.666992 10.667 1.83398 36.667 3.50098 78s3.16699 70.666 4.5 87.999zM188 557.001l-248 104l57 104l219 -142z" />
    <glyph glyph-name="iacute" unicode="&#xed;" horiz-adv-x="258" 
d="M44 407l3 76.001c4 0 13.333 0.666992 28 2c17.333 0.666992 37.666 2.66699 60.999 6l90 9l5 -500h-206l11 241c0.666992 10.667 1.83398 36.667 3.50098 78s3.16699 70.666 4.5 87.999zM307 659.001l-248 -104l-28 66l219 142z" />
    <glyph glyph-name="icircumflex" unicode="&#xee;" horiz-adv-x="258" 
d="M44 407l3 76.001c4 0 13.333 0.666992 28 2c17.333 0.666992 37.666 2.66699 60.999 6l90 9l5 -500h-206l11 241c0.666992 10.667 1.83398 36.667 3.50098 78s3.16699 70.666 4.5 87.999zM129 761.001l182 -128l-68 -76l-114 96l-123 -96l-59 76z" />
    <glyph glyph-name="idieresis" unicode="&#xef;" horiz-adv-x="258" 
d="M102 625c0 -21.333 -6.33301 -38.166 -19 -50.499s-29 -18.5 -49 -18.5c-18.667 0 -34.5 6.16699 -47.5 18.5s-19.5 29.166 -19.5 50.499c0 22.667 6.5 40.334 19.5 53.001s28.833 19 47.5 19c20 0 36.333 -6.33301 49 -19s19 -30.334 19 -53.001zM302 625
c0 -21.333 -6.33301 -38.166 -19 -50.499s-29 -18.5 -49 -18.5c-18.667 0 -34.5 6.16699 -47.5 18.5s-19.5 29.166 -19.5 50.499c0 22.667 6.5 40.334 19.5 53.001s28.833 19 47.5 19c20 0 36.333 -6.33301 49 -19s19 -30.334 19 -53.001zM44 407l3 76.001
c4 0 13.333 0.666992 28 2c17.333 0.666992 37.666 2.66699 60.999 6l90 9l5 -500h-206l11 241c0.666992 10.667 1.83398 36.667 3.50098 78s3.16699 70.666 4.5 87.999z" />
    <glyph glyph-name="eth" unicode="&#xf0;" horiz-adv-x="548" 
d="M485 674l22.002 -53.999l-73 -26c58 -69.333 87 -157 87 -263c0 -93.333 -23.833 -174.5 -71.5 -243.5s-111.834 -103.5 -192.501 -103.5c-70.667 0 -127.167 24.5 -169.5 73.5s-63.5 113.833 -63.5 194.5c0 38 6 70.833 18 98.5s28 48.667 48 63
s40.667 24.666 62 30.999s44 9.5 68 9.5c45.333 0 81.666 -9.66699 108.999 -29c-2 39.333 -15.333 78.333 -40 117l-150 -53l-23 56l134 47c-30.667 32.667 -70.667 60 -120 82h198c30 -16 49.333 -27.667 58 -35zM340.002 268.001
c0 0.666992 -4.16699 2.50195 -12.5 5.50195s-19.5 6.33301 -33.5 10s-26.667 5.5 -38 5.5c-20 -0.666992 -36.5 -6.33398 -49.5 -17.001s-19.5 -25.334 -19.5 -44.001l3 -15c6.66699 -34.667 26.667 -52 60 -52c13.333 0 26.333 3.33301 39 10c19.333 10 33.333 29 42 57
c4 12 7 25.333 9 40z" />
    <glyph glyph-name="ntilde" unicode="&#xf1;" horiz-adv-x="542" 
d="M44 407l3.00098 76.002c4 0 13.333 0.666992 28 2c17.333 0.666992 37.666 2.66699 60.999 6l90 9l1 -92c28 61.333 71.333 92 130 92c52.667 0 92.5 -20 119.5 -60s40.5 -107.667 40.5 -203l-1 -21c0 -14 -0.333008 -31.5 -1 -52.5s-1.5 -42.5 -2.5 -64.5
s-1.66699 -42.333 -2 -61s-0.5 -31.334 -0.5 -38.001h-204c0 10 1.5 44.833 4.5 104.5s4.5 98.167 4.5 115.5v16v19c0 4 -0.166992 10 -0.5 18s-1 14.5 -2 19.5s-2.33301 10.5 -4 16.5s-3.83398 11 -6.50098 15s-5.66699 7.33301 -9 10c-6 6 -16.167 6 -30.5 0
s-25.5 -17.333 -33.5 -34l2 -300h-206l11 241c0.666992 10.667 1.83398 36.667 3.50098 78s3.16699 70.666 4.5 87.999zM360.001 555.002c-20 0 -43.667 7.66797 -71 23.001c-3.33301 1.33301 -8.33301 3.66602 -15 6.99902c-34.667 16 -56.5 21.667 -65.5 17
s-12.833 -17.667 -11.5 -39l-89 -8c-5.33301 16 -8 35 -8 57c0 26 7.16699 46.833 21.5 62.5s34.166 23.5 59.499 23.5c18 0 41.667 -7.66699 71 -23c38 -17.333 61.333 -26 70 -26c16 0 23.333 13.667 22 41l89 8c5.33301 -16 8 -35 8 -57
c0 -26 -7.16699 -46.833 -21.5 -62.5s-34.166 -23.5 -59.499 -23.5z" />
    <glyph glyph-name="ograve" unicode="&#xf2;" 
d="M25 246c0 73.333 23.667 135.5 71 186.5s104.666 76.5 171.999 76.5c66.667 0 123.667 -25.5 171 -76.5s71 -113.167 71 -186.5c0 -72.667 -23.667 -134.5 -71 -185.5s-104.333 -76.5 -171 -76.5c-67.333 0 -124.666 25.5 -171.999 76.5s-71 112.833 -71 185.5zM185 242
c0 -26.667 8.33301 -49.334 25 -68.001s37.334 -28 62.001 -28c25.333 0 46.666 9.33301 63.999 28s26 41.334 26 68.001c0 28 -8.66699 51.667 -26 71s-38.666 29 -63.999 29c-24.667 0 -45.334 -9.66699 -62.001 -29s-25 -43 -25 -71zM317 557l-248 104l57 104l219 -142z
" />
    <glyph glyph-name="oacute" unicode="&#xf3;" 
d="M25 246c0 73.333 23.667 135.5 71 186.5s104.666 76.5 171.999 76.5c66.667 0 123.667 -25.5 171 -76.5s71 -113.167 71 -186.5c0 -72.667 -23.667 -134.5 -71 -185.5s-104.333 -76.5 -171 -76.5c-67.333 0 -124.666 25.5 -171.999 76.5s-71 112.833 -71 185.5zM185 242
c0 -26.667 8.33301 -49.334 25 -68.001s37.334 -28 62.001 -28c25.333 0 46.666 9.33301 63.999 28s26 41.334 26 68.001c0 28 -8.66699 51.667 -26 71s-38.666 29 -63.999 29c-24.667 0 -45.334 -9.66699 -62.001 -29s-25 -43 -25 -71zM465 662l-248 -104l-28 66l219 142z
" />
    <glyph glyph-name="ocircumflex" unicode="&#xf4;" 
d="M25 246c0 73.333 23.667 135.5 71 186.5s104.666 76.5 171.999 76.5c66.667 0 123.667 -25.5 171 -76.5s71 -113.167 71 -186.5c0 -72.667 -23.667 -134.5 -71 -185.5s-104.333 -76.5 -171 -76.5c-67.333 0 -124.666 25.5 -171.999 76.5s-71 112.833 -71 185.5zM185 242
c0 -26.667 8.33301 -49.334 25 -68.001s37.334 -28 62.001 -28c25.333 0 46.666 9.33301 63.999 28s26 41.334 26 68.001c0 28 -8.66699 51.667 -26 71s-38.666 29 -63.999 29c-24.667 0 -45.334 -9.66699 -62.001 -29s-25 -43 -25 -71zM267 761l182 -128l-68 -76l-114 96
l-123 -96l-59 76z" />
    <glyph glyph-name="otilde" unicode="&#xf5;" 
d="M25 246c0 73.333 23.667 135.5 71 186.5s104.666 76.5 171.999 76.5c66.667 0 123.667 -25.5 171 -76.5s71 -113.167 71 -186.5c0 -72.667 -23.667 -134.5 -71 -185.5s-104.333 -76.5 -171 -76.5c-67.333 0 -124.666 25.5 -171.999 76.5s-71 112.833 -71 185.5zM185 242
c0 -26.667 8.33301 -49.334 25 -68.001s37.334 -28 62.001 -28c25.333 0 46.666 9.33301 63.999 28s26 41.334 26 68.001c0 28 -8.66699 51.667 -26 71s-38.666 29 -63.999 29c-24.667 0 -45.334 -9.66699 -62.001 -29s-25 -43 -25 -71zM357 555
c-20 0 -43.667 7.66797 -71 23.001c-3.33301 1.33301 -8.33301 3.66602 -15 6.99902c-34.667 16 -56.5 21.667 -65.5 17s-12.833 -17.667 -11.5 -39l-89 -8c-5.33301 16 -8 35 -8 57c0 26 7.16699 46.833 21.5 62.5s34.166 23.5 59.499 23.5c18 0 41.667 -7.66699 71 -23
c38 -17.333 61.333 -26 70 -26c16 0 23.333 13.667 22 41l89 8c5.33301 -16 8 -35 8 -57c0 -26 -7.16699 -46.833 -21.5 -62.5s-34.166 -23.5 -59.499 -23.5z" />
    <glyph glyph-name="odieresis" unicode="&#xf6;" 
d="M25 246c0 73.333 23.667 135.5 71 186.5s104.666 76.5 171.999 76.5c66.667 0 123.667 -25.5 171 -76.5s71 -113.167 71 -186.5c0 -72.667 -23.667 -134.5 -71 -185.5s-104.333 -76.5 -171 -76.5c-67.333 0 -124.666 25.5 -171.999 76.5s-71 112.833 -71 185.5zM185 242
c0 -26.667 8.33301 -49.334 25 -68.001s37.334 -28 62.001 -28c25.333 0 46.666 9.33301 63.999 28s26 41.334 26 68.001c0 28 -8.66699 51.667 -26 71s-38.666 29 -63.999 29c-24.667 0 -45.334 -9.66699 -62.001 -29s-25 -43 -25 -71zM220 624
c0 -21.333 -6.33301 -38.166 -19 -50.499s-29 -18.5 -49 -18.5c-18.667 0 -34.5 6.16699 -47.5 18.5s-19.5 29.166 -19.5 50.499c0 22.667 6.5 40.334 19.5 53.001s28.833 19 47.5 19c20 0 36.333 -6.33301 49 -19s19 -30.334 19 -53.001zM450 624
c0 -21.333 -6.33301 -38.166 -19 -50.499s-29 -18.5 -49 -18.5c-18.667 0 -34.5 6.16699 -47.5 18.5s-19.5 29.166 -19.5 50.499c0 22.667 6.5 40.334 19.5 53.001s28.833 19 47.5 19c20 0 36.333 -6.33301 49 -19s19 -30.334 19 -53.001z" />
    <glyph glyph-name="divide" unicode="&#xf7;" horiz-adv-x="427" 
d="M25 345v102l377 11v-113h-377zM277 573c0 -22.667 -6.66699 -40.5 -20 -53.5s-30.333 -19.5 -51 -19.5c-20 0 -36.833 6.5 -50.5 19.5s-20.5 30.833 -20.5 53.5s6.83301 40.667 20.5 54s30.5 20 50.5 20c20.667 0 37.667 -6.66699 51 -20s20 -31.333 20 -54zM287 223
c0 -22.667 -6.66699 -40.5 -20 -53.5s-30.333 -19.5 -51 -19.5c-20 0 -36.833 6.5 -50.5 19.5s-20.5 30.833 -20.5 53.5s6.83301 40.667 20.5 54s30.5 20 50.5 20c20.667 0 37.667 -6.66699 51 -20s20 -31.333 20 -54z" />
    <glyph glyph-name="oslash" unicode="&#xf8;" 
d="M25 246c0 73.333 23.6689 135.501 71.002 186.501s104.666 76.5 171.999 76.5c18.667 0 41 -3.66699 67 -11l58 133l86 -16l-69 -156c30.667 -24.667 55 -55.5 73 -92.5s27 -77.167 27 -120.5c0 -72.667 -23.667 -134.5 -71 -185.5s-104.333 -76.5 -171 -76.5
c-25.333 0 -47 3.33301 -65 10l-50 -114l-78 25l55 125c-32.667 24 -58.334 54.667 -77.001 92s-28 78.666 -28 123.999zM362.002 242.001c0 24 -6.66602 45.332 -19.999 63.999l-71 -160h1c25.333 0 46.666 9.33301 63.999 28s26 41.334 26 68.001zM185.003 242
c0 -18.667 4.66602 -36.667 13.999 -54l67 154c-23.333 -1.33301 -42.666 -11.5 -57.999 -30.5s-23 -42.167 -23 -69.5z" />
    <glyph glyph-name="ugrave" unicode="&#xf9;" horiz-adv-x="523" 
d="M258 148c16.667 0 29.3311 2.33398 37.998 7.00098l8 323c2.66699 0 7.16699 0.5 13.5 1.5l15.5 2.5c6 1.33301 16.667 2.66602 32 3.99902s26.333 2.33301 33 3c52.667 6 84.334 9.66699 95.001 11l5 -500h-206c0.666992 0.666992 1 3.66699 1 9c0 10 0.333008 19 1 27
l-3 1c-30 -24.667 -70 -37 -120 -37c-29.333 -0 -54.166 5.33301 -74.499 16s-35.333 25.667 -45 45s-16.5 39.5 -20.5 60.5s-6 44.833 -6 71.5l5 285l196 22l-10 -289c0 -42 14 -63 42 -63zM290.997 556.001l-248 104l57 104l219 -142z" />
    <glyph glyph-name="uacute" unicode="&#xfa;" horiz-adv-x="523" 
d="M258 148c16.667 0 29.3311 2.33398 37.998 7.00098l8 323c2.66699 0 7.16699 0.5 13.5 1.5l15.5 2.5c6 1.33301 16.667 2.66602 32 3.99902s26.333 2.33301 33 3c52.667 6 84.334 9.66699 95.001 11l5 -500h-206c0.666992 0.666992 1 3.66699 1 9c0 10 0.333008 19 1 27
l-3 1c-30 -24.667 -70 -37 -120 -37c-29.333 -0 -54.166 5.33301 -74.499 16s-35.333 25.667 -45 45s-16.5 39.5 -20.5 60.5s-6 44.833 -6 71.5l5 285l196 22l-10 -289c0 -42 14 -63 42 -63zM428.997 659.001l-248 -104l-28 66l219 142z" />
    <glyph glyph-name="ucircumflex" unicode="&#xfb;" horiz-adv-x="523" 
d="M258 148c16.667 0 29.3311 2.33398 37.998 7.00098l8 323c2.66699 0 7.16699 0.5 13.5 1.5l15.5 2.5c6 1.33301 16.667 2.66602 32 3.99902s26.333 2.33301 33 3c52.667 6 84.334 9.66699 95.001 11l5 -500h-206c0.666992 0.666992 1 3.66699 1 9c0 10 0.333008 19 1 27
l-3 1c-30 -24.667 -70 -37 -120 -37c-29.333 -0 -54.166 5.33301 -74.499 16s-35.333 25.667 -45 45s-16.5 39.5 -20.5 60.5s-6 44.833 -6 71.5l5 285l196 22l-10 -289c0 -42 14 -63 42 -63zM250.997 759.001l182 -128l-68 -76l-114 96l-123 -96l-59 76z" />
    <glyph glyph-name="udieresis" unicode="&#xfc;" horiz-adv-x="523" 
d="M258 148c16.667 0 29.3311 2.33398 37.998 7.00098l8 323c2.66699 0 7.16699 0.5 13.5 1.5l15.5 2.5c6 1.33301 16.667 2.66602 32 3.99902s26.333 2.33301 33 3c52.667 6 84.334 9.66699 95.001 11l5 -500h-206c0.666992 0.666992 1 3.66699 1 9c0 10 0.333008 19 1 27
l-3 1c-30 -24.667 -70 -37 -120 -37c-29.333 -0 -54.166 5.33301 -74.499 16s-35.333 25.667 -45 45s-16.5 39.5 -20.5 60.5s-6 44.833 -6 71.5l5 285l196 22l-10 -289c0 -42 14 -63 42 -63zM203.997 625.001c0 -21.333 -6.33301 -38.166 -19 -50.499s-29 -18.5 -49 -18.5
c-18.667 0 -34.5 6.16699 -47.5 18.5s-19.5 29.166 -19.5 50.499c0 22.667 6.5 40.334 19.5 53.001s28.833 19 47.5 19c20 0 36.333 -6.33301 49 -19s19 -30.334 19 -53.001zM433.997 625.001c0 -21.333 -6.33301 -38.166 -19 -50.499s-29 -18.5 -49 -18.5
c-18.667 0 -34.5 6.16699 -47.5 18.5s-19.5 29.166 -19.5 50.499c0 22.667 6.5 40.334 19.5 53.001s28.833 19 47.5 19c20 0 36.333 -6.33301 49 -19s19 -30.334 19 -53.001z" />
    <glyph glyph-name="yacute" unicode="&#xfd;" horiz-adv-x="505" 
d="M252 182c16 0 28.335 2.33203 37.002 6.99902l8 289h5c2.66699 0.666992 7.16699 1.5 13.5 2.5s13.166 1.83301 20.499 2.5s15.666 1.66699 24.999 3s18.333 2.33301 27 3c45.333 4.66699 76 8.33398 92 11.001c0 -221.333 -0.666992 -361.333 -2 -420
s-4.33301 -98.334 -9 -119.001c-26.667 -121.333 -102.667 -182 -228 -182c-68.667 0 -124.334 8.66699 -167.001 26c-18.667 7.33301 -33 16 -43 26c0.666992 0 3.83398 12.5 9.50098 37.5l17.5 76c6 25.667 9.33301 38.834 10 39.501l12 -7c8 -4.66699 23.5 -10 46.5 -16
s50.5 -9 82.5 -9c57.333 0 86 43 86 129l-1 1c-30.667 -22 -73 -33 -127 -33c-94.667 0 -142 58 -142 174l5 255l191 22l-10 -261c0 -38 13.667 -57 41 -57zM460.002 661.999l-248 -104l-28 66l219 142z" />
    <glyph glyph-name="thorn" unicode="&#xfe;" horiz-adv-x="595" 
d="M206 701l28.0029 4.00195l2 -83c1.33301 -55.333 3.33301 -116 6 -182c33.333 23.333 70.666 35 111.999 35c61.333 0 113.666 -23.833 156.999 -71.5s65 -105.834 65 -174.501c0 -68 -21.667 -125.833 -65 -173.5s-95.666 -71.5 -156.999 -71.5
c-20.667 0 -42.334 4.66699 -65.001 14s-39.334 24 -50.001 44h-8v-250h-181l5 892l90 10c6 0.666992 16.167 1.66699 30.5 3s24.5 2.66602 30.5 3.99902zM401.003 225.002c0 26.667 -7.66699 49 -23 67s-34.333 27 -57 27c-23.333 0 -43 -9 -59 -27s-24 -40.333 -24 -67
c0 -24.667 8 -45.667 24 -63s35.667 -26 59 -26c22.667 0 41.667 8.66699 57 26s23 38.333 23 63z" />
    <glyph glyph-name="ydieresis" unicode="&#xff;" horiz-adv-x="505" 
d="M252 182c16 0 28.335 2.33203 37.002 6.99902l8 289h5c2.66699 0.666992 7.16699 1.5 13.5 2.5s13.166 1.83301 20.499 2.5s15.666 1.66699 24.999 3s18.333 2.33301 27 3c45.333 4.66699 76 8.33398 92 11.001c0 -221.333 -0.666992 -361.333 -2 -420
s-4.33301 -98.334 -9 -119.001c-26.667 -121.333 -102.667 -182 -228 -182c-68.667 0 -124.334 8.66699 -167.001 26c-18.667 7.33301 -33 16 -43 26c0.666992 0 3.83398 12.5 9.50098 37.5l17.5 76c6 25.667 9.33301 38.834 10 39.501l12 -7c8 -4.66699 23.5 -10 46.5 -16
s50.5 -9 82.5 -9c57.333 0 86 43 86 129l-1 1c-30.667 -22 -73 -33 -127 -33c-94.667 0 -142 58 -142 174l5 255l191 22l-10 -261c0 -38 13.667 -57 41 -57zM215.002 624.999c0 -21.333 -6.33301 -38.166 -19 -50.499s-29 -18.5 -49 -18.5
c-18.667 0 -34.5 6.16699 -47.5 18.5s-19.5 29.166 -19.5 50.499c0 22.667 6.5 40.334 19.5 53.001s28.833 19 47.5 19c20 0 36.333 -6.33301 49 -19s19 -30.334 19 -53.001zM445.002 624.999c0 -21.333 -6.33301 -38.166 -19 -50.499s-29 -18.5 -49 -18.5
c-18.667 0 -34.5 6.16699 -47.5 18.5s-19.5 29.166 -19.5 50.499c0 22.667 6.5 40.334 19.5 53.001s28.833 19 47.5 19c20 0 36.333 -6.33301 49 -19s19 -30.334 19 -53.001z" />
    <glyph glyph-name="Amacron" unicode="&#x100;" horiz-adv-x="643" 
d="M91 750v101l472 10v-111h-472zM452 708l8.99902 -38.0039l23.5 -100.5l32 -135l35 -147.5l32 -134.5c9.66699 -40.333 17.834 -73.166 24.501 -98.499l9 -38l-31 -5l-70 -11l-102 -16c-4 16.667 -9 41.334 -15 74.001c-9.33301 48.667 -13.666 73.334 -12.999 74.001
c0.666992 0 -5 -0.666992 -17 -2l-54 -4l-72 -6l-28 -136l-190 39l93 328c61.333 219.333 92.666 329 93.999 329l14 2c8.66699 0.666992 20 1.83398 34 3.50098s29.667 3.66699 47 6s34.5 4.5 51.5 6.5l46.5 5.5l34 4c8.66699 1 13 1.16699 13 0.5zM264.999 296.996
l105.001 -7l-20 98c-10.667 48 -19 90.333 -25 127h-2l-32 -123c-8.66699 -35.333 -17.334 -67 -26.001 -95z" />
    <glyph glyph-name="amacron" unicode="&#x101;" horiz-adv-x="576" 
d="M25 229c0 68.667 21.6699 126.833 65.0029 174.5s95.666 71.5 156.999 71.5c50 0 95 -17.333 135 -52h7l2 43c0 10 0.333008 15.667 1 17c-0.666992 0 5.66602 0.666992 18.999 2l58 6l77 9l5 -500h-181v42h-8c-10.667 -20 -27.334 -34.667 -50.001 -44
s-44.334 -14 -65.001 -14c-61.333 0 -113.666 23.833 -156.999 71.5s-65 105.5 -65 173.5zM190.003 224.999c0 -24.667 7.66699 -45.667 23 -63s34.333 -26 57 -26c23.333 0 43 8.66699 59 26s24 38.333 24 63c0 26.667 -8 49 -24 67s-35.667 27 -59 27
c-22.667 0 -41.667 -9 -57 -27s-23 -40.333 -23 -67zM72.0029 554.999v101l472 10v-111h-472z" />
    <glyph glyph-name="Abreve" unicode="&#x102;" horiz-adv-x="643" 
d="M438 904l60.998 -50c-15.333 -34 -37.833 -60 -67.5 -78s-63.834 -27 -102.501 -27c-37.333 0 -71.166 9 -101.499 27s-53.166 43.667 -68.499 77l64 51c28.667 -46.667 64.334 -70 107.001 -70c43.333 0 79.333 23.333 108 70zM451.998 708l8.99902 -38.0039
l23.5 -100.5l32 -135l35 -147.5l32 -134.5c9.66699 -40.333 17.834 -73.166 24.501 -98.499l9 -38l-31 -5l-70 -11l-102 -16c-4 16.667 -9 41.334 -15 74.001c-9.33301 48.667 -13.666 73.334 -12.999 74.001c0.666992 0 -5 -0.666992 -17 -2l-54 -4l-72 -6l-28 -136
l-190 39l93 328c61.333 219.333 92.666 329 93.999 329l14 2c8.66699 0.666992 20 1.83398 34 3.50098s29.667 3.66699 47 6s34.5 4.5 51.5 6.5l46.5 5.5l34 4c8.66699 1 13 1.16699 13 0.5zM264.997 296.996l105.001 -7l-20 98c-10.667 48 -19 90.333 -25 127h-2l-32 -123
c-8.66699 -35.333 -17.334 -67 -26.001 -95z" />
    <glyph glyph-name="abreve" unicode="&#x103;" horiz-adv-x="576" 
d="M25 229c0 68.667 21.6699 126.833 65.0029 174.5s95.666 71.5 156.999 71.5c50 0 95 -17.333 135 -52h7l2 43c0 10 0.333008 15.667 1 17c-0.666992 0 5.66602 0.666992 18.999 2l58 6l77 9l5 -500h-181v42h-8c-10.667 -20 -27.334 -34.667 -50.001 -44
s-44.334 -14 -65.001 -14c-61.333 0 -113.666 23.833 -156.999 71.5s-65 105.5 -65 173.5zM190.003 224.999c0 -24.667 7.66699 -45.667 23 -63s34.333 -26 57 -26c23.333 0 43 8.66699 59 26s24 38.333 24 63c0 26.667 -8 49 -24 67s-35.667 27 -59 27
c-22.667 0 -41.667 -9 -57 -27s-23 -40.333 -23 -67zM417.003 709.999l60.998 -50c-15.333 -34 -37.833 -60 -67.5 -78s-63.834 -27 -102.501 -27c-37.333 0 -71.166 9 -101.499 27s-53.166 43.667 -68.499 77l64 51c28.667 -46.667 64.334 -70 107.001 -70
c43.333 0 79.333 23.333 108 70z" />
    <glyph glyph-name="Aogonek" unicode="&#x104;" horiz-adv-x="643" 
d="M452 708l8.99902 -38l23.5 -100.5l32 -135l35 -147.5l32 -134.5c9.66699 -40.333 17.834 -73.166 24.501 -98.499l9 -38l-37 -6c-8 -1.33301 -34.333 -5.33301 -79 -12l-17.5 -8.5l-17 -8c-3.66699 -1.66699 -8.5 -4 -14.5 -7s-10.333 -5.33301 -13 -7
s-6.16699 -4 -10.5 -7s-7.33301 -5.5 -9 -7.5l-6 -7c-2.33301 -2.66699 -3.83301 -5.33398 -4.5 -8.00098s-1 -5.66699 -1 -9c0 -10.667 3.83301 -19.334 11.5 -26.001s16.5 -10 26.5 -10c20.667 0 41 8.33301 61 25l12 -99c-25.333 -18 -59 -27 -101 -27
c-64.667 0 -99 29 -103 87c-4 53.333 28 93.333 96 120c-4.66699 18.667 -10.167 45.5 -16.5 80.5s-9.16602 52.5 -8.49902 52.5s-5 -0.666992 -17 -2l-54 -4l-72 -6l-28 -136l-190 39l93 328c61.333 219.333 92.666 329 93.999 329l14 2
c8.66699 0.666992 20 1.83398 34 3.50098s29.667 3.66699 47 6s34.5 4.5 51.5 6.5l46.5 5.5l34 4c8.66699 1 13 1.16699 13 0.5zM264.999 297l105.001 -7l-20 98c-10.667 48 -19 90.333 -25 127h-2l-32 -123c-8.66699 -35.333 -17.334 -67 -26.001 -95z" />
    <glyph glyph-name="aogonek" unicode="&#x105;" horiz-adv-x="576" 
d="M368 0h2.00195v42h-8c-10.667 -20 -27.334 -34.667 -50.001 -44s-44.334 -14 -65.001 -14c-61.333 0 -113.666 23.833 -156.999 71.5s-65 105.5 -65 173.5c0 68.667 21.667 126.834 65 174.501s95.666 71.5 156.999 71.5c50 0 95 -17.333 135 -52h7l2 43
c0 10 0.333008 15.667 1 17c-0.666992 0 5.33301 0.666992 18 2l59 6l77 9l5 -500h-92c-48.667 -22 -77.667 -37.667 -87 -47c-7.33301 -7.33301 -11 -15.333 -11 -24c0 -10.667 3.83301 -19.334 11.5 -26.001s16.5 -10 26.5 -10c20.667 0 41 8.33301 61 25l12 -99
c-25.333 -18 -59 -27 -101 -27c-64.667 0 -99 29 -103 87c-2 32 7.33301 57.833 28 77.5s44.667 34.167 72 43.5zM190.002 225c0 -24.667 7.66699 -45.667 23 -63s34.333 -26 57 -26c23.333 0 43 8.66699 59 26s24 38.333 24 63c0 26.667 -8 49 -24 67s-35.667 27 -59 27
c-22.667 0 -41.667 -9 -57 -27s-23 -40.333 -23 -67z" />
    <glyph glyph-name="Cacute" unicode="&#x106;" horiz-adv-x="582" 
d="M554 853l-248 -104l-28 66l219 142zM316 709c18.667 0 36.666 -0.833008 53.999 -2.5s32.666 -3.83398 45.999 -6.50098s26.166 -5.83398 38.499 -9.50098s23.166 -7.66699 32.499 -12s17.833 -8.5 25.5 -12.5s14.167 -7.83301 19.5 -11.5l13.5 -9.5
c3.66699 -2.66699 6.5 -5 8.5 -7l2 -2l-8 -50l-16.5 -101.5c-5.66699 -33.667 -8.16699 -50.167 -7.5 -49.5l-36 21c-90.667 44 -161.334 55.333 -212.001 34c-45.333 -20 -68 -67 -68 -141v-2c0 -38.667 5.83301 -70 17.5 -94s27 -40 46 -48s39.667 -12.167 62 -12.5
s44.833 3.33398 67.5 11.001s43.167 15.334 61.5 23.001s33.333 14.834 45 21.501s17.167 10 16.5 10l16 -100l16 -101l-2 -3c-2 -1.33301 -4.83301 -3.33301 -8.5 -6l-13.5 -9.5c-5.33301 -3.66699 -11.833 -7.5 -19.5 -11.5s-16.167 -8.16699 -25.5 -12.5
s-20.166 -8.33301 -32.499 -12s-25.166 -6.83398 -38.499 -9.50098s-28.666 -4.83398 -45.999 -6.50098s-35.333 -2.5 -54 -2.5c-85.333 0 -154.166 30.833 -206.499 92.5s-80.5 150.834 -84.5 267.501c4 118.667 31.833 209.167 83.5 271.5s120.834 93.5 207.501 93.5z" />
    <glyph glyph-name="cacute" unicode="&#x107;" horiz-adv-x="485" 
d="M264 509c83.333 0 147.668 -17.334 193.001 -52.001l-29 -160c-18 10 -41.833 20.167 -71.5 30.5s-56.834 15.5 -81.501 15.5c-57.333 0 -86 -32 -86 -96c0 -65.333 28.667 -98 86 -98c26 0 54.667 5.33301 86 16s54 20.667 68 30l31 -157
c-6.66699 -6.66699 -16.167 -13.5 -28.5 -20.5s-33.833 -14.333 -64.5 -22s-65 -11.5 -103 -11.5c-70 0 -126.667 22.5 -170 67.5s-66.333 109.5 -69 193.5c0 86.667 21.833 152.334 65.5 197.001s101.5 67 173.5 67zM470.002 660.999l-248 -104l-28 66l219 142z" />
    <glyph glyph-name="Ccircumflex" unicode="&#x108;" horiz-adv-x="582" 
d="M324 955l182 -128l-68 -76l-114 96l-123 -96l-59 76zM316 709c18.667 0 36.666 -0.833008 53.999 -2.5s32.666 -3.83398 45.999 -6.50098s26.166 -5.83398 38.499 -9.50098s23.166 -7.66699 32.499 -12s17.833 -8.5 25.5 -12.5s14.167 -7.83301 19.5 -11.5l13.5 -9.5
c3.66699 -2.66699 6.5 -5 8.5 -7l2 -2l-8 -50l-16.5 -101.5c-5.66699 -33.667 -8.16699 -50.167 -7.5 -49.5l-36 21c-90.667 44 -161.334 55.333 -212.001 34c-45.333 -20 -68 -67 -68 -141v-2c0 -38.667 5.83301 -70 17.5 -94s27 -40 46 -48s39.667 -12.167 62 -12.5
s44.833 3.33398 67.5 11.001s43.167 15.334 61.5 23.001s33.333 14.834 45 21.501s17.167 10 16.5 10l16 -100l16 -101l-2 -3c-2 -1.33301 -4.83301 -3.33301 -8.5 -6l-13.5 -9.5c-5.33301 -3.66699 -11.833 -7.5 -19.5 -11.5s-16.167 -8.16699 -25.5 -12.5
s-20.166 -8.33301 -32.499 -12s-25.166 -6.83398 -38.499 -9.50098s-28.666 -4.83398 -45.999 -6.50098s-35.333 -2.5 -54 -2.5c-85.333 0 -154.166 30.833 -206.499 92.5s-80.5 150.834 -84.5 267.501c4 118.667 31.833 209.167 83.5 271.5s120.834 93.5 207.501 93.5z" />
    <glyph glyph-name="ccircumflex" unicode="&#x109;" horiz-adv-x="485" 
d="M272 762l182 -128l-68 -76l-114 96l-123 -96l-59 76zM264 509c83.333 0 147.668 -17.334 193.001 -52.001l-29 -160c-18 10 -41.833 20.167 -71.5 30.5s-56.834 15.5 -81.501 15.5c-57.333 0 -86 -32 -86 -96c0 -65.333 28.667 -98 86 -98c26 0 54.667 5.33301 86 16
s54 20.667 68 30l31 -157c-6.66699 -6.66699 -16.167 -13.5 -28.5 -20.5s-33.833 -14.333 -64.5 -22s-65 -11.5 -103 -11.5c-70 0 -126.667 22.5 -170 67.5s-66.333 109.5 -69 193.5c0 86.667 21.833 152.334 65.5 197.001s101.5 67 173.5 67z" />
    <glyph glyph-name="Cdotaccent" unicode="&#x10a;" horiz-adv-x="582" 
d="M374 823c0 -22.667 -7 -40.334 -21 -53.001s-31.667 -19 -53 -19c-20.667 0 -38 6.33301 -52 19s-21 30.334 -21 53.001s7 40.334 21 53.001s31.333 19 52 19c21.333 0 39 -6.33301 53 -19s21 -30.334 21 -53.001zM316 709c18.667 0 36.666 -0.833008 53.999 -2.5
s32.666 -3.83398 45.999 -6.50098s26.166 -5.83398 38.499 -9.50098s23.166 -7.66699 32.499 -12s17.833 -8.5 25.5 -12.5s14.167 -7.83301 19.5 -11.5l13.5 -9.5c3.66699 -2.66699 6.5 -5 8.5 -7l2 -2l-8 -50l-16.5 -101.5c-5.66699 -33.667 -8.16699 -50.167 -7.5 -49.5
l-36 21c-90.667 44 -161.334 55.333 -212.001 34c-45.333 -20 -68 -67 -68 -141v-2c0 -38.667 5.83301 -70 17.5 -94s27 -40 46 -48s39.667 -12.167 62 -12.5s44.833 3.33398 67.5 11.001s43.167 15.334 61.5 23.001s33.333 14.834 45 21.501s17.167 10 16.5 10l16 -100
l16 -101l-2 -3c-2 -1.33301 -4.83301 -3.33301 -8.5 -6l-13.5 -9.5c-5.33301 -3.66699 -11.833 -7.5 -19.5 -11.5s-16.167 -8.16699 -25.5 -12.5s-20.166 -8.33301 -32.499 -12s-25.166 -6.83398 -38.499 -9.50098s-28.666 -4.83398 -45.999 -6.50098s-35.333 -2.5 -54 -2.5
c-85.333 0 -154.166 30.833 -206.499 92.5s-80.5 150.834 -84.5 267.501c4 118.667 31.833 209.167 83.5 271.5s120.834 93.5 207.501 93.5z" />
    <glyph glyph-name="cdotaccent" unicode="&#x10b;" horiz-adv-x="485" 
d="M264 509c83.333 0 147.668 -17.334 193.001 -52.001l-29 -160c-18 10 -41.833 20.167 -71.5 30.5s-56.834 15.5 -81.501 15.5c-57.333 0 -86 -32 -86 -96c0 -65.333 28.667 -98 86 -98c26 0 54.667 5.33301 86 16s54 20.667 68 30l31 -157
c-6.66699 -6.66699 -16.167 -13.5 -28.5 -20.5s-33.833 -14.333 -64.5 -22s-65 -11.5 -103 -11.5c-70 0 -126.667 22.5 -170 67.5s-66.333 109.5 -69 193.5c0 86.667 21.833 152.334 65.5 197.001s101.5 67 173.5 67zM316.002 627.999c0 -22.667 -7 -40.334 -21 -53.001
s-31.667 -19 -53 -19c-20.667 0 -38 6.33301 -52 19s-21 30.334 -21 53.001s7 40.334 21 53.001s31.333 19 52 19c21.333 0 39 -6.33301 53 -19s21 -30.334 21 -53.001z" />
    <glyph glyph-name="Ccaron" unicode="&#x10c;" horiz-adv-x="582" 
d="M515 878l-182 -128l-182 128l59 76l123 -96l114 96zM316 709c18.667 0 36.666 -0.833008 53.999 -2.5s32.666 -3.83398 45.999 -6.50098s26.166 -5.83398 38.499 -9.50098s23.166 -7.66699 32.499 -12s17.833 -8.5 25.5 -12.5s14.167 -7.83301 19.5 -11.5l13.5 -9.5
c3.66699 -2.66699 6.5 -5 8.5 -7l2 -2l-8 -50l-16.5 -101.5c-5.66699 -33.667 -8.16699 -50.167 -7.5 -49.5l-36 21c-90.667 44 -161.334 55.333 -212.001 34c-45.333 -20 -68 -67 -68 -141v-2c0 -38.667 5.83301 -70 17.5 -94s27 -40 46 -48s39.667 -12.167 62 -12.5
s44.833 3.33398 67.5 11.001s43.167 15.334 61.5 23.001s33.333 14.834 45 21.501s17.167 10 16.5 10l16 -100l16 -101l-2 -3c-2 -1.33301 -4.83301 -3.33301 -8.5 -6l-13.5 -9.5c-5.33301 -3.66699 -11.833 -7.5 -19.5 -11.5s-16.167 -8.16699 -25.5 -12.5
s-20.166 -8.33301 -32.499 -12s-25.166 -6.83398 -38.499 -9.50098s-28.666 -4.83398 -45.999 -6.50098s-35.333 -2.5 -54 -2.5c-85.333 0 -154.166 30.833 -206.499 92.5s-80.5 150.834 -84.5 267.501c4 118.667 31.833 209.167 83.5 271.5s120.834 93.5 207.501 93.5z" />
    <glyph glyph-name="ccaron" unicode="&#x10d;" horiz-adv-x="485" 
d="M264 509c83.333 0 147.668 -17.334 193.001 -52.001l-29 -160c-18 10 -41.833 20.167 -71.5 30.5s-56.834 15.5 -81.501 15.5c-57.333 0 -86 -32 -86 -96c0 -65.333 28.667 -98 86 -98c26 0 54.667 5.33301 86 16s54 20.667 68 30l31 -157
c-6.66699 -6.66699 -16.167 -13.5 -28.5 -20.5s-33.833 -14.333 -64.5 -22s-65 -11.5 -103 -11.5c-70 0 -126.667 22.5 -170 67.5s-66.333 109.5 -69 193.5c0 86.667 21.833 152.334 65.5 197.001s101.5 67 173.5 67zM454.002 685.999l-182 -128l-182 128l59 76l123 -96
l114 96z" />
    <glyph glyph-name="Dcaron" unicode="&#x10e;" horiz-adv-x="571" 
d="M26 688c0.666992 0.666992 6.83691 2.33203 18.5039 4.99902s27.5 5.33398 47.5 8.00098s42.667 4.66699 68 6s52.166 0.166016 80.499 -3.50098s56.666 -9.16699 84.999 -16.5s55.333 -19.666 81 -36.999s48.667 -38 69 -62s36.666 -55.167 48.999 -93.5
s19.166 -81.5 20.499 -129.5c2.66699 -176 -82.333 -289 -255 -339c-78.667 -22 -165.667 -29.667 -261 -23l-3 341v344zM201.003 497.998l8 -280c47.333 6 83.833 20.333 109.5 43s38.5 57.334 38.5 104.001c0 87.333 -52 131.666 -156 132.999zM427.003 877.998l-182 -128
l-182 128l59 76l123 -96l114 96z" />
    <glyph glyph-name="dcaron" unicode="&#x10f;" horiz-adv-x="774" 
d="M343 611l2.00391 71.999c4 0 13.333 0.666992 28 2c17.333 0.666992 37.666 2.66699 60.999 6l90 9l5 -700h-181v42h-8c-10.667 -20 -27.334 -34.667 -50.001 -44s-44.334 -14 -65.001 -14c-61.333 0 -113.666 23.833 -156.999 71.5s-65 105.5 -65 173.5
c0 68.667 21.667 126.834 65 174.501s95.666 71.5 156.999 71.5c41.333 0 78.666 -11.667 111.999 -35c2.66699 66 4.66699 123 6 171zM168.004 224.999c0 -24.667 7.66699 -45.667 23 -63s34.333 -26 57 -26c23.333 0 43 8.66699 59 26s24 38.333 24 63
c0 26.667 -8 49 -24 67s-35.667 27 -59 27c-22.667 0 -41.667 -9 -57 -27s-23 -40.333 -23 -67zM681.004 762.999c23.333 0 41.666 -7.49902 54.999 -22.499s22 -34.5 26 -58.5c0 -4 0.166992 -9.33301 0.5 -16s0.5 -11.334 0.5 -14.001
c0 -8.66699 -0.666992 -20.334 -2 -35.001c-6 -33.333 -21.167 -59.666 -45.5 -78.999s-51.833 -29 -82.5 -29c-19.333 0 -29 11 -29 33c0 8.66699 2 15 6 19c1.33301 1.33301 3.33301 2.66602 6 3.99902c15.333 0 30.833 4 46.5 12s27.834 19.333 36.501 34h-18
c-16 0 -29.333 3.16699 -40 9.5s-18 14.5 -22 24.5s-6.5 17.833 -7.5 23.5s-1.5 11.5 -1.5 17.5s0.666992 12.333 2 19s4 14.834 8 24.501s11.167 17.667 21.5 24s23.5 9.5 39.5 9.5z" />
    <glyph glyph-name="Dcroat" unicode="&#x110;" horiz-adv-x="571" 
d="M-41 289l0.00292969 100.996l67 2v296c0.666992 0.666992 6.83398 2.33398 18.501 5.00098s27.5 5.33398 47.5 8.00098s42.667 4.66699 68 6s52.166 0.166016 80.499 -3.50098s56.666 -9.16699 84.999 -16.5s55.333 -19.666 81 -36.999s48.667 -38 69 -62
s36.666 -55.167 48.999 -93.5s19.166 -81.5 20.499 -129.5c2.66699 -176 -82.333 -289 -255 -339c-78.667 -22 -165.667 -29.667 -261 -23c0 36.667 -0.333008 65.334 -1 86.001c-1.33301 70.667 -2 137.334 -2 200.001h-67zM201.003 497.996l3 -101l77 3v-111h-74l2 -71
c47.333 6 83.833 20.333 109.5 43s38.5 57.334 38.5 104.001c0 87.333 -52 131.666 -156 132.999z" />
    <glyph glyph-name="dcroat" unicode="&#x111;" horiz-adv-x="554" 
d="M168 225c0 -24.667 7.66699 -45.667 23 -63s34.333 -26 57 -26c23.333 0 43 8.66699 59 26s24 38.333 24 63c0 26.667 -8 49 -24 67s-35.667 27 -59 27c-22.667 0 -41.667 -9 -57 -27s-23 -40.333 -23 -67zM345 683c4 0 13.3369 0.666016 28.0039 1.99902
c17.333 0.666992 37.666 2.66699 60.999 6l90 9v-66l71 3v-113h-70l4 -524h-181v42h-8c-10.667 -20 -27.334 -34.667 -50.001 -44s-44.334 -14 -65.001 -14c-61.333 0 -113.666 23.833 -156.999 71.5s-65 105.5 -65 173.5c0 68.667 21.667 126.834 65 174.501
s95.666 71.5 156.999 71.5c41.333 0 78.666 -11.667 111.999 -35l3 84h-72v102l75 2c0 6 0.166992 13.333 0.5 22s0.5 14.667 0.5 18c0 8.66699 0.333008 13.667 1 15z" />
    <glyph glyph-name="Emacron" unicode="&#x112;" horiz-adv-x="496" 
d="M461 0l-436.001 0.00195312l11 333c0.666992 12.667 1.83398 47.667 3.50098 105s3.16699 98.666 4.5 123.999l3 104l328 27c38.667 3.33301 70.667 5.66602 96 6.99902c-6.66699 -66 -13 -137.667 -19 -215l-225 14l1 -132l140 19l-2 -153l-137 3v-87l242 36z
M11.999 750.002v101l472 10v-111h-472z" />
    <glyph glyph-name="emacron" unicode="&#x113;" 
d="M265 -16c-72.667 0 -130.832 24.668 -174.499 74.001s-65.5 112 -65.5 188c0 73.333 23.667 135.5 71 186.5s104.666 76.5 171.999 76.5c66.667 0 123.667 -25.5 171 -76.5s71 -113.167 71 -186.5c0 -6.66699 -0.666992 -17.334 -2 -32.001l-308 -21
c0 -0.666992 1.33301 -4.5 4 -11.5s4.66699 -11.5 6 -13.5c14 -18.667 36.333 -28 67 -28c48 0 96.667 13.667 146 41l58 -147c-66.667 -33.333 -138.667 -50 -216 -50zM272.002 366.001c-40 0 -64.333 -27 -73 -81l159 9c-17.333 48 -46 72 -86 72zM32.002 557.001v101
l472 10v-111h-472z" />
    <glyph glyph-name="Ebreve" unicode="&#x114;" horiz-adv-x="496" 
d="M461 0l-436.001 0.00195312l11 333c0.666992 12.667 1.83398 47.667 3.50098 105s3.16699 98.666 4.5 123.999l3 104l328 27c38.667 3.33301 70.667 5.66602 96 6.99902c-6.66699 -66 -13 -137.667 -19 -215l-225 14l1 -132l140 19l-2 -153l-137 3v-87l242 36z
M356.999 904.002l60.998 -50c-15.333 -34 -37.833 -60 -67.5 -78s-63.834 -27 -102.501 -27c-37.333 0 -71.166 9 -101.499 27s-53.166 43.667 -68.499 77l64 51c28.667 -46.667 64.334 -70 107.001 -70c43.333 0 79.333 23.333 108 70z" />
    <glyph glyph-name="ebreve" unicode="&#x115;" 
d="M376 711l60.998 -50c-15.333 -34 -37.833 -60 -67.5 -78s-63.834 -27 -102.501 -27c-37.333 0 -71.166 9 -101.499 27s-53.166 43.667 -68.499 77l64 51c28.667 -46.667 64.334 -70 107.001 -70c43.333 0 79.333 23.333 108 70zM264.998 -16
c-72.667 0 -130.832 24.668 -174.499 74.001s-65.5 112 -65.5 188c0 73.333 23.667 135.5 71 186.5s104.666 76.5 171.999 76.5c66.667 0 123.667 -25.5 171 -76.5s71 -113.167 71 -186.5c0 -6.66699 -0.666992 -17.334 -2 -32.001l-308 -21
c0 -0.666992 1.33301 -4.5 4 -11.5s4.66699 -11.5 6 -13.5c14 -18.667 36.333 -28 67 -28c48 0 96.667 13.667 146 41l58 -147c-66.667 -33.333 -138.667 -50 -216 -50zM272 366.001c-40 0 -64.333 -27 -73 -81l159 9c-17.333 48 -46 72 -86 72z" />
    <glyph glyph-name="Edotaccent" unicode="&#x116;" horiz-adv-x="496" 
d="M461 0l-436.001 0.00195312l11 333c0.666992 12.667 1.83398 47.667 3.50098 105s3.16699 98.666 4.5 123.999l3 104l328 27c38.667 3.33301 70.667 5.66602 96 6.99902c-6.66699 -66 -13 -137.667 -19 -215l-225 14l1 -132l140 19l-2 -153l-137 3v-87l242 36z
M320.999 819.002c0 -22.667 -7 -40.334 -21 -53.001s-31.667 -19 -53 -19c-20.667 0 -38 6.33301 -52 19s-21 30.334 -21 53.001s7 40.334 21 53.001s31.333 19 52 19c21.333 0 39 -6.33301 53 -19s21 -30.334 21 -53.001z" />
    <glyph glyph-name="edotaccent" unicode="&#x117;" 
d="M265 -16c-72.667 0 -130.832 24.668 -174.499 74.001s-65.5 112 -65.5 188c0 73.333 23.667 135.5 71 186.5s104.666 76.5 171.999 76.5c66.667 0 123.667 -25.5 171 -76.5s71 -113.167 71 -186.5c0 -6.66699 -0.666992 -17.334 -2 -32.001l-308 -21
c0 -0.666992 1.33301 -4.5 4 -11.5s4.66699 -11.5 6 -13.5c14 -18.667 36.333 -28 67 -28c48 0 96.667 13.667 146 41l58 -147c-66.667 -33.333 -138.667 -50 -216 -50zM272.002 366.001c-40 0 -64.333 -27 -73 -81l159 9c-17.333 48 -46 72 -86 72zM341.002 628.001
c0 -22.667 -7 -40.334 -21 -53.001s-31.667 -19 -53 -19c-20.667 0 -38 6.33301 -52 19s-21 30.334 -21 53.001s7 40.334 21 53.001s31.333 19 52 19c21.333 0 39 -6.33301 53 -19s21 -30.334 21 -53.001z" />
    <glyph glyph-name="Eogonek" unicode="&#x118;" horiz-adv-x="496" 
d="M367 0l-342.001 0.00292969l11 333c0.666992 12.667 1.83398 47.667 3.50098 105s3.16699 98.666 4.5 123.999l3 104l328 27c38.667 3.33301 70.667 5.66602 96 6.99902c-6.66699 -66 -13 -137.667 -19 -215l-225 14l1 -132l140 19l-2 -153l-137 3v-87l242 36l-10 -185
h-3c-48.667 -22 -77.667 -37.667 -87 -47c-7.33301 -7.33301 -11 -15.333 -11 -24c0 -10.667 3.83301 -19.334 11.5 -26.001s16.5 -10 26.5 -10c20.667 0 41 8.33301 61 25l12 -99c-25.333 -18 -59 -27 -101 -27c-64.667 0 -99 29 -103 87c-2 32 7.33301 57.833 28 77.5
s44.667 34.167 72 43.5z" />
    <glyph glyph-name="eogonek" unicode="&#x119;" 
d="M265 -16c-72.667 0 -130.832 24.6689 -174.499 74.002s-65.5 112 -65.5 188c0 73.333 23.667 135.5 71 186.5s104.666 76.5 171.999 76.5c66.667 0 123.667 -25.5 171 -76.5s71 -113.167 71 -186.5c0 -6.66699 -0.666992 -17.334 -2 -32.001l-308 -21
c0 -0.666992 1.33301 -4.5 4 -11.5s4.66699 -11.5 6 -13.5c14 -18.667 36.333 -28 67 -28c48 0 96.667 13.667 146 41l58 -147c-1.33301 -1.33301 -2.66602 -2 -3.99902 -2l-19 -9c1.33301 0 1 -0.333008 -1 -1l-4 -1c-26 -11.333 -44.833 -21.333 -56.5 -30
s-17.5 -18.667 -17.5 -30c0 -10.667 3.83301 -19.334 11.5 -26.001s16.5 -10 26.5 -10c20.667 0 41 8.33301 61 25l12 -99c-25.333 -18 -59 -27 -101 -27c-64.667 0 -99 29 -103 87c-2.66699 28 6 53.333 26 76c-14.667 -2 -30.334 -3 -47.001 -3zM272.002 366.002
c-40 0 -64.333 -27 -73 -81l159 9c-17.333 48 -46 72 -86 72z" />
    <glyph glyph-name="Ecaron" unicode="&#x11a;" horiz-adv-x="496" 
d="M234 751l-182 128l68 76l114 -96l123 96l59 -76zM461 0l-436.001 0.00195312l11 333c0.666992 12.667 1.83398 47.667 3.50098 105s3.16699 98.666 4.5 123.999l3 104l328 27c38.667 3.33301 70.667 5.66602 96 6.99902c-6.66699 -66 -13 -137.667 -19 -215l-225 14
l1 -132l140 19l-2 -153l-137 3v-87l242 36z" />
    <glyph glyph-name="ecaron" unicode="&#x11b;" 
d="M449 685l-182 -128l-182 128l59 76l123 -96l114 96zM265 -16c-72.667 0 -130.832 24.668 -174.499 74.001s-65.5 112 -65.5 188c0 73.333 23.667 135.5 71 186.5s104.666 76.5 171.999 76.5c66.667 0 123.667 -25.5 171 -76.5s71 -113.167 71 -186.5
c0 -6.66699 -0.666992 -17.334 -2 -32.001l-308 -21c0 -0.666992 1.33301 -4.5 4 -11.5s4.66699 -11.5 6 -13.5c14 -18.667 36.333 -28 67 -28c48 0 96.667 13.667 146 41l58 -147c-66.667 -33.333 -138.667 -50 -216 -50zM272.002 366.001c-40 0 -64.333 -27 -73 -81l159 9
c-17.333 48 -46 72 -86 72z" />
    <glyph glyph-name="Gcircumflex" unicode="&#x11c;" horiz-adv-x="618" 
d="M324 955l182 -128l-68 -76l-114 96l-123 -96l-59 76zM287 259c1.33301 25.333 2.99902 44.666 4.99902 57.999l7 80l294 10l-7 -333c-87.333 -60 -180 -90 -278 -90c-83.333 0 -150.333 30.667 -201 92s-78 150.666 -82 267.999c4 118.667 31.167 209.167 81.5 271.5
s117.5 93.5 201.5 93.5c18 0 36 -0.666992 54 -2s34.5 -3.16602 49.5 -5.49902s29.667 -5 44 -8s27.333 -6.33301 39 -10l32.5 -10.5c10 -3.33301 18.833 -6.5 26.5 -9.5s14.167 -5.66699 19.5 -8s9.33301 -4.16602 12 -5.49902l4 -2l-9 -50l-16 -101.5
c-5.33301 -33.667 -7.33301 -50.167 -6 -49.5l-39 19c-98.667 40.667 -176.667 50 -234 28c-54 -20 -81.333 -68.333 -82 -145v-22c0 -40.667 6.83301 -73.334 20.5 -98.001s31.834 -40.5 54.501 -47.5s45.667 -9.66699 69 -8s47.333 6.83398 72 15.501
c0 8 0.166992 18.167 0.5 30.5s0.5 22.5 0.5 30.5l1 11c-1.33301 0 -11 -0.166992 -29 -0.5s-33 -0.5 -45 -0.5c-12.667 -0.666992 -32.667 -1 -60 -1z" />
    <glyph glyph-name="gcircumflex" unicode="&#x11d;" horiz-adv-x="542" 
d="M334 436l-0.998047 55l184 9l-6 -500c-2.66699 -68.667 -23.334 -122.667 -62.001 -162s-96 -59 -172 -59c-68.667 0 -124.334 8.66699 -167.001 26c-18.667 7.33301 -33 16 -43 26c0.666992 0 3.83398 12.5 9.50098 37.5l17.5 76c6 25.667 9.33301 38.834 10 39.501
l12 -7c8 -4.66699 23.5 -10 46.5 -16s50.5 -9 82.5 -9c57.333 0 86 36.333 86 109c-28.667 -28 -68 -42 -118 -42c-52.667 0 -97.167 23 -133.5 69s-54.5 101.667 -54.5 167s18.167 120.666 54.5 165.999s80.833 68 133.5 68c45.333 0 85.666 -17.667 120.999 -53z
M348.002 252c0 26 -8.16699 47.833 -24.5 65.5s-36.166 26.5 -59.499 26.5c-24.667 0 -45.334 -8.83301 -62.001 -26.5s-25 -39.5 -25 -65.5c0 -24.667 8.33301 -45.667 25 -63s37.334 -26 62.001 -26c23.333 0 43.166 8.66699 59.499 26s24.5 38.333 24.5 63zM271.002 760
l182 -128l-68 -76l-114 96l-123 -96l-59 76z" />
    <glyph glyph-name="Gbreve" unicode="&#x11e;" horiz-adv-x="618" 
d="M287 259c1.33301 25.333 2.99902 44.666 4.99902 57.999l7 80l294 10l-7 -333c-87.333 -60 -180 -90 -278 -90c-83.333 0 -150.333 30.667 -201 92s-78 150.666 -82 267.999c4 118.667 31.167 209.167 81.5 271.5s117.5 93.5 201.5 93.5c18 0 36 -0.666992 54 -2
s34.5 -3.16602 49.5 -5.49902s29.667 -5 44 -8s27.333 -6.33301 39 -10l32.5 -10.5c10 -3.33301 18.833 -6.5 26.5 -9.5s14.167 -5.66699 19.5 -8s9.33301 -4.16602 12 -5.49902l4 -2l-9 -50l-16 -101.5c-5.33301 -33.667 -7.33301 -50.167 -6 -49.5l-39 19
c-98.667 40.667 -176.667 50 -234 28c-54 -20 -81.333 -68.333 -82 -145v-22c0 -40.667 6.83301 -73.334 20.5 -98.001s31.834 -40.5 54.501 -47.5s45.667 -9.66699 69 -8s47.333 6.83398 72 15.501c0 8 0.166992 18.167 0.5 30.5s0.5 22.5 0.5 30.5l1 11
c-1.33301 0 -11 -0.166992 -29 -0.5s-33 -0.5 -45 -0.5c-12.667 -0.666992 -32.667 -1 -60 -1zM417.999 904l60.998 -50c-15.333 -34 -37.833 -60 -67.5 -78s-63.834 -27 -102.501 -27c-37.333 0 -71.166 9 -101.499 27s-53.166 43.667 -68.499 77l64 51
c28.667 -46.667 64.334 -70 107.001 -70c43.333 0 79.333 23.333 108 70z" />
    <glyph glyph-name="gbreve" unicode="&#x11f;" horiz-adv-x="542" 
d="M334 436l-0.998047 55l184 9l-6 -500c-2.66699 -68.667 -23.334 -122.667 -62.001 -162s-96 -59 -172 -59c-68.667 0 -124.334 8.66699 -167.001 26c-18.667 7.33301 -33 16 -43 26c0.666992 0 3.83398 12.5 9.50098 37.5l17.5 76c6 25.667 9.33301 38.834 10 39.501
l12 -7c8 -4.66699 23.5 -10 46.5 -16s50.5 -9 82.5 -9c57.333 0 86 36.333 86 109c-28.667 -28 -68 -42 -118 -42c-52.667 0 -97.167 23 -133.5 69s-54.5 101.667 -54.5 167s18.167 120.666 54.5 165.999s80.833 68 133.5 68c45.333 0 85.666 -17.667 120.999 -53z
M348.002 252c0 26 -8.16699 47.833 -24.5 65.5s-36.166 26.5 -59.499 26.5c-24.667 0 -45.334 -8.83301 -62.001 -26.5s-25 -39.5 -25 -65.5c0 -24.667 8.33301 -45.667 25 -63s37.334 -26 62.001 -26c23.333 0 43.166 8.66699 59.499 26s24.5 38.333 24.5 63zM380.002 710
l60.998 -50c-15.333 -34 -37.833 -60 -67.5 -78s-63.834 -27 -102.501 -27c-37.333 0 -71.166 9 -101.499 27s-53.166 43.667 -68.499 77l64 51c28.667 -46.667 64.334 -70 107.001 -70c43.333 0 79.333 23.333 108 70z" />
    <glyph glyph-name="Gdotaccent" unicode="&#x120;" horiz-adv-x="618" 
d="M287 259c1.33301 25.333 2.99902 44.666 4.99902 57.999l7 80l294 10l-7 -333c-87.333 -60 -180 -90 -278 -90c-83.333 0 -150.333 30.667 -201 92s-78 150.666 -82 267.999c4 118.667 31.167 209.167 81.5 271.5s117.5 93.5 201.5 93.5c18 0 36 -0.666992 54 -2
s34.5 -3.16602 49.5 -5.49902s29.667 -5 44 -8s27.333 -6.33301 39 -10l32.5 -10.5c10 -3.33301 18.833 -6.5 26.5 -9.5s14.167 -5.66699 19.5 -8s9.33301 -4.16602 12 -5.49902l4 -2l-9 -50l-16 -101.5c-5.33301 -33.667 -7.33301 -50.167 -6 -49.5l-39 19
c-98.667 40.667 -176.667 50 -234 28c-54 -20 -81.333 -68.333 -82 -145v-22c0 -40.667 6.83301 -73.334 20.5 -98.001s31.834 -40.5 54.501 -47.5s45.667 -9.66699 69 -8s47.333 6.83398 72 15.501c0 8 0.166992 18.167 0.5 30.5s0.5 22.5 0.5 30.5l1 11
c-1.33301 0 -11 -0.166992 -29 -0.5s-33 -0.5 -45 -0.5c-12.667 -0.666992 -32.667 -1 -60 -1zM381.999 821c0 -22.667 -7 -40.334 -21 -53.001s-31.667 -19 -53 -19c-20.667 0 -38 6.33301 -52 19s-21 30.334 -21 53.001s7 40.334 21 53.001s31.333 19 52 19
c21.333 0 39 -6.33301 53 -19s21 -30.334 21 -53.001z" />
    <glyph glyph-name="gdotaccent" unicode="&#x121;" horiz-adv-x="542" 
d="M334 436l-0.998047 55l184 9l-6 -500c-2.66699 -68.667 -23.334 -122.667 -62.001 -162s-96 -59 -172 -59c-68.667 0 -124.334 8.66699 -167.001 26c-18.667 7.33301 -33 16 -43 26c0.666992 0 3.83398 12.5 9.50098 37.5l17.5 76c6 25.667 9.33301 38.834 10 39.501
l12 -7c8 -4.66699 23.5 -10 46.5 -16s50.5 -9 82.5 -9c57.333 0 86 36.333 86 109c-28.667 -28 -68 -42 -118 -42c-52.667 0 -97.167 23 -133.5 69s-54.5 101.667 -54.5 167s18.167 120.666 54.5 165.999s80.833 68 133.5 68c45.333 0 85.666 -17.667 120.999 -53z
M348.002 252c0 26 -8.16699 47.833 -24.5 65.5s-36.166 26.5 -59.499 26.5c-24.667 0 -45.334 -8.83301 -62.001 -26.5s-25 -39.5 -25 -65.5c0 -24.667 8.33301 -45.667 25 -63s37.334 -26 62.001 -26c23.333 0 43.166 8.66699 59.499 26s24.5 38.333 24.5 63zM374.002 629
c0 -22.667 -7 -40.334 -21 -53.001s-31.667 -19 -53 -19c-20.667 0 -38 6.33301 -52 19s-21 30.334 -21 53.001s7 40.334 21 53.001s31.333 19 52 19c21.333 0 39 -6.33301 53 -19s21 -30.334 21 -53.001z" />
    <glyph glyph-name="Gcommaaccent" unicode="&#x122;" horiz-adv-x="618" 
d="M287 259c1.33301 25.333 2.99902 44.666 4.99902 57.999l7 80l294 10l-7 -333c-87.333 -60 -180 -90 -278 -90c-83.333 0 -150.333 30.667 -201 92s-78 150.666 -82 267.999c4 118.667 31.167 209.167 81.5 271.5s117.5 93.5 201.5 93.5c18 0 36 -0.666992 54 -2
s34.5 -3.16602 49.5 -5.49902s29.667 -5 44 -8s27.333 -6.33301 39 -10l32.5 -10.5c10 -3.33301 18.833 -6.5 26.5 -9.5s14.167 -5.66699 19.5 -8s9.33301 -4.16602 12 -5.49902l4 -2l-9 -50l-16 -101.5c-5.33301 -33.667 -7.33301 -50.167 -6 -49.5l-39 19
c-98.667 40.667 -176.667 50 -234 28c-54 -20 -81.333 -68.333 -82 -145v-22c0 -40.667 6.83301 -73.334 20.5 -98.001s31.834 -40.5 54.501 -47.5s45.667 -9.66699 69 -8s47.333 6.83398 72 15.501c0 8 0.166992 18.167 0.5 30.5s0.5 22.5 0.5 30.5l1 11
c-1.33301 0 -11 -0.166992 -29 -0.5s-33 -0.5 -45 -0.5c-12.667 -0.666992 -32.667 -1 -60 -1zM336.999 -35c40.667 0 65 -21.335 73 -64.002c0 -2 0.166992 -5.66699 0.5 -11s0.5 -9.33301 0.5 -12c0 -6 -0.666992 -15 -2 -27
c-5.33301 -24.667 -19.166 -44.667 -41.499 -60s-47.166 -23 -74.499 -23c-18 0 -27 8.66699 -27 26c0 5.33301 2 10 6 14l6 3c13.333 0 27.166 3.33301 41.499 10s25.166 15.667 32.499 27c-2.66699 0 -5.5 -0.166992 -8.5 -0.5s-5.16699 -0.5 -6.5 -0.5
c-15.333 0 -27.833 2.5 -37.5 7.5s-16.334 11.5 -20.001 19.5s-6 14.167 -7 18.5s-1.5 8.83301 -1.5 13.5s0.5 9.33398 1.5 14.001s3.5 10.834 7.5 18.501s10.833 14 20.5 19s21.834 7.5 36.501 7.5z" />
    <glyph glyph-name="gcommaaccent" unicode="&#x123;" horiz-adv-x="542" 
d="M334 436l-0.998047 55l184 9l-6 -500c-2.66699 -68.667 -23.334 -122.667 -62.001 -162s-96 -59 -172 -59c-68.667 0 -124.334 8.66699 -167.001 26c-18.667 7.33301 -33 16 -43 26c0.666992 0 3.83398 12.5 9.50098 37.5l17.5 76c6 25.667 9.33301 38.834 10 39.501
l12 -7c8 -4.66699 23.5 -10 46.5 -16s50.5 -9 82.5 -9c57.333 0 86 36.333 86 109c-28.667 -28 -68 -42 -118 -42c-52.667 0 -97.167 23 -133.5 69s-54.5 101.667 -54.5 167s18.167 120.666 54.5 165.999s80.833 68 133.5 68c45.333 0 85.666 -17.667 120.999 -53z
M348.002 252c0 26 -8.16699 47.833 -24.5 65.5s-36.166 26.5 -59.499 26.5c-24.667 0 -45.334 -8.83301 -62.001 -26.5s-25 -39.5 -25 -65.5c0 -24.667 8.33301 -45.667 25 -63s37.334 -26 62.001 -26c23.333 0 43.166 8.66699 59.499 26s24.5 38.333 24.5 63zM293.002 555
c-23.333 0 -41.666 7.49707 -54.999 22.4971s-22 34.5 -26 58.5c0 4 -0.166992 9.33301 -0.5 16s-0.5 11.334 -0.5 14.001c0 8.66699 0.666992 20.334 2 35.001c5.33301 32.667 20.5 58.834 45.5 78.501s52.5 29.5 82.5 29.5c19.333 0 29 -11 29 -33
c0 -8.66699 -2 -15 -6 -19c-1.33301 -1.33301 -3.33301 -2.66602 -6 -3.99902c-15.333 0 -30.833 -4 -46.5 -12s-27.834 -19.333 -36.501 -34h18c16 0 29.333 -3.16699 40 -9.5s18 -14.5 22 -24.5s6.5 -18 7.5 -24s1.5 -11.667 1.5 -17c0 -6 -0.666992 -12.333 -2 -19
s-4 -14.834 -8 -24.501s-11.167 -17.667 -21.5 -24s-23.5 -9.5 -39.5 -9.5z" />
    <glyph glyph-name="Hcircumflex" unicode="&#x124;" horiz-adv-x="656" 
d="M69 576l3.00098 107.001c4 0 13.333 0.666992 28 2c17.333 0.666992 37.666 2.66699 60.999 6l90 9l2 -351l158 4c5.33301 148.667 8 225.667 8 231l3 99c4 0 13.333 0.666992 28 2c17.333 0.666992 37.666 2.66699 60.999 6l90 9l5 -700h-206
c0 21.333 0.333008 38.333 1 51c2.66699 77.333 4 117.333 4 120l-151 8l2 -179h-206l11 341c0.666992 15.333 1.83398 52.166 3.50098 110.499s3.16699 99.833 4.5 124.5zM328.001 966.001l182 -128l-68 -76l-114 96l-123 -96l-59 76z" />
    <glyph glyph-name="hcircumflex" unicode="&#x125;" horiz-adv-x="542" 
d="M36 584l2 109.001c4.66699 0 14.334 0.666992 29.001 2c21.333 1.33301 43 3.33301 65 6l94 9l1 -302c28 61.333 71.333 92 130 92c52.667 0 92.5 -20 119.5 -60s40.5 -107.667 40.5 -203l-1 -21c0 -14 -0.333008 -31.5 -1 -52.5s-1.5 -42.5 -2.5 -64.5
s-1.66699 -42.333 -2 -61s-0.5 -31.334 -0.5 -38.001h-204c0 10 1.5 44.833 4.5 104.5s4.5 98.167 4.5 115.5v16v18c0 4.66699 -0.166992 11 -0.5 19s-1 14.5 -2 19.5s-2.33301 10.5 -4 16.5s-3.83398 11 -6.50098 15s-5.66699 7.33301 -9 10c-6 6 -16.167 6 -30.5 0
s-25.5 -17.333 -33.5 -34l2 -300h-206l7 346zM271 955.001l182 -128l-68 -76l-114 96l-123 -96l-59 76z" />
    <glyph glyph-name="Hbar" unicode="&#x126;" horiz-adv-x="656" 
d="M72 683c4 0 13.335 0.667969 28.002 2.00098c17.333 0.666992 37.666 2.66699 60.999 6l90 9v-104l168 2c0 7.33301 0.166992 18.166 0.5 32.499s0.833008 24.166 1.5 29.499c0 10.667 0.333008 18.334 1 23.001c4 0 13.333 0.666992 28 2
c17.333 0.666992 37.666 2.66699 60.999 6l90 9v-99l54 1v-111h-53l4 -491h-206c0 21.333 0.333008 38.333 1 51c2.66699 77.333 4 117.333 4 120l-151 8l2 -179h-206l6 170l10 321h-65v101l68 1l2 64c0 12 0.333008 20.667 1 26zM253.002 349.001l158 4
c1.33301 62.667 3 108.667 5 138h-164z" />
    <glyph glyph-name="hbar" unicode="&#x127;" horiz-adv-x="542" 
d="M38 679l0.000976562 14.002c4.66699 0 14.334 0.666992 29.001 2c21.333 1.33301 43 3.33301 65 6l94 9v-65l201 5v-111h-201l1 -131c28 61.333 71.333 92 130 92c52.667 0 92.5 -20 119.5 -60s40.5 -107.667 40.5 -203l-1 -21c0 -14 -0.333008 -31.5 -1 -52.5
s-1.5 -42.5 -2.5 -64.5s-1.66699 -42.333 -2 -61s-0.5 -31.334 -0.5 -38.001h-204c0 10 1.5 44.833 4.5 104.5s4.5 98.167 4.5 115.5v16v19c0 4 -0.166992 10 -0.5 18s-1 14.5 -2 19.5s-2.33301 10.5 -4 16.5s-3.83398 11 -6.50098 15s-5.66699 7.33301 -9 10
c-6 6 -16.167 6 -30.5 0s-25.5 -17.333 -33.5 -34l2 -300h-206l3 193c0.666992 35.333 1.66699 93.166 3 173.499s2.66602 137.833 3.99902 172.5h-80v101l82 1c0 6 0.166992 13.167 0.5 21.5s0.5 13.833 0.5 16.5z" />
    <glyph glyph-name="Itilde" unicode="&#x128;" horiz-adv-x="256" 
d="M44 576l3 107.001c4 0 13.333 0.666992 28 2c17.333 0.666992 37.666 2.66699 60.999 6l90 9l5 -700h-206l11 341c0.666992 15.333 1.83398 52.166 3.50098 110.499s3.16699 99.833 4.5 124.5zM218 753.001c-20 0 -43.667 7.66797 -71 23.001
c-3.33301 1.33301 -8.33301 3.66602 -15 6.99902c-34.667 16 -56.5 21.667 -65.5 17s-12.833 -17.667 -11.5 -39l-89 -8c-5.33301 16 -8 35 -8 57c0 26 7.16699 46.833 21.5 62.5s34.166 23.5 59.499 23.5c18 0 41.667 -7.66699 71 -23c38 -17.333 61.333 -26 70 -26
c16 0 23.333 13.667 22 41l89 8c5.33301 -16 8 -35 8 -57c0 -26 -7.16699 -46.833 -21.5 -62.5s-34.166 -23.5 -59.499 -23.5z" />
    <glyph glyph-name="itilde" unicode="&#x129;" horiz-adv-x="258" 
d="M44 407l3 76.001c4 0 13.333 0.666992 28 2c17.333 0.666992 37.666 2.66699 60.999 6l90 9l5 -500h-206l11 241c0.666992 10.667 1.83398 36.667 3.50098 78s3.16699 70.666 4.5 87.999zM229 556.001c-20 0 -43.667 7.66797 -71 23.001
c-3.33301 1.33301 -8.33301 3.66602 -15 6.99902c-34.667 16 -56.5 21.667 -65.5 17s-12.833 -17.667 -11.5 -39l-89 -8c-5.33301 16 -8 35 -8 57c0 26 7.16699 46.833 21.5 62.5s34.166 23.5 59.499 23.5c18 0 41.667 -7.66699 71 -23c38 -17.333 61.333 -26 70 -26
c16 0 23.333 13.667 22 41l89 8c5.33301 -16 8 -35 8 -57c0 -26 -7.16699 -46.833 -21.5 -62.5s-34.166 -23.5 -59.499 -23.5z" />
    <glyph glyph-name="Imacron" unicode="&#x12a;" horiz-adv-x="256" 
d="M-48 749v101l372 10v-111h-372zM44 576l3 107.001c4 0 13.333 0.666992 28 2c17.333 0.666992 37.666 2.66699 60.999 6l90 9l5 -700h-206l11 341c0.666992 15.333 1.83398 52.166 3.50098 110.499s3.16699 99.833 4.5 124.5z" />
    <glyph glyph-name="imacron" unicode="&#x12b;" horiz-adv-x="285" 
d="M-57 556v101l372 10v-111h-372zM44 407l3 76.001c4 0 13.333 0.666992 28 2c17.333 0.666992 37.666 2.66699 60.999 6l90 9l5 -500h-206l11 241c0.666992 10.667 1.83398 36.667 3.50098 78s3.16699 70.666 4.5 87.999z" />
    <glyph glyph-name="Ibreve" unicode="&#x12c;" horiz-adv-x="256" 
d="M44 576l3 107.001c4 0 13.333 0.666992 28 2c17.333 0.666992 37.666 2.66699 60.999 6l90 9l5 -700h-206l11 341c0.666992 15.333 1.83398 52.166 3.50098 110.499s3.16699 99.833 4.5 124.5zM237 900.001l60.998 -50c-15.333 -34 -37.833 -60 -67.5 -78
s-63.834 -27 -102.501 -27c-37.333 0 -71.166 9 -101.499 27s-53.166 43.667 -68.499 77l64 51c28.667 -46.667 64.334 -70 107.001 -70c43.333 0 79.333 23.333 108 70z" />
    <glyph glyph-name="ibreve" unicode="&#x12d;" horiz-adv-x="258" 
d="M44 407l3 76.001c4 0 13.333 0.666992 28 2c17.333 0.666992 37.666 2.66699 60.999 6l90 9l5 -500h-206l11 241c0.666992 10.667 1.83398 36.667 3.50098 78s3.16699 70.666 4.5 87.999zM238 712.001l60.998 -50c-15.333 -34 -37.833 -60 -67.5 -78
s-63.834 -27 -102.501 -27c-37.333 0 -71.166 9 -101.499 27s-53.166 43.667 -68.499 77l64 51c28.667 -46.667 64.334 -70 107.001 -70c43.333 0 79.333 23.333 108 70z" />
    <glyph glyph-name="Iogonek" unicode="&#x12e;" horiz-adv-x="256" 
d="M44 576l3 107.001c4 0 13.333 0.666992 28 2c17.333 0.666992 37.666 2.66699 60.999 6l90 9l5 -700h-206l11 341c0.666992 15.333 1.83398 52.166 3.50098 110.499s3.16699 99.833 4.5 124.5zM127 0.000976562l91 0.000976562c-48.667 -22 -77.667 -37.667 -87 -47
c-7.33301 -7.33301 -11 -15.333 -11 -24c0 -10.667 3.83301 -19.334 11.5 -26.001s16.5 -10 26.5 -10c20.667 0 41 8.33301 61 25l12 -99c-25.333 -18 -59 -27 -101 -27c-64.667 0 -99 29 -103 87c-2 32 7.33301 57.833 28 77.5s44.667 34.167 72 43.5z" />
    <glyph glyph-name="iogonek" unicode="&#x12f;" horiz-adv-x="258" 
d="M44 407l3 76.002c4 0 13.333 0.666992 28 2c17.333 0.666992 37.666 2.66699 60.999 6l90 9l5 -500h-11c-48.667 -22 -77.667 -37.667 -87 -47c-7.33301 -7.33301 -11 -15.333 -11 -24c0 -10.667 3.83301 -19.334 11.5 -26.001s16.5 -10 26.5 -10
c20.667 0 41 8.33301 61 25l12 -99c-25.333 -18 -59 -27 -101 -27c-64.667 0 -99 29 -103 87c-2 32 7.33301 57.833 28 77.5s44.667 34.167 72 43.5h-104l11 241c0.666992 10.667 1.83398 36.667 3.50098 78s3.16699 70.666 4.5 87.999zM34 625.002
c0 27.333 9.83301 50.833 29.5 70.5s42.834 29.5 69.501 29.5c27.333 0 50.833 -9.83301 70.5 -29.5s29.5 -43.167 29.5 -70.5c0 -26.667 -9.83301 -49.834 -29.5 -69.501s-43.167 -29.5 -70.5 -29.5c-26.667 0 -49.834 9.83301 -69.501 29.5s-29.5 42.834 -29.5 69.501z
" />
    <glyph glyph-name="Idotaccent" unicode="&#x130;" horiz-adv-x="256" 
d="M44 576l3 107.001c4 0 13.333 0.666992 28 2c17.333 0.666992 37.666 2.66699 60.999 6l90 9l5 -700h-206l11 341c0.666992 15.333 1.83398 52.166 3.50098 110.499s3.16699 99.833 4.5 124.5zM201 822.001c0 -22.667 -7 -40.334 -21 -53.001s-31.667 -19 -53 -19
c-20.667 0 -38 6.33301 -52 19s-21 30.334 -21 53.001s7 40.334 21 53.001s31.333 19 52 19c21.333 0 39 -6.33301 53 -19s21 -30.334 21 -53.001z" />
    <glyph glyph-name="dotlessi" unicode="&#x131;" horiz-adv-x="258" 
d="M44 407l3 76.001c4 0 13.333 0.666992 28 2c17.333 0.666992 37.666 2.66699 60.999 6l90 9l5 -500h-206l11 241c0.666992 10.667 1.83398 36.667 3.50098 78s3.16699 70.666 4.5 87.999z" />
    <glyph glyph-name="IJ" unicode="&#x132;" horiz-adv-x="881" 
d="M44 576l3 107.001c4 0 13.333 0.666992 28 2c17.333 0.666992 37.666 2.66699 60.999 6l90 9l5 -700h-206l11 341c0.666992 15.333 1.83398 52.166 3.50098 110.499s3.16699 99.833 4.5 124.5zM558 -14.999c-40.667 0 -77.168 6.16602 -109.501 18.499s-58.333 29 -78 50
s-36.5 45.667 -50.5 74s-23.5 58.666 -28.5 90.999s-8.5 65.666 -10.5 99.999s-1 68.166 3 101.499l208 -51c-6 -127.333 19 -191 75 -191c20 0 36.5 8 49.5 24s21.667 37.667 26 65s6.83301 56.833 7.5 88.5s-0.833008 65.5 -4.5 101.5s-7.5 68.167 -11.5 96.5l-12 81
c-4 25.667 -6.33301 41.834 -7 48.501l206 17c3.33301 -16 6.33301 -31.167 9 -45.5s6.5 -39.5 11.5 -75.5s8.5 -69.167 10.5 -99.5s2.66699 -66.666 2 -108.999s-4.16699 -80.166 -10.5 -113.499s-16.5 -67.666 -30.5 -102.999s-31.667 -64.833 -53 -88.5
s-49.166 -43 -83.499 -58s-73.833 -22.5 -118.5 -22.5z" />
    <glyph glyph-name="ij" unicode="&#x133;" horiz-adv-x="547" 
d="M44 407l3 76.001c4 0 13.333 0.666992 28 2c17.333 0.666992 37.666 2.66699 60.999 6l90 9l5 -500h-206l11 241c0.666992 10.667 1.83398 36.667 3.50098 78s3.16699 70.666 4.5 87.999zM34 625.001c0 27.333 9.83301 50.833 29.5 70.5s42.834 29.5 69.501 29.5
c27.333 0 50.833 -9.83301 70.5 -29.5s29.5 -43.167 29.5 -70.5c0 -26.667 -9.83301 -49.834 -29.5 -69.501s-43.167 -29.5 -70.5 -29.5c-26.667 0 -49.834 9.83301 -69.501 29.5s-29.5 42.834 -29.5 69.501zM303 229.001l-3.00293 249.999l206 22l-2 -446
c4 -179.333 -57.333 -269 -184 -269c-27.333 0 -73 7.33301 -137 22c-2.66699 0.666992 -5 1.33398 -7 2.00098l22 178c21.333 -10.667 39.333 -16.667 54 -18s25.334 2 32.001 10s11.334 16.667 14.001 26s4.33398 21.333 5.00098 36v187zM296.997 625
c0 27.333 9.83301 50.833 29.5 70.5s42.834 29.5 69.501 29.5c28 0 51.667 -9.66699 71 -29s29 -43 29 -71c0 -26.667 -9.83301 -49.834 -29.5 -69.501s-43.167 -29.5 -70.5 -29.5c-26.667 0 -49.834 9.83301 -69.501 29.5s-29.5 42.834 -29.5 69.501z" />
    <glyph glyph-name="Jcircumflex" unicode="&#x134;" horiz-adv-x="625" 
d="M464 955l182 -128l-68 -76l-114 96l-123 -96l-59 76zM302 -15c-40.667 0 -77.168 6.16602 -109.501 18.499s-58.333 29 -78 50s-36.5 45.667 -50.5 74s-23.5 58.666 -28.5 90.999s-8.5 65.666 -10.5 99.999s-1 68.166 3 101.499l208 -51c-6 -127.333 19 -191 75 -191
c20 0 36.5 8 49.5 24s21.667 37.667 26 65s6.83301 56.833 7.5 88.5s-0.833008 65.5 -4.5 101.5s-7.5 68.167 -11.5 96.5l-12 81c-4 25.667 -6.33301 41.834 -7 48.501l206 17c3.33301 -16 6.33301 -31.167 9 -45.5s6.5 -39.5 11.5 -75.5s8.5 -69.167 10.5 -99.5
s2.66699 -66.666 2 -108.999s-4.16699 -80.166 -10.5 -113.499s-16.5 -67.666 -30.5 -102.999s-31.667 -64.833 -53 -88.5s-49.166 -43 -83.499 -58s-73.833 -22.5 -118.5 -22.5z" />
    <glyph glyph-name="jcircumflex" unicode="&#x135;" horiz-adv-x="333" 
d="M105 229l-3.00195 249.999l206 22l-2 -446c0.666992 -44.667 -2.83301 -83.667 -10.5 -117s-17.334 -59.666 -29.001 -78.999s-26.667 -34.833 -45 -46.5s-36 -19.167 -53 -22.5s-36.5 -4.5 -58.5 -3.5s-40.667 3 -56 6s-32.333 6.83301 -51 11.5l-25 6l22 178
c21.333 -10.667 39.333 -16.667 54 -18s25.334 2 32.001 10s11.334 16.667 14.001 26s4.33398 21.333 5.00098 36v187zM206.998 760.999l182 -128l-68 -76l-114 96l-123 -96l-59 76z" />
    <glyph glyph-name="Kcommaaccent" unicode="&#x136;" horiz-adv-x="623" 
d="M306 -5c40.667 0 65 -21.335 73 -64.002c0 -2 0.166992 -5.66699 0.5 -11s0.5 -9.33301 0.5 -12c0 -6 -0.666992 -15 -2 -27c-5.33301 -24.667 -19.166 -44.667 -41.499 -60s-47.166 -23 -74.499 -23c-18 0 -27 8.66699 -27 26c0 5.33301 2 10 6 14l6 3
c13.333 0 27.166 3.33301 41.499 10s25.166 15.667 32.499 27c-2.66699 0 -5.5 -0.166992 -8.5 -0.5s-5.16699 -0.5 -6.5 -0.5c-15.333 0 -27.833 2.5 -37.5 7.5s-16.334 11.5 -20.001 19.5s-6 14.167 -7 18.5s-1.5 8.83301 -1.5 13.5s0.5 9.33398 1.5 14.001
s3.5 10.834 7.5 18.501s10.833 14 20.5 19s21.834 7.5 36.501 7.5zM44 575.998l2.99805 107c4.66699 0 14.334 0.666992 29.001 2c21.333 1.33301 43 3.33301 65 6l95 9l-8 -313c26.667 62.667 55.334 126.334 86.001 191.001l57 123l182 -74l-201 -299l124 -104l36.5 -30.5
l34 -28.5l26.5 -22.5l18.5 -16c4.33301 -3.66699 6.16602 -5.5 5.49902 -5.5l-96 -64l-93 -63l-69 93c-43.333 56.667 -80 106.667 -110 150l2 -237h-206l11 341c0.666992 15.333 1.83398 52.166 3.50098 110.499s3.16699 99.833 4.5 124.5z" />
    <glyph glyph-name="kcommaaccent" unicode="&#x137;" horiz-adv-x="520" 
d="M44 576l2.99902 107.002c4 0 13.333 0.666992 28 2c17.333 0.666992 37.666 2.66699 60.999 6l90 9l2 -363h1l51.5 74l65 92c15.667 22 23.5 32.667 23.5 32c0 -3.33301 24.667 -22.333 74 -57l74 -55l-135 -171l79 -89c52.667 -59.333 80 -89 82 -89
c0.666992 0 -3.66602 -4.33301 -12.999 -13l-34 -31l-40 -37l-34.5 -33c-9.66699 -9.33301 -14.5 -14.333 -14.5 -15s-4.5 5.16602 -13.5 17.499l-35.5 49l-46 62.5l-46 64l-37 49l2 -187h-206l11 341c0.666992 15.333 1.83398 52.166 3.50098 110.499
s3.16699 99.833 4.5 124.5zM257.999 -4.99805c40.667 0 65 -21.335 73 -64.002c0 -2 0.166992 -5.66699 0.5 -11s0.5 -9.33301 0.5 -12c0 -6 -0.666992 -15 -2 -27c-5.33301 -24.667 -19.166 -44.667 -41.499 -60s-47.166 -23 -74.499 -23c-18 0 -27 8.66699 -27 26
c0 5.33301 2 10 6 14l6 3c13.333 0 27.166 3.33301 41.499 10s25.166 15.667 32.499 27c-2.66699 0 -5.5 -0.166992 -8.5 -0.5s-5.16699 -0.5 -6.5 -0.5c-15.333 0 -27.833 2.5 -37.5 7.5s-16.334 11.5 -20.001 19.5s-6 14.167 -7 18.5s-1.5 8.83301 -1.5 13.5
s0.5 9.33398 1.5 14.001s3.5 10.834 7.5 18.501s10.833 14 20.5 19s21.834 7.5 36.501 7.5z" />
    <glyph glyph-name="kgreenlandic" unicode="&#x138;" horiz-adv-x="520" 
d="M44 576l2.99902 107.002c4 0 13.333 0.666992 28 2c17.333 0.666992 37.666 2.66699 60.999 6l90 9l2 -363h1l51.5 74l65 92c15.667 22 23.5 32.667 23.5 32c0 -3.33301 24.667 -22.333 74 -57l74 -55l-135 -171l79 -89c52.667 -59.333 80 -89 82 -89
c0.666992 0 -3.66602 -4.33301 -12.999 -13l-34 -31l-40 -37l-34.5 -33c-9.66699 -9.33301 -14.5 -14.333 -14.5 -15s-4.5 5.16602 -13.5 17.499l-35.5 49l-46 62.5l-46 64l-37 49l2 -187h-206l11 341c0.666992 15.333 1.83398 52.166 3.50098 110.499
s3.16699 99.833 4.5 124.5z" />
    <glyph glyph-name="Lacute" unicode="&#x139;" horiz-adv-x="440" 
d="M344 853l-248 -104l-28 66l219 142zM44 576l3 107.001c4 0 13.333 0.666992 28 2c17.333 0.666992 37.666 2.66699 60.999 6l90 9l4 -552l185 37l-11 -185h-379l11 341c0.666992 15.333 1.83398 52.166 3.50098 110.499s3.16699 99.833 4.5 124.5z" />
    <glyph glyph-name="lacute" unicode="&#x13a;" horiz-adv-x="256" 
d="M44 576l3 107.001c4 0 13.333 0.666992 28 2c17.333 0.666992 37.666 2.66699 60.999 6l90 9l5 -700h-206l11 341c0.666992 15.333 1.83398 52.166 3.50098 110.499s3.16699 99.833 4.5 124.5zM326 853.001l-248 -104l-28 66l219 142z" />
    <glyph glyph-name="Lcommaaccent" unicode="&#x13b;" horiz-adv-x="440" 
d="M206 -15c40.667 0 65 -21.335 73 -64.002c0 -2 0.166992 -5.66699 0.5 -11s0.5 -9.33301 0.5 -12c0 -6 -0.666992 -15 -2 -27c-5.33301 -24.667 -19.166 -44.667 -41.499 -60s-47.166 -23 -74.499 -23c-18 0 -27 8.66699 -27 26c0 5.33301 2 10 6 14l6 3
c13.333 0 27.166 3.33301 41.499 10s25.166 15.667 32.499 27c-2.66699 0 -5.5 -0.166992 -8.5 -0.5s-5.16699 -0.5 -6.5 -0.5c-15.333 0 -27.833 2.5 -37.5 7.5s-16.334 11.5 -20.001 19.5s-6 14.167 -7 18.5s-1.5 8.83301 -1.5 13.5s0.5 9.33398 1.5 14.001
s3.5 10.834 7.5 18.501s10.833 14 20.5 19s21.834 7.5 36.501 7.5zM44 575.998l3 107.001c4 0 13.333 0.666992 28 2c17.333 0.666992 37.666 2.66699 60.999 6l90 9l4 -552l185 37l-11 -185h-379l11 341c0.666992 15.333 1.83398 52.166 3.50098 110.499
s3.16699 99.833 4.5 124.5z" />
    <glyph glyph-name="lcommaaccent" unicode="&#x13c;" horiz-adv-x="256" 
d="M44 576l3 107.001c4 0 13.333 0.666992 28 2c17.333 0.666992 37.666 2.66699 60.999 6l90 9l5 -700h-206l11 341c0.666992 15.333 1.83398 52.166 3.50098 110.499s3.16699 99.833 4.5 124.5zM126 -24.999c40.667 0 65 -21.335 73 -64.002
c0 -2 0.166992 -5.66699 0.5 -11s0.5 -9.33301 0.5 -12c0 -6 -0.666992 -15 -2 -27c-5.33301 -24.667 -19.166 -44.667 -41.499 -60s-47.166 -23 -74.499 -23c-18 0 -27 8.66699 -27 26c0 5.33301 2 10 6 14l6 3c13.333 0 27.166 3.33301 41.499 10s25.166 15.667 32.499 27
c-2.66699 0 -5.5 -0.166992 -8.5 -0.5s-5.16699 -0.5 -6.5 -0.5c-15.333 0 -27.833 2.5 -37.5 7.5s-16.334 11.5 -20.001 19.5s-6 14.167 -7 18.5s-1.5 8.83301 -1.5 13.5s0.5 9.33398 1.5 14.001s3.5 10.834 7.5 18.501s10.833 14 20.5 19s21.834 7.5 36.501 7.5z" />
    <glyph glyph-name="Lcaron" unicode="&#x13d;" horiz-adv-x="440" 
d="M351 700c40.667 0 65 -21.335 73 -64.002c0 -2 0.166992 -5.66699 0.5 -11s0.5 -9.33301 0.5 -12c0 -6 -0.666992 -15 -2 -27c-5.33301 -24.667 -19.166 -44.667 -41.499 -60s-47.166 -23 -74.499 -23c-18 0 -27 8.66699 -27 26c0 5.33301 2 10 6 14l6 3
c13.333 0 27.166 3.33301 41.499 10s25.166 15.667 32.499 27c-2.66699 0 -5.5 -0.166992 -8.5 -0.5s-5.16699 -0.5 -6.5 -0.5c-15.333 0 -27.833 2.5 -37.5 7.5s-16.334 11.5 -20.001 19.5s-6 14.167 -7 18.5s-1.5 8.83301 -1.5 13.5s0.5 9.33398 1.5 14.001
s3.5 10.834 7.5 18.501s10.833 14 20.5 19s21.834 7.5 36.501 7.5zM44 575.998l3 107.001c4 0 13.333 0.666992 28 2c17.333 0.666992 37.666 2.66699 60.999 6l90 9l4 -552l185 37l-11 -185h-379l11 341c0.666992 15.333 1.83398 52.166 3.50098 110.499
s3.16699 99.833 4.5 124.5z" />
    <glyph glyph-name="lcaron" unicode="&#x13e;" horiz-adv-x="293" 
d="M44 576l3 107.001c4 0 13.333 0.666992 28 2c17.333 0.666992 37.666 2.66699 60.999 6l90 9l5 -700h-206l11 341c0.666992 15.333 1.83398 52.166 3.50098 110.499s3.16699 99.833 4.5 124.5zM354 763.001c23.333 0 41.666 -7.49902 54.999 -22.499s22 -34.5 26 -58.5
c0 -4 0.166992 -9.33301 0.5 -16s0.5 -11.334 0.5 -14.001c0 -8.66699 -0.666992 -20.334 -2 -35.001c-6 -33.333 -21.167 -59.666 -45.5 -78.999s-51.833 -29 -82.5 -29c-19.333 0 -29 11 -29 33c0 8.66699 2 15 6 19c1.33301 1.33301 3.33301 2.66602 6 3.99902
c15.333 0 30.833 4 46.5 12s27.834 19.333 36.501 34h-18c-16 0 -29.333 3.16699 -40 9.5s-18 14.5 -22 24.5s-6.5 17.833 -7.5 23.5s-1.5 11.5 -1.5 17.5s0.666992 12.333 2 19s4 14.834 8 24.501s11.167 17.667 21.5 24s23.5 9.5 39.5 9.5z" />
    <glyph glyph-name="Ldot" unicode="&#x13f;" horiz-adv-x="440" 
d="M44 576l3 107.001c4 0 13.333 0.666992 28 2c17.333 0.666992 37.666 2.66699 60.999 6l90 9l4 -552l185 37l-11 -185h-379l11 341c0.666992 15.333 1.83398 52.166 3.50098 110.499s3.16699 99.833 4.5 124.5zM413 394.001c0 -22.667 -7 -40.334 -21 -53.001
s-31.667 -19 -53 -19c-20.667 0 -38 6.33301 -52 19s-21 30.334 -21 53.001s7 40.334 21 53.001s31.333 19 52 19c21.333 0 39 -6.33301 53 -19s21 -30.334 21 -53.001z" />
    <glyph glyph-name="ldot" unicode="&#x140;" horiz-adv-x="402" 
d="M44 576l3 107.001c4 0 13.333 0.666992 28 2c17.333 0.666992 37.666 2.66699 60.999 6l90 9l5 -700h-206l11 341c0.666992 15.333 1.83398 52.166 3.50098 110.499s3.16699 99.833 4.5 124.5zM394 342.001c0 -22.667 -7 -40.334 -21 -53.001s-31.667 -19 -53 -19
c-20.667 0 -38 6.33301 -52 19s-21 30.334 -21 53.001s7 40.334 21 53.001s31.333 19 52 19c21.333 0 39 -6.33301 53 -19s21 -30.334 21 -53.001z" />
    <glyph glyph-name="Lslash" unicode="&#x141;" horiz-adv-x="472" 
d="M76 589l3 94.0029c4 0 13.333 0.666992 28 2c17.333 0.666992 37.666 2.66699 60.999 6l90 9l2 -267v-1c10 4 23.833 9 41.5 15s29.834 10.333 36.501 13c3.33301 1.33301 15 5.66602 35 12.999l25 -120c-13.333 -0.666992 -27.333 -2.66699 -42 -6
c-60.667 -10 -91.667 -15 -93 -15l-3 -6l2 -178l185 37l-11 -185h-379l3 81c1.33301 17.333 2.5 47.666 3.5 90.999s1.83301 75.666 2.5 96.999l-1 2l-24 -11.5c-9.33301 -4.33301 -16.666 -8 -21.999 -11s-10.833 -5.83301 -16.5 -8.5l-12.5 -6l-4 -1
c0 1.33301 -4 20.833 -12 58.5s-12.667 57.5 -14 59.5l33 7c26.667 5.33301 52 11 76 17c0.666992 21.333 1.66699 57 3 107s2.66602 85.667 3.99902 107z" />
    <glyph glyph-name="lslash" unicode="&#x142;" horiz-adv-x="414" 
d="M111 590l3.00195 92.998c4 0 13.333 0.666992 28 2c17.333 0.666992 37.666 2.66699 60.999 6l90 9l2 -269l116 44l27 -121l-143 -26l3 -328h-206l3 81c1.33301 17.333 2.5 47.833 3.5 91.5s1.83301 76.167 2.5 97.5l-77 -35l-29 118l109 26
c0.666992 20.667 1.66699 55.834 3 105.501s2.66602 84.834 3.99902 105.501z" />
    <glyph glyph-name="Nacute" unicode="&#x143;" horiz-adv-x="588" 
d="M524 853l-248 -104l-28 66l219 142zM548 0l-180.998 -0.000976562c-12 18.667 -40.333 69.167 -85 151.5l-77 142.5h-1v-294h-179c1.33301 22.667 6.66602 137.334 15.999 344.001s14.666 319.667 15.999 339l151 17l170 -393c-2 38.667 -3.66699 93.667 -5 165
c-4 114.667 -6 185 -6 211l196 17c0 -20 -2.5 -140 -7.5 -360s-7.5 -333.333 -7.5 -340z" />
    <glyph glyph-name="nacute" unicode="&#x144;" horiz-adv-x="542" 
d="M44 407l3.00098 76.002c4 0 13.333 0.666992 28 2c17.333 0.666992 37.666 2.66699 60.999 6l90 9l1 -92c28 61.333 71.333 92 130 92c52.667 0 92.5 -20 119.5 -60s40.5 -107.667 40.5 -203l-1 -21c0 -14 -0.333008 -31.5 -1 -52.5s-1.5 -42.5 -2.5 -64.5
s-1.66699 -42.333 -2 -61s-0.5 -31.334 -0.5 -38.001h-204c0 10 1.5 44.833 4.5 104.5s4.5 98.167 4.5 115.5v16v19c0 4 -0.166992 10 -0.5 18s-1 14.5 -2 19.5s-2.33301 10.5 -4 16.5s-3.83398 11 -6.50098 15s-5.66699 7.33301 -9 10c-6 6 -16.167 6 -30.5 0
s-25.5 -17.333 -33.5 -34l2 -300h-206l11 241c0.666992 10.667 1.83398 36.667 3.50098 78s3.16699 70.666 4.5 87.999zM469.001 660.002l-248 -104l-28 66l219 142z" />
    <glyph glyph-name="Ncommaaccent" unicode="&#x145;" horiz-adv-x="588" 
d="M548 0l-180.998 -0.000976562c-12 18.667 -40.333 69.167 -85 151.5l-77 142.5h-1v-294h-179c1.33301 22.667 6.66602 137.334 15.999 344.001s14.666 319.667 15.999 339l151 17l170 -393c-2 38.667 -3.66699 93.667 -5 165c-4 114.667 -6 185 -6 211l196 17
c0 -20 -2.5 -140 -7.5 -360s-7.5 -333.333 -7.5 -340zM292.002 -5.00098c40.667 0 65 -21.335 73 -64.002c0 -2 0.166992 -5.66699 0.5 -11s0.5 -9.33301 0.5 -12c0 -6 -0.666992 -15 -2 -27c-5.33301 -24.667 -19.166 -44.667 -41.499 -60s-47.166 -23 -74.499 -23
c-18 0 -27 8.66699 -27 26c0 5.33301 2 10 6 14l6 3c13.333 0 27.166 3.33301 41.499 10s25.166 15.667 32.499 27c-2.66699 0 -5.5 -0.166992 -8.5 -0.5s-5.16699 -0.5 -6.5 -0.5c-15.333 0 -27.833 2.5 -37.5 7.5s-16.334 11.5 -20.001 19.5s-6 14.167 -7 18.5
s-1.5 8.83301 -1.5 13.5s0.5 9.33398 1.5 14.001s3.5 10.834 7.5 18.501s10.833 14 20.5 19s21.834 7.5 36.501 7.5z" />
    <glyph glyph-name="ncommaaccent" unicode="&#x146;" horiz-adv-x="542" 
d="M44 407l3.00098 76.002c4 0 13.333 0.666992 28 2c17.333 0.666992 37.666 2.66699 60.999 6l90 9l1 -92c28 61.333 71.333 92 130 92c52.667 0 92.5 -20 119.5 -60s40.5 -107.667 40.5 -203l-1 -21c0 -14 -0.333008 -31.5 -1 -52.5s-1.5 -42.5 -2.5 -64.5
s-1.66699 -42.333 -2 -61s-0.5 -31.334 -0.5 -38.001h-204c0 10 1.5 44.833 4.5 104.5s4.5 98.167 4.5 115.5v16v19c0 4 -0.166992 10 -0.5 18s-1 14.5 -2 19.5s-2.33301 10.5 -4 16.5s-3.83398 11 -6.50098 15s-5.66699 7.33301 -9 10c-6 6 -16.167 6 -30.5 0
s-25.5 -17.333 -33.5 -34l2 -300h-206l11 241c0.666992 10.667 1.83398 36.667 3.50098 78s3.16699 70.666 4.5 87.999zM259.001 -24.998c40.667 0 65 -21.335 73 -64.002c0 -2 0.166992 -5.66699 0.5 -11s0.5 -9.33301 0.5 -12c0 -6 -0.666992 -15 -2 -27
c-5.33301 -24.667 -19.166 -44.667 -41.499 -60s-47.166 -23 -74.499 -23c-18 0 -27 8.66699 -27 26c0 5.33301 2 10 6 14l6 3c13.333 0 27.166 3.33301 41.499 10s25.166 15.667 32.499 27c-2.66699 0 -5.5 -0.166992 -8.5 -0.5s-5.16699 -0.5 -6.5 -0.5
c-15.333 0 -27.833 2.5 -37.5 7.5s-16.334 11.5 -20.001 19.5s-6 14.167 -7 18.5s-1.5 8.83301 -1.5 13.5s0.5 9.33398 1.5 14.001s3.5 10.834 7.5 18.501s10.833 14 20.5 19s21.834 7.5 36.501 7.5z" />
    <glyph glyph-name="Ncaron" unicode="&#x147;" horiz-adv-x="588" 
d="M304 751l-182 128l68 76l114 -96l123 96l59 -76zM548 0l-180.998 -0.000976562c-12 18.667 -40.333 69.167 -85 151.5l-77 142.5h-1v-294h-179c1.33301 22.667 6.66602 137.334 15.999 344.001s14.666 319.667 15.999 339l151 17l170 -393
c-2 38.667 -3.66699 93.667 -5 165c-4 114.667 -6 185 -6 211l196 17c0 -20 -2.5 -140 -7.5 -360s-7.5 -333.333 -7.5 -340z" />
    <glyph glyph-name="ncaron" unicode="&#x148;" horiz-adv-x="542" 
d="M44 407l3.00098 76.002c4 0 13.333 0.666992 28 2c17.333 0.666992 37.666 2.66699 60.999 6l90 9l1 -92c28 61.333 71.333 92 130 92c52.667 0 92.5 -20 119.5 -60s40.5 -107.667 40.5 -203l-1 -21c0 -14 -0.333008 -31.5 -1 -52.5s-1.5 -42.5 -2.5 -64.5
s-1.66699 -42.333 -2 -61s-0.5 -31.334 -0.5 -38.001h-204c0 10 1.5 44.833 4.5 104.5s4.5 98.167 4.5 115.5v16v19c0 4 -0.166992 10 -0.5 18s-1 14.5 -2 19.5s-2.33301 10.5 -4 16.5s-3.83398 11 -6.50098 15s-5.66699 7.33301 -9 10c-6 6 -16.167 6 -30.5 0
s-25.5 -17.333 -33.5 -34l2 -300h-206l11 241c0.666992 10.667 1.83398 36.667 3.50098 78s3.16699 70.666 4.5 87.999zM453.001 682.002l-182 -128l-182 128l59 76l123 -96l114 96z" />
    <glyph glyph-name="napostrophe" unicode="&#x149;" horiz-adv-x="542" 
d="M44 407l3.00098 76.002c4 0 13.333 0.666992 28 2c17.333 0.666992 37.666 2.66699 60.999 6l90 9l1 -92c28 61.333 71.333 92 130 92c52.667 0 92.5 -20 119.5 -60s40.5 -107.667 40.5 -203l-1 -21c0 -14 -0.333008 -31.5 -1 -52.5s-1.5 -42.5 -2.5 -64.5
s-1.66699 -42.333 -2 -61s-0.5 -31.334 -0.5 -38.001h-204c0 10 1.5 44.833 4.5 104.5s4.5 98.167 4.5 115.5v16v19c0 4 -0.166992 10 -0.5 18s-1 14.5 -2 19.5s-2.33301 10.5 -4 16.5s-3.83398 11 -6.50098 15s-5.66699 7.33301 -9 10c-6 6 -16.167 6 -30.5 0
s-25.5 -17.333 -33.5 -34l2 -300h-206l11 241c0.666992 10.667 1.83398 36.667 3.50098 78s3.16699 70.666 4.5 87.999zM56.001 711.002c40.667 0 65 -21.335 73 -64.002c0 -2 0.166992 -5.66699 0.5 -11s0.5 -9.33301 0.5 -12c0 -6 -0.666992 -15 -2 -27
c-5.33301 -24.667 -19.166 -44.667 -41.499 -60s-47.166 -23 -74.499 -23c-18 0 -27 8.66699 -27 26c0 5.33301 2 10 6 14l6 3c13.333 0 27.166 3.33301 41.499 10s25.166 15.667 32.499 27c-2.66699 0 -5.5 -0.166992 -8.5 -0.5s-5.16699 -0.5 -6.5 -0.5
c-15.333 0 -27.833 2.5 -37.5 7.5s-16.334 11.5 -20.001 19.5s-6 14.167 -7 18.5s-1.5 8.83301 -1.5 13.5s0.5 9.33398 1.5 14.001s3.5 10.834 7.5 18.501s10.833 14 20.5 19s21.834 7.5 36.501 7.5z" />
    <glyph glyph-name="Omacron" unicode="&#x14c;" horiz-adv-x="689" 
d="M588 98c-37.333 -46.667 -86.167 -79.334 -146.5 -98.001s-121.5 -19.5 -183.5 -2.5s-113 50.167 -153 99.5c-50.667 64.667 -77.334 150 -80.001 256c2.66699 120 36.334 210.667 101.001 272c38 37.333 85 62.833 141 76.5s112.667 12.834 170 -2.49902
s105 -44 143 -86c56 -65.333 84 -156 84 -272c-2.66699 -102.667 -28 -183.667 -76 -243zM439.999 228c18.667 27.333 28.332 66.665 28.999 117.998c0 57.333 -10.667 101 -32 131c-22 30.667 -51.167 46.334 -87.5 47.001s-65.166 -12.666 -86.499 -39.999
c-25.333 -29.333 -38.333 -73.333 -39 -132c0.666992 -52 11 -93.667 31 -125c24.667 -36.667 56 -54.5 94 -53.5s68.333 19.167 91 54.5zM97.9971 749.999v101l472 10v-111h-472z" />
    <glyph glyph-name="omacron" unicode="&#x14d;" 
d="M25 246c0 73.333 23.667 135.5 71 186.5s104.666 76.5 171.999 76.5c66.667 0 123.667 -25.5 171 -76.5s71 -113.167 71 -186.5c0 -72.667 -23.667 -134.5 -71 -185.5s-104.333 -76.5 -171 -76.5c-67.333 0 -124.666 25.5 -171.999 76.5s-71 112.833 -71 185.5zM185 242
c0 -26.667 8.33301 -49.334 25 -68.001s37.334 -28 62.001 -28c25.333 0 46.666 9.33301 63.999 28s26 41.334 26 68.001c0 28 -8.66699 51.667 -26 71s-38.666 29 -63.999 29c-24.667 0 -45.334 -9.66699 -62.001 -29s-25 -43 -25 -71zM32 555v101l472 10v-111h-472z" />
    <glyph glyph-name="Obreve" unicode="&#x14e;" horiz-adv-x="689" 
d="M588 98c-37.333 -46.667 -86.167 -79.334 -146.5 -98.001s-121.5 -19.5 -183.5 -2.5s-113 50.167 -153 99.5c-50.667 64.667 -77.334 150 -80.001 256c2.66699 120 36.334 210.667 101.001 272c38 37.333 85 62.833 141 76.5s112.667 12.834 170 -2.49902
s105 -44 143 -86c56 -65.333 84 -156 84 -272c-2.66699 -102.667 -28 -183.667 -76 -243zM439.999 228c18.667 27.333 28.332 66.665 28.999 117.998c0 57.333 -10.667 101 -32 131c-22 30.667 -51.167 46.334 -87.5 47.001s-65.166 -12.666 -86.499 -39.999
c-25.333 -29.333 -38.333 -73.333 -39 -132c0.666992 -52 11 -93.667 31 -125c24.667 -36.667 56 -54.5 94 -53.5s68.333 19.167 91 54.5zM452.997 902.999l60.998 -50c-15.333 -34 -37.833 -60 -67.5 -78s-63.834 -27 -102.501 -27c-37.333 0 -71.166 9 -101.499 27
s-53.166 43.667 -68.499 77l64 51c28.667 -46.667 64.334 -70 107.001 -70c43.333 0 79.333 23.333 108 70z" />
    <glyph glyph-name="obreve" unicode="&#x14f;" 
d="M25 246c0 73.333 23.667 135.5 71 186.5s104.666 76.5 171.999 76.5c66.667 0 123.667 -25.5 171 -76.5s71 -113.167 71 -186.5c0 -72.667 -23.667 -134.5 -71 -185.5s-104.333 -76.5 -171 -76.5c-67.333 0 -124.666 25.5 -171.999 76.5s-71 112.833 -71 185.5zM185 242
c0 -26.667 8.33301 -49.334 25 -68.001s37.334 -28 62.001 -28c25.333 0 46.666 9.33301 63.999 28s26 41.334 26 68.001c0 28 -8.66699 51.667 -26 71s-38.666 29 -63.999 29c-24.667 0 -45.334 -9.66699 -62.001 -29s-25 -43 -25 -71zM376 711l60.998 -50
c-15.333 -34 -37.833 -60 -67.5 -78s-63.834 -27 -102.501 -27c-37.333 0 -71.166 9 -101.499 27s-53.166 43.667 -68.499 77l64 51c28.667 -46.667 64.334 -70 107.001 -70c43.333 0 79.333 23.333 108 70z" />
    <glyph glyph-name="Ohungarumlaut" unicode="&#x150;" horiz-adv-x="689" 
d="M588 98c-37.333 -46.667 -86.167 -79.334 -146.5 -98.001s-121.5 -19.5 -183.5 -2.5s-113 50.167 -153 99.5c-50.667 64.667 -77.334 150 -80.001 256c2.66699 120 36.334 210.667 101.001 272c38 37.333 85 62.833 141 76.5s112.667 12.834 170 -2.49902
s105 -44 143 -86c56 -65.333 84 -156 84 -272c-2.66699 -102.667 -28 -183.667 -76 -243zM439.999 228c18.667 27.333 28.332 66.665 28.999 117.998c0 57.333 -10.667 101 -32 131c-22 30.667 -51.167 46.334 -87.5 47.001s-65.166 -12.666 -86.499 -39.999
c-25.333 -29.333 -38.333 -73.333 -39 -132c0.666992 -52 11 -93.667 31 -125c24.667 -36.667 56 -54.5 94 -53.5s68.333 19.167 91 54.5zM405.997 853.999l-193 -104l-22 66l171 142zM597.997 853.999l-193 -104l-22 66l170 142z" />
    <glyph glyph-name="ohungarumlaut" unicode="&#x151;" 
d="M25 246c0 73.333 23.667 135.5 71 186.5s104.666 76.5 171.999 76.5c66.667 0 123.667 -25.5 171 -76.5s71 -113.167 71 -186.5c0 -72.667 -23.667 -134.5 -71 -185.5s-104.333 -76.5 -171 -76.5c-67.333 0 -124.666 25.5 -171.999 76.5s-71 112.833 -71 185.5zM185 242
c0 -26.667 8.33301 -49.334 25 -68.001s37.334 -28 62.001 -28c25.333 0 46.666 9.33301 63.999 28s26 41.334 26 68.001c0 28 -8.66699 51.667 -26 71s-38.666 29 -63.999 29c-24.667 0 -45.334 -9.66699 -62.001 -29s-25 -43 -25 -71zM319 662l-193 -104l-22 66l171 142z
M511 662l-193 -104l-22 66l170 142z" />
    <glyph glyph-name="OE" unicode="&#x152;" horiz-adv-x="932" 
d="M897 0l-436.001 -0.000976562c-42 -11.333 -84 -16.5 -126 -15.5s-83.833 11.333 -125.5 31s-76.5 46.834 -104.5 81.501c-50.667 64.667 -77.334 150 -80.001 256c2.66699 120 36.334 210.667 101.001 272c50 46.667 110.833 74.167 182.5 82.5
s138.834 -4.5 201.501 -38.5l195 15c102.667 8 170 13.333 202 16c-6.66699 -66 -13 -137.667 -19 -215l-225 14l1 -132l140 19l-2 -153l-137 3v-87l242 36zM439.999 227.999c18.667 27.333 28.332 66.665 28.999 117.998c0 57.333 -10.667 101 -32 131
c-22 30.667 -51.167 46.334 -87.5 47.001s-65.166 -12.666 -86.499 -39.999c-25.333 -29.333 -38.333 -73.333 -39 -132c0.666992 -52 11 -93.667 31 -125c24.667 -36.667 56 -54.5 94 -53.5s68.333 19.167 91 54.5z" />
    <glyph glyph-name="oe" unicode="&#x153;" horiz-adv-x="900" 
d="M633 -16c-76 0 -136.332 26.668 -180.999 80.001c-48 -53.333 -106 -80 -174 -80c-67.333 0 -124.666 25.5 -171.999 76.5s-71 112.833 -71 185.5c0 73.333 23.667 135.5 71 186.5s104.666 76.5 171.999 76.5c71.333 0 130.666 -28.667 177.999 -86
c48.667 57.333 108.667 86 180 86c66.667 0 123.667 -25.5 171 -76.5s71 -113.167 71 -186.5c0 -6.66699 -0.666992 -17.334 -2 -32.001l-308 -21c0 -0.666992 1.33301 -4.5 4 -11.5s4.66699 -11.5 6 -13.5c14 -18.667 36.333 -28 67 -28c48 0 96.667 13.667 146 41l58 -147
c-66.667 -33.333 -138.667 -50 -216 -50zM195.001 242.001c0 -26.667 8.33301 -49.334 25 -68.001s37.334 -28 62.001 -28c25.333 0 46.666 9.33301 63.999 28s26 41.334 26 68.001c0 28 -8.66699 51.667 -26 71s-38.666 29 -63.999 29
c-24.667 0 -45.334 -9.66699 -62.001 -29s-25 -43 -25 -71zM640.001 366.001c-40 0 -64.333 -27 -73 -81l159 9c-17.333 48 -46 72 -86 72z" />
    <glyph glyph-name="Racute" unicode="&#x154;" horiz-adv-x="605" 
d="M504 853l-248 -104l-28 66l219 142zM39 650c8.66699 5.33301 20.168 11.332 34.501 17.999s43.666 15.334 87.999 26.001s90.5 16 138.5 16c166.667 0 250 -82.667 250 -248c0 -50.667 -13.167 -96 -39.5 -136s-62.5 -72.333 -108.5 -97l178 -113l-79 -79l-54 -55
l-24 -25l-35 37l-87 90.5l-84 89.5c0 -11.333 0.333008 -41 1 -89s1 -76.333 1 -85h-194c0 46 2 165.5 6 358.5s6.66699 290.167 8 291.5zM207.001 518.999l1 -180c27.333 1.33301 52 6.33301 74 15c49.333 20 74 55 74 105c0 50.667 -25 76 -75 76
c-25.333 0 -50 -5.33301 -74 -16z" />
    <glyph glyph-name="racute" unicode="&#x155;" horiz-adv-x="406" 
d="M44 407l3 76.001c4 0 13.333 0.666992 28 2c17.333 0.666992 37.666 2.66699 60.999 6l90 9l2 -109c27.333 35.333 62.666 65.333 105.999 90c22 12.667 41 22 57 28l6 -110c2.66699 -74 5 -111 7 -111c-95.333 -4.66699 -153.666 -14.667 -174.999 -30l2 -258h-206
l11 241c0.666992 10.667 1.83398 36.667 3.50098 78s3.16699 70.666 4.5 87.999zM421 661.001l-248 -104l-28 66l219 142z" />
    <glyph glyph-name="Rcommaaccent" unicode="&#x156;" horiz-adv-x="605" 
d="M39 650c8.66699 5.33301 20.168 11.332 34.501 17.999s43.666 15.334 87.999 26.001s90.5 16 138.5 16c166.667 0 250 -82.667 250 -248c0 -50.667 -13.167 -96 -39.5 -136s-62.5 -72.333 -108.5 -97l178 -113l-79 -79l-54 -55l-24 -25l-35 37l-87 90.5l-84 89.5
c0 -11.333 0.333008 -41 1 -89s1 -76.333 1 -85h-194c0 46 2 165.5 6 358.5s6.66699 290.167 8 291.5zM207.001 518.999l1 -180c27.333 1.33301 52 6.33301 74 15c49.333 20 74 55 74 105c0 50.667 -25 76 -75 76c-25.333 0 -50 -5.33301 -74 -16zM291.001 -5.00098
c40.667 0 65 -21.335 73 -64.002c0 -2 0.166992 -5.66699 0.5 -11s0.5 -9.33301 0.5 -12c0 -6 -0.666992 -15 -2 -27c-5.33301 -24.667 -19.166 -44.667 -41.499 -60s-47.166 -23 -74.499 -23c-18 0 -27 8.66699 -27 26c0 5.33301 2 10 6 14l6 3
c13.333 0 27.166 3.33301 41.499 10s25.166 15.667 32.499 27c-2.66699 0 -5.5 -0.166992 -8.5 -0.5s-5.16699 -0.5 -6.5 -0.5c-15.333 0 -27.833 2.5 -37.5 7.5s-16.334 11.5 -20.001 19.5s-6 14.167 -7 18.5s-1.5 8.83301 -1.5 13.5s0.5 9.33398 1.5 14.001
s3.5 10.834 7.5 18.501s10.833 14 20.5 19s21.834 7.5 36.501 7.5z" />
    <glyph glyph-name="rcommaaccent" unicode="&#x157;" horiz-adv-x="406" 
d="M44 407l3 76.001c4 0 13.333 0.666992 28 2c17.333 0.666992 37.666 2.66699 60.999 6l90 9l2 -109c27.333 35.333 62.666 65.333 105.999 90c22 12.667 41 22 57 28l6 -110c2.66699 -74 5 -111 7 -111c-95.333 -4.66699 -153.666 -14.667 -174.999 -30l2 -258h-206
l11 241c0.666992 10.667 1.83398 36.667 3.50098 78s3.16699 70.666 4.5 87.999zM131 -24.999c40.667 0 65 -21.335 73 -64.002c0 -2 0.166992 -5.66699 0.5 -11s0.5 -9.33301 0.5 -12c0 -6 -0.666992 -15 -2 -27c-5.33301 -24.667 -19.166 -44.667 -41.499 -60
s-47.166 -23 -74.499 -23c-18 0 -27 8.66699 -27 26c0 5.33301 2 10 6 14l6 3c13.333 0 27.166 3.33301 41.499 10s25.166 15.667 32.499 27c-2.66699 0 -5.5 -0.166992 -8.5 -0.5s-5.16699 -0.5 -6.5 -0.5c-15.333 0 -27.833 2.5 -37.5 7.5s-16.334 11.5 -20.001 19.5
s-6 14.167 -7 18.5s-1.5 8.83301 -1.5 13.5s0.5 9.33398 1.5 14.001s3.5 10.834 7.5 18.501s10.833 14 20.5 19s21.834 7.5 36.501 7.5z" />
    <glyph glyph-name="Rcaron" unicode="&#x158;" horiz-adv-x="605" 
d="M39 650c8.66699 5.33301 20.168 11.332 34.501 17.999s43.666 15.334 87.999 26.001s90.5 16 138.5 16c166.667 0 250 -82.667 250 -248c0 -50.667 -13.167 -96 -39.5 -136s-62.5 -72.333 -108.5 -97l178 -113l-79 -79l-54 -55l-24 -25l-35 37l-87 90.5l-84 89.5
c0 -11.333 0.333008 -41 1 -89s1 -76.333 1 -85h-194c0 46 2 165.5 6 358.5s6.66699 290.167 8 291.5zM207.001 518.999l1 -180c27.333 1.33301 52 6.33301 74 15c49.333 20 74 55 74 105c0 50.667 -25 76 -75 76c-25.333 0 -50 -5.33301 -74 -16zM434.001 875.999
l-182 -128l-182 128l59 76l123 -96l114 96z" />
    <glyph glyph-name="rcaron" unicode="&#x159;" horiz-adv-x="406" 
d="M44 407l3 76.001c4 0 13.333 0.666992 28 2c17.333 0.666992 37.666 2.66699 60.999 6l90 9l2 -109c27.333 35.333 62.666 65.333 105.999 90c22 12.667 41 22 57 28l6 -110c2.66699 -74 5 -111 7 -111c-95.333 -4.66699 -153.666 -14.667 -174.999 -30l2 -258h-206
l11 241c0.666992 10.667 1.83398 36.667 3.50098 78s3.16699 70.666 4.5 87.999zM385 682.001l-182 -128l-182 128l59 76l123 -96l114 96z" />
    <glyph glyph-name="Sacute" unicode="&#x15a;" horiz-adv-x="600" 
d="M464 853l-248 -104l-28 66l219 142zM446 667c40 -24 74.3311 -56.668 102.998 -98.001l-120 -122c-10.667 18.667 -29.667 37.5 -57 56.5s-56.666 28.5 -87.999 28.5c-16 0 -28.333 -1.5 -37 -4.5s-13.834 -6.16699 -15.501 -9.5s-3.16699 -8.33301 -4.5 -15
c-1.33301 -14 3.83398 -26.5 15.501 -37.5s27.667 -20.5 48 -28.5s43 -16 68 -24s50.167 -17.667 75.5 -29s48.5 -24.5 69.5 -39.5s38.167 -34.833 51.5 -59.5s20 -52.667 20 -84c0 -40 -7.33301 -74.833 -22 -104.5s-34.667 -52.5 -60 -68.5s-52.5 -27.5 -81.5 -34.5
s-59.833 -10.167 -92.5 -9.5c-70.667 3.33301 -125.334 17 -164.001 41c-47.333 28.667 -87 69.667 -119 123v-1l-5.5 8c-2.33301 3.33301 -4.16602 6.33301 -5.49902 9l150 78c7.33301 -10 16.666 -20.5 27.999 -31.5s28 -22.167 50 -33.5s44 -17 66 -17
c40 0 60.667 9.66699 62 29c1.33301 16 -8.33398 30.667 -29.001 44c-5.33301 1.33301 -18.5 5 -39.5 11s-35.5 10.333 -43.5 13l-42.5 14c-20.333 6.66699 -35.166 12.334 -44.499 17.001l-40 20c-17.333 8.66699 -30.166 17 -38.499 25l-30.5 29.5
c-12 11.667 -20.667 23.667 -26 36s-10.166 26.333 -14.499 42s-6.5 32.167 -6.5 49.5c0 39.333 7.16699 73.833 21.5 103.5s33.833 52.5 58.5 68.5s51 27.833 79 35.5s58 11.5 90 11.5c73.333 0 130.333 -14 171 -42z" />
    <glyph glyph-name="sacute" unicode="&#x15b;" horiz-adv-x="516" 
d="M382 478c32.667 -16 61.999 -40.332 87.999 -72.999l-105 -93c-4.66699 6 -11.5 13.167 -20.5 21.5s-23 17.333 -42 27s-38.167 14.5 -57.5 14.5c-17.333 0 -28.666 -1.5 -33.999 -4.5s-8.33301 -7.5 -9 -13.5c-3.33301 -11.333 2.33398 -20.333 17.001 -27
c0.666992 0 15.667 -4 45 -12c52 -14 84.333 -23.667 97 -29c14 -4.66699 27.333 -10.167 40 -16.5s26.334 -15.166 41.001 -26.499s26.5 -26 35.5 -44s13.5 -38 13.5 -60c0 -38.667 -11.167 -70.5 -33.5 -95.5s-49 -42 -80 -51s-65.167 -12.833 -102.5 -11.5
c-56 1.33301 -102.333 11 -139 29c-42 21.333 -75.333 51 -100 89l-11 15l130 59c40 -40 80 -60 120 -60c29.333 0 44.666 6 45.999 18c1.33301 11.333 -5.33398 20.333 -20.001 27c-12 5.33301 -27 9.66602 -45 12.999c-46.667 11.333 -78.667 20.333 -96 27
c-14 4 -27.5 9.33301 -40.5 16s-27 15.667 -42 27s-27.167 26.166 -36.5 44.499s-14 38.5 -14 60.5c0 38 10.833 69.5 32.5 94.5s47.5 42.167 77.5 51.5s63.333 14 100 14c60.667 0 109 -10.333 145 -31zM455.999 660.001l-248 -104l-28 66l219 142z" />
    <glyph glyph-name="Scircumflex" unicode="&#x15c;" horiz-adv-x="600" 
d="M446 667c40 -24 74.3311 -56.668 102.998 -98.001l-120 -122c-10.667 18.667 -29.667 37.5 -57 56.5s-56.666 28.5 -87.999 28.5c-16 0 -28.333 -1.5 -37 -4.5s-13.834 -6.16699 -15.501 -9.5s-3.16699 -8.33301 -4.5 -15c-1.33301 -14 3.83398 -26.5 15.501 -37.5
s27.667 -20.5 48 -28.5s43 -16 68 -24s50.167 -17.667 75.5 -29s48.5 -24.5 69.5 -39.5s38.167 -34.833 51.5 -59.5s20 -52.667 20 -84c0 -40 -7.33301 -74.833 -22 -104.5s-34.667 -52.5 -60 -68.5s-52.5 -27.5 -81.5 -34.5s-59.833 -10.167 -92.5 -9.5
c-70.667 3.33301 -125.334 17 -164.001 41c-47.333 28.667 -87 69.667 -119 123v-1l-5.5 8c-2.33301 3.33301 -4.16602 6.33301 -5.49902 9l150 78c7.33301 -10 16.666 -20.5 27.999 -31.5s28 -22.167 50 -33.5s44 -17 66 -17c40 0 60.667 9.66699 62 29
c1.33301 16 -8.33398 30.667 -29.001 44c-5.33301 1.33301 -18.5 5 -39.5 11s-35.5 10.333 -43.5 13l-42.5 14c-20.333 6.66699 -35.166 12.334 -44.499 17.001l-40 20c-17.333 8.66699 -30.166 17 -38.499 25l-30.5 29.5c-12 11.667 -20.667 23.667 -26 36
s-10.166 26.333 -14.499 42s-6.5 32.167 -6.5 49.5c0 39.333 7.16699 73.833 21.5 103.5s33.833 52.5 58.5 68.5s51 27.833 79 35.5s58 11.5 90 11.5c73.333 0 130.333 -14 171 -42zM293.998 954.999l182 -128l-68 -76l-114 96l-123 -96l-59 76z" />
    <glyph glyph-name="scircumflex" unicode="&#x15d;" horiz-adv-x="516" 
d="M382 478c32.667 -16 61.999 -40.332 87.999 -72.999l-105 -93c-4.66699 6 -11.5 13.167 -20.5 21.5s-23 17.333 -42 27s-38.167 14.5 -57.5 14.5c-17.333 0 -28.666 -1.5 -33.999 -4.5s-8.33301 -7.5 -9 -13.5c-3.33301 -11.333 2.33398 -20.333 17.001 -27
c0.666992 0 15.667 -4 45 -12c52 -14 84.333 -23.667 97 -29c14 -4.66699 27.333 -10.167 40 -16.5s26.334 -15.166 41.001 -26.499s26.5 -26 35.5 -44s13.5 -38 13.5 -60c0 -38.667 -11.167 -70.5 -33.5 -95.5s-49 -42 -80 -51s-65.167 -12.833 -102.5 -11.5
c-56 1.33301 -102.333 11 -139 29c-42 21.333 -75.333 51 -100 89l-11 15l130 59c40 -40 80 -60 120 -60c29.333 0 44.666 6 45.999 18c1.33301 11.333 -5.33398 20.333 -20.001 27c-12 5.33301 -27 9.66602 -45 12.999c-46.667 11.333 -78.667 20.333 -96 27
c-14 4 -27.5 9.33301 -40.5 16s-27 15.667 -42 27s-27.167 26.166 -36.5 44.499s-14 38.5 -14 60.5c0 38 10.833 69.5 32.5 94.5s47.5 42.167 77.5 51.5s63.333 14 100 14c60.667 0 109 -10.333 145 -31zM247.999 760.001l182 -128l-68 -76l-114 96l-123 -96l-59 76z" />
    <glyph glyph-name="Scedilla" unicode="&#x15e;" horiz-adv-x="600" 
d="M446 667c40 -24 74.3311 -56.6689 102.998 -98.002l-120 -122c-10.667 18.667 -29.667 37.5 -57 56.5s-56.666 28.5 -87.999 28.5c-16 0 -28.333 -1.5 -37 -4.5s-13.834 -6.16699 -15.501 -9.5s-3.16699 -8.33301 -4.5 -15c-1.33301 -14 3.83398 -26.5 15.501 -37.5
s27.667 -20.5 48 -28.5s43 -16 68 -24s50.167 -17.667 75.5 -29s48.5 -24.5 69.5 -39.5s38.167 -34.833 51.5 -59.5s20 -52.667 20 -84c0 -40 -7.33301 -74.833 -22 -104.5s-34.667 -52.5 -60 -68.5s-52.5 -27.5 -81.5 -34.5s-59.833 -10.167 -92.5 -9.5h-9l-1 -19
c36 -2.66699 62 -14.667 78 -36c8 -10 12.333 -20.667 13 -32c0 -43.333 -31 -74.333 -93 -93c-26 -8 -57 -12.667 -93 -14l-15 72c17.333 0.666992 33.666 2.66699 48.999 6c33.333 6.66699 50 16 50 28c0 17.333 -21.667 26 -65 26l-3 74
c-30 6.66699 -55 16.334 -75 29.001c-47.333 28.667 -87 69.667 -119 123v-1l-5.5 8c-2.33301 3.33301 -4.16602 6.33301 -5.49902 9l150 78c7.33301 -10 16.666 -20.5 27.999 -31.5s28 -22.167 50 -33.5s44 -17 66 -17c40 0 60.667 9.66699 62 29
c1.33301 16 -8.33398 30.667 -29.001 44c-5.33301 1.33301 -18.5 5 -39.5 11s-35.5 10.333 -43.5 13l-42.5 14c-20.333 6.66699 -35.166 12.334 -44.499 17.001l-40 20c-17.333 8.66699 -30.166 17 -38.499 25l-30.5 29.5c-12 11.667 -20.667 23.667 -26 36
s-10.166 26.333 -14.499 42s-6.5 32.167 -6.5 49.5c0 39.333 7.16699 73.833 21.5 103.5s33.833 52.5 58.5 68.5s51 27.833 79 35.5s58 11.5 90 11.5c73.333 0 130.333 -14 171 -42z" />
    <glyph glyph-name="scedilla" unicode="&#x15f;" horiz-adv-x="516" 
d="M382 478c32.667 -16 62.001 -40.3301 88.001 -72.9971l-105 -93c-4.66699 6 -11.5 13.167 -20.5 21.5s-23 17.333 -42 27s-38.167 14.5 -57.5 14.5c-17.333 0 -28.666 -1.5 -33.999 -4.5s-8.33301 -7.5 -9 -13.5c-3.33301 -11.333 2.33398 -20.333 17.001 -27
c0.666992 0 15.667 -4 45 -12c52 -14 84.333 -23.667 97 -29c14 -4.66699 27.333 -10.167 40 -16.5s26.334 -15.166 41.001 -26.499s26.5 -26 35.5 -44s13.5 -38 13.5 -60c0 -52 -18.667 -90.833 -56 -116.5s-83.333 -39.5 -138 -41.5l-1 -19c36 -2.66699 62 -14.667 78 -36
c8 -10 12.333 -20.667 13 -32c0 -43.333 -31 -74.333 -93 -93c-26 -8 -57 -12.667 -93 -14l-15 72c17.333 0.666992 33.666 2.66699 48.999 6c33.333 6.66699 50 16 50 28c0 17.333 -21.667 26 -65 26l-3 67c-34.667 5.33301 -61.667 13.333 -81 24
c-18 8.66699 -34.5 19.667 -49.5 33s-25.833 24.166 -32.5 32.499s-16.334 21.166 -29.001 38.499l130 59c40 -40 80 -60 120 -60c29.333 0 44.666 6 45.999 18c1.33301 11.333 -5.33398 20.333 -20.001 27c-12 5.33301 -27 9.66602 -45 12.999
c-46.667 11.333 -78.667 20.333 -96 27c-14 4 -27.5 9.33301 -40.5 16s-27 15.667 -42 27s-27.167 26.166 -36.5 44.499s-14 38.5 -14 60.5c0 38 10.833 69.5 32.5 94.5s47.5 42.167 77.5 51.5s63.333 14 100 14c60.667 0 109 -10.333 145 -31z" />
    <glyph glyph-name="Scaron" unicode="&#x160;" horiz-adv-x="600" 
d="M446 667c40 -24 74.3311 -56.668 102.998 -98.001l-120 -122c-10.667 18.667 -29.667 37.5 -57 56.5s-56.666 28.5 -87.999 28.5c-16 0 -28.333 -1.5 -37 -4.5s-13.834 -6.16699 -15.501 -9.5s-3.16699 -8.33301 -4.5 -15c-1.33301 -14 3.83398 -26.5 15.501 -37.5
s27.667 -20.5 48 -28.5s43 -16 68 -24s50.167 -17.667 75.5 -29s48.5 -24.5 69.5 -39.5s38.167 -34.833 51.5 -59.5s20 -52.667 20 -84c0 -40 -7.33301 -74.833 -22 -104.5s-34.667 -52.5 -60 -68.5s-52.5 -27.5 -81.5 -34.5s-59.833 -10.167 -92.5 -9.5
c-70.667 3.33301 -125.334 17 -164.001 41c-47.333 28.667 -87 69.667 -119 123v-1l-5.5 8c-2.33301 3.33301 -4.16602 6.33301 -5.49902 9l150 78c7.33301 -10 16.666 -20.5 27.999 -31.5s28 -22.167 50 -33.5s44 -17 66 -17c40 0 60.667 9.66699 62 29
c1.33301 16 -8.33398 30.667 -29.001 44c-5.33301 1.33301 -18.5 5 -39.5 11s-35.5 10.333 -43.5 13l-42.5 14c-20.333 6.66699 -35.166 12.334 -44.499 17.001l-40 20c-17.333 8.66699 -30.166 17 -38.499 25l-30.5 29.5c-12 11.667 -20.667 23.667 -26 36
s-10.166 26.333 -14.499 42s-6.5 32.167 -6.5 49.5c0 39.333 7.16699 73.833 21.5 103.5s33.833 52.5 58.5 68.5s51 27.833 79 35.5s58 11.5 90 11.5c73.333 0 130.333 -14 171 -42zM461.998 876.999l-182 -128l-182 128l59 76l123 -96l114 96z" />
    <glyph glyph-name="scaron" unicode="&#x161;" horiz-adv-x="516" 
d="M382 478c32.667 -16 61.999 -40.332 87.999 -72.999l-105 -93c-4.66699 6 -11.5 13.167 -20.5 21.5s-23 17.333 -42 27s-38.167 14.5 -57.5 14.5c-17.333 0 -28.666 -1.5 -33.999 -4.5s-8.33301 -7.5 -9 -13.5c-3.33301 -11.333 2.33398 -20.333 17.001 -27
c0.666992 0 15.667 -4 45 -12c52 -14 84.333 -23.667 97 -29c14 -4.66699 27.333 -10.167 40 -16.5s26.334 -15.166 41.001 -26.499s26.5 -26 35.5 -44s13.5 -38 13.5 -60c0 -38.667 -11.167 -70.5 -33.5 -95.5s-49 -42 -80 -51s-65.167 -12.833 -102.5 -11.5
c-56 1.33301 -102.333 11 -139 29c-42 21.333 -75.333 51 -100 89l-11 15l130 59c40 -40 80 -60 120 -60c29.333 0 44.666 6 45.999 18c1.33301 11.333 -5.33398 20.333 -20.001 27c-12 5.33301 -27 9.66602 -45 12.999c-46.667 11.333 -78.667 20.333 -96 27
c-14 4 -27.5 9.33301 -40.5 16s-27 15.667 -42 27s-27.167 26.166 -36.5 44.499s-14 38.5 -14 60.5c0 38 10.833 69.5 32.5 94.5s47.5 42.167 77.5 51.5s63.333 14 100 14c60.667 0 109 -10.333 145 -31zM429.999 683.001l-182 -128l-182 128l59 76l123 -96l114 96z" />
    <glyph glyph-name="Tcommaaccent" unicode="&#x162;" horiz-adv-x="555" 
d="M256 -15c40.667 0 65 -21.335 73 -64.002c0 -2 0.166992 -5.66699 0.5 -11s0.5 -9.33301 0.5 -12c0 -6 -0.666992 -15 -2 -27c-5.33301 -24.667 -19.166 -44.667 -41.499 -60s-47.166 -23 -74.499 -23c-18 0 -27 8.66699 -27 26c0 5.33301 2 10 6 14l6 3
c13.333 0 27.166 3.33301 41.499 10s25.166 15.667 32.499 27c-2.66699 0 -5.5 -0.166992 -8.5 -0.5s-5.16699 -0.5 -6.5 -0.5c-15.333 0 -27.833 2.5 -37.5 7.5s-16.334 11.5 -20.001 19.5s-6 14.167 -7 18.5s-1.5 8.83301 -1.5 13.5s0.5 9.33398 1.5 14.001
s3.5 10.834 7.5 18.501s10.833 14 20.5 19s21.834 7.5 36.501 7.5zM33 691.998c0.666992 0 83.332 1.66992 247.999 5.00293s247.334 4.66602 248.001 3.99902v-31c0 -6 0.166992 -16.833 0.5 -32.5s0.5 -27.834 0.5 -36.501v-99l-49 -3
c-11.333 -1.33301 -30.333 -2.5 -57 -3.5s-46.667 -1.83301 -60 -2.5l4 -493h-206c1.33301 72.667 3 128 5 166c4 124.667 7.66699 230 11 316h-1c-12.667 -0.666992 -31.167 -1.5 -55.5 -2.5s-41.5 -2.16699 -51.5 -3.5l-44 -3c-0.666992 0 -0.5 18.167 0.5 54.5
s2.16699 72.666 3.5 108.999s2.33301 54.833 3 55.5z" />
    <glyph glyph-name="tcommaaccent" unicode="&#x163;" horiz-adv-x="512" 
d="M115 309l-86 -4l-1 11c0 7.33301 -0.166992 19 -0.5 35s-0.5 29.333 -0.5 40l-2 86l31 -2l59 -3v102l192 19c-1.33301 -22.667 -2 -62.334 -2 -119.001c73.333 3.33301 120.333 5 141 5l1 -45c0.666992 -29.333 1 -56.666 1 -81.999v-46c-20 0 -35.333 0.333008 -46 1
c-36 1.33301 -69.333 2 -100 2v-38c0 -60.667 18 -91 54 -91c14.667 0 29.834 5.66699 45.501 17s27.167 21.666 34.5 30.999s12 16 14 20l74 -175c-59.333 -59.333 -135 -89 -227 -89c-72.667 0 -124.334 35 -155.001 105c-3.33301 7.33301 -6.33301 15 -9 23
s-4.83398 16.5 -6.50098 25.5l-4.5 24.5c-1.33301 7.33301 -2.5 16.333 -3.5 27s-1.66699 18.834 -2 24.501s-0.666016 14.5 -0.999023 26.5s-0.5 20 -0.5 24v24v21zM315 -45c40.667 0 65 -21.335 73 -64.002c0 -2 0.166992 -5.66699 0.5 -11s0.5 -9.33301 0.5 -12
c0 -6 -0.666992 -15 -2 -27c-5.33301 -24.667 -19.166 -44.667 -41.499 -60s-47.166 -23 -74.499 -23c-18 0 -27 8.66699 -27 26c0 5.33301 2 10 6 14l6 3c13.333 0 27.166 3.33301 41.499 10s25.166 15.667 32.499 27c-2.66699 0 -5.5 -0.166992 -8.5 -0.5
s-5.16699 -0.5 -6.5 -0.5c-15.333 0 -27.833 2.5 -37.5 7.5s-16.334 11.5 -20.001 19.5s-6 14.167 -7 18.5s-1.5 8.83301 -1.5 13.5s0.5 9.33398 1.5 14.001s3.5 10.834 7.5 18.501s10.833 14 20.5 19s21.834 7.5 36.501 7.5z" />
    <glyph glyph-name="Tcaron" unicode="&#x164;" horiz-adv-x="555" 
d="M33 692c0.666992 0 83.332 1.66992 247.999 5.00293s247.334 4.66602 248.001 3.99902v-31c0 -6 0.166992 -16.833 0.5 -32.5s0.5 -27.834 0.5 -36.501v-99l-49 -3c-11.333 -1.33301 -30.333 -2.5 -57 -3.5s-46.667 -1.83301 -60 -2.5l4 -493h-206
c1.33301 72.667 3 128 5 166c4 124.667 7.66699 230 11 316h-1c-12.667 -0.666992 -31.167 -1.5 -55.5 -2.5s-41.5 -2.16699 -51.5 -3.5l-44 -3c-0.666992 0 -0.5 18.167 0.5 54.5s2.16699 72.666 3.5 108.999s2.33301 54.833 3 55.5zM458.998 878.003l-182 -128l-182 128
l59 76l123 -96l114 96z" />
    <glyph glyph-name="tcaron" unicode="&#x165;" horiz-adv-x="611" 
d="M105 309l-86 -4l-1 11c0 7.33301 -0.166992 19 -0.5 35s-0.5 29.333 -0.5 40l-2 86l31 -2l59 -3v102l192 19c-1.33301 -22.667 -2 -62.334 -2 -119.001c73.333 3.33301 120.333 5 141 5l1 -45c0.666992 -29.333 1 -56.666 1 -81.999v-46c-20 0 -35.333 0.333008 -46 1
c-36 1.33301 -69.333 2 -100 2v-38c0 -60.667 18 -91 54 -91c14.667 0 29.834 5.66699 45.501 17s27.167 21.666 34.5 30.999s12 16 14 20l74 -175c-59.333 -59.333 -135 -89 -227 -89c-72.667 0 -124.334 35 -155.001 105c-3.33301 7.33301 -6.33301 15 -9 23
s-4.83398 16.5 -6.50098 25.5l-4.5 24.5c-1.33301 7.33301 -2.5 16.333 -3.5 27s-1.66699 18.834 -2 24.501s-0.666016 14.5 -0.999023 26.5s-0.5 20 -0.5 24v24v21zM532 624c23.333 0 41.666 -7.49902 54.999 -22.499s22 -34.5 26 -58.5c0 -4 0.166992 -9.33301 0.5 -16
s0.5 -11.334 0.5 -14.001c0 -8.66699 -0.666992 -20.334 -2 -35.001c-6 -33.333 -21.167 -59.666 -45.5 -78.999s-51.833 -29 -82.5 -29c-19.333 0 -29 11 -29 33c0 8.66699 2 15 6 19c1.33301 1.33301 3.33301 2.66602 6 3.99902c15.333 0 30.833 4 46.5 12
s27.834 19.333 36.501 34h-18c-16 0 -29.333 3.16699 -40 9.5s-18 14.5 -22 24.5s-6.5 17.833 -7.5 23.5s-1.5 11.5 -1.5 17.5s0.666992 12.333 2 19s4 14.834 8 24.501s11.167 17.667 21.5 24s23.5 9.5 39.5 9.5z" />
    <glyph glyph-name="Tbar" unicode="&#x166;" horiz-adv-x="555" 
d="M33 692c0.666992 0 83.333 1.66992 248 5.00293s247.334 4.66602 248.001 3.99902v-31c0 -6 0.166992 -16.833 0.5 -32.5s0.5 -27.834 0.5 -36.501v-99l-49 -3c-11.333 -1.33301 -30.333 -2.5 -57 -3.5s-46.667 -1.83301 -60 -2.5v-70l150 3v-111h-149l3 -315h-206l3 97
c1.33301 22 2.66602 58.333 3.99902 109s2.33301 87 3 109h-130v101l134 3c0 15.333 0.666992 36.333 2 63h-1c-12.667 -0.666992 -31.167 -1.5 -55.5 -2.5s-41.5 -2.16699 -51.5 -3.5l-44 -3c-0.666992 0 -0.5 18.167 0.5 54.5s2.16699 72.666 3.5 108.999
s2.33301 54.833 3 55.5z" />
    <glyph glyph-name="tbar" unicode="&#x167;" horiz-adv-x="512" 
d="M23 442v100.999l92 2v29l192 19c-0.666992 -4.66699 -1 -19.334 -1 -44.001l139 4v-111h-140v-28c73.333 3.33301 120.333 5 141 5c0 -26 0.333008 -44.667 1 -56c0 -5.33301 0.166992 -12.333 0.5 -21s0.5 -14.667 0.5 -18v-18c-20 0 -35.333 0.333008 -46 1
c-36 1.33301 -69.333 2 -100 2v-38c0 -60.667 18 -91 54 -91c14.667 0 29.834 5.66699 45.501 17s27.167 21.666 34.5 30.999s12 16 14 20l74 -175c-59.333 -59.333 -135 -89 -227 -89c-72.667 0 -124.334 35 -155.001 105c-3.33301 7.33301 -6.33301 15 -9 23
s-4.83398 16.5 -6.50098 25.5l-4.5 24.5c-1.33301 7.33301 -2.5 16.333 -3.5 27s-1.66699 18.834 -2 24.501s-0.666016 14.5 -0.999023 26.5s-0.5 20 -0.5 24v24v21l-86 -4l-1 7c0 4.66699 -0.166992 12.334 -0.5 23.001s-0.5 19.334 -0.5 26.001l-2 56l31 -2l59 -3v30h-92z
" />
    <glyph glyph-name="Utilde" unicode="&#x168;" horiz-adv-x="626" 
d="M303 -15c-51.333 0 -95.666 9.66602 -132.999 28.999s-65.666 44.5 -84.999 75.5s-34 67.5 -44 109.5s-15.167 83.667 -15.5 125s1.66699 84.166 6 128.499s9.66602 82.333 15.999 114s12.5 60.5 18.5 86.5s9 40 9 42l214 6c-8 -31.333 -16 -68.833 -24 -112.5
s-16.167 -100 -24.5 -169s-6.83301 -126.5 4.5 -172.5s33.666 -69 66.999 -69c20 0 36.333 8.16699 49 24.5s21.167 38.666 25.5 66.999s7 58.333 8 90s-0.333008 66.5 -4 104.5s-7.33398 70.833 -11.001 98.5s-7.66699 55.5 -12 83.5s-6.83301 44.333 -7.5 49l206 5
c3.33301 -16 6.33301 -31.167 9 -45.5s6.5 -39.5 11.5 -75.5s8.5 -69.167 10.5 -99.5s2.66699 -66.666 2 -108.999s-4.16699 -80.166 -10.5 -113.499s-16.5 -67.666 -30.5 -102.999s-31.667 -64.833 -53 -88.5s-49.166 -43 -83.499 -58s-73.833 -22.5 -118.5 -22.5z
M402 746.999c-20 0 -43.667 7.66797 -71 23.001c-3.33301 1.33301 -8.33301 3.66602 -15 6.99902c-34.667 16 -56.5 21.667 -65.5 17s-12.833 -17.667 -11.5 -39l-89 -8c-5.33301 16 -8 35 -8 57c0 26 7.16699 46.833 21.5 62.5s34.166 23.5 59.499 23.5
c18 0 41.667 -7.66699 71 -23c38 -17.333 61.333 -26 70 -26c16 0 23.333 13.667 22 41l89 8c5.33301 -16 8 -35 8 -57c0 -26 -7.16699 -46.833 -21.5 -62.5s-34.166 -23.5 -59.499 -23.5z" />
    <glyph glyph-name="utilde" unicode="&#x169;" horiz-adv-x="523" 
d="M258 148c16.667 0 29.3311 2.33398 37.998 7.00098l8 323c2.66699 0 7.16699 0.5 13.5 1.5l15.5 2.5c6 1.33301 16.667 2.66602 32 3.99902s26.333 2.33301 33 3c52.667 6 84.334 9.66699 95.001 11l5 -500h-206c0.666992 0.666992 1 3.66699 1 9c0 10 0.333008 19 1 27
l-3 1c-30 -24.667 -70 -37 -120 -37c-29.333 -0 -54.166 5.33301 -74.499 16s-35.333 25.667 -45 45s-16.5 39.5 -20.5 60.5s-6 44.833 -6 71.5l5 285l196 22l-10 -289c0 -42 14 -63 42 -63zM350.997 557.001c-20 0 -43.667 7.66797 -71 23.001
c-3.33301 1.33301 -8.33301 3.66602 -15 6.99902c-34.667 16 -56.5 21.667 -65.5 17s-12.833 -17.667 -11.5 -39l-89 -8c-5.33301 16 -8 35 -8 57c0 26 7.16699 46.833 21.5 62.5s34.166 23.5 59.499 23.5c18 0 41.667 -7.66699 71 -23c38 -17.333 61.333 -26 70 -26
c16 0 23.333 13.667 22 41l89 8c5.33301 -16 8 -35 8 -57c0 -26 -7.16699 -46.833 -21.5 -62.5s-34.166 -23.5 -59.499 -23.5z" />
    <glyph glyph-name="Umacron" unicode="&#x16a;" horiz-adv-x="626" 
d="M303 -15c-51.333 0 -95.666 9.66602 -132.999 28.999s-65.666 44.5 -84.999 75.5s-34 67.5 -44 109.5s-15.167 83.667 -15.5 125s1.66699 84.166 6 128.499s9.66602 82.333 15.999 114s12.5 60.5 18.5 86.5s9 40 9 42l214 6c-8 -31.333 -16 -68.833 -24 -112.5
s-16.167 -100 -24.5 -169s-6.83301 -126.5 4.5 -172.5s33.666 -69 66.999 -69c20 0 36.333 8.16699 49 24.5s21.167 38.666 25.5 66.999s7 58.333 8 90s-0.333008 66.5 -4 104.5s-7.33398 70.833 -11.001 98.5s-7.66699 55.5 -12 83.5s-6.83301 44.333 -7.5 49l206 5
c3.33301 -16 6.33301 -31.167 9 -45.5s6.5 -39.5 11.5 -75.5s8.5 -69.167 10.5 -99.5s2.66699 -66.666 2 -108.999s-4.16699 -80.166 -10.5 -113.499s-16.5 -67.666 -30.5 -102.999s-31.667 -64.833 -53 -88.5s-49.166 -43 -83.499 -58s-73.833 -22.5 -118.5 -22.5z
M77 749.999v101l472 10v-111h-472z" />
    <glyph glyph-name="umacron" unicode="&#x16b;" horiz-adv-x="523" 
d="M258 148c16.667 0 29.3311 2.33398 37.998 7.00098l8 323c2.66699 0 7.16699 0.5 13.5 1.5l15.5 2.5c6 1.33301 16.667 2.66602 32 3.99902s26.333 2.33301 33 3c52.667 6 84.334 9.66699 95.001 11l5 -500h-206c0.666992 0.666992 1 3.66699 1 9c0 10 0.333008 19 1 27
l-3 1c-30 -24.667 -70 -37 -120 -37c-29.333 -0 -54.166 5.33301 -74.499 16s-35.333 25.667 -45 45s-16.5 39.5 -20.5 60.5s-6 44.833 -6 71.5l5 285l196 22l-10 -289c0 -42 14 -63 42 -63zM25.9971 556.001v101l472 10v-111h-472z" />
    <glyph glyph-name="Ubreve" unicode="&#x16c;" horiz-adv-x="626" 
d="M303 -15c-51.333 0 -95.666 9.66602 -132.999 28.999s-65.666 44.5 -84.999 75.5s-34 67.5 -44 109.5s-15.167 83.667 -15.5 125s1.66699 84.166 6 128.499s9.66602 82.333 15.999 114s12.5 60.5 18.5 86.5s9 40 9 42l214 6c-8 -31.333 -16 -68.833 -24 -112.5
s-16.167 -100 -24.5 -169s-6.83301 -126.5 4.5 -172.5s33.666 -69 66.999 -69c20 0 36.333 8.16699 49 24.5s21.167 38.666 25.5 66.999s7 58.333 8 90s-0.333008 66.5 -4 104.5s-7.33398 70.833 -11.001 98.5s-7.66699 55.5 -12 83.5s-6.83301 44.333 -7.5 49l206 5
c3.33301 -16 6.33301 -31.167 9 -45.5s6.5 -39.5 11.5 -75.5s8.5 -69.167 10.5 -99.5s2.66699 -66.666 2 -108.999s-4.16699 -80.166 -10.5 -113.499s-16.5 -67.666 -30.5 -102.999s-31.667 -64.833 -53 -88.5s-49.166 -43 -83.499 -58s-73.833 -22.5 -118.5 -22.5z
M422 902.999l60.998 -50c-15.333 -34 -37.833 -60 -67.5 -78s-63.834 -27 -102.501 -27c-37.333 0 -71.166 9 -101.499 27s-53.166 43.667 -68.499 77l64 51c28.667 -46.667 64.334 -70 107.001 -70c43.333 0 79.333 23.333 108 70z" />
    </font>
</defs>
</svg>
